<svg width="21" height="21" viewBox="0 0 21 21" fill="none" xmlns="http://www.w3.org/2000/svg">
<path fill-rule="evenodd" clip-rule="evenodd" d="M3.93953 6.60072C3.29835 6.67774 2.23607 5.67647 1.981 4.93927C1.67992 5.53343 1.83996 6.31964 2.21006 7.19188C1.5959 7.57698 1.06376 7.99709 1.12377 8.65927C1.64891 8.43121 2.77121 8.3762 3.04929 8.81232C3.23034 8.0211 3.53442 7.2759 3.94053 6.59872" fill="#6C6F8E"/>
<path fill-rule="evenodd" clip-rule="evenodd" d="M0.544922 12.5901C0.752978 13.2232 1.42216 13.6663 2.2994 14.0214C2.13735 14.7296 2.05833 15.4008 2.56847 15.8299C2.77653 15.3018 3.50972 14.4896 4.01586 14.5726C3.60175 13.9084 3.28566 13.1772 3.08861 12.398C2.6695 12.8901 1.23811 12.9282 0.544922 12.5911" fill="#6C6F8E"/>
<path fill-rule="evenodd" clip-rule="evenodd" d="M8.62881 3.11359C8.11167 2.72348 8.06665 1.25209 8.40975 0.545898C7.77658 0.753954 7.33346 1.42213 6.97936 2.30237C6.27217 2.13933 5.59799 2.06031 5.17188 2.57144C5.71302 2.7845 6.56025 3.55771 6.42022 4.06285C7.0924 3.63673 7.83559 3.31364 8.62881 3.11459" fill="#6C6F8E"/>
<path fill-rule="evenodd" clip-rule="evenodd" d="M20.4532 8.41011C20.2472 7.77594 19.578 7.33482 18.6987 6.97973C18.8628 6.27254 18.9398 5.60036 18.4287 5.17224C18.2166 5.71039 17.4554 6.54961 16.9473 6.42258C17.3734 7.08976 17.6975 7.82795 17.9005 8.61417C18.3076 8.11203 19.755 8.07202 20.4532 8.41011Z" fill="#6C6F8E"/>
<path fill-rule="evenodd" clip-rule="evenodd" d="M16.0592 1.98445C15.464 1.68237 14.6778 1.84241 13.8056 2.21351C13.4225 1.59735 13.0004 1.0662 12.3382 1.12522C12.5712 1.66136 12.6233 2.81167 12.1611 3.06374C12.9623 3.24079 13.7146 3.54387 14.3987 3.95098C14.3107 3.30981 15.319 2.24152 16.0592 1.98445Z" fill="#6C6F8E"/>
<path fill-rule="evenodd" clip-rule="evenodd" d="M17.0879 14.3968C17.7331 14.3548 18.7634 15.3351 19.0144 16.0622C19.3165 15.4671 19.1555 14.6819 18.7854 13.8066C19.4015 13.4225 19.9327 13.0034 19.8737 12.3392C19.3505 12.5673 18.2462 12.6223 17.9561 12.1972C17.7811 12.9834 17.484 13.7236 17.0869 14.3968" fill="#6C6F8E"/>
<path fill-rule="evenodd" clip-rule="evenodd" d="M12.4121 17.9248C12.8872 18.3619 12.9212 19.7693 12.5882 20.4555C13.2223 20.2484 13.6634 19.5782 14.0195 18.701C14.7267 18.864 15.3989 18.9431 15.827 18.4309C15.3039 18.2249 14.4977 17.4997 14.5667 16.9955C13.9095 17.4097 13.1853 17.7267 12.4121 17.9258" fill="#6C6F8E"/>
<path fill-rule="evenodd" clip-rule="evenodd" d="M6.60194 17.0994C6.63395 17.7435 5.65869 18.7648 4.9375 19.0169C5.53266 19.318 6.31787 19.1579 7.1891 18.7878C7.5742 19.404 7.99432 19.9341 8.6605 19.8761C8.43544 19.36 8.37642 18.2837 8.77953 17.9716C8.00132 17.7926 7.26912 17.4955 6.60194 17.0994Z" fill="#6C6F8E"/>
<path fill-rule="evenodd" clip-rule="evenodd" d="M5.9399 4.39099C5.31374 4.22394 4.71257 2.88658 4.75859 2.10437C4.25145 2.53849 4.09941 3.3257 4.10742 4.27395C3.39122 4.39399 2.74005 4.57804 2.54199 5.21521C3.12015 5.20521 4.18743 5.58831 4.26445 6.10545C4.72958 5.45027 5.29573 4.87111 5.9399 4.39199" fill="#6C6F8E"/>
<path fill-rule="evenodd" clip-rule="evenodd" d="M16.6122 5.93761C16.7832 5.31244 18.1176 4.71529 18.8958 4.7603C18.4627 4.25316 17.6755 4.10112 16.7272 4.10912C16.6062 3.39493 16.4231 2.74175 15.787 2.5437C15.796 3.12486 15.4069 4.20515 14.8867 4.26716C15.5459 4.72929 16.1281 5.29344 16.6122 5.93761Z" fill="#6C6F8E"/>
<path fill-rule="evenodd" clip-rule="evenodd" d="M11.5991 2.96159C11.269 2.40544 11.7912 1.02706 12.3783 0.503923C11.7141 0.45391 11.05 0.902032 10.3848 1.57821C9.79563 1.1561 9.20246 0.827011 8.6123 1.13609C9.03242 1.5422 9.52055 2.58448 9.19046 2.99559C9.61658 2.92157 10.0537 2.88256 10.5008 2.88256C10.8739 2.88256 11.241 2.90957 11.5991 2.96159Z" fill="#6C6F8E"/>
<path fill-rule="evenodd" clip-rule="evenodd" d="M15.1016 16.6242C15.7117 16.8393 16.2829 18.1336 16.2389 18.8949C16.745 18.4637 16.897 17.6745 16.89 16.7283C17.6062 16.6072 18.2554 16.4222 18.4555 15.786C17.8903 15.796 16.858 15.4289 16.742 14.9308C16.2859 15.576 15.7317 16.1471 15.1016 16.6232" fill="#6C6F8E"/>
<path fill-rule="evenodd" clip-rule="evenodd" d="M2.93751 9.4134C2.36836 9.71848 1.01699 9.20235 0.501855 8.62219C0.451842 9.28637 0.898962 9.95055 1.57714 10.6157C1.15603 11.2059 0.823943 11.797 1.13403 12.3892C1.53213 11.9771 2.53141 11.503 2.96252 11.788C2.8935 11.3769 2.85749 10.9538 2.85749 10.5237C2.85749 10.1456 2.8855 9.77551 2.93851 9.41241" fill="#6C6F8E"/>
<path fill-rule="evenodd" clip-rule="evenodd" d="M9.42729 18.0908C9.69836 18.677 9.19122 19.9914 8.62207 20.4965C9.28625 20.5465 9.94843 20.1004 10.6156 19.4212C11.2068 19.8443 11.7989 20.1744 12.3871 19.8643C11.985 19.4752 11.5179 18.503 11.7699 18.0588C11.3568 18.1279 10.9327 18.1649 10.4996 18.1649C10.1355 18.1649 9.77739 18.1389 9.42629 18.0888" fill="#6C6F8E"/>
<path fill-rule="evenodd" clip-rule="evenodd" d="M4.37616 15.0979C4.1671 15.709 2.86674 16.2862 2.10254 16.2402C2.53566 16.7463 3.32187 16.8993 4.27112 16.8903C4.39015 17.6065 4.57521 18.2587 5.21138 18.4588C5.20037 17.8946 5.56447 16.8703 6.0586 16.7443C5.41643 16.2852 4.84828 15.729 4.37616 15.0969" fill="#6C6F8E"/>
<path fill-rule="evenodd" clip-rule="evenodd" d="M19.4217 10.3844C19.8418 9.79323 20.1729 9.20407 19.8648 8.61292C19.4647 9.02503 18.4524 9.50516 18.0283 9.20808C18.1033 9.63619 18.1424 10.0753 18.1424 10.5244C18.1424 10.8845 18.1163 11.2386 18.0683 11.5857C18.6425 11.2876 19.9848 11.8028 20.497 12.3799C20.547 11.7138 20.0989 11.0496 19.4227 10.3854" fill="#6C6F8E"/>
<path fill-rule="evenodd" clip-rule="evenodd" d="M10.4996 5.88055C10.6026 5.88055 10.6866 5.96458 10.6866 6.06861C10.6866 6.17263 10.6026 6.25566 10.4996 6.25566C10.3965 6.25566 10.3115 6.17163 10.3125 6.0676C10.3125 5.96458 10.3965 5.88055 10.4996 5.88055Z" fill="#6C6F8E"/>
<path fill-rule="evenodd" clip-rule="evenodd" d="M10.4996 14.7949C10.6026 14.7949 10.6866 14.8789 10.6866 14.9829C10.6866 15.0869 10.6026 15.17 10.4996 15.17C10.3965 15.17 10.3115 15.0859 10.3125 14.9819C10.3125 14.8789 10.3965 14.7949 10.4996 14.7949Z" fill="#6C6F8E"/>
<path fill-rule="evenodd" clip-rule="evenodd" d="M9.80653 5.93237C9.90855 5.91636 10.0036 5.98738 10.0196 6.09041C10.0346 6.19244 9.96457 6.28746 9.86254 6.30347C9.75951 6.31847 9.66449 6.24845 9.64948 6.14542C9.63448 6.0434 9.7045 5.94737 9.80753 5.93237" fill="#6C6F8E"/>
<path fill-rule="evenodd" clip-rule="evenodd" d="M11.1356 14.7468C11.2387 14.7318 11.3327 14.8019 11.3487 14.9049C11.3637 15.0069 11.2937 15.1019 11.1917 15.1179C11.0896 15.1329 10.9936 15.0629 10.9776 14.9599C10.9626 14.8579 11.0326 14.7618 11.1356 14.7468Z" fill="#6C6F8E"/>
<path fill-rule="evenodd" clip-rule="evenodd" d="M9.13026 6.0865C9.22929 6.05549 9.33432 6.1115 9.36433 6.21053C9.39534 6.30856 9.33932 6.41358 9.24029 6.44459C9.14126 6.4756 9.03624 6.41958 9.00623 6.32056C8.97622 6.22253 9.03124 6.1175 9.13026 6.0865Z" fill="#6C6F8E"/>
<path fill-rule="evenodd" clip-rule="evenodd" d="M11.7572 14.6047C11.8562 14.5737 11.9612 14.6297 11.9913 14.7287C12.0223 14.8277 11.9662 14.9318 11.8682 14.9628C11.7692 14.9938 11.6642 14.9378 11.6342 14.8387C11.6042 14.7407 11.6592 14.6357 11.7582 14.6047" fill="#6C6F8E"/>
<path fill-rule="evenodd" clip-rule="evenodd" d="M8.48501 6.34048C8.57804 6.29546 8.69007 6.33548 8.73508 6.4285C8.78009 6.52153 8.74108 6.63356 8.64805 6.67857C8.55503 6.72258 8.443 6.68357 8.39699 6.59054C8.35297 6.49752 8.39199 6.38549 8.48501 6.34048Z" fill="#6C6F8E"/>
<path fill-rule="evenodd" clip-rule="evenodd" d="M12.3518 14.3715C12.4449 14.3265 12.5569 14.3665 12.6019 14.4595C12.6469 14.5525 12.6079 14.6636 12.5149 14.7096C12.4218 14.7546 12.3098 14.7156 12.2638 14.6215C12.2188 14.5285 12.2578 14.4165 12.3518 14.3715Z" fill="#6C6F8E"/>
<path fill-rule="evenodd" clip-rule="evenodd" d="M7.88384 6.68641C7.96886 6.62839 8.08589 6.6504 8.14391 6.73642C8.20192 6.82144 8.17992 6.93847 8.0949 6.99649C8.00987 7.0545 7.89284 7.0325 7.83482 6.94747C7.77681 6.86145 7.79981 6.74542 7.88484 6.6874" fill="#6C6F8E"/>
<path fill-rule="evenodd" clip-rule="evenodd" d="M12.9046 14.0524C12.9896 13.9944 13.1067 14.0164 13.1647 14.1024C13.2227 14.1874 13.2007 14.3044 13.1157 14.3625C13.0306 14.4205 12.9136 14.3975 12.8556 14.3124C12.7976 14.2264 12.8196 14.1104 12.9056 14.0524" fill="#6C6F8E"/>
<path fill-rule="evenodd" clip-rule="evenodd" d="M7.34016 7.11953C7.41618 7.04951 7.53422 7.05351 7.60424 7.12953C7.67526 7.20556 7.67026 7.32458 7.59424 7.3946C7.51822 7.46462 7.39918 7.46062 7.33016 7.3836C7.26014 7.30858 7.26414 7.18955 7.34016 7.11953Z" fill="#6C6F8E"/>
<path fill-rule="evenodd" clip-rule="evenodd" d="M13.4024 13.6556C13.4785 13.5845 13.5975 13.5895 13.6665 13.6656C13.7375 13.7416 13.7325 13.8606 13.6565 13.9306C13.5805 14.0007 13.4615 13.9967 13.3924 13.9196C13.3214 13.8446 13.3254 13.7256 13.4024 13.6556Z" fill="#6C6F8E"/>
<path fill-rule="evenodd" clip-rule="evenodd" d="M6.86756 7.62765C6.93158 7.54663 7.04961 7.53362 7.13063 7.59864C7.21166 7.66266 7.22466 7.78069 7.15964 7.86171C7.09562 7.94274 6.97759 7.95574 6.89657 7.89172C6.81555 7.8277 6.80255 7.70967 6.86756 7.62865" fill="#6C6F8E"/>
<path fill-rule="evenodd" clip-rule="evenodd" d="M13.8363 13.1873C13.9003 13.1063 14.0184 13.0933 14.0994 13.1583C14.1804 13.2223 14.1934 13.3403 14.1284 13.4213C14.0644 13.5024 13.9463 13.5154 13.8653 13.4504C13.7843 13.3863 13.7713 13.2683 13.8363 13.1873Z" fill="#6C6F8E"/>
<path fill-rule="evenodd" clip-rule="evenodd" d="M6.47644 8.20199C6.52846 8.11297 6.64249 8.08196 6.73251 8.13297C6.82153 8.18498 6.85254 8.29902 6.80053 8.38904C6.74851 8.47806 6.63348 8.50907 6.54446 8.45706C6.45543 8.40504 6.42443 8.29001 6.47644 8.20099" fill="#6C6F8E"/>
<path fill-rule="evenodd" clip-rule="evenodd" d="M14.1971 12.6603C14.2492 12.5713 14.3632 12.5403 14.4532 12.5923C14.5422 12.6443 14.5732 12.7583 14.5212 12.8484C14.4692 12.9374 14.3542 12.9684 14.2652 12.9174C14.1761 12.8654 14.1451 12.7503 14.1971 12.6613" fill="#6C6F8E"/>
<path fill-rule="evenodd" clip-rule="evenodd" d="M6.17516 8.82732C6.21317 8.73129 6.3212 8.68328 6.41823 8.72129C6.51425 8.7593 6.56226 8.86833 6.52325 8.96336C6.48524 9.05938 6.37621 9.1074 6.28019 9.06939C6.18516 9.03138 6.13715 8.92234 6.17516 8.82632" fill="#6C6F8E"/>
<path fill-rule="evenodd" clip-rule="evenodd" d="M14.4741 12.0849C14.5121 11.9889 14.6202 11.9409 14.7172 11.9799C14.8132 12.0179 14.8612 12.1269 14.8222 12.222C14.7852 12.318 14.6762 12.366 14.5791 12.328C14.4831 12.29 14.4361 12.181 14.4741 12.0849Z" fill="#6C6F8E"/>
<path fill-rule="evenodd" clip-rule="evenodd" d="M5.97153 9.49027C5.99454 9.39024 6.09457 9.32622 6.19559 9.34923C6.29662 9.37224 6.35964 9.47326 6.33663 9.57429C6.31363 9.67532 6.2126 9.73833 6.11257 9.71432C6.01155 9.69132 5.94853 9.59129 5.97153 9.49027Z" fill="#6C6F8E"/>
<path fill-rule="evenodd" clip-rule="evenodd" d="M14.662 11.4758C14.685 11.3748 14.785 11.3117 14.886 11.3348C14.987 11.3578 15.0501 11.4578 15.0271 11.5598C15.0041 11.6598 14.903 11.7239 14.803 11.6999C14.702 11.6768 14.639 11.5758 14.662 11.4758Z" fill="#6C6F8E"/>
<path fill-rule="evenodd" clip-rule="evenodd" d="M5.86874 10.1767C5.87674 10.0737 5.96676 9.99666 6.06979 10.0047C6.17282 10.0127 6.24984 10.1027 6.24183 10.2057C6.23383 10.3087 6.14381 10.3858 6.04078 10.3778C5.93775 10.3698 5.86073 10.2797 5.86874 10.1767Z" fill="#6C6F8E"/>
<path fill-rule="evenodd" clip-rule="evenodd" d="M14.7574 10.8447C14.7654 10.7417 14.8554 10.6647 14.9585 10.6727C15.0615 10.6807 15.1385 10.7707 15.1305 10.8737C15.1225 10.9768 15.0325 11.0538 14.9295 11.0458C14.8274 11.0378 14.7494 10.9478 14.7574 10.8447Z" fill="#6C6F8E"/>
<path fill-rule="evenodd" clip-rule="evenodd" d="M5.86873 10.8707C5.86073 10.7676 5.93875 10.6776 6.04177 10.6706C6.1448 10.6626 6.23483 10.7406 6.24183 10.8427C6.24883 10.9457 6.17181 11.0357 6.06878 11.0437C5.96575 11.0517 5.87573 10.9737 5.86873 10.8707Z" fill="#6C6F8E"/>
<path fill-rule="evenodd" clip-rule="evenodd" d="M14.7574 10.2064C14.7494 10.1034 14.8274 10.0134 14.9304 10.0064C15.0335 9.99836 15.1225 10.0764 15.1305 10.1784C15.1385 10.2814 15.0605 10.3715 14.9575 10.3795C14.8554 10.3875 14.7644 10.3094 14.7574 10.2064Z" fill="#6C6F8E"/>
<path fill-rule="evenodd" clip-rule="evenodd" d="M5.97056 11.5571C5.94755 11.456 6.01057 11.356 6.1116 11.333C6.21263 11.31 6.31265 11.374 6.33566 11.474C6.35866 11.5751 6.29565 11.6751 6.19462 11.6981C6.0946 11.7211 5.99356 11.6581 5.97056 11.5571Z" fill="#6C6F8E"/>
<path fill-rule="evenodd" clip-rule="evenodd" d="M14.662 9.57542C14.639 9.47439 14.702 9.37436 14.803 9.35135C14.904 9.32835 15.0041 9.39137 15.0271 9.4924C15.0501 9.59342 14.987 9.69345 14.886 9.71646C14.786 9.73946 14.685 9.67645 14.662 9.57542Z" fill="#6C6F8E"/>
<path fill-rule="evenodd" clip-rule="evenodd" d="M6.17417 12.2203C6.13616 12.1243 6.18417 12.0152 6.2802 11.9772C6.37623 11.9392 6.48526 11.9872 6.52327 12.0832C6.56128 12.1793 6.51326 12.2883 6.41724 12.3263C6.32121 12.3633 6.21218 12.3163 6.17417 12.2203Z" fill="#6C6F8E"/>
<path fill-rule="evenodd" clip-rule="evenodd" d="M14.474 8.96521C14.436 8.86918 14.484 8.76016 14.58 8.72215C14.676 8.68414 14.7851 8.73215 14.8231 8.82817C14.8611 8.9242 14.8131 9.03323 14.717 9.07124C14.621 9.10925 14.512 9.06124 14.474 8.96521Z" fill="#6C6F8E"/>
<path fill-rule="evenodd" clip-rule="evenodd" d="M6.47543 12.8453C6.42341 12.7563 6.45442 12.6413 6.54445 12.5892C6.63447 12.5382 6.7485 12.5682 6.79952 12.6583C6.85153 12.7483 6.82052 12.8623 6.7305 12.9143C6.64147 12.9663 6.52644 12.9343 6.47543 12.8453Z" fill="#6C6F8E"/>
<path fill-rule="evenodd" clip-rule="evenodd" d="M14.1981 8.39124C14.1461 8.30221 14.1771 8.18718 14.2671 8.13617C14.3561 8.08416 14.4712 8.11516 14.5222 8.20419C14.5742 8.29421 14.5432 8.40824 14.4532 8.46026C14.3641 8.51227 14.2491 8.48026 14.1981 8.39124Z" fill="#6C6F8E"/>
<path fill-rule="evenodd" clip-rule="evenodd" d="M6.86675 13.4193C6.80273 13.3382 6.81574 13.2202 6.89676 13.1562C6.97778 13.0922 7.09581 13.1052 7.15983 13.1862C7.22385 13.2672 7.21084 13.3852 7.12982 13.4493C7.0488 13.5133 6.93077 13.5003 6.86675 13.4193Z" fill="#6C6F8E"/>
<path fill-rule="evenodd" clip-rule="evenodd" d="M13.8384 7.86383C13.7744 7.78281 13.7874 7.66477 13.8684 7.60076C13.9495 7.53674 14.0675 7.54975 14.1315 7.63077C14.1955 7.71179 14.1825 7.82982 14.1015 7.89384C14.0205 7.95786 13.9024 7.94485 13.8384 7.86383Z" fill="#6C6F8E"/>
<path fill-rule="evenodd" clip-rule="evenodd" d="M7.33919 13.9285C7.26317 13.8584 7.25917 13.7394 7.32918 13.6644C7.3992 13.5884 7.51824 13.5844 7.59326 13.6544C7.66928 13.7244 7.67328 13.8434 7.60326 13.9185C7.53324 13.9945 7.41421 13.9985 7.33919 13.9285Z" fill="#6C6F8E"/>
<path fill-rule="evenodd" clip-rule="evenodd" d="M13.4036 7.39574C13.3276 7.32572 13.3236 7.20669 13.3936 7.13167C13.4637 7.05565 13.5827 7.05165 13.6577 7.12167C13.7337 7.19169 13.7377 7.31072 13.6677 7.38574C13.5977 7.46176 13.4797 7.46576 13.4036 7.39574Z" fill="#6C6F8E"/>
<path fill-rule="evenodd" clip-rule="evenodd" d="M7.88069 14.3607C7.79566 14.3017 7.77266 14.1857 7.83167 14.1007C7.88969 14.0156 8.00672 13.9926 8.09274 14.0516C8.17777 14.1097 8.19977 14.2257 8.14176 14.3117C8.08274 14.3967 7.96671 14.4187 7.88169 14.3607" fill="#6C6F8E"/>
<path fill-rule="evenodd" clip-rule="evenodd" d="M12.9056 6.99768C12.8206 6.93867 12.7986 6.82263 12.8566 6.73761C12.9146 6.65259 13.0307 6.63058 13.1167 6.6886C13.2017 6.74661 13.2237 6.86265 13.1657 6.94867C13.1067 7.03369 12.9907 7.0557 12.9056 6.99768Z" fill="#6C6F8E"/>
<path fill-rule="evenodd" clip-rule="evenodd" d="M8.48268 14.708C8.38966 14.663 8.35065 14.5509 8.39566 14.4579C8.44167 14.3649 8.5527 14.3259 8.64573 14.3709C8.73875 14.4149 8.77776 14.5279 8.73275 14.6209C8.68874 14.714 8.57571 14.753 8.48268 14.708Z" fill="#6C6F8E"/>
<path fill-rule="evenodd" clip-rule="evenodd" d="M12.3538 6.67862C12.2608 6.63361 12.2217 6.52158 12.2668 6.42855C12.3118 6.33553 12.4238 6.29552 12.5168 6.34153C12.6098 6.38654 12.6499 6.49857 12.6039 6.5916C12.5588 6.68462 12.4468 6.72363 12.3538 6.67862Z" fill="#6C6F8E"/>
<path fill-rule="evenodd" clip-rule="evenodd" d="M9.12831 14.9618C9.02928 14.9308 8.97427 14.8267 9.00428 14.7277C9.03529 14.6297 9.13932 14.5737 9.23834 14.6047C9.33737 14.6357 9.39238 14.7397 9.36238 14.8388C9.33137 14.9378 9.22634 14.9928 9.12831 14.9618Z" fill="#6C6F8E"/>
<path fill-rule="evenodd" clip-rule="evenodd" d="M11.7592 6.44454C11.6601 6.41353 11.6051 6.30951 11.6351 6.21048C11.6661 6.11145 11.7712 6.05643 11.8692 6.08744C11.9672 6.11845 12.0232 6.22248 11.9932 6.32251C11.9622 6.42154 11.8572 6.47655 11.7592 6.44554" fill="#6C6F8E"/>
<path fill-rule="evenodd" clip-rule="evenodd" d="M9.8046 15.1169C9.70157 15.1009 9.63255 15.0059 9.64755 14.9039C9.66256 14.8019 9.75858 14.7318 9.86061 14.7468C9.96264 14.7628 10.0337 14.8579 10.0177 14.9609C10.0017 15.0639 9.90663 15.1329 9.8046 15.1179" fill="#6C6F8E"/>
<path fill-rule="evenodd" clip-rule="evenodd" d="M11.1376 6.30267C11.0356 6.28766 10.9655 6.19164 10.9805 6.08961C10.9965 5.98758 11.0916 5.91756 11.1946 5.93257C11.2966 5.94857 11.3666 6.0436 11.3516 6.14662C11.3356 6.24865 11.2406 6.31867 11.1386 6.30367" fill="#6C6F8E"/>
<path fill-rule="evenodd" clip-rule="evenodd" d="M10.6866 3.54576C10.6866 3.64879 10.6026 3.73281 10.4996 3.73281C10.3965 3.73281 10.3115 3.64879 10.3115 3.54576C10.3115 3.44273 10.3955 3.35771 10.4996 3.35871C10.6026 3.35871 10.6866 3.44273 10.6866 3.54576Z" fill="#6C6F8E"/>
<path fill-rule="evenodd" clip-rule="evenodd" d="M10.6866 17.5024C10.6866 17.6055 10.6026 17.6895 10.4996 17.6895C10.3965 17.6895 10.3115 17.6055 10.3115 17.5024C10.3115 17.3994 10.3955 17.3144 10.4996 17.3154C10.6026 17.3154 10.6866 17.3994 10.6866 17.5024Z" fill="#6C6F8E"/>
<path fill-rule="evenodd" clip-rule="evenodd" d="M9.97863 3.5626C9.98963 3.66563 9.91361 3.75765 9.81158 3.76765C9.70955 3.77766 9.61653 3.70264 9.60653 3.59961C9.59553 3.49658 9.67154 3.40456 9.77357 3.39455C9.8766 3.38355 9.96862 3.45957 9.97863 3.5616" fill="#6C6F8E"/>
<path fill-rule="evenodd" clip-rule="evenodd" d="M11.3906 17.4474C11.4016 17.5505 11.3256 17.6425 11.2235 17.6525C11.1205 17.6625 11.0285 17.5875 11.0185 17.4845C11.0085 17.3814 11.0835 17.2894 11.1855 17.2794C11.2885 17.2694 11.3806 17.3444 11.3906 17.4474Z" fill="#6C6F8E"/>
<path fill-rule="evenodd" clip-rule="evenodd" d="M9.27729 3.65183C9.2983 3.75286 9.23328 3.85188 9.13125 3.87289C9.03023 3.89289 8.9312 3.82788 8.91019 3.72685C8.88919 3.62582 8.95421 3.5268 9.05623 3.50579C9.15726 3.48479 9.25629 3.5508 9.27729 3.65183Z" fill="#6C6F8E"/>
<path fill-rule="evenodd" clip-rule="evenodd" d="M12.0875 17.3213C12.1085 17.4224 12.0425 17.5224 11.9415 17.5424C11.8404 17.5634 11.7414 17.4974 11.7204 17.3964C11.7004 17.2953 11.7654 17.1963 11.8664 17.1753C11.9675 17.1543 12.0665 17.2203 12.0875 17.3203" fill="#6C6F8E"/>
<path fill-rule="evenodd" clip-rule="evenodd" d="M8.5884 3.8099C8.61941 3.90793 8.56439 4.01396 8.46536 4.04397C8.36734 4.07497 8.26131 4.01996 8.2313 3.92093C8.20029 3.8219 8.25531 3.71688 8.35433 3.68587C8.45236 3.65486 8.55839 3.71088 8.5884 3.8089" fill="#6C6F8E"/>
<path fill-rule="evenodd" clip-rule="evenodd" d="M12.7661 17.1262C12.7971 17.2243 12.7421 17.3303 12.6431 17.3613C12.5451 17.3923 12.439 17.3373 12.409 17.2383C12.378 17.1392 12.433 17.0342 12.5321 17.0042C12.6301 16.9732 12.7361 17.0282 12.7671 17.1262" fill="#6C6F8E"/>
<path fill-rule="evenodd" clip-rule="evenodd" d="M7.91997 4.03792C7.96099 4.13294 7.91697 4.24297 7.82194 4.28398C7.72692 4.32499 7.61689 4.28098 7.57588 4.18596C7.53487 4.09093 7.57888 3.9809 7.67491 3.93989C7.76993 3.89888 7.87997 3.94389 7.92098 4.03792" fill="#6C6F8E"/>
<path fill-rule="evenodd" clip-rule="evenodd" d="M13.4229 16.8632C13.4629 16.9582 13.4189 17.0682 13.3249 17.1093C13.2299 17.1503 13.1198 17.1063 13.0788 17.0112C13.0378 16.9162 13.0818 16.8062 13.1769 16.7652C13.2719 16.7242 13.3819 16.7682 13.4229 16.8632Z" fill="#6C6F8E"/>
<path fill-rule="evenodd" clip-rule="evenodd" d="M7.27721 4.33196C7.32722 4.42299 7.29421 4.53602 7.20419 4.58703C7.11416 4.63704 7.00013 4.60503 6.95012 4.51401C6.90011 4.42398 6.93311 4.30996 7.02314 4.25894C7.11416 4.20993 7.22719 4.24194 7.27821 4.33196" fill="#6C6F8E"/>
<path fill-rule="evenodd" clip-rule="evenodd" d="M14.0487 16.5353C14.0987 16.6263 14.0657 16.7403 13.9757 16.7903C13.8856 16.8403 13.7716 16.8083 13.7216 16.7173C13.6716 16.6273 13.7046 16.5133 13.7946 16.4623C13.8856 16.4132 13.9987 16.4452 14.0497 16.5353" fill="#6C6F8E"/>
<path fill-rule="evenodd" clip-rule="evenodd" d="M6.66731 4.68919C6.72633 4.77421 6.70532 4.89124 6.6203 4.94926C6.53528 5.00827 6.41824 4.98727 6.35923 4.90224C6.30121 4.81822 6.32122 4.70019 6.40624 4.64218C6.49127 4.58216 6.6083 4.60316 6.66731 4.68919Z" fill="#6C6F8E"/>
<path fill-rule="evenodd" clip-rule="evenodd" d="M14.6394 16.1453C14.6984 16.2304 14.6774 16.3474 14.5924 16.4054C14.5074 16.4644 14.3904 16.4434 14.3313 16.3584C14.2723 16.2734 14.2933 16.1563 14.3784 16.0983C14.4634 16.0393 14.5804 16.0603 14.6394 16.1453Z" fill="#6C6F8E"/>
<path fill-rule="evenodd" clip-rule="evenodd" d="M6.09699 5.10706C6.16401 5.18608 6.15501 5.30412 6.07699 5.37113C5.99797 5.43915 5.87993 5.43015 5.81292 5.35113C5.7449 5.27311 5.7549 5.15407 5.83292 5.08705C5.91094 5.01904 6.02997 5.02804 6.09699 5.10706Z" fill="#6C6F8E"/>
<path fill-rule="evenodd" clip-rule="evenodd" d="M15.1862 15.6971C15.2532 15.7762 15.2442 15.8942 15.1662 15.9612C15.0872 16.0292 14.9691 16.0202 14.9021 15.9412C14.8341 15.8632 14.8431 15.7442 14.9221 15.6771C15.0001 15.6091 15.1192 15.6181 15.1862 15.6971Z" fill="#6C6F8E"/>
<path fill-rule="evenodd" clip-rule="evenodd" d="M5.57114 5.58031C5.64616 5.65133 5.64916 5.77036 5.57714 5.84438C5.50612 5.9194 5.38709 5.9224 5.31307 5.85138C5.23805 5.78036 5.23505 5.66133 5.30707 5.58631C5.37809 5.51129 5.49712 5.50929 5.57114 5.58031Z" fill="#6C6F8E"/>
<path fill-rule="evenodd" clip-rule="evenodd" d="M15.6854 15.1968C15.7604 15.2678 15.7634 15.3869 15.6914 15.4619C15.6204 15.5369 15.5014 15.5399 15.4273 15.4689C15.3523 15.3979 15.3493 15.2788 15.4213 15.2038C15.4924 15.1288 15.6114 15.1268 15.6854 15.1978" fill="#6C6F8E"/>
<path fill-rule="evenodd" clip-rule="evenodd" d="M5.09633 6.10347C5.17835 6.16649 5.19235 6.28452 5.12934 6.36554C5.06632 6.44756 4.94729 6.46257 4.86626 6.39855C4.78424 6.33553 4.77024 6.2175 4.83325 6.13648C4.89627 6.05446 5.0143 6.03945 5.09633 6.10247" fill="#6C6F8E"/>
<path fill-rule="evenodd" clip-rule="evenodd" d="M16.1315 14.6488C16.2135 14.7119 16.2275 14.8299 16.1645 14.9109C16.1015 14.9929 15.9834 15.0079 15.9014 14.9449C15.8194 14.8819 15.8054 14.7639 15.8684 14.6829C15.9314 14.6008 16.0495 14.5858 16.1315 14.6498" fill="#6C6F8E"/>
<path fill-rule="evenodd" clip-rule="evenodd" d="M4.67775 6.67244C4.76577 6.72746 4.79178 6.84249 4.73777 6.93052C4.68275 7.01754 4.56672 7.04454 4.4797 6.98953C4.39167 6.93551 4.36567 6.81948 4.41968 6.73246C4.4747 6.64443 4.58972 6.61743 4.67775 6.67244Z" fill="#6C6F8E"/>
<path fill-rule="evenodd" clip-rule="evenodd" d="M16.5195 14.0574C16.6076 14.1125 16.6336 14.2275 16.5796 14.3155C16.5246 14.4025 16.4085 14.4295 16.3215 14.3745C16.2335 14.3205 16.2075 14.2045 16.2615 14.1175C16.3165 14.0294 16.4315 14.0034 16.5195 14.0574Z" fill="#6C6F8E"/>
<path fill-rule="evenodd" clip-rule="evenodd" d="M4.31746 7.28177C4.41048 7.32678 4.44849 7.43982 4.40248 7.53284C4.35747 7.62587 4.24444 7.66388 4.15241 7.61887C4.05939 7.57286 4.02138 7.46082 4.06739 7.3678C4.1124 7.27477 4.22543 7.23776 4.31746 7.28277" fill="#6C6F8E"/>
<path fill-rule="evenodd" clip-rule="evenodd" d="M16.8468 13.4302C16.9398 13.4752 16.9778 13.5883 16.9318 13.6813C16.8868 13.7743 16.7738 13.8123 16.6807 13.7673C16.5877 13.7213 16.5497 13.6093 16.5957 13.5162C16.6407 13.4232 16.7538 13.3862 16.8458 13.4312" fill="#6C6F8E"/>
<path fill-rule="evenodd" clip-rule="evenodd" d="M4.02184 7.92277C4.11886 7.95878 4.16888 8.0668 4.13187 8.16383C4.09586 8.26086 3.98783 8.30987 3.8908 8.27386C3.79378 8.23785 3.74377 8.12982 3.78078 8.03279C3.81679 7.93577 3.92481 7.88676 4.02084 7.92277" fill="#6C6F8E"/>
<path fill-rule="evenodd" clip-rule="evenodd" d="M17.1078 12.7741C17.2048 12.8101 17.2548 12.9181 17.2178 13.0151C17.1818 13.1122 17.0738 13.1622 16.9767 13.1252C16.8797 13.0891 16.8297 12.9811 16.8667 12.8841C16.9027 12.7871 17.0107 12.7371 17.1068 12.7741" fill="#6C6F8E"/>
<path fill-rule="evenodd" clip-rule="evenodd" d="M3.79077 8.59225C3.89079 8.61826 3.95081 8.72028 3.9248 8.82031C3.8988 8.92033 3.79677 8.98035 3.69674 8.95435C3.59671 8.92834 3.5367 8.82631 3.56271 8.72628C3.58871 8.62625 3.69074 8.56624 3.79077 8.59225Z" fill="#6C6F8E"/>
<path fill-rule="evenodd" clip-rule="evenodd" d="M17.3005 12.094C17.4006 12.12 17.4606 12.223 17.4346 12.322C17.4086 12.422 17.3065 12.4821 17.2065 12.4561C17.1065 12.43 17.0465 12.328 17.0725 12.228C17.0985 12.128 17.2005 12.068 17.3005 12.094Z" fill="#6C6F8E"/>
<path fill-rule="evenodd" clip-rule="evenodd" d="M3.62964 9.28009C3.73167 9.29609 3.80268 9.39212 3.78568 9.49414C3.77068 9.59617 3.67465 9.66619 3.57262 9.65019C3.47059 9.63518 3.39958 9.53916 3.41658 9.43713C3.43158 9.3351 3.52861 9.26508 3.63064 9.28109" fill="#6C6F8E"/>
<path fill-rule="evenodd" clip-rule="evenodd" d="M17.4251 11.3977C17.5271 11.4137 17.5971 11.5097 17.5811 11.6107C17.5661 11.7128 17.4701 11.7828 17.368 11.7668C17.266 11.7518 17.196 11.6558 17.211 11.5527C17.227 11.4507 17.323 11.3807 17.4251 11.3967" fill="#6C6F8E"/>
<path fill-rule="evenodd" clip-rule="evenodd" d="M3.54005 9.98152C3.64308 9.98752 3.7231 10.0745 3.7171 10.1786C3.7121 10.2816 3.62407 10.3616 3.52004 10.3556C3.41701 10.3496 3.338 10.2616 3.343 10.1586C3.349 10.0555 3.43602 9.97552 3.54005 9.98152Z" fill="#6C6F8E"/>
<path fill-rule="evenodd" clip-rule="evenodd" d="M17.4776 10.6928C17.5806 10.6988 17.6606 10.7858 17.6546 10.8899C17.6496 10.9929 17.5606 11.0729 17.4575 11.0669C17.3545 11.0619 17.2755 10.9739 17.2805 10.8699C17.2855 10.7668 17.3735 10.6868 17.4776 10.6928Z" fill="#6C6F8E"/>
<path fill-rule="evenodd" clip-rule="evenodd" d="M3.52006 10.6876C3.62309 10.6826 3.71112 10.7626 3.71612 10.8656C3.72112 10.9687 3.6421 11.0567 3.53907 11.0617C3.43604 11.0667 3.34802 10.9867 3.34202 10.8836C3.33702 10.7806 3.41704 10.6926 3.52006 10.6876Z" fill="#6C6F8E"/>
<path fill-rule="evenodd" clip-rule="evenodd" d="M17.4585 9.98649C17.5616 9.98149 17.6496 10.0615 17.6546 10.1645C17.6606 10.2676 17.5806 10.3556 17.4776 10.3606C17.3745 10.3656 17.2865 10.2856 17.2805 10.1825C17.2755 10.0795 17.3555 9.99149 17.4585 9.98649Z" fill="#6C6F8E"/>
<path fill-rule="evenodd" clip-rule="evenodd" d="M3.57213 11.3937C3.67516 11.3777 3.77018 11.4477 3.78619 11.5507C3.80219 11.6528 3.73117 11.7478 3.62914 11.7638C3.52612 11.7788 3.43109 11.7088 3.41609 11.6068C3.40108 11.5037 3.4711 11.4087 3.57313 11.3927" fill="#6C6F8E"/>
<path fill-rule="evenodd" clip-rule="evenodd" d="M17.369 9.28427C17.4711 9.26927 17.5661 9.33829 17.5821 9.44132C17.5971 9.54334 17.5271 9.63837 17.4251 9.65537C17.322 9.67038 17.227 9.60036 17.211 9.49833C17.196 9.3963 17.266 9.30028 17.368 9.28527" fill="#6C6F8E"/>
<path fill-rule="evenodd" clip-rule="evenodd" d="M3.6967 12.0889C3.79673 12.0629 3.89876 12.1229 3.92476 12.2239C3.95077 12.324 3.89075 12.426 3.78972 12.452C3.6897 12.478 3.58767 12.417 3.56166 12.317C3.53566 12.2169 3.59667 12.1149 3.6967 12.0889Z" fill="#6C6F8E"/>
<path fill-rule="evenodd" clip-rule="evenodd" d="M17.2094 8.59609C17.3094 8.57008 17.4115 8.6301 17.4375 8.73113C17.4635 8.83116 17.4035 8.93318 17.3024 8.95919C17.2024 8.98519 17.1004 8.92418 17.0744 8.82415C17.0484 8.72313 17.1094 8.6221 17.2094 8.59609Z" fill="#6C6F8E"/>
<path fill-rule="evenodd" clip-rule="evenodd" d="M3.88932 12.7693C3.98635 12.7343 4.09338 12.7833 4.13039 12.8804C4.1654 12.9774 4.11639 13.0854 4.01936 13.1204C3.92234 13.1565 3.8153 13.1074 3.77829 13.0104C3.74228 12.9134 3.7923 12.8054 3.88932 12.7693Z" fill="#6C6F8E"/>
<path fill-rule="evenodd" clip-rule="evenodd" d="M16.9792 7.92779C17.0762 7.89278 17.1842 7.9418 17.2202 8.03882C17.2562 8.13585 17.2062 8.24288 17.1092 8.27889C17.0122 8.3149 16.9051 8.26589 16.8681 8.16886C16.8321 8.07184 16.8821 7.9638 16.9792 7.92779Z" fill="#6C6F8E"/>
<path fill-rule="evenodd" clip-rule="evenodd" d="M4.14985 13.4264C4.24288 13.3814 4.35491 13.4194 4.40092 13.5124C4.44593 13.6054 4.40792 13.7175 4.31489 13.7625C4.22187 13.8075 4.10984 13.7695 4.06382 13.6764C4.01881 13.5834 4.05683 13.4714 4.14985 13.4254" fill="#6C6F8E"/>
<path fill-rule="evenodd" clip-rule="evenodd" d="M16.6831 7.28557C16.7761 7.24055 16.8881 7.27856 16.9331 7.37159C16.9792 7.46461 16.9401 7.57664 16.8471 7.62165C16.7541 7.66667 16.6421 7.62866 16.5961 7.53563C16.551 7.44261 16.589 7.33058 16.6821 7.28557" fill="#6C6F8E"/>
<path fill-rule="evenodd" clip-rule="evenodd" d="M4.4768 14.0537C4.56482 13.9996 4.67985 14.0256 4.73486 14.1137C4.78987 14.2017 4.76187 14.3167 4.67385 14.3717C4.58682 14.4258 4.47079 14.3987 4.41577 14.3117C4.36176 14.2237 4.38777 14.1077 4.47579 14.0537" fill="#6C6F8E"/>
<path fill-rule="evenodd" clip-rule="evenodd" d="M16.3234 6.67664C16.4115 6.62262 16.5265 6.64863 16.5815 6.73666C16.6365 6.82468 16.6085 6.93971 16.5205 6.99472C16.4335 7.04874 16.3174 7.02173 16.2634 6.93471C16.2094 6.84669 16.2354 6.73065 16.3234 6.67664Z" fill="#6C6F8E"/>
<path fill-rule="evenodd" clip-rule="evenodd" d="M4.864 14.6449C4.94602 14.5809 5.06306 14.5969 5.12608 14.6779C5.1891 14.7599 5.17409 14.878 5.09307 14.941C5.01105 15.004 4.89401 14.989 4.831 14.907C4.76798 14.8249 4.78298 14.7079 4.864 14.6449Z" fill="#6C6F8E"/>
<path fill-rule="evenodd" clip-rule="evenodd" d="M15.906 6.10767C15.988 6.04465 16.105 6.05966 16.1681 6.14068C16.2321 6.2227 16.2161 6.34073 16.1351 6.40375C16.053 6.46677 15.935 6.45176 15.873 6.36974C15.81 6.28772 15.825 6.17068 15.906 6.10767Z" fill="#6C6F8E"/>
<path fill-rule="evenodd" clip-rule="evenodd" d="M5.31028 15.194C5.3853 15.1229 5.50334 15.1259 5.57436 15.201C5.64538 15.276 5.64237 15.394 5.56735 15.465C5.49233 15.5361 5.3743 15.5331 5.30328 15.458C5.23226 15.383 5.23526 15.265 5.31028 15.194Z" fill="#6C6F8E"/>
<path fill-rule="evenodd" clip-rule="evenodd" d="M15.4304 5.58325C15.5054 5.51223 15.6235 5.51523 15.6945 5.59025C15.7655 5.66527 15.7635 5.78331 15.6875 5.85432C15.6125 5.92534 15.4944 5.92234 15.4224 5.84732C15.3514 5.7723 15.3544 5.65427 15.4294 5.58325" fill="#6C6F8E"/>
<path fill-rule="evenodd" clip-rule="evenodd" d="M5.80944 15.6941C5.87746 15.6161 5.99549 15.6071 6.07351 15.6751C6.15253 15.7421 6.16053 15.8611 6.09352 15.9392C6.0255 16.0172 5.90746 16.0262 5.82844 15.9592C5.75042 15.8922 5.74142 15.7731 5.80944 15.6951" fill="#6C6F8E"/>
<path fill-rule="evenodd" clip-rule="evenodd" d="M14.9053 5.11036C14.9733 5.03234 15.0914 5.02334 15.1694 5.09136C15.2484 5.15838 15.2564 5.27741 15.1894 5.35543C15.1214 5.43345 15.0033 5.44245 14.9243 5.37444C14.8463 5.30742 14.8373 5.18838 14.9043 5.11036" fill="#6C6F8E"/>
<path fill-rule="evenodd" clip-rule="evenodd" d="M6.35576 16.142C6.41478 16.0569 6.53181 16.0359 6.61683 16.095C6.70185 16.154 6.72286 16.272 6.66284 16.356C6.60383 16.441 6.48679 16.4611 6.40277 16.403C6.31775 16.344 6.29674 16.227 6.35576 16.142Z" fill="#6C6F8E"/>
<path fill-rule="evenodd" clip-rule="evenodd" d="M14.3353 4.6919C14.3943 4.60687 14.5113 4.58587 14.5963 4.64488C14.6813 4.7039 14.7013 4.82093 14.6423 4.90595C14.5833 4.99097 14.4663 5.01198 14.3823 4.95297C14.2972 4.89395 14.2762 4.77692 14.3353 4.6919Z" fill="#6C6F8E"/>
<path fill-rule="evenodd" clip-rule="evenodd" d="M6.94516 16.5321C6.99517 16.4411 7.1092 16.409 7.20022 16.4591C7.29125 16.5091 7.32325 16.6241 7.27224 16.7141C7.22223 16.8042 7.1082 16.8372 7.01717 16.7871C6.92615 16.7371 6.89414 16.6231 6.94516 16.5321Z" fill="#6C6F8E"/>
<path fill-rule="evenodd" clip-rule="evenodd" d="M13.7264 4.3338C13.7764 4.24377 13.8904 4.21076 13.9814 4.26178C14.0715 4.31179 14.1045 4.42682 14.0545 4.51685C14.0045 4.60687 13.8894 4.63988 13.7994 4.58987C13.7084 4.53985 13.6764 4.42582 13.7274 4.3348" fill="#6C6F8E"/>
<path fill-rule="evenodd" clip-rule="evenodd" d="M7.57102 16.8611C7.61203 16.7661 7.72206 16.7221 7.81708 16.7631C7.91211 16.8041 7.95612 16.9141 7.91511 17.0092C7.8741 17.1042 7.76407 17.1482 7.66905 17.1072C7.57402 17.0662 7.53 16.9561 7.57102 16.8611Z" fill="#6C6F8E"/>
<path fill-rule="evenodd" clip-rule="evenodd" d="M13.0827 4.03891C13.1237 3.94389 13.2338 3.89988 13.3288 3.94089C13.4238 3.9809 13.4678 4.09193 13.4268 4.18695C13.3858 4.28198 13.2758 4.32599 13.1808 4.28498C13.0857 4.24397 13.0417 4.13394 13.0827 4.03891Z" fill="#6C6F8E"/>
<path fill-rule="evenodd" clip-rule="evenodd" d="M8.22778 17.1246C8.25879 17.0255 8.36381 16.9705 8.46284 17.0025C8.56187 17.0335 8.61588 17.1386 8.58487 17.2376C8.55386 17.3366 8.44883 17.3906 8.34981 17.3596C8.25178 17.3286 8.19577 17.2226 8.22778 17.1246Z" fill="#6C6F8E"/>
<path fill-rule="evenodd" clip-rule="evenodd" d="M12.4133 3.81087C12.4453 3.71284 12.5494 3.65683 12.6484 3.68884C12.7474 3.71985 12.8014 3.82487 12.7704 3.9229C12.7384 4.02193 12.6344 4.07694 12.5354 4.04593C12.4373 4.01393 12.3813 3.9089 12.4133 3.81087Z" fill="#6C6F8E"/>
<path fill-rule="evenodd" clip-rule="evenodd" d="M8.90629 17.3204C8.92729 17.2193 9.02632 17.1543 9.12735 17.1753C9.22838 17.1963 9.29439 17.2954 9.27338 17.3964C9.25238 17.4974 9.15335 17.5624 9.05133 17.5414C8.9503 17.5204 8.88528 17.4214 8.90629 17.3204Z" fill="#6C6F8E"/>
<path fill-rule="evenodd" clip-rule="evenodd" d="M11.7246 3.65173C11.7457 3.5507 11.8447 3.48568 11.9457 3.50669C12.0467 3.5277 12.1127 3.62672 12.0917 3.72775C12.0707 3.82878 11.9717 3.89379 11.8697 3.87279C11.7687 3.85178 11.7036 3.75275 11.7246 3.65173Z" fill="#6C6F8E"/>
<path fill-rule="evenodd" clip-rule="evenodd" d="M9.60166 17.4475C9.61166 17.3444 9.70368 17.2694 9.80671 17.2804C9.90974 17.2904 9.98476 17.3835 9.97375 17.4855C9.96275 17.5885 9.87073 17.6635 9.7677 17.6525C9.66567 17.6425 9.59065 17.5505 9.60166 17.4475Z" fill="#6C6F8E"/>
<path fill-rule="evenodd" clip-rule="evenodd" d="M11.0234 3.56283C11.0334 3.4598 11.1254 3.38478 11.2284 3.39579C11.3315 3.40579 11.4065 3.49881 11.3955 3.60084C11.3855 3.70287 11.2935 3.77889 11.1894 3.76789C11.0874 3.75688 11.0124 3.66486 11.0224 3.56283" fill="#6C6F8E"/>
<path fill-rule="evenodd" clip-rule="evenodd" d="M8.19504 15.1898L7.74492 16.002L7.43684 15.826C7.28379 15.739 7.24679 15.6249 7.32481 15.4839C7.37982 15.3849 7.45984 15.3519 7.56387 15.3859C7.51486 15.3469 7.48685 15.3049 7.48085 15.2588C7.47385 15.2138 7.48885 15.1568 7.52586 15.0908C7.60488 14.9488 7.72591 14.9238 7.88995 15.0168L8.19504 15.1908V15.1898ZM7.75992 15.5739L7.64989 15.5109C7.62189 15.4949 7.59388 15.4909 7.56687 15.4999C7.53986 15.5079 7.51786 15.5279 7.49885 15.5599C7.48385 15.5889 7.47885 15.6189 7.48585 15.649C7.49385 15.68 7.51085 15.704 7.53986 15.72L7.64489 15.779L7.75992 15.5729V15.5739ZM7.95598 15.2188L7.85195 15.1598C7.78193 15.1198 7.72592 15.1378 7.6829 15.2138C7.64089 15.2909 7.65689 15.3509 7.72991 15.3929L7.82794 15.4489L7.95598 15.2188Z" fill="#6C6F8E"/>
<path fill-rule="evenodd" clip-rule="evenodd" d="M7.09639 15.136C6.99736 15.259 6.91035 15.326 6.83333 15.34C6.7563 15.354 6.67528 15.325 6.59025 15.253C6.50623 15.184 6.46322 15.11 6.45922 15.031C6.45522 14.9519 6.50223 14.8519 6.60026 14.7289L6.64327 14.6759L6.68829 14.6198C6.78931 14.4948 6.87834 14.4278 6.95636 14.4208C7.03338 14.4128 7.1114 14.4418 7.18842 14.5058C7.27944 14.5808 7.32346 14.6589 7.32046 14.7389C7.31946 14.8199 7.27444 14.9139 7.18842 15.021L7.1364 15.085L7.09639 15.135V15.136ZM6.98536 14.9579C7.06538 14.8579 7.1144 14.7849 7.13341 14.7379C7.15141 14.6899 7.14041 14.6509 7.1004 14.6168C7.06139 14.5838 7.02137 14.5818 6.97936 14.6108C6.93635 14.6399 6.87533 14.7039 6.79331 14.8049C6.70929 14.9079 6.66028 14.9829 6.64527 15.029C6.62927 15.074 6.64027 15.113 6.67928 15.145C6.71729 15.176 6.7573 15.179 6.79931 15.152C6.84133 15.125 6.90334 15.06 6.98636 14.9569L6.98536 14.9579Z" fill="#6C6F8E"/>
<path fill-rule="evenodd" clip-rule="evenodd" d="M6.78618 14.1746L5.91895 14.5877L5.75391 14.3927L6.28705 13.5875L6.42009 13.7435L6.29805 13.9206L6.4711 14.1246L6.66315 14.0286L6.78719 14.1746H6.78618ZM6.33606 14.1886L6.21503 14.0456L5.97597 14.3817L6.33506 14.1886H6.33606Z" fill="#6C6F8E"/>
<path fill-rule="evenodd" clip-rule="evenodd" d="M6.15676 13.3876L5.36454 13.8717L5.1825 13.5616C5.15149 13.5076 5.13948 13.4536 5.15049 13.3986C5.16049 13.3436 5.2035 13.2935 5.28052 13.2465C5.39155 13.1775 5.48558 13.1895 5.5616 13.2805C5.53759 13.2225 5.53059 13.1745 5.54159 13.1365C5.55259 13.0985 5.5886 13.0615 5.64962 13.0235C5.76265 12.9545 5.83067 12.9044 5.85367 12.8724L5.9507 13.0375C5.9417 13.0555 5.92269 13.0755 5.89269 13.0955C5.86368 13.1155 5.83767 13.1315 5.81767 13.1425C5.74665 13.1825 5.70164 13.2185 5.68263 13.2495C5.66263 13.2795 5.66863 13.3226 5.69963 13.3756L5.72564 13.4206L6.05573 13.2185L6.15476 13.3866L6.15676 13.3876ZM5.60561 13.4966L5.5616 13.4216C5.54459 13.3926 5.52158 13.3786 5.49158 13.3776C5.46157 13.3776 5.42956 13.3866 5.39655 13.4066C5.32853 13.4486 5.31153 13.4986 5.34554 13.5556L5.38855 13.6286L5.60561 13.4956V13.4966Z" fill="#6C6F8E"/>
<path fill-rule="evenodd" clip-rule="evenodd" d="M5.7434 12.6354L4.88117 12.9805L4.76613 12.6754C4.72712 12.5704 4.73012 12.4854 4.77814 12.4184C4.82615 12.3503 4.93518 12.2833 5.10823 12.2143C5.18125 12.1853 5.24326 12.1643 5.29127 12.1523C5.33929 12.1413 5.3863 12.1403 5.43131 12.1503C5.46732 12.1543 5.50433 12.1713 5.54134 12.2003C5.57835 12.2293 5.60736 12.2733 5.63037 12.3323L5.7444 12.6354H5.7434ZM5.54134 12.5064L5.50734 12.4164C5.49033 12.3693 5.45832 12.3433 5.41431 12.3383C5.3693 12.3333 5.27727 12.3583 5.13523 12.4164C5.0242 12.4604 4.95419 12.5004 4.92718 12.5344C4.89917 12.5684 4.89417 12.6084 4.91117 12.6524L4.94618 12.7455L5.54234 12.5064H5.54134Z" fill="#6C6F8E"/>
<path fill-rule="evenodd" clip-rule="evenodd" d="M4.83854 11.4251C4.6825 11.4441 4.57147 11.4331 4.50845 11.3891C4.44443 11.345 4.40642 11.268 4.39542 11.157C4.38442 11.049 4.40543 10.9649 4.45744 10.9059C4.51046 10.8459 4.61348 10.8069 4.77052 10.7869L4.83854 10.7789L4.90956 10.7699C5.0696 10.7509 5.17963 10.7639 5.24065 10.8129C5.30066 10.8609 5.33567 10.9359 5.34568 11.036C5.35768 11.152 5.33468 11.239 5.27666 11.296C5.21765 11.353 5.12062 11.3901 4.98458 11.4061L4.90256 11.4161L4.83854 11.4241V11.4251ZM4.88455 11.22C5.01159 11.204 5.09761 11.186 5.14463 11.165C5.19064 11.143 5.21064 11.107 5.20564 11.055C5.20064 11.003 5.17263 10.9739 5.12362 10.9649C5.0736 10.9559 4.98458 10.9599 4.85555 10.976C4.72351 10.993 4.63549 11.012 4.59348 11.034C4.54947 11.056 4.53046 11.091 4.53546 11.141C4.54046 11.19 4.56747 11.22 4.61648 11.23C4.66549 11.24 4.75452 11.236 4.88555 11.22H4.88455Z" fill="#6C6F8E"/>
<path fill-rule="evenodd" clip-rule="evenodd" d="M5.30227 10.4406L4.37402 10.4106L4.40003 9.92444L4.54307 9.92944L4.52706 10.2205L4.76313 10.2285L4.77813 9.94844L4.92117 9.95344L4.90617 10.2335L5.31228 10.2465L5.30227 10.4406Z" fill="#6C6F8E"/>
<path fill-rule="evenodd" clip-rule="evenodd" d="M5.24694 8.84399L5.30096 8.65994C5.41499 8.69095 5.49101 8.73496 5.52902 8.78998C5.56703 8.84599 5.57203 8.92001 5.54402 9.01303C5.51302 9.11806 5.462 9.18908 5.38998 9.22409C5.31796 9.2601 5.21393 9.2591 5.0789 9.22209L4.98987 9.19809L4.91485 9.17708C4.77481 9.13907 4.68279 9.08905 4.63778 9.02604C4.59277 8.96302 4.58677 8.876 4.61877 8.76397C4.64378 8.67994 4.68479 8.62193 4.74281 8.58992C4.79982 8.55791 4.88584 8.55691 4.99687 8.58592L4.94286 8.76997C4.89085 8.75496 4.84783 8.75097 4.81482 8.75497C4.78181 8.75897 4.76181 8.77497 4.75381 8.80298L4.75181 8.81098C4.73981 8.85099 4.75381 8.886 4.79282 8.91301C4.83283 8.94101 4.91785 8.97202 5.04789 9.00803L5.0859 9.01804C5.19393 9.04705 5.26995 9.05905 5.31596 9.05405C5.36097 9.04905 5.39098 9.02504 5.40398 8.98503L5.40699 8.97702C5.42299 8.92101 5.36897 8.876 5.24594 8.84199" fill="#6C6F8E"/>
<path fill-rule="evenodd" clip-rule="evenodd" d="M5.22172 8.28492C5.07868 8.21891 4.99266 8.14989 4.96165 8.07887C4.93164 8.00785 4.94064 7.92183 4.98866 7.8218C5.03667 7.72477 5.09869 7.66476 5.17471 7.64175C5.25073 7.61975 5.36075 7.64175 5.50279 7.70677L5.56481 7.73578L5.62883 7.76578C5.77486 7.8338 5.86089 7.90482 5.8859 7.97884C5.9109 8.05186 5.9019 8.13389 5.85789 8.22491C5.80588 8.32994 5.73986 8.39095 5.66083 8.40896C5.58081 8.42596 5.47979 8.40496 5.35575 8.34694L5.28073 8.31193L5.22172 8.28392V8.28492ZM5.36976 8.13589C5.48579 8.1899 5.56881 8.21991 5.61883 8.22791C5.66884 8.23391 5.70585 8.21391 5.72885 8.16689C5.75186 8.12088 5.74386 8.08087 5.70685 8.04686C5.66884 8.01285 5.59182 7.96784 5.47479 7.91382C5.35375 7.85681 5.26973 7.8268 5.22172 7.8228C5.1737 7.8178 5.13769 7.8378 5.11569 7.88382C5.09368 7.92883 5.10069 7.96784 5.13669 8.00285C5.1727 8.03586 5.25072 8.08187 5.37075 8.13788L5.36976 8.13589Z" fill="#6C6F8E"/>
<path fill-rule="evenodd" clip-rule="evenodd" d="M5.37402 7.15565L5.53007 6.94559L6.20025 7.11464L5.68111 6.74254L5.79013 6.5965L6.54533 7.13664L6.3923 7.3417L5.6891 7.15565L6.23726 7.54876L6.12822 7.69579L5.37402 7.15565Z" fill="#6C6F8E"/>
<path fill-rule="evenodd" clip-rule="evenodd" d="M6.05566 6.29935L6.51979 5.86023L6.62882 5.97226L6.46677 6.1243L7.00692 6.67745L6.86488 6.81149L6.32574 6.25833L6.16469 6.41038L6.05566 6.29935Z" fill="#6C6F8E"/>
<path fill-rule="evenodd" clip-rule="evenodd" d="M7.35634 6.3803L6.8252 5.61909L7.12227 5.41704C7.17429 5.38103 7.2273 5.36802 7.28232 5.37403C7.33833 5.38103 7.39135 5.42103 7.44236 5.49405C7.51738 5.60108 7.51138 5.69611 7.42536 5.77813C7.48237 5.75012 7.52938 5.74012 7.56739 5.74913C7.6054 5.75713 7.64541 5.79213 7.68643 5.85015C7.76145 5.95918 7.81646 6.0242 7.84947 6.0452L7.69042 6.15223C7.67142 6.14523 7.65142 6.12723 7.62941 6.09822C7.6074 6.06921 7.5894 6.0462 7.5774 6.0262C7.53239 5.95718 7.49538 5.91417 7.46337 5.89716C7.43236 5.87916 7.39035 5.88816 7.33833 5.92317L7.29632 5.95218L7.51738 6.26926L7.35734 6.37929L7.35634 6.3803ZM7.2133 5.83515L7.28432 5.78614C7.31232 5.76813 7.32533 5.74412 7.32433 5.71311C7.32333 5.6831 7.31233 5.6521 7.28932 5.62009C7.24431 5.55507 7.19329 5.54107 7.13728 5.57908L7.06726 5.62709L7.2133 5.83615V5.83515Z" fill="#6C6F8E"/>
<path fill-rule="evenodd" clip-rule="evenodd" d="M7.83434 5.44839C7.76832 5.30635 7.74532 5.19732 7.76632 5.1223C7.78833 5.04728 7.84935 4.98626 7.95138 4.94025C8.0504 4.89524 8.13542 4.88823 8.20744 4.91924C8.28046 4.94925 8.34948 5.03527 8.4165 5.17931L8.44551 5.24133L8.47552 5.30535C8.54353 5.45139 8.56354 5.56142 8.53653 5.63544C8.50952 5.70746 8.44951 5.76547 8.35748 5.80748C8.25046 5.85549 8.16143 5.8615 8.09041 5.82449C8.01839 5.78748 7.95338 5.70745 7.89536 5.58342L7.86035 5.5084L7.83334 5.44939L7.83434 5.44839ZM8.0434 5.42738C8.09641 5.54341 8.14143 5.61943 8.17543 5.65744C8.21044 5.69445 8.25045 5.70146 8.29847 5.68045C8.34548 5.65844 8.36449 5.62343 8.35748 5.57342C8.35048 5.52341 8.31947 5.43838 8.26546 5.32135C8.20944 5.20032 8.16343 5.1233 8.12942 5.08929C8.09641 5.05428 8.0564 5.04827 8.01039 5.06928C7.96538 5.08929 7.94537 5.1253 7.95138 5.17431C7.95738 5.22333 7.98838 5.30835 8.0444 5.42738H8.0434Z" fill="#6C6F8E"/>
<path fill-rule="evenodd" clip-rule="evenodd" d="M8.6582 4.67988L8.84625 4.62787L9.05731 5.37207L9.33939 5.29305L9.3824 5.44209L8.91227 5.57312L8.6582 4.67988Z" fill="#6C6F8E"/>
<path fill-rule="evenodd" clip-rule="evenodd" d="M10.0149 5.34829L9.96387 4.42204L10.451 4.39703L10.459 4.53907L10.1669 4.55408L10.1789 4.79014L10.46 4.77513L10.468 4.91818L10.1869 4.93218L10.2089 5.33828L10.0149 5.34829Z" fill="#6C6F8E"/>
<path fill-rule="evenodd" clip-rule="evenodd" d="M10.7896 4.79923C10.8066 4.64319 10.8436 4.53816 10.9016 4.48414C10.9586 4.43013 11.0427 4.41012 11.1537 4.42112C11.2617 4.43313 11.3387 4.47014 11.3848 4.53315C11.4308 4.59617 11.4458 4.7062 11.4288 4.86224L11.4208 4.93026L11.4128 5.00128C11.3958 5.16132 11.3558 5.26535 11.2937 5.31537C11.2327 5.36438 11.1517 5.38338 11.0517 5.37238C10.9346 5.35938 10.8556 5.32037 10.8136 5.25135C10.7706 5.18333 10.7576 5.0803 10.7726 4.94426L10.7816 4.86224L10.7886 4.79723L10.7896 4.79923ZM10.9787 4.88725C10.9646 5.01428 10.9626 5.10231 10.9726 5.15132C10.9836 5.20033 11.0137 5.22834 11.0667 5.23334C11.1177 5.23834 11.1527 5.21834 11.1727 5.17033C11.1927 5.12331 11.2107 5.03529 11.2247 4.90725C11.2397 4.77422 11.2407 4.68519 11.2297 4.63918C11.2187 4.59117 11.1877 4.56617 11.1387 4.56016C11.0887 4.55516 11.0537 4.57517 11.0327 4.62118C11.0127 4.66619 10.9947 4.75522 10.9806 4.88625L10.9787 4.88725Z" fill="#6C6F8E"/>
<path fill-rule="evenodd" clip-rule="evenodd" d="M11.6426 5.44809L11.9006 4.55585L12.2467 4.65488C12.3068 4.67188 12.3518 4.70388 12.3818 4.7499C12.4118 4.79691 12.4148 4.86293 12.3898 4.94896C12.3538 5.07399 12.2758 5.13 12.1577 5.117C12.2157 5.14201 12.2527 5.17201 12.2697 5.20702C12.2878 5.24203 12.2858 5.29404 12.2657 5.36306C12.2287 5.4901 12.2127 5.57312 12.2167 5.61113L12.0327 5.55912C12.0267 5.54011 12.0267 5.5121 12.0357 5.4781C12.0447 5.44209 12.0517 5.41408 12.0597 5.39207C12.0847 5.31405 12.0937 5.25804 12.0877 5.22303C12.0827 5.18702 12.0487 5.16201 11.9887 5.144L11.9397 5.13L11.8316 5.5021L11.6446 5.44909L11.6426 5.44809ZM11.9777 4.99197L12.0607 5.01597C12.0927 5.02497 12.1197 5.01997 12.1427 4.99897C12.1657 4.97896 12.1827 4.94995 12.1937 4.91194C12.2157 4.83592 12.1937 4.78891 12.1297 4.7699L12.0487 4.7469L11.9777 4.99197Z" fill="#6C6F8E"/>
<path fill-rule="evenodd" clip-rule="evenodd" d="M13.352 5.8052L13.5181 5.90122C13.458 6.00325 13.396 6.06527 13.331 6.08827C13.266 6.11028 13.192 6.09828 13.1079 6.05026C13.0129 5.99525 12.9569 5.92923 12.9409 5.85221C12.9249 5.77519 12.9529 5.67617 13.0229 5.55513L13.0699 5.47611L13.1099 5.40909C13.183 5.28406 13.257 5.20804 13.33 5.18003C13.404 5.15203 13.491 5.16703 13.5921 5.22405C13.6681 5.26806 13.7141 5.32207 13.7311 5.38509C13.7481 5.4481 13.7261 5.52913 13.6681 5.62915L13.5021 5.53313C13.5301 5.48611 13.5461 5.4471 13.5501 5.41509C13.5551 5.38209 13.5451 5.35908 13.5191 5.34407L13.5121 5.34007C13.476 5.31907 13.439 5.32507 13.401 5.35508C13.363 5.38609 13.31 5.46011 13.241 5.57714L13.222 5.61015C13.165 5.70617 13.133 5.77819 13.1259 5.8222C13.1199 5.86722 13.134 5.90123 13.171 5.92323L13.179 5.92823C13.23 5.95724 13.288 5.91623 13.353 5.8062" fill="#6C6F8E"/>
<path fill-rule="evenodd" clip-rule="evenodd" d="M13.5654 6.32156L14.1646 5.61237L14.4427 5.84043C14.4907 5.87944 14.5197 5.92745 14.5277 5.98147C14.5367 6.03548 14.5127 6.0975 14.4547 6.16552C14.3706 6.26554 14.2766 6.28555 14.1726 6.22553C14.2156 6.27154 14.2386 6.31456 14.2396 6.35257C14.2416 6.39158 14.2196 6.43859 14.1736 6.49261C14.0886 6.59363 14.0396 6.66265 14.0276 6.69966L13.8795 6.57763C13.8815 6.55762 13.8935 6.53262 13.9155 6.50561C13.9375 6.4766 13.9555 6.4536 13.9715 6.43659C14.0256 6.37558 14.0576 6.32756 14.0656 6.29255C14.0746 6.25854 14.0556 6.22153 14.0065 6.18152L13.9665 6.14851L13.7165 6.44459L13.5654 6.32156ZM14.0586 6.03948L14.1256 6.0945C14.1516 6.1165 14.1786 6.1215 14.2076 6.1125C14.2366 6.1035 14.2636 6.0835 14.2896 6.05349C14.3406 5.99247 14.3406 5.94146 14.2886 5.89845L14.2226 5.84443L14.0586 6.03948Z" fill="#6C6F8E"/>
<path fill-rule="evenodd" clip-rule="evenodd" d="M14.8981 6.26562L15.0312 6.40766L14.345 7.03183L14.2109 6.88979L14.8981 6.26562Z" fill="#6C6F8E"/>
<path fill-rule="evenodd" clip-rule="evenodd" d="M15.041 7.39785L15.1531 7.55389C15.056 7.62091 14.973 7.65191 14.905 7.64491C14.836 7.63891 14.774 7.5969 14.7169 7.51788C14.6529 7.42886 14.6289 7.34583 14.6459 7.26981C14.6639 7.19279 14.7299 7.11477 14.844 7.03575L14.92 6.98373L14.984 6.93872C15.102 6.8567 15.2021 6.81769 15.2801 6.82169C15.3591 6.82669 15.4331 6.8767 15.5012 6.97073C15.5522 7.04175 15.5722 7.10977 15.5612 7.17379C15.5502 7.2368 15.4972 7.30182 15.4021 7.36884L15.2901 7.21279C15.3351 7.18178 15.3661 7.15278 15.3831 7.12477C15.4011 7.09877 15.4011 7.07276 15.3831 7.04875L15.3791 7.04275C15.3541 7.00874 15.3181 6.99774 15.2711 7.01074C15.2231 7.02275 15.1441 7.06876 15.033 7.14578L15.002 7.16779C14.91 7.2318 14.851 7.28281 14.826 7.32082C14.802 7.35883 14.802 7.39585 14.826 7.43086L14.831 7.43785C14.865 7.48587 14.935 7.47287 15.04 7.39985" fill="#6C6F8E"/>
<path fill-rule="evenodd" clip-rule="evenodd" d="M15.5846 7.90078L16.0508 7.93679L16.1458 8.12684L15.6537 8.07383L15.3056 8.52295L15.2085 8.32589L15.5446 7.91978L15.1085 8.12484L15.0215 7.95079L15.8617 7.55469L15.9487 7.72973L15.5846 7.90078Z" fill="#6C6F8E"/>
<path fill-rule="evenodd" clip-rule="evenodd" d="M15.3896 8.75019L16.2819 8.49512L16.4309 8.98025L16.2939 9.01926L16.2019 8.72118L15.9848 8.7832L16.0698 9.05827L15.9318 9.09828L15.8468 8.82221L15.5847 8.89723L15.6787 9.20431L15.5407 9.24332L15.3896 8.75019Z" fill="#6C6F8E"/>
<path fill-rule="evenodd" clip-rule="evenodd" d="M16.5162 9.34326L16.6063 9.97543L16.4512 9.99444L16.4202 9.77438L15.653 9.8674L15.625 9.67435L16.3932 9.58232L16.3622 9.36227L16.5162 9.34326Z" fill="#6C6F8E"/>
<path fill-rule="evenodd" clip-rule="evenodd" d="M16.615 10.8175L16.603 11.0126L15.6777 10.9336L15.6907 10.7395L16.615 10.8175Z" fill="#6C6F8E"/>
<path fill-rule="evenodd" clip-rule="evenodd" d="M16.5629 11.4421L16.5099 11.6992L15.8357 11.8022L16.4579 11.9462L16.4208 12.1243L15.5166 11.9162L15.5676 11.6641L16.2788 11.5641L15.6206 11.4121L15.6576 11.233L16.5629 11.4421Z" fill="#6C6F8E"/>
<path fill-rule="evenodd" clip-rule="evenodd" d="M16.1008 13.0005L16.0188 13.1775L15.1836 12.7714L15.2656 12.5954L16.1008 13.0005Z" fill="#6C6F8E"/>
<path fill-rule="evenodd" clip-rule="evenodd" d="M15.8261 13.5626L15.6831 13.7826L15.0159 13.6386L15.546 13.9947L15.447 14.1487L14.6758 13.6296L14.8158 13.4145L15.516 13.5746L14.9559 13.1975L15.0559 13.0444L15.8261 13.5626Z" fill="#6C6F8E"/>
<path fill-rule="evenodd" clip-rule="evenodd" d="M14.4929 13.8596L15.1571 14.5078L14.9331 14.7449C14.856 14.8259 14.778 14.8589 14.699 14.8439C14.62 14.8289 14.513 14.7569 14.3809 14.6279C14.3249 14.5728 14.2809 14.5248 14.2499 14.4848C14.2199 14.4458 14.1999 14.4028 14.1909 14.3568C14.1799 14.3208 14.1799 14.2808 14.1909 14.2327C14.2019 14.1857 14.2289 14.1397 14.2719 14.0937L14.4949 13.8586L14.4929 13.8596ZM14.4619 14.1007L14.3959 14.1707C14.3609 14.2067 14.3509 14.2467 14.3649 14.2898C14.3789 14.3328 14.4399 14.4088 14.55 14.5148C14.636 14.5978 14.699 14.6459 14.742 14.6559C14.783 14.6659 14.821 14.6539 14.854 14.6199L14.9231 14.5468L14.4629 14.0987L14.4619 14.1007Z" fill="#6C6F8E"/>
<path fill-rule="evenodd" clip-rule="evenodd" d="M14.4146 15.2321L14.2636 15.3541L13.6904 14.6239L13.8425 14.5009L14.4146 15.2321Z" fill="#6C6F8E"/>
<path fill-rule="evenodd" clip-rule="evenodd" d="M13.5001 14.7828L13.7411 15.7191L13.5221 15.8501L12.8379 15.1769L13.0139 15.0719L13.163 15.2249L13.393 15.0879L13.335 14.8788L13.5001 14.7808V14.7828ZM13.43 15.2329L13.27 15.329L13.5521 15.6251L13.43 15.2329Z" fill="#6C6F8E"/>
<path fill-rule="evenodd" clip-rule="evenodd" d="M10.4992 6.68457L11.6215 8.95818L14.1311 9.32328L12.3157 11.0938L12.7438 13.5934L10.4992 12.4131L8.25456 13.5934L8.68368 11.0938L6.86719 9.32328L9.37687 8.95818L10.4992 6.68457Z" fill="#6C6F8E"/>
<path fill-rule="evenodd" clip-rule="evenodd" d="M11.0713 15.6129C10.9562 15.5368 10.8042 15.5278 10.6812 15.5898C10.6051 15.6289 10.5461 15.6929 10.5001 15.7619C10.4531 15.6919 10.3951 15.6279 10.3191 15.5898C10.196 15.5278 10.044 15.5368 9.92895 15.6129C9.82092 15.6849 9.75391 15.8089 9.75391 15.9389C9.75391 16.012 9.77592 16.083 9.80893 16.148C9.83693 16.202 9.87494 16.246 9.91595 16.29L10.5011 16.9352L11.0873 16.29C11.1273 16.246 11.1663 16.202 11.1943 16.148C11.2273 16.084 11.2483 16.012 11.2483 15.9389C11.2483 15.8089 11.1813 15.6849 11.0733 15.6129" fill="#6C6F8E"/>
</svg>
