<svg width="21" height="21" viewBox="0 0 21 21" fill="none" xmlns="http://www.w3.org/2000/svg">
<path fill-rule="evenodd" clip-rule="evenodd" d="M2.16699 15.001V7.89296H18.667V15.001C18.667 18.1007 16.9359 19.6667 13.5053 19.6667H7.32078C3.89804 19.6667 2.16699 18.1007 2.16699 15.001ZM5.88874 11.8446C5.88874 12.2746 6.22708 12.6236 6.6441 12.6236C7.06899 12.6236 7.40734 12.2665 7.39947 11.8365C7.39947 11.4064 7.06113 11.0575 6.65197 11.0575H6.6441C6.22708 11.0575 5.88874 11.4145 5.88874 11.8446ZM9.65769 11.8446C9.65769 12.2746 10.0039 12.6236 10.4209 12.6236C10.838 12.6236 11.1763 12.2746 11.1763 11.8365C11.1763 11.4145 10.838 11.0656 10.4209 11.0575H10.4131C9.99603 11.0656 9.65769 11.4145 9.65769 11.8446ZM14.1899 12.6236C13.7729 12.6236 13.4345 12.2746 13.4345 11.8446C13.4345 11.4145 13.765 11.0656 14.1899 11.0656C14.6069 11.0656 14.9452 11.4145 14.9452 11.8446C14.9452 12.2746 14.6069 12.6236 14.1899 12.6236ZM14.1899 15.9504C13.7729 15.9504 13.4345 15.6015 13.4266 15.1714C13.4266 14.7414 13.765 14.3925 14.182 14.3925H14.1899C14.6069 14.3925 14.9452 14.7414 14.9452 15.1714C14.9452 15.6015 14.6069 15.9504 14.1899 15.9504ZM10.4209 15.9504C10.0039 15.9504 9.65769 15.6015 9.65769 15.1714C9.65769 14.7414 9.99603 14.3925 10.4131 14.3843H10.4209C10.838 14.3925 11.1684 14.7414 11.1763 15.1633C11.1763 15.6015 10.838 15.9504 10.4209 15.9504ZM6.6441 15.9504C6.22708 15.9504 5.88874 15.6015 5.88874 15.1714C5.88087 14.7414 6.21921 14.3843 6.6441 14.3843C7.06113 14.3843 7.39947 14.7333 7.39947 15.1633C7.39947 15.5934 7.06113 15.9504 6.6441 15.9504Z" fill="#6C6F8E"/>
<path fill-rule="evenodd" clip-rule="evenodd" d="M7.61841 4.15811H13.2492V2.84707H7.61841V4.15811ZM6.33751 2.90092V2.90744C5.89796 2.94742 5.46313 3.03471 5.04009 3.16606V3.16117C5.02752 3.16646 5.01567 3.17053 5.00431 3.17443C4.98939 3.17956 4.9753 3.1844 4.96146 3.19135C4.92765 3.19951 4.89462 3.21175 4.86317 3.22725C4.77039 3.25743 4.6776 3.29333 4.59032 3.33004C4.56713 3.33902 4.54393 3.34942 4.52074 3.35982C4.49754 3.37022 4.47434 3.38062 4.45114 3.3896C4.4193 3.40469 4.38609 3.42121 4.35287 3.43772C4.31965 3.45424 4.28641 3.47077 4.25457 3.48587L4.0973 3.57642C4.06823 3.59125 4.04131 3.60864 4.01385 3.62639C3.99749 3.63696 3.98094 3.64765 3.96363 3.65801C3.72695 3.81056 3.50757 3.98923 3.30942 4.19237L3.29762 4.20461C3.2716 4.23495 3.24568 4.26438 3.22012 4.29342C3.17694 4.34247 3.13476 4.39037 3.09475 4.43957L3.08296 4.45099C2.43976 5.33861 2.11737 6.43263 2.1732 7.54134V7.89296H3.44309V7.53808C3.44309 5.9929 3.93532 5.03104 5.03066 4.53828C5.44897 4.36125 5.89088 4.25193 6.34065 4.21195H6.35245V2.90663L6.33751 2.90092ZM17.7485 4.43467L17.754 4.44609C18.3964 5.33453 18.7172 6.42937 18.6606 7.53808V7.89296H17.3915V7.5291C17.4182 6.87481 17.2869 6.22378 17.0086 5.63557C16.7412 5.1322 16.3135 4.74142 15.7968 4.52931C15.3856 4.35227 14.95 4.24214 14.5057 4.20298V2.90418C14.9453 2.94497 15.3801 3.03145 15.8039 3.1628V3.15627C15.8277 3.16708 15.8459 3.1735 15.8771 3.18453L15.8826 3.18646C15.897 3.19158 15.9105 3.19669 15.9239 3.20175C15.9425 3.20879 15.9607 3.21571 15.9808 3.22235C16.0678 3.25088 16.1491 3.2845 16.2327 3.31909L16.2474 3.32515C16.286 3.33871 16.3224 3.35552 16.3551 3.37068C16.3658 3.37558 16.376 3.38031 16.3858 3.3847C16.455 3.41489 16.5258 3.45078 16.5824 3.48097C16.6201 3.50056 16.6569 3.52153 16.6914 3.54119C16.7101 3.55183 16.728 3.56208 16.7451 3.57153C16.7733 3.58709 16.7978 3.60373 16.8214 3.61974C16.8386 3.63143 16.8553 3.64278 16.8725 3.65311C17.11 3.80649 17.3317 3.98597 17.5322 4.18748L17.5393 4.19971C17.6132 4.27395 17.6832 4.35227 17.7485 4.43467Z" fill="#6C6F8E"/>
<path d="M14.542 4.87947C14.542 5.24346 14.2467 5.53828 13.882 5.53828C13.5174 5.53828 13.222 5.24346 13.222 4.87947V1.99715C13.2187 1.63315 13.5124 1.33586 13.8771 1.33339C14.2417 1.33092 14.5395 1.62327 14.542 1.98726V4.87947Z" fill="#6C6F8E"/>
<path d="M7.61199 2.00103V4.88279C7.61199 5.24836 7.31629 5.54477 6.95158 5.54477C6.58688 5.54477 6.29199 5.24836 6.29199 4.88279V2.00103C6.29199 1.63545 6.58688 1.33987 6.95158 1.33987C7.31629 1.33987 7.61199 1.63545 7.61199 2.00103Z" fill="#6C6F8E"/>
</svg>
