<svg width="25" height="25" viewBox="0 0 25 25" fill="none" xmlns="http://www.w3.org/2000/svg">
<path d="M20.4888 7.01848L14.4887 2.82056C12.8533 1.67473 10.3429 1.73723 8.76998 2.95598L3.55123 7.02889C2.50956 7.84139 1.68665 9.50806 1.68665 10.8206V18.0081C1.68665 20.6644 3.8429 22.831 6.49915 22.831H17.7283C20.3846 22.831 22.5408 20.6748 22.5408 18.0185V10.956C22.5408 9.54973 21.6346 7.82056 20.4888 7.01848ZM12.895 18.6643C12.895 19.0914 12.5408 19.4456 12.1137 19.4456C11.6867 19.4456 11.3325 19.0914 11.3325 18.6643V15.5393C11.3325 15.1123 11.6867 14.7581 12.1137 14.7581C12.5408 14.7581 12.895 15.1123 12.895 15.5393V18.6643Z" fill="#98A2B3"/>
</svg>
