<svg width="14" height="14" viewBox="0 0 14 14" fill="none" xmlns="http://www.w3.org/2000/svg">
<path d="M2.625 4.66655L8.79667 1.71488C8.86663 1.68139 8.94257 1.66219 9.02004 1.65841C9.09751 1.65462 9.17496 1.66633 9.24786 1.69284C9.32075 1.71934 9.38763 1.76012 9.44457 1.81278C9.50152 1.86545 9.54739 1.92894 9.5795 1.99955L10.7917 4.66655" stroke="#555770" stroke-width="1.5" stroke-linecap="round" stroke-linejoin="round"/>
<path d="M3.5 5.83342V4.66675" stroke="#555770" stroke-width="1.5" stroke-linecap="round" stroke-linejoin="round"/>
<path d="M3.5 8.16675V8.75008" stroke="#555770" stroke-width="1.5" stroke-linecap="round" stroke-linejoin="round"/>
<path d="M3.5 11.0833V12.2499" stroke="#555770" stroke-width="1.5" stroke-linecap="round" stroke-linejoin="round"/>
<path d="M11.6667 4.66675H2.33341C1.68908 4.66675 1.16675 5.18908 1.16675 5.83341V11.0834C1.16675 11.7277 1.68908 12.2501 2.33341 12.2501H11.6667C12.3111 12.2501 12.8334 11.7277 12.8334 11.0834V5.83341C12.8334 5.18908 12.3111 4.66675 11.6667 4.66675Z" stroke="#555770" stroke-width="1.5" stroke-linecap="round" stroke-linejoin="round"/>
</svg>
