<svg width="128" height="30" viewBox="0 0 128 30" fill="none" xmlns="http://www.w3.org/2000/svg">
<g clip-path="url(#clip0_895_36545)">
<g clip-path="url(#clip1_895_36545)">
<path d="M10 5C4.4772 5 0 9.4772 0 15C0 19.6896 3.2288 23.6248 7.5844 24.7056V18.056H5.5224V15H7.5844V13.6832C7.5844 10.2796 9.1248 8.702 12.4664 8.702C13.1 8.702 14.1932 8.8264 14.6404 8.9504V11.7204C14.4044 11.6956 13.9944 11.6832 13.4852 11.6832C11.8456 11.6832 11.212 12.3044 11.212 13.9192V15H14.4784L13.9172 18.056H11.212V24.9268C16.1636 24.3288 20.0004 20.1128 20.0004 15C20 9.4772 15.5228 5 10 5Z" fill="#FAFAFC"/>
</g>
</g>
<g clip-path="url(#clip2_895_36545)">
<g clip-path="url(#clip3_895_36545)">
<path d="M46 6.80078C48.6719 6.80078 48.9883 6.8125 50.0391 6.85937C51.0156 6.90234 51.543 7.06641 51.8945 7.20313C52.3594 7.38281 52.6953 7.60156 53.043 7.94922C53.3945 8.30078 53.6094 8.63281 53.7891 9.09766C53.9258 9.44922 54.0898 9.98047 54.1328 10.9531C54.1797 12.0078 54.1914 12.3242 54.1914 14.9922C54.1914 17.6641 54.1797 17.9805 54.1328 19.0313C54.0898 20.0078 53.9258 20.5352 53.7891 20.8867C53.6094 21.3516 53.3906 21.6875 53.043 22.0352C52.6914 22.3867 52.3594 22.6016 51.8945 22.7813C51.543 22.918 51.0117 23.082 50.0391 23.125C48.9844 23.1719 48.668 23.1836 46 23.1836C43.3281 23.1836 43.0117 23.1719 41.9609 23.125C40.9844 23.082 40.457 22.918 40.1055 22.7813C39.6406 22.6016 39.3047 22.3828 38.957 22.0352C38.6055 21.6836 38.3906 21.3516 38.2109 20.8867C38.0742 20.5352 37.9102 20.0039 37.8672 19.0313C37.8203 17.9766 37.8086 17.6602 37.8086 14.9922C37.8086 12.3203 37.8203 12.0039 37.8672 10.9531C37.9102 9.97656 38.0742 9.44922 38.2109 9.09766C38.3906 8.63281 38.6094 8.29688 38.957 7.94922C39.3086 7.59766 39.6406 7.38281 40.1055 7.20313C40.457 7.06641 40.9883 6.90234 41.9609 6.85937C43.0117 6.8125 43.3281 6.80078 46 6.80078ZM46 5C43.2852 5 42.9453 5.01172 41.8789 5.05859C40.8164 5.10547 40.0859 5.27734 39.4531 5.52344C38.793 5.78125 38.2344 6.12109 37.6797 6.67969C37.1211 7.23438 36.7813 7.79297 36.5234 8.44922C36.2773 9.08594 36.1055 9.8125 36.0586 10.875C36.0117 11.9453 36 12.2852 36 15C36 17.7148 36.0117 18.0547 36.0586 19.1211C36.1055 20.1836 36.2773 20.9141 36.5234 21.5469C36.7813 22.207 37.1211 22.7656 37.6797 23.3203C38.2344 23.875 38.793 24.2188 39.4492 24.4727C40.0859 24.7188 40.8125 24.8906 41.875 24.9375C42.9414 24.9844 43.2813 24.9961 45.9961 24.9961C48.7109 24.9961 49.0508 24.9844 50.1172 24.9375C51.1797 24.8906 51.9102 24.7188 52.543 24.4727C53.1992 24.2188 53.7578 23.875 54.3125 23.3203C54.8672 22.7656 55.2109 22.207 55.4648 21.5508C55.7109 20.9141 55.8828 20.1875 55.9297 19.125C55.9766 18.0586 55.9883 17.7188 55.9883 15.0039C55.9883 12.2891 55.9766 11.9492 55.9297 10.8828C55.8828 9.82031 55.7109 9.08984 55.4648 8.45703C55.2188 7.79297 54.8789 7.23438 54.3203 6.67969C53.7656 6.125 53.207 5.78125 52.5508 5.52734C51.9141 5.28125 51.1875 5.10938 50.125 5.0625C49.0547 5.01172 48.7148 5 46 5Z" fill="#FAFAFC"/>
<path d="M46 9.86328C43.1641 9.86328 40.8633 12.1641 40.8633 15C40.8633 17.8359 43.1641 20.1367 46 20.1367C48.8359 20.1367 51.1367 17.8359 51.1367 15C51.1367 12.1641 48.8359 9.86328 46 9.86328ZM46 18.332C44.1602 18.332 42.668 16.8398 42.668 15C42.668 13.1602 44.1602 11.668 46 11.668C47.8398 11.668 49.332 13.1602 49.332 15C49.332 16.8398 47.8398 18.332 46 18.332Z" fill="#FAFAFC"/>
<path d="M52.5391 9.66017C52.5391 10.3242 52 10.8594 51.3398 10.8594C50.6758 10.8594 50.1406 10.3203 50.1406 9.66017C50.1406 8.99611 50.6797 8.46095 51.3398 8.46095C52 8.46095 52.5391 9.00001 52.5391 9.66017Z" fill="#FAFAFC"/>
</g>
</g>
<g clip-path="url(#clip4_895_36545)">
<path d="M87.2719 6.58659H90.0831L83.9414 13.6062L91.1667 23.1582H85.5094L81.0784 17.365L76.0083 23.1582H73.1954L79.7645 15.65L72.8333 6.58659H78.6343L82.6395 11.8819L87.2719 6.58659ZM86.2853 21.4756H87.843L77.7878 8.18087H76.1162L86.2853 21.4756Z" fill="#FAFAFC"/>
</g>
<g clip-path="url(#clip5_895_36545)">
<path d="M122.743 14.2696C122.657 14.2283 122.57 14.1886 122.481 14.1505C122.327 11.3061 120.772 9.6776 118.163 9.66094C118.151 9.66086 118.139 9.66086 118.127 9.66086C116.566 9.66086 115.268 10.3272 114.469 11.5397L115.904 12.5243C116.501 11.6186 117.438 11.4255 118.128 11.4255C118.136 11.4255 118.144 11.4255 118.152 11.4256C119.011 11.4311 119.66 11.6809 120.079 12.1681C120.385 12.5228 120.589 13.013 120.69 13.6316C119.928 13.5022 119.104 13.4623 118.223 13.5128C115.742 13.6558 114.147 15.1029 114.254 17.1137C114.308 18.1337 114.817 19.0112 115.685 19.5845C116.419 20.0691 117.364 20.306 118.347 20.2524C119.645 20.1812 120.663 19.6861 121.373 18.7808C121.912 18.0933 122.254 17.2024 122.404 16.0798C123.023 16.453 123.481 16.9442 123.734 17.5346C124.164 18.5382 124.19 20.1875 122.844 21.5321C121.665 22.71 120.247 23.2196 118.106 23.2353C115.73 23.2177 113.933 22.4557 112.764 20.9705C111.67 19.5798 111.105 17.571 111.084 15C111.105 12.4289 111.67 10.4202 112.764 9.02945C113.933 7.54426 115.73 6.78229 118.106 6.76464C120.499 6.78243 122.327 7.54806 123.54 9.04042C124.135 9.77225 124.583 10.6926 124.879 11.7657L126.561 11.3169C126.202 9.99606 125.639 8.85789 124.871 7.91396C123.316 6.0007 121.042 5.02033 118.111 5H118.1C115.175 5.02026 112.926 6.00435 111.415 7.92493C110.071 9.634 109.378 12.0121 109.354 14.993L109.354 15L109.354 15.007C109.378 17.9879 110.071 20.366 111.415 22.0751C112.926 23.9956 115.175 24.9798 118.1 25H118.111C120.711 24.982 122.544 24.3013 124.054 22.7928C126.029 20.8194 125.97 18.3457 125.319 16.8272C124.852 15.7382 123.961 14.8538 122.743 14.2696ZM118.254 18.4903C117.167 18.5516 116.037 18.0634 115.981 17.0179C115.94 16.2427 116.533 15.3777 118.321 15.2747C118.526 15.2629 118.727 15.2571 118.924 15.2571C119.574 15.2571 120.181 15.3202 120.734 15.4409C120.527 18.0141 119.319 18.4319 118.254 18.4903Z" fill="#FAFAFC"/>
</g>
<defs>
<clipPath id="clip0_895_36545">
<rect width="20" height="20" fill="white" transform="translate(0 5)"/>
</clipPath>
<clipPath id="clip1_895_36545">
<rect width="20" height="20" fill="white" transform="translate(0 5)"/>
</clipPath>
<clipPath id="clip2_895_36545">
<rect width="20" height="20" fill="white" transform="translate(36 5)"/>
</clipPath>
<clipPath id="clip3_895_36545">
<rect width="20" height="20" fill="white" transform="translate(36 5)"/>
</clipPath>
<clipPath id="clip4_895_36545">
<rect width="20" height="20" fill="white" transform="translate(72 5)"/>
</clipPath>
<clipPath id="clip5_895_36545">
<rect width="20" height="20" fill="white" transform="translate(108 5)"/>
</clipPath>
</defs>
</svg>
