<svg width="603" height="602" viewBox="0 0 603 602" fill="none" xmlns="http://www.w3.org/2000/svg">
<path d="M240.701 413.236C240.701 413.236 257.501 430.446 264.741 479.416C274.281 543.956 279.411 613.936 350.231 597.636C350.231 597.636 308.621 598.556 289.731 522.256C263.791 417.506 240.711 413.236 240.711 413.236H240.701Z" fill="url(#paint0_linear_45_39769)"/>
<path d="M218.621 398.196C218.621 398.196 231.471 418.526 228.371 467.936C224.281 533.056 214.751 602.566 287.411 601.346C287.411 601.346 246.521 593.596 243.901 515.036C240.311 407.186 218.621 398.206 218.621 398.206V398.196Z" fill="url(#paint1_linear_45_39769)"/>
<path d="M200.151 378.896C200.151 378.896 208.491 401.456 195.191 449.136C177.661 511.976 153.881 577.986 225.201 591.906C225.201 591.906 186.821 575.826 200.591 498.436C219.501 392.196 200.151 378.896 200.151 378.896Z" fill="url(#paint2_linear_45_39769)"/>
<path d="M186.091 356.176C186.091 356.176 189.561 379.976 166.631 423.846C136.411 481.676 99.4312 541.296 166.301 569.736C166.301 569.736 132.101 546.026 161.661 473.186C202.241 373.196 186.081 356.166 186.081 356.166L186.091 356.176Z" fill="url(#paint3_linear_45_39769)"/>
<path d="M177.071 331.026C177.071 331.026 175.521 355.026 143.971 393.176C102.391 443.456 53.8212 494.086 113.321 535.806C113.321 535.806 84.8011 505.506 128.861 440.406C189.351 351.036 177.081 331.026 177.081 331.026H177.071Z" fill="url(#paint4_linear_45_39769)"/>
<path d="M173.471 304.556C173.471 304.556 166.961 327.706 128.171 358.466C77.0511 399.006 19.0112 438.426 68.5312 491.606C68.5312 491.606 46.9311 456.036 103.561 401.516C181.311 326.676 173.471 304.546 173.471 304.546V304.556Z" fill="url(#paint5_linear_45_39769)"/>
<path d="M175.461 277.916C175.461 277.916 164.281 299.206 119.941 321.226C61.5011 350.246 -3.45885 376.746 33.9212 439.056C33.9212 439.056 20.1911 399.766 86.9212 358.226C178.531 301.186 175.461 277.916 175.461 277.916Z" fill="url(#paint6_linear_45_39769)"/>
<path d="M182.941 252.266C182.941 252.266 167.581 270.776 119.631 283.086C56.4412 299.326 -12.6188 311.736 10.9912 380.456C10.9912 380.456 5.73116 339.176 79.6312 312.406C181.091 275.656 182.931 252.256 182.931 252.256L182.941 252.266Z" fill="url(#paint7_linear_45_39769)"/>
<path d="M195.591 228.736C195.591 228.736 176.721 243.646 127.261 245.726C62.0711 248.466 -8.04885 246.256 0.751153 318.386C0.751153 318.386 4.18115 276.906 82.0412 266.096C188.931 251.246 195.591 228.736 195.591 228.736Z" fill="url(#paint8_linear_45_39769)"/>
<path d="M212.851 208.356C212.851 208.356 191.291 219.016 142.481 210.766C78.1412 199.896 10.0112 183.146 3.63115 255.526C3.63115 255.526 15.6112 215.666 94.0212 221.276C201.661 228.976 212.861 208.346 212.861 208.346L212.851 208.356Z" fill="url(#paint9_linear_45_39769)"/>
<path d="M233.981 191.996C233.981 191.996 210.671 197.936 164.641 179.726C103.971 155.716 40.8112 125.176 19.5112 194.646C19.5112 194.646 39.5212 158.156 115.041 179.936C218.721 209.846 233.971 191.996 233.971 191.996H233.981Z" fill="url(#paint10_linear_45_39769)"/>
<path d="M258.041 180.396C258.041 180.396 234.011 181.366 192.771 153.976C138.421 117.876 82.9911 74.8658 47.7112 138.396C47.7112 138.396 74.8712 106.856 144.211 143.876C239.411 194.686 258.031 180.396 258.031 180.396H258.041Z" fill="url(#paint11_linear_45_39769)"/>
<path d="M283.991 174.056C283.991 174.056 260.281 170.006 225.641 134.636C179.981 88.0258 134.701 34.4358 86.9911 89.2358C86.9911 89.2358 120.111 64.0358 180.251 114.656C262.801 184.156 283.991 174.046 283.991 174.046V174.056Z" fill="url(#paint12_linear_45_39769)"/>
<path d="M310.701 173.236C310.701 173.236 288.351 164.346 261.821 122.546C226.851 67.4658 193.701 5.62584 135.641 49.3158C135.641 49.3158 173.281 31.5558 221.571 93.5758C287.871 178.716 310.701 173.236 310.701 173.236Z" fill="url(#paint13_linear_45_39769)"/>
<path d="M336.981 177.996C336.981 177.996 316.971 164.656 299.711 118.256C276.961 57.1058 257.391 -10.2742 191.511 20.3958C191.511 20.3958 232.021 10.8458 266.361 81.5558C313.511 178.626 336.981 178.006 336.981 178.006V177.996Z" fill="url(#paint14_linear_45_39769)"/>
<path d="M361.711 188.116C361.711 188.116 344.911 170.906 337.671 121.936C328.131 57.3958 323.001 -12.5842 252.181 3.71583C252.181 3.71583 293.791 2.79582 312.681 79.0958C338.621 183.846 361.701 188.116 361.701 188.116H361.711Z" fill="url(#paint15_linear_45_39769)"/>
<path d="M383.791 203.156C383.791 203.156 370.941 182.826 374.041 133.416C378.121 68.3058 387.651 -1.20417 315.001 0.0158311C315.001 0.0158311 355.891 7.76584 358.511 86.3258C362.101 194.176 383.791 203.156 383.791 203.156Z" fill="url(#paint16_linear_45_39769)"/>
<path d="M402.261 222.456C402.261 222.456 393.921 199.896 407.221 152.216C424.751 89.3758 448.531 23.3658 377.211 9.44583C377.211 9.44583 415.591 25.5258 401.821 102.916C382.911 209.156 402.261 222.456 402.261 222.456Z" fill="url(#paint17_linear_45_39769)"/>
<path d="M416.311 245.176C416.311 245.176 412.841 221.376 435.771 177.506C465.991 119.676 502.971 60.0558 436.101 31.6158C436.101 31.6158 470.301 55.3258 440.741 128.166C400.161 228.156 416.321 245.186 416.321 245.186L416.311 245.176Z" fill="url(#paint18_linear_45_39769)"/>
<path d="M425.331 270.326C425.331 270.326 426.881 246.326 458.431 208.176C500.011 157.896 548.581 107.266 489.081 65.5458C489.081 65.5458 517.601 95.8458 473.541 160.946C413.051 250.316 425.321 270.326 425.321 270.326H425.331Z" fill="url(#paint19_linear_45_39769)"/>
<path d="M428.931 296.796C428.931 296.796 435.441 273.646 474.231 242.886C525.351 202.346 583.391 162.926 533.871 109.746C533.871 109.746 555.471 145.316 498.841 199.836C421.091 274.676 428.931 296.806 428.931 296.806V296.796Z" fill="url(#paint20_linear_45_39769)"/>
<path d="M426.951 323.436C426.951 323.436 438.131 302.146 482.471 280.126C540.911 251.106 605.871 224.606 568.491 162.296C568.491 162.296 582.221 201.586 515.491 243.126C423.881 300.166 426.951 323.436 426.951 323.436Z" fill="url(#paint21_linear_45_39769)"/>
<path d="M419.471 349.086C419.471 349.086 434.831 330.576 482.781 318.266C545.971 302.026 615.031 289.616 591.421 220.896C591.421 220.896 596.681 262.176 522.781 288.946C421.321 325.696 419.481 349.096 419.481 349.096L419.471 349.086Z" fill="url(#paint22_linear_45_39769)"/>
<path d="M406.821 372.616C406.821 372.616 425.691 357.706 475.151 355.626C540.341 352.886 610.461 355.096 601.661 282.966C601.661 282.966 598.231 324.446 520.371 335.256C413.481 350.106 406.821 372.616 406.821 372.616Z" fill="url(#paint23_linear_45_39769)"/>
<path d="M389.551 393.006C389.551 393.006 411.111 382.346 459.921 390.596C524.251 401.466 592.391 418.216 598.771 345.826C598.771 345.826 586.791 385.686 508.381 380.076C400.741 372.376 389.541 393.006 389.541 393.006H389.551Z" fill="url(#paint24_linear_45_39769)"/>
<path d="M368.431 409.356C368.431 409.356 391.741 403.416 437.771 421.626C498.441 445.636 561.601 476.176 582.901 406.706C582.901 406.706 562.891 443.196 487.371 421.416C383.691 391.506 368.441 409.356 368.441 409.356H368.431Z" fill="url(#paint25_linear_45_39769)"/>
<path d="M344.361 420.956C344.361 420.956 368.391 419.986 409.631 447.376C463.981 483.476 519.411 526.486 554.691 462.956C554.691 462.956 527.531 494.496 458.191 457.476C362.991 406.666 344.371 420.956 344.371 420.956H344.361Z" fill="url(#paint26_linear_45_39769)"/>
<path d="M318.411 427.306C318.411 427.306 342.121 431.356 376.761 466.726C422.421 513.336 467.701 566.926 515.411 512.126C515.411 512.126 482.291 537.326 422.151 486.706C339.601 417.206 318.411 427.316 318.411 427.316V427.306Z" fill="url(#paint27_linear_45_39769)"/>
<path d="M291.711 428.116C291.711 428.116 314.061 437.006 340.591 478.806C375.561 533.886 408.711 595.726 466.771 552.036C466.771 552.036 429.131 569.796 380.841 507.776C314.541 422.636 291.711 428.116 291.711 428.116Z" fill="url(#paint28_linear_45_39769)"/>
<path d="M265.421 423.356C265.421 423.356 285.431 436.696 302.691 483.096C325.441 544.246 345.011 611.626 410.891 580.956C410.891 580.956 370.381 590.506 336.041 519.796C288.891 422.726 265.421 423.346 265.421 423.346V423.356Z" fill="url(#paint29_linear_45_39769)"/>
<defs>
<linearGradient id="paint0_linear_45_39769" x1="135.915" y1="792.97" x2="221.439" y2="39.0363" gradientUnits="userSpaceOnUse">
<stop offset="0.02" stop-color="#F78F1E"/>
<stop offset="0.38" stop-color="#EF2B6A"/>
<stop offset="0.55" stop-color="#EC008C"/>
<stop offset="0.64" stop-color="#DB088D"/>
<stop offset="0.81" stop-color="#B02091"/>
<stop offset="1" stop-color="#783E97"/>
</linearGradient>
<linearGradient id="paint1_linear_45_39769" x1="256.003" y1="598.294" x2="267.659" y2="-91.648" gradientUnits="userSpaceOnUse">
<stop stop-color="#F78F1E"/>
<stop offset="0.37" stop-color="#EF2B6A"/>
<stop offset="0.55" stop-color="#EC008C"/>
<stop offset="0.61" stop-color="#DB088D"/>
<stop offset="0.74" stop-color="#B02091"/>
<stop offset="0.87" stop-color="#783E97"/>
</linearGradient>
<linearGradient id="paint2_linear_45_39769" x1="191.131" y1="489.912" x2="238.021" y2="-193.718" gradientUnits="userSpaceOnUse">
<stop stop-color="#F78F1E"/>
<stop offset="0.3" stop-color="#EF2B6A"/>
<stop offset="0.45" stop-color="#EC008C"/>
<stop offset="0.53" stop-color="#DB088D"/>
<stop offset="0.69" stop-color="#B02091"/>
<stop offset="0.87" stop-color="#783E97"/>
</linearGradient>
<linearGradient id="paint3_linear_45_39769" x1="52.8428" y1="450.911" x2="228.232" y2="-342.708" gradientUnits="userSpaceOnUse">
<stop stop-color="#F78F1E"/>
<stop offset="0.35" stop-color="#EF2B6A"/>
<stop offset="0.52" stop-color="#EC008C"/>
<stop offset="0.61" stop-color="#DB088D"/>
<stop offset="0.8" stop-color="#B02091"/>
<stop offset="1" stop-color="#783E97"/>
</linearGradient>
<linearGradient id="paint4_linear_45_39769" x1="62.0649" y1="409.906" x2="563.814" y2="-426.839" gradientUnits="userSpaceOnUse">
<stop offset="0.18" stop-color="#F78F1E"/>
<stop offset="0.43" stop-color="#EF2B6A"/>
<stop offset="0.55" stop-color="#EC008C"/>
<stop offset="0.61" stop-color="#DB088D"/>
<stop offset="0.74" stop-color="#B02091"/>
<stop offset="0.87" stop-color="#783E97"/>
</linearGradient>
<linearGradient id="paint5_linear_45_39769" x1="218.961" y1="340.885" x2="1029.32" y2="-263.896" gradientUnits="userSpaceOnUse">
<stop stop-color="#F78F1E"/>
<stop offset="0.37" stop-color="#EF2B6A"/>
<stop offset="0.55" stop-color="#EC008C"/>
<stop offset="0.61" stop-color="#DB088D"/>
<stop offset="0.74" stop-color="#B02091"/>
<stop offset="0.87" stop-color="#783E97"/>
</linearGradient>
<linearGradient id="paint6_linear_45_39769" x1="948.271" y1="1.87737" x2="146.087" y2="428.478" gradientUnits="userSpaceOnUse">
<stop stop-color="#EC008C"/>
<stop offset="0.33" stop-color="#EF2B6A"/>
<stop offset="1" stop-color="#F78F1E"/>
</linearGradient>
<linearGradient id="paint7_linear_45_39769" x1="731.245" y1="29.7725" x2="-55.8096" y2="279.02" gradientUnits="userSpaceOnUse">
<stop stop-color="#EC008C"/>
<stop offset="0.09" stop-color="#EE2171"/>
<stop offset="0.2" stop-color="#F14358"/>
<stop offset="0.32" stop-color="#F35E42"/>
<stop offset="0.45" stop-color="#F47432"/>
<stop offset="0.59" stop-color="#F68326"/>
<stop offset="0.75" stop-color="#F68C20"/>
<stop offset="1" stop-color="#F78F1E"/>
</linearGradient>
<linearGradient id="paint8_linear_45_39769" x1="488.748" y1="-383.797" x2="-385.441" y2="187.164" gradientUnits="userSpaceOnUse">
<stop stop-color="#EC008C"/>
<stop offset="0.07" stop-color="#ED1978"/>
<stop offset="0.2" stop-color="#F03D5C"/>
<stop offset="0.33" stop-color="#F35B45"/>
<stop offset="0.47" stop-color="#F47234"/>
<stop offset="0.62" stop-color="#F68227"/>
<stop offset="0.78" stop-color="#F68B20"/>
<stop offset="1" stop-color="#F78F1E"/>
</linearGradient>
<linearGradient id="paint9_linear_45_39769" x1="532.587" y1="-620.621" x2="-331.686" y2="-410.922" gradientUnits="userSpaceOnUse">
<stop stop-color="#EC008C"/>
<stop offset="0.04" stop-color="#ED1878"/>
<stop offset="0.1" stop-color="#F03860"/>
<stop offset="0.16" stop-color="#F2534B"/>
<stop offset="0.24" stop-color="#F4693A"/>
<stop offset="0.32" stop-color="#F57A2D"/>
<stop offset="0.43" stop-color="#F68624"/>
<stop offset="0.58" stop-color="#F68D1F"/>
<stop offset="1" stop-color="#F78F1E"/>
</linearGradient>
<linearGradient id="paint10_linear_45_39769" x1="572.813" y1="-360.957" x2="-177.329" y2="-265.803" gradientUnits="userSpaceOnUse">
<stop stop-color="#EC008C"/>
<stop offset="0.04" stop-color="#ED1878"/>
<stop offset="0.1" stop-color="#F03860"/>
<stop offset="0.16" stop-color="#F2534B"/>
<stop offset="0.24" stop-color="#F4693A"/>
<stop offset="0.32" stop-color="#F57A2D"/>
<stop offset="0.43" stop-color="#F68624"/>
<stop offset="0.58" stop-color="#F68D1F"/>
<stop offset="1" stop-color="#F78F1E"/>
</linearGradient>
<linearGradient id="paint11_linear_45_39769" x1="875.478" y1="-196.584" x2="181.311" y2="-110.176" gradientUnits="userSpaceOnUse">
<stop stop-color="#783E97"/>
<stop offset="0.19" stop-color="#B02091"/>
<stop offset="0.36" stop-color="#DB088D"/>
<stop offset="0.44" stop-color="#EC008C"/>
<stop offset="0.62" stop-color="#EF2B6A"/>
<stop offset="1" stop-color="#F78F1E"/>
</linearGradient>
<linearGradient id="paint12_linear_45_39769" x1="781.234" y1="-228.266" x2="27.4066" y2="49.026" gradientUnits="userSpaceOnUse">
<stop stop-color="#783E97"/>
<stop offset="0.19" stop-color="#B02091"/>
<stop offset="0.36" stop-color="#DB088D"/>
<stop offset="0.45" stop-color="#EC008C"/>
<stop offset="0.63" stop-color="#EF2B6A"/>
<stop offset="1" stop-color="#F78F1E"/>
</linearGradient>
<linearGradient id="paint13_linear_45_39769" x1="294.177" y1="498.16" x2="372.752" y2="-506.793" gradientUnits="userSpaceOnUse">
<stop stop-color="#F78F1E"/>
<stop offset="0.38" stop-color="#EF2B6A"/>
<stop offset="0.56" stop-color="#EC008C"/>
<stop offset="0.64" stop-color="#DB088D"/>
<stop offset="0.81" stop-color="#B02091"/>
<stop offset="1" stop-color="#783E97"/>
</linearGradient>
<linearGradient id="paint14_linear_45_39769" x1="298.516" y1="426.708" x2="322.96" y2="-420.402" gradientUnits="userSpaceOnUse">
<stop stop-color="#F78F1E"/>
<stop offset="0.23" stop-color="#EF2B6A"/>
<stop offset="0.34" stop-color="#EC008C"/>
<stop offset="0.44" stop-color="#DB088D"/>
<stop offset="0.64" stop-color="#B02091"/>
<stop offset="0.87" stop-color="#783E97"/>
</linearGradient>
<linearGradient id="paint15_linear_45_39769" x1="258.459" y1="603.261" x2="296.921" y2="-147.3" gradientUnits="userSpaceOnUse">
<stop stop-color="#F68D1F"/>
<stop offset="0.18" stop-color="#F35B45"/>
<stop offset="0.35" stop-color="#EF3364"/>
<stop offset="0.5" stop-color="#ED177A"/>
<stop offset="0.64" stop-color="#EC0687"/>
<stop offset="0.74" stop-color="#EC008C"/>
<stop offset="0.79" stop-color="#DB088D"/>
<stop offset="0.89" stop-color="#B02091"/>
<stop offset="1" stop-color="#783E97"/>
</linearGradient>
<linearGradient id="paint16_linear_45_39769" x1="148.644" y1="723.074" x2="177.819" y2="29.6958" gradientUnits="userSpaceOnUse">
<stop stop-color="#F78F1E"/>
<stop offset="0.09" stop-color="#F57A2D"/>
<stop offset="0.29" stop-color="#F24F4F"/>
<stop offset="0.49" stop-color="#EF2C69"/>
<stop offset="0.68" stop-color="#ED147C"/>
<stop offset="0.86" stop-color="#EC0588"/>
<stop offset="1" stop-color="#EC008C"/>
</linearGradient>
<linearGradient id="paint17_linear_45_39769" x1="248.196" y1="284.48" x2="112.284" y2="-514.367" gradientUnits="userSpaceOnUse">
<stop stop-color="#EC008C"/>
<stop offset="0.44" stop-color="#EA018C"/>
<stop offset="0.59" stop-color="#E3048C"/>
<stop offset="0.71" stop-color="#D70A8D"/>
<stop offset="0.8" stop-color="#C6138F"/>
<stop offset="0.87" stop-color="#B01F91"/>
<stop offset="0.94" stop-color="#962D94"/>
<stop offset="1" stop-color="#783E97"/>
</linearGradient>
<linearGradient id="paint18_linear_45_39769" x1="-76.0426" y1="518.998" x2="-13.7353" y2="-164.289" gradientUnits="userSpaceOnUse">
<stop stop-color="#EC008C"/>
<stop offset="0.22" stop-color="#E9018C"/>
<stop offset="0.38" stop-color="#DF068D"/>
<stop offset="0.51" stop-color="#D00E8E"/>
<stop offset="0.64" stop-color="#BA1A90"/>
<stop offset="0.75" stop-color="#9D2993"/>
<stop offset="0.86" stop-color="#7B3C96"/>
<stop offset="0.87" stop-color="#783E97"/>
</linearGradient>
<linearGradient id="paint19_linear_45_39769" x1="78.2235" y1="506.657" x2="229.702" y2="-215.693" gradientUnits="userSpaceOnUse">
<stop stop-color="#EC008C"/>
<stop offset="0.17" stop-color="#DB088D"/>
<stop offset="0.5" stop-color="#B02091"/>
<stop offset="0.87" stop-color="#783E97"/>
</linearGradient>
<linearGradient id="paint20_linear_45_39769" x1="59.74" y1="563.813" x2="405.617" y2="-188.685" gradientUnits="userSpaceOnUse">
<stop stop-color="#EC008C"/>
<stop offset="0.23" stop-color="#C5148F"/>
<stop offset="0.51" stop-color="#9B2A93"/>
<stop offset="0.74" stop-color="#813896"/>
<stop offset="0.87" stop-color="#783E97"/>
</linearGradient>
<linearGradient id="paint21_linear_45_39769" x1="47.8147" y1="547.699" x2="703.728" y2="-63.2271" gradientUnits="userSpaceOnUse">
<stop stop-color="#EC008C"/>
<stop offset="0.04" stop-color="#E0058D"/>
<stop offset="0.21" stop-color="#BB1990"/>
<stop offset="0.38" stop-color="#9D2993"/>
<stop offset="0.55" stop-color="#883495"/>
<stop offset="0.72" stop-color="#7C3B96"/>
<stop offset="0.87" stop-color="#783E97"/>
</linearGradient>
<linearGradient id="paint22_linear_45_39769" x1="-5.52206" y1="504.22" x2="781.079" y2="248.603" gradientUnits="userSpaceOnUse">
<stop stop-color="#EC008C"/>
<stop offset="0.1" stop-color="#CF0F8E"/>
<stop offset="0.24" stop-color="#B01F91"/>
<stop offset="0.38" stop-color="#972D94"/>
<stop offset="0.53" stop-color="#853695"/>
<stop offset="0.69" stop-color="#7B3C96"/>
<stop offset="0.87" stop-color="#783E97"/>
</linearGradient>
<linearGradient id="paint23_linear_45_39769" x1="-73.5984" y1="414.656" x2="647.614" y2="368.336" gradientUnits="userSpaceOnUse">
<stop stop-color="#EC008C"/>
<stop offset="0.05" stop-color="#CD108E"/>
<stop offset="0.11" stop-color="#B31E91"/>
<stop offset="0.18" stop-color="#9D2A93"/>
<stop offset="0.26" stop-color="#8C3395"/>
<stop offset="0.35" stop-color="#803996"/>
<stop offset="0.49" stop-color="#793C96"/>
<stop offset="0.87" stop-color="#783E97"/>
</linearGradient>
<linearGradient id="paint24_linear_45_39769" x1="-86.0391" y1="29.5533" x2="591.351" y2="57.0374" gradientUnits="userSpaceOnUse">
<stop stop-color="#EC008C"/>
<stop offset="0.05" stop-color="#CD108E"/>
<stop offset="0.11" stop-color="#B31E91"/>
<stop offset="0.18" stop-color="#9D2A93"/>
<stop offset="0.26" stop-color="#8C3395"/>
<stop offset="0.35" stop-color="#803996"/>
<stop offset="0.49" stop-color="#793C96"/>
<stop offset="0.87" stop-color="#783E97"/>
</linearGradient>
<linearGradient id="paint25_linear_45_39769" x1="744.6" y1="996.97" x2="33.4217" y2="928.867" gradientUnits="userSpaceOnUse">
<stop stop-color="#EA008C"/>
<stop offset="0.22" stop-color="#C1168F"/>
<stop offset="0.44" stop-color="#A12793"/>
<stop offset="0.64" stop-color="#8A3495"/>
<stop offset="0.83" stop-color="#7C3B96"/>
<stop offset="1" stop-color="#783E97"/>
</linearGradient>
<linearGradient id="paint26_linear_45_39769" x1="698.342" y1="663.29" x2="-2.48492" y2="565.301" gradientUnits="userSpaceOnUse">
<stop stop-color="#EC008C"/>
<stop offset="0.06" stop-color="#E3048C"/>
<stop offset="0.5" stop-color="#A92392"/>
<stop offset="0.83" stop-color="#853695"/>
<stop offset="1" stop-color="#783E97"/>
</linearGradient>
<linearGradient id="paint27_linear_45_39769" x1="615.684" y1="650.084" x2="-116.56" y2="401.776" gradientUnits="userSpaceOnUse">
<stop stop-color="#EC008C"/>
<stop offset="0.32" stop-color="#CA118F"/>
<stop offset="1" stop-color="#783E97"/>
</linearGradient>
<linearGradient id="paint28_linear_45_39769" x1="435.294" y1="576.237" x2="-103.596" y2="-202.279" gradientUnits="userSpaceOnUse">
<stop stop-color="#EC008C"/>
<stop offset="0.15" stop-color="#E5038C"/>
<stop offset="0.36" stop-color="#D40C8E"/>
<stop offset="0.6" stop-color="#B81B90"/>
<stop offset="0.85" stop-color="#913094"/>
<stop offset="1" stop-color="#783E97"/>
</linearGradient>
<linearGradient id="paint29_linear_45_39769" x1="371.506" y1="582.82" x2="282.437" y2="367.663" gradientUnits="userSpaceOnUse">
<stop stop-color="#EC008C"/>
<stop offset="0.31" stop-color="#EA018C"/>
<stop offset="0.43" stop-color="#E3048C"/>
<stop offset="0.51" stop-color="#D70A8D"/>
<stop offset="0.57" stop-color="#C6138F"/>
<stop offset="0.63" stop-color="#B01F91"/>
<stop offset="0.68" stop-color="#962D94"/>
<stop offset="0.72" stop-color="#783E97"/>
</linearGradient>
</defs>
</svg>
