<svg width="46" height="46" viewBox="0 0 46 46" fill="none" xmlns="http://www.w3.org/2000/svg">
<path d="M41.501 0.346684C41.3164 0.399419 39.4356 2.22754 35.1992 6.46387L29.1612 12.502L28.1504 11.5176C27.1836 10.5684 27.1309 10.5332 26.7617 10.5332H26.3838L13.8506 23.0752C5.87892 31.0557 1.22951 35.7754 1.0801 36.0303C0.517597 37.0146 0.324237 38.3945 0.623066 39.3701C0.921894 40.3457 1.16799 40.6709 3.17189 42.6748C4.89455 44.4063 5.18459 44.6523 5.72951 44.916C6.33596 45.2061 6.36232 45.2061 7.61916 45.2061C8.85842 45.2061 8.91115 45.1973 9.42092 44.9424C9.88674 44.7139 11.4688 43.167 22.5869 32.0664C29.5391 25.1318 35.2432 19.3662 35.2695 19.252C35.375 18.8652 35.1904 18.5664 34.2676 17.6348C33.7578 17.1162 33.3623 16.6592 33.3975 16.624C33.4326 16.5801 36.166 13.8467 39.4795 10.5332L45.5 4.5127V4.11719V3.72168L43.8125 2.04297C42.8809 1.11133 42.0371 0.337895 41.9404 0.320317C41.8438 0.29395 41.6504 0.311528 41.501 0.346684ZM42.6699 3.17676L43.5664 4.07325L42.9688 4.6709L42.3799 5.25977L41.457 4.33692L40.5342 3.41407L41.1055 2.84278C41.4131 2.52637 41.6944 2.27149 41.7207 2.27149C41.7471 2.27149 42.169 2.67579 42.6699 3.17676ZM40.2969 5.54981L41.1934 6.44629L40.5957 7.04395L40.0069 7.63282L39.084 6.70997L38.1612 5.78711L38.7324 5.21582C39.0401 4.89942 39.3213 4.64454 39.3477 4.64454C39.374 4.64454 39.7959 5.04883 40.2969 5.54981ZM38.249 9.39063L37.6338 10.0059L36.711 9.08301L35.7881 8.16016L36.4033 7.54493L37.0186 6.92969L37.9414 7.85254L38.8643 8.77539L38.249 9.39063ZM35.876 11.7637L35.2608 12.3789L34.3379 11.4561L33.4151 10.5332L34.0303 9.91797L34.6455 9.30274L35.5684 10.2256L36.4912 11.1484L35.876 11.7637ZM33.5029 14.1367L32.8877 14.752L31.9649 13.8291L31.042 12.9063L31.6572 12.291L32.2725 11.6758L33.1953 12.5986L34.1182 13.5215L33.5029 14.1367ZM28.0362 13.8203C28.001 13.8731 26.5156 15.9824 24.7403 18.5137C22.9561 21.0449 21.418 23.2422 21.3213 23.3916C21.2334 23.5498 21.1543 23.7871 21.1543 23.9189C21.1543 24.2617 21.585 24.6836 21.9278 24.6836C22.2354 24.6836 21.8487 24.9385 27.6055 20.8779L32.0791 17.7227L32.7295 18.373L33.3711 19.0147L21.2334 31.1523C12.4092 39.9766 8.98146 43.3516 8.68264 43.501C8.11135 43.7998 7.04787 43.7998 6.47658 43.501C5.94045 43.2197 2.60939 39.8887 2.34572 39.3613C2.07326 38.8252 2.02053 38.0254 2.21389 37.4189C2.35451 36.9619 2.87307 36.4434 14.5889 24.71L26.8233 12.4668L27.4561 13.0996C27.8076 13.4424 28.0625 13.7676 28.0362 13.8203ZM30.8399 16.6064C30.8047 16.6416 29.8115 17.3447 28.625 18.1797C27.4385 19.0147 26.2168 19.876 25.9004 20.0957C25.584 20.3154 25.3731 20.4385 25.4258 20.377C25.4785 20.3066 26.3662 19.041 27.3945 17.582L29.2666 14.9102L30.084 15.7275C30.541 16.1758 30.875 16.5713 30.8399 16.6064Z" fill="#FAFAFC"/>
</svg>
