<svg width="32" height="44" viewBox="0 0 32 44" fill="none" xmlns="http://www.w3.org/2000/svg">
<path d="M20.6318 0.164243C20.2451 0.304868 20.0781 0.419125 19.7617 0.779477L19.5332 1.05194L19.2695 0.858578C18.3291 0.164243 17.4062 0.612485 17.0019 1.97479C16.8262 2.57245 16.9404 2.95038 17.3887 3.21405C17.5644 3.32831 17.7314 3.42499 17.749 3.44256C17.7754 3.46014 17.7051 3.55682 17.5996 3.67108C17.0898 4.216 16.9228 5.14764 17.2217 5.79803C17.4238 6.23749 17.5908 6.3869 18.6806 7.08124C20.3066 8.10956 22.249 9.51581 24.2881 11.133C25.1933 11.8361 26.1953 11.7746 26.9424 10.966L27.2236 10.6584L27.6719 10.8869C28.0146 11.0627 28.1728 11.0978 28.3222 11.0363C28.5244 10.9572 29.2539 10.2277 29.6055 9.7619C29.957 9.29608 29.7988 8.5578 29.2803 8.25018L29.0254 8.10077L29.2451 7.69647C29.4209 7.36249 29.456 7.21307 29.4209 6.83514C29.3945 6.58026 29.2978 6.24627 29.2099 6.09686C28.9814 5.69256 22.706 0.603696 21.9853 0.243344C21.5459 0.0148284 21.124 -0.00274968 20.6318 0.164243ZM21.748 1.4035C22.5215 1.93084 22.5918 2.00116 22.5918 2.27362C22.5918 2.64276 22.2138 3.42499 21.8447 3.83807C21.3613 4.36541 21.4844 4.87518 22.1084 4.87518C22.3281 4.87518 22.4599 4.79608 22.706 4.52362C23.0312 4.17206 23.3213 3.66229 23.5058 3.15252L23.6025 2.86249L24.6836 3.74139C25.3779 4.31268 25.7558 4.68182 25.7558 4.78729C25.7558 5.07733 25.4394 5.81561 25.1494 6.21112C24.8769 6.58026 24.833 6.75604 24.9297 7.0285C25 7.21307 25.3252 7.33612 25.5713 7.27459C25.791 7.22186 26.415 6.3078 26.5556 5.83319C26.6172 5.64862 26.6787 5.49041 26.7051 5.49041C26.8105 5.49041 28.0937 6.58026 28.1904 6.74725C28.375 7.08124 28.3222 7.29217 27.8564 8.00409C26.8457 9.55096 26.2041 10.3859 25.9404 10.4914C25.5888 10.6408 25.3779 10.5617 24.6572 9.97284C23.4092 8.96209 21.5283 7.591 20.0342 6.59784C19.1904 6.04413 18.4346 5.51678 18.3555 5.43768C18.0478 5.13885 18.1533 4.8576 19.0498 3.67108C21.0713 0.990415 21.1064 0.964047 21.748 1.4035ZM18.707 1.76385C18.9531 1.93084 18.9531 1.99237 18.6982 2.2912C18.54 2.47577 18.4521 2.51092 18.2939 2.45819C18.1181 2.40545 18.1006 2.35272 18.1445 2.1242C18.1972 1.86053 18.3467 1.62323 18.4521 1.62323C18.4873 1.62323 18.6015 1.68475 18.707 1.76385ZM28.6562 9.23456C28.6562 9.3576 28.1816 9.88495 28.0762 9.88495C27.9092 9.88495 27.918 9.83221 28.1816 9.48065C28.3838 9.22577 28.6562 9.07635 28.6562 9.23456Z" fill="#FAFAFC"/>
<path d="M6.37598 2.35246C3.47559 3.16985 2.14844 3.59172 1.95508 3.73235C1.79688 3.8466 1.56836 4.15422 1.43653 4.4091C1.25196 4.79582 1.2168 4.96281 1.26075 5.34074C1.28711 5.59563 1.33106 5.8593 1.35743 5.92961C1.40137 6.02629 1.26953 6.12297 0.891605 6.28996C0.320316 6.54485 0.100589 6.80852 0.0302768 7.31828C-0.0312466 7.76653 0.118167 8.1884 0.487308 8.68059C0.93555 9.26946 1.36621 9.36613 2.12207 9.05852C2.22754 9.00578 2.30664 9.11125 2.45606 9.52434C2.77246 10.3945 3.63379 10.957 4.45996 10.8251C4.64453 10.79 5.50586 10.4911 6.37598 10.1484C8.125 9.46281 9.72461 8.92668 11.5176 8.43449C12.168 8.25871 12.8096 8.05656 12.9326 7.98625C13.2578 7.81926 13.6797 7.31828 13.8027 6.93156C13.9082 6.63274 13.8818 5.97356 13.7588 5.65715C13.7236 5.56047 13.8291 5.46379 14.1543 5.31438C14.4092 5.20012 14.6465 5.03313 14.6904 4.94524C14.7959 4.74309 14.4971 3.21379 14.2686 2.82707C13.9873 2.35246 13.5391 2.23821 12.792 2.44914C12.6514 2.49309 12.5811 2.43156 12.4404 2.13274C12.1856 1.5966 11.6758 1.26262 11.0254 1.21867C10.5684 1.19231 10.0147 1.32414 6.37598 2.35246ZM11.2451 2.46672C11.3506 2.54582 11.5264 2.79192 11.6231 3.02043C11.9307 3.72356 12.7481 6.14055 12.7481 6.3427C12.7481 6.45696 12.6426 6.6591 12.5107 6.79973C12.3086 7.01067 12.0449 7.11614 11.0781 7.37981C9.54883 7.80168 7.05274 8.63664 5.52344 9.2343C4.86426 9.49797 4.24903 9.70891 4.14356 9.70891C3.7041 9.70891 3.5459 9.3925 2.9043 7.29192C2.57032 6.17571 2.28907 5.20012 2.28907 5.11223C2.28907 4.85735 2.667 4.54973 3.18555 4.40031C3.45801 4.32121 3.74805 4.25969 3.82715 4.25969C4.02051 4.25969 4.86426 5.06828 5.18067 5.56926C5.49707 6.05266 5.70801 6.61516 5.78711 7.15129C5.86621 7.67864 6.2002 7.93352 6.56055 7.76653C6.87696 7.60832 6.91211 7.40617 6.73633 6.70305C6.54297 5.9384 6.07715 5.02434 5.54981 4.37395L5.10157 3.82903L5.3916 3.74114C5.54102 3.6884 6.22657 3.50383 6.89453 3.32805C8.08106 3.02043 8.125 3.02043 8.24805 3.16985C8.5293 3.53899 8.79297 4.23332 8.79297 4.61125C8.79297 5.1386 8.97754 5.40227 9.35547 5.40227C9.52246 5.40227 9.70703 5.34074 9.76856 5.26164C10.0322 4.93645 9.78614 3.45989 9.37305 2.8886C9.25 2.73039 9.27637 2.71281 9.87403 2.53703C10.6563 2.29973 10.9814 2.28215 11.2451 2.46672ZM13.4424 3.79387C13.5654 4.22453 13.5654 4.37395 13.4336 4.33C13.3106 4.28606 13.082 3.65324 13.1523 3.54778C13.249 3.38957 13.3545 3.47746 13.4424 3.79387ZM1.84082 7.74016C1.84961 7.85442 1.77051 7.95989 1.64746 8.01262C1.46289 8.10051 1.41895 8.08293 1.2959 7.86321C1.07618 7.49406 1.11133 7.35344 1.43653 7.26555C1.68262 7.20403 1.72657 7.21281 1.7793 7.37102C1.80567 7.47649 1.83203 7.63469 1.84082 7.74016Z" fill="#FAFAFC"/>
<path d="M16.3867 9.70011C15.9297 9.91104 15.5342 10.3944 15.2441 11.1064C15.0156 11.6864 14.8398 12.9521 14.4883 16.6083L14.374 17.7421L14.0225 17.8036C12.9941 17.9794 11.7109 18.7616 11.0254 19.623C10.252 20.6073 9.8916 21.6532 9.90918 22.8925C9.93555 25.2919 10.9287 27.164 12.6338 27.9901L13.2314 28.289L13.082 30.2314C12.9941 31.2948 12.748 34.3446 12.5283 37.0165C12.3086 39.6796 12.1504 41.9648 12.1855 42.0878C12.2295 42.2724 12.6074 42.6942 12.8887 42.87C12.9414 42.8964 13.4336 42.9667 13.9873 43.0194C14.541 43.0634 15.2969 43.1776 15.6748 43.2567C16.501 43.4325 16.7559 43.3534 16.835 42.914C16.9229 42.4042 17.4766 36.4452 17.8545 31.8573L18.2236 27.4189L18.6016 26.9882C19.0234 26.496 19.7881 25.1601 19.9902 24.536C20.377 23.3759 20.3506 22.163 19.9199 21.0204C19.6826 20.3876 19.5332 20.1239 19.1113 19.5878L18.8301 19.2362L19.1025 15.3954C19.3662 11.6337 19.3662 11.5458 19.2168 11.0536C18.8389 9.84952 17.4854 9.19913 16.3867 9.70011ZM17.9775 10.9482C18.0918 11.0888 18.2148 11.3349 18.2412 11.4931C18.2676 11.6513 18.1885 13.1542 18.0654 14.8505C17.9424 16.538 17.8457 18.0321 17.8457 18.1552V18.3837L17.125 18.0937C16.7295 17.9355 16.2549 17.7773 16.0703 17.7509C15.8857 17.7157 15.7363 17.6454 15.7363 17.5927C15.7363 17.5312 15.833 16.1601 15.9648 14.5429C16.1494 12.1083 16.2197 11.537 16.3604 11.2294C16.7295 10.4648 17.459 10.3417 17.9775 10.9482ZM16.0264 18.8935C16.9668 19.1396 17.9424 19.7812 18.4609 20.5194L18.6191 20.7392L17.5029 20.748C16.3164 20.748 15.5605 20.9062 14.5586 21.3456C13.4512 21.8378 12.2119 22.8837 11.5439 23.8944C11.2891 24.2812 11.2627 24.2987 11.1748 24.1317C11.1221 24.0439 11.043 23.7011 10.999 23.3759C10.8145 22.1103 11.2803 20.8358 12.2559 19.9218C13.3545 18.9023 14.6729 18.5419 16.0264 18.8935ZM19.0498 21.9696C19.2256 22.2157 19.1992 23.3847 18.9971 24.0263C18.7686 24.7558 18.4697 25.2304 17.916 25.7665C16.4746 27.1288 14.3828 27.3134 12.7568 26.2235C12.1328 25.8105 11.8604 25.4941 11.9307 25.2831C12.0449 24.9755 12.5986 24.1757 12.9941 23.7538C13.8115 22.8749 14.8662 22.2597 16.0967 21.9257C16.9756 21.6884 18.8564 21.7148 19.0498 21.9696ZM17.0547 28.2274C17.0547 29.2118 15.9033 41.9999 15.8066 42.0966C15.7803 42.123 13.873 41.8681 13.8291 41.8329C13.7852 41.8066 14.8398 28.6142 14.8926 28.5351C14.9189 28.4911 15.2266 28.4296 15.5781 28.4032C15.9297 28.3769 16.3779 28.2978 16.5713 28.2187C17.0283 28.0517 17.0547 28.0517 17.0547 28.2274Z" fill="#FAFAFC"/>
<path d="M28.7705 11.4228C28.0322 11.8008 27.7158 12.3193 27.2061 14.042C26.9424 14.9385 22.7149 27.4892 19.5596 36.7353C18.7598 39.0908 18.2676 40.6553 18.2676 40.8838C18.2588 41.3144 18.3994 41.5254 18.6807 41.5254C18.9531 41.5254 20.3858 42.0791 21.0889 42.457C21.9063 42.8877 22.1348 42.8613 22.3633 42.3076C22.5567 41.8506 23.9629 37.9219 25.0703 34.7578C25.6065 33.2373 27.3643 28.0166 28.9815 23.165C31.1699 16.626 31.9434 14.2002 31.9785 13.7959C32.0664 12.6709 31.5391 11.8535 30.4844 11.4668C29.6406 11.1592 29.3067 11.1504 28.7705 11.4228ZM30.5459 12.7324C30.6602 12.8467 30.8008 13.1103 30.8623 13.3213C30.9678 13.708 30.9414 13.7871 28.0938 22.3213C24.9737 31.664 23.6113 35.6279 21.8008 40.5762L21.5283 41.332L20.9834 41.0859C20.6846 40.9541 20.2715 40.7871 20.0694 40.7344C19.8584 40.6728 19.6914 40.5762 19.6914 40.5234C19.6914 40.3301 28.9463 13.2685 29.0781 13.0576C29.4297 12.5303 30.1768 12.3633 30.5459 12.7324Z" fill="#FAFAFC"/>
<path d="M10.7881 13.1189C10.7002 13.2068 10.6387 13.3562 10.6387 13.4353C10.6387 13.7078 11.1924 15.4568 11.3242 15.615C11.5967 15.9402 12.2207 15.7293 12.2207 15.3162C12.2207 15.0174 11.6846 13.2771 11.5352 13.1101C11.3594 12.9168 10.9727 12.9168 10.7881 13.1189Z" fill="#FAFAFC"/>
<path d="M13.1699 13.5061C13.003 13.6291 12.7744 14.8684 12.8711 15.1145C12.9942 15.4397 13.7061 15.4484 13.8291 15.1232C13.9258 14.8772 13.9873 13.7082 13.917 13.6027C13.794 13.4357 13.3369 13.3742 13.1699 13.5061Z" fill="#FAFAFC"/>
<path d="M3.30857 14.2351C2.93064 14.3669 2.42966 14.8152 2.22751 15.1931C1.82322 15.9666 1.77048 16.7312 1.98142 18.4978C2.27146 20.8093 5.50583 41.947 5.64646 42.4304C5.70798 42.615 5.84861 42.8435 5.97165 42.9402C6.20896 43.1248 6.21775 43.1248 7.19333 42.9402C7.43943 42.8962 8.12497 42.8259 8.71384 42.7908C10.164 42.7117 10.1025 42.8171 9.85642 40.6726C9.3906 36.7175 8.84568 32.9119 7.43064 23.9031C6.97361 21.0027 6.499 17.9353 6.36716 17.0916C6.12986 15.5007 5.99802 15.114 5.57615 14.6833C5.03122 14.1384 4.0908 13.9539 3.30857 14.2351ZM4.53904 15.2986C4.95212 15.4919 5.05759 15.738 5.23337 16.8718C5.31247 17.408 5.81345 20.5632 6.33201 23.9031C7.61521 32.033 8.16013 35.7859 8.61716 39.5037C8.71384 40.3035 8.81052 41.0945 8.83689 41.2703L8.88083 41.5867L7.90525 41.7009C7.36911 41.7537 6.91208 41.78 6.87693 41.7537C6.8154 41.6921 3.08884 16.573 3.08005 16.1863C3.08005 15.8171 3.31736 15.4216 3.63376 15.2898C4.0029 15.1228 4.17869 15.1316 4.53904 15.2986Z" fill="#FAFAFC"/>
<path d="M8.52932 14.6573C8.36232 14.7364 8.3008 14.8506 8.28322 15.0879C8.25685 15.3868 8.3008 15.4395 8.88088 15.9493C9.23244 16.2481 9.61037 16.5206 9.72463 16.5645C10.1992 16.7491 10.6035 16.292 10.3926 15.8262C10.2959 15.5977 9.0215 14.543 8.85451 14.543C8.79299 14.543 8.65236 14.5958 8.52932 14.6573Z" fill="#FAFAFC"/>
</svg>
