<svg width="20" height="20" viewBox="0 0 20 20" fill="none" xmlns="http://www.w3.org/2000/svg">
<path d="M5.83335 17.2184V15.8334C5.83335 15.3913 6.00895 14.9674 6.32151 14.6548C6.63407 14.3423 7.05799 14.1667 7.50002 14.1667H12.5C12.942 14.1667 13.366 14.3423 13.6785 14.6548C13.9911 14.9674 14.1667 15.3913 14.1667 15.8334V17.2184M18.3334 10C18.3334 14.6024 14.6024 18.3334 10 18.3334C5.39765 18.3334 1.66669 14.6024 1.66669 10C1.66669 5.39765 5.39765 1.66669 10 1.66669C14.6024 1.66669 18.3334 5.39765 18.3334 10ZM12.5 8.33335C12.5 9.71407 11.3807 10.8334 10 10.8334C8.61931 10.8334 7.50002 9.71407 7.50002 8.33335C7.50002 6.95264 8.61931 5.83335 10 5.83335C11.3807 5.83335 12.5 6.95264 12.5 8.33335Z" stroke="#FAFAFC" stroke-width="1.5" stroke-linecap="round" stroke-linejoin="round"/>
</svg>
