<svg width="28" height="30" viewBox="0 0 28 30" fill="none" xmlns="http://www.w3.org/2000/svg">
<path d="M16.8606 10.6129L16.8672 10.603C16.8672 10.603 16.8639 10.6096 16.8606 10.6129Z" fill="white"/>
<path d="M7.74789 6.47479C7.74789 6.47479 8.84757 6.61296 9.37704 7.46903C9.87121 8.27092 10.1373 9.39248 10.1373 9.39248L9.72459 9.32475C9.72459 9.32475 9.46664 7.01119 7.74518 6.4775L7.74789 6.47479Z" fill="#19398A"/>
<path d="M9.78772 7.52286L12.6469 9.80932L9.83659 7.93464L9.47003 7.27362L9.78772 7.52286Z" fill="#19398A"/>
<path d="M5.20941 10.178C5.20941 10.178 6.12173 9.77165 6.92544 9.74185C7.34902 9.68496 7.89207 9.63349 8.72293 9.68496C9.5538 9.73643 10.5883 9.98838 10.7322 10.0019C10.8761 10.0155 10.963 10.0019 10.963 10.0019L10.4553 9.666C10.4553 9.666 7.59068 8.90745 5.20941 10.1807V10.178Z" fill="#19398A"/>
<path d="M5.742 9.69871C5.7773 9.47657 5.93478 8.34959 5.51935 7.53687C5.51935 7.53687 5.96736 7.97032 6.02438 8.81284C6.0624 9.34653 6.04339 9.5145 6.04067 9.58764L5.742 9.70142V9.69871Z" fill="#19398A"/>
<path d="M14.7858 10.3618C14.7858 10.3618 14.5605 10.4024 14.4057 10.9199C14.2808 11.3425 14.3297 11.5375 14.3297 11.5375C14.3297 11.5375 14.7994 11.1529 15.0791 11.1203C15.0791 11.1203 15.0329 10.7953 15.1687 10.6327C15.1687 10.6327 14.9678 10.3022 14.7858 10.3618Z" fill="#19398A"/>
<path d="M15.6661 10.6439C15.5738 10.587 15.4598 10.5951 15.3729 10.6574C15.3484 10.6737 15.3267 10.6954 15.3131 10.717C15.2724 10.7902 15.2751 11.0177 15.2914 11.0855C15.2914 11.0855 15.6607 11.0015 15.8942 11.0367C15.8236 10.8064 15.7557 10.7008 15.6661 10.6439Z" fill="#19398A"/>
<path d="M14.4874 11.9227L14.4032 12.023C14.4032 12.023 14.4521 12.4917 14.6367 12.9522C14.6666 13.0145 14.6964 13.0795 14.6964 13.0795C14.6964 13.0795 14.8811 12.9224 15.0196 12.8655C14.9164 12.3914 14.9055 11.725 14.9381 11.6464C14.9381 11.6464 14.8539 11.6356 14.6421 11.7819C14.5851 11.8225 14.5308 11.8713 14.4847 11.9227H14.4874Z" fill="#19398A"/>
<path d="M15.0661 11.6192C15.0661 11.6192 15.3648 12.5321 15.4191 12.6242C15.5358 12.5484 16.1169 12.3506 16.4835 12.3723C16.5894 12.3371 16.6464 11.9768 16.5975 11.7871C16.5459 11.5975 16.4454 11.4837 16.3368 11.4702C16.2282 11.4566 15.6797 11.3889 15.0688 11.6192H15.0661Z" fill="#19398A"/>
<path d="M14.9243 13.5344C14.9243 13.5344 15.0221 13.6779 15.1687 13.6888C15.3153 13.6996 15.6439 13.491 15.929 13.4666C16.2141 13.445 16.5535 13.3854 16.5535 13.3854C16.5535 13.3854 16.5589 12.9411 16.4286 12.7839C16.4286 12.7839 15.7145 12.8571 14.9216 13.5371L14.9243 13.5344Z" fill="#19398A"/>
<path d="M18.495 12.5052C18.495 12.5052 18.6769 12.5729 18.8697 12.8709C18.9403 12.9792 18.886 13.4669 18.848 13.5509C18.81 13.6348 18.3756 13.4181 18.3538 13.3125C18.3321 13.2068 18.4326 12.6785 18.3538 12.5431C18.2751 12.4076 18.4977 12.5079 18.4977 12.5079L18.495 12.5052Z" fill="#19398A"/>
<path d="M18.3756 14.2118C18.3756 14.2118 18.4923 14.3581 18.3756 14.4827C18.2588 14.6073 17.8651 15.0435 17.8216 15.187C17.7782 15.3306 17.7429 15.4525 17.8216 15.6097C17.9004 15.7668 18.0144 15.9889 18.009 16.0404C18.0036 16.0919 17.7945 16.1921 17.7076 15.97C17.6207 15.7478 17.4062 14.7753 17.7076 14.3716C18.009 13.968 18.3756 14.2145 18.3756 14.2145V14.2118Z" fill="#19398A"/>
<path d="M20.9116 15.6581L20.4826 15.2274C20.4826 15.2274 20.5424 14.9781 20.5885 14.7587C20.7813 14.6097 20.7786 13.9297 20.1677 13.694C20.0238 13.4285 19.7061 12.968 19.3422 13.0818C19.3151 12.8813 19.0218 12.391 18.6417 12.5589C18.563 12.3774 18.2344 12.2799 17.99 12.372C17.8923 12.3828 17.8081 12.4072 17.7457 12.4316C17.6153 11.9954 17.3031 11.3751 17.2081 11.1935C17.2081 11.1935 17.2081 11.1881 17.2053 11.1881C17.2053 11.1881 17.2053 11.1854 17.2026 11.18C17.1945 11.161 17.1863 11.1475 17.1809 11.1421C17.1266 11.0554 16.98 10.8955 16.7057 11.031C16.5645 10.8495 16.2143 10.6165 15.902 10.752C15.7826 10.6111 15.3535 10.1343 14.8757 10.4404C14.8757 10.4404 14.7073 10.1045 14.3435 10.2129C14.3109 10.2129 14.2837 10.2183 14.2539 10.221C14.0095 10.2562 13.9579 10.2941 13.8249 10.5948L5.1714 3.54309L5.14696 3.52413C5.14696 3.52413 5.12252 3.50516 5.07365 3.46724L1.8398 0.974879V0.980297C1.62258 0.809625 1.43522 0.663334 1.29132 0.549553C1.21801 0.492662 1.05509 0.397844 0.919329 0.514334C0.919329 0.514334 0.636944 0.693134 0.617937 0.731061C0.617937 0.731061 0.446877 0.909861 0.59893 1.18348C0.748269 1.4571 1.96198 3.72731 2.82543 4.63756C3.37119 5.20918 4.16133 5.73203 5.03292 6.30907C5.13338 6.37679 13.5398 11.8762 13.5398 11.8762C13.518 12.437 13.6837 13.2524 13.8412 13.5504C14.0068 13.862 14.2213 14.1248 14.3951 14.2088C14.5661 14.29 14.7806 14.2115 14.7888 14.2088C14.8186 14.2169 14.8512 14.225 14.8811 14.2304C14.8186 14.29 14.7508 14.3632 14.7128 14.3984C14.7128 14.3984 14.3706 14.7614 14.0475 15.0215C13.7244 15.2816 13.6239 15.2951 13.2927 15.3574C12.9614 15.4197 12.9261 15.371 12.4727 15.3412C12.3423 15.333 10.8734 15.1569 10.8734 15.1569C10.8625 15.1569 10.849 15.1542 10.8327 15.1515C10.6046 15.1136 10.048 15.035 9.84976 14.9402C9.71943 14.8779 9.5185 14.626 9.39903 14.4607C9.31485 14.4715 9.20353 14.4797 9.04876 14.4797C8.51657 14.4797 6.15974 14.0706 5.10623 13.7861C4.58762 13.6453 4.26722 13.7536 3.8708 13.4719L3.87623 14.1898C3.92239 14.3009 3.9604 14.3334 3.97398 14.3632C3.5151 14.821 3.11053 16.6713 3.01549 18.3862C2.7847 22.6042 4.76139 19.6865 3.16483 30C5.03835 26.8385 9.09492 22.8101 9.09492 22.8101C9.09492 22.8101 6.54259 26.2967 5.73074 29.0139C6.74352 27.234 8.55459 25.7332 8.86684 24.8717C8.913 25.5652 8.82882 26.8764 9.323 28.0766C9.17095 24.2324 9.84976 24.3299 10.6453 22.3685C11.2671 20.8352 10.5693 19.6513 10.2136 19.2233C10.8272 19.6838 12.4537 20.4017 13.3687 20.6239C13.089 21.0952 13.442 21.5097 13.8819 21.3878C14.3706 21.2551 17.4877 19.0878 17.8597 18.7871C18.172 18.5352 18.267 18.4187 18.2914 18.2968C18.324 18.2968 18.3485 18.2968 18.3648 18.2886C18.4951 18.2372 19.0897 17.8308 19.1685 17.7929C19.2092 17.7712 19.3151 17.7197 19.3042 17.6547C19.4346 17.5707 19.592 17.2673 19.7061 16.9937C19.85 16.6551 19.7903 16.4492 19.7903 16.4492C19.8744 16.4817 20.0129 16.5061 20.1215 16.5006C20.3007 16.4898 20.4066 16.525 20.4066 16.525C20.4066 16.525 20.4446 16.4979 20.4609 16.4898C20.6184 16.4221 20.8899 16.0645 20.9469 15.8857C20.9795 15.78 20.9605 15.696 20.9089 15.6581H20.9116ZM16.8524 16.9178C16.8388 16.9341 16.7057 17.0885 16.6704 17.3594C16.6704 17.3648 16.6704 17.3703 16.6704 17.3594C16.4695 17.484 14.3462 18.1478 13.6728 18.1478C12.9994 18.1478 14.1181 18.1478 15.1553 17.736C16.1926 17.3215 16.2957 17.2592 16.6379 15.7719C16.7166 15.9588 16.9365 16.3354 16.9012 16.5386C16.8849 16.628 16.9012 16.7174 16.942 16.8068C16.9012 16.8393 16.8741 16.8772 16.8524 16.9151V16.9178Z" fill="white"/>
<path d="M16.6679 17.3639C16.6646 17.3573 16.6679 17.3474 16.6679 17.3639V17.3639Z" fill="white"/>
<path d="M15.1389 14.4446C15.1389 14.4446 15.386 14.2333 15.6439 14.2794C15.9019 14.3282 15.5896 15.3143 15.2991 15.81C15.0086 16.3058 14.9027 16.3329 14.6637 16.4033C13.8003 16.6607 12.869 16.5252 12.869 16.5252L13.0943 15.8778C13.0943 15.8778 13.6862 15.9482 14.0827 15.6366C14.3949 15.3928 14.9054 14.5774 15.1362 14.4446H15.1389Z" fill="#19398A"/>
<path d="M5.37268 15.1898C5.37268 15.1898 5.96189 14.881 6.64884 14.9948C7.3358 15.1085 8.14222 15.672 8.14222 15.672L7.23805 16.5227L9.58673 15.4174L10.5235 15.4743L10.6674 15.3822C10.6674 15.3822 9.37494 15.2142 7.61275 14.816C6.81176 14.6344 6.23613 14.5342 5.36725 15.1898H5.37268Z" fill="#19398A"/>
<path d="M10.5987 15.4252L7.88348 17.1915L9.60766 15.2925L10.5987 15.4252Z" fill="#19398A"/>
<path d="M12.8667 15.7778L12.0901 15.6938L11.5416 15.5936L10.0157 16.4659L8.43268 17.2597C8.43268 17.2597 9.35858 17.0158 10.2628 16.5634C11.0529 16.1679 11.3326 15.9647 11.3326 15.9647C10.7814 16.9698 10.5994 16.9644 10.5994 16.9644C12.158 15.9701 12.864 15.7805 12.864 15.7805L12.8667 15.7778Z" fill="#19398A"/>
<path d="M18.5629 12.9818C18.5629 12.9818 18.4977 13.7349 18.4923 13.9299C18.4868 14.125 18.7448 14.3878 18.8262 14.3553C18.9077 14.3228 18.9511 14.0925 18.9511 14.0925C18.9511 14.0925 19.0598 14.0979 19.0598 14.358C19.0598 14.618 19.076 14.8077 19.2634 14.8348C19.4508 14.8619 19.6924 14.6506 19.7304 14.5178C19.7684 14.3851 19.9232 13.7213 19.6707 13.5913C19.4182 13.4613 19.22 13.5209 19.22 13.5209C19.22 13.5209 19.1222 13.0468 18.9349 12.9818C18.7475 12.9167 18.5819 12.8761 18.5629 12.9818Z" fill="#19398A"/>
<path d="M19.975 14.03C19.975 14.03 20.1814 14.068 20.3633 14.2955C20.5452 14.5231 20.3633 15.0026 20.3633 15.0026C20.3633 15.0026 19.975 15.2518 19.9261 14.9376C19.88 14.6233 19.9723 14.03 19.9723 14.03H19.975Z" fill="#19398A"/>
<path d="M9.92328 7.6096L8.06605 6.15482L1.13947 0.625579C1.12318 0.614743 1.10689 0.603906 1.08788 0.603906C1.00099 0.595779 1.00643 0.603906 0.94126 0.644543C0.840796 0.709561 0.759338 0.777288 0.759338 0.777288C0.759338 0.777288 1.2508 1.33265 2.30703 2.38107C3.93617 3.99839 13.7599 10.7413 13.7599 10.7413L9.92056 7.60689L9.92328 7.6096Z" fill="#19398A"/>
<path d="M14.3648 10.3618C14.3648 10.3618 14.1394 10.4024 13.9846 10.9199C13.8597 11.3425 13.9086 11.5375 13.9086 11.5375C13.9086 11.5375 14.3783 11.1529 14.658 11.1203C14.658 11.1203 14.6118 10.7953 14.7476 10.6327C14.7476 10.6327 14.5467 10.3022 14.3648 10.3618Z" fill="#19398A"/>
<path d="M15.245 10.6439C15.1526 10.587 15.0386 10.5951 14.9517 10.6574C14.9273 10.6737 14.9056 10.6954 14.892 10.717C14.8513 10.7902 14.854 11.0177 14.8703 11.0855C14.8703 11.0855 15.2395 11.0015 15.473 11.0367C15.4025 10.8064 15.3346 10.7008 15.245 10.6439Z" fill="#19398A"/>
<path d="M14.0668 11.9227L13.9826 12.023C13.9826 12.023 14.0315 12.4917 14.2161 12.9522C14.246 13.0145 14.2759 13.0795 14.2759 13.0795C14.2759 13.0795 14.4605 12.9224 14.599 12.8655C14.4958 12.3914 14.4849 11.725 14.5175 11.6464C14.5175 11.6464 14.4333 11.6356 14.2215 11.7819C14.1645 11.8225 14.1102 11.8713 14.0641 11.9227H14.0668Z" fill="#19398A"/>
<path d="M14.645 11.6192C14.645 11.6192 14.9437 12.5321 14.998 12.6242C15.1148 12.5484 15.6958 12.3506 16.0624 12.3723C16.1683 12.3371 16.2253 11.9768 16.1764 11.7871C16.1275 11.5975 16.0244 11.4837 15.9158 11.4702C15.8071 11.4566 15.2587 11.3889 14.6477 11.6192H14.645Z" fill="#19398A"/>
<path d="M14.5043 13.5344C14.5043 13.5344 14.6021 13.6779 14.7487 13.6888C14.8953 13.6996 15.2238 13.491 15.5089 13.4666C15.794 13.445 16.1334 13.3854 16.1334 13.3854C16.1334 13.3854 16.1389 12.9411 16.0085 12.7839C16.0085 12.7839 15.2944 12.8571 14.5016 13.5371L14.5043 13.5344Z" fill="#19398A"/>
<path d="M18.0388 15.0652L19.6109 16.287C19.6109 16.287 20.1757 16.4766 20.3603 16.3683C20.545 16.2599 20.8029 15.9159 20.7432 15.8644C20.6835 15.8129 20.3223 15.4607 20.3223 15.4607C20.3223 15.4607 19.8472 15.691 19.6571 15.2115C19.6571 15.2115 19.0027 15.309 18.8887 14.8458C18.8887 14.8458 18.3674 14.9054 18.3375 14.4313C18.2669 14.6453 18.0388 15.0625 18.0388 15.0625V15.0652Z" fill="#19398A"/>
<path d="M17.6391 12.9355C17.6446 12.8867 17.6473 12.7106 17.764 12.6727C17.9161 12.624 18.1251 12.5887 18.2473 12.6808C18.4075 12.8 18.2745 13.4909 18.2908 13.7238C18.3071 13.9568 18.1143 13.9622 17.9975 13.9568C17.7559 13.946 17.6147 13.7889 17.6147 13.4827C17.6147 13.2525 17.6201 13.0818 17.6391 12.9355Z" fill="#19398A"/>
<path d="M16.7412 18.2236C16.6978 18.1423 16.8417 17.9418 16.9313 17.6248L16.7846 17.4596L16.6652 17.5165C16.6652 17.5165 16.7439 17.6249 16.7439 17.679C16.7439 17.7278 16.4968 18.0231 16.5023 18.3861C16.5023 18.4132 16.4697 18.4267 16.4507 18.4051C16.3991 18.3455 16.3231 18.2561 16.2742 18.1775C16.228 18.1098 16.1982 18.0502 16.1819 18.0122C16.1683 17.9852 16.1384 17.9716 16.1086 17.9824L15.4487 18.2154C15.4243 18.2236 15.4107 18.2506 15.4162 18.2777C15.4297 18.3265 15.465 18.4294 15.5601 18.6299C15.7366 19.0065 15.8696 19.2151 15.9429 19.3018C15.9538 19.3153 15.9728 19.318 15.9864 19.3072L17.3195 18.6218C17.3195 18.6218 17.3304 18.5947 17.3168 18.5893C17.2055 18.5486 16.8417 18.4078 16.7385 18.2236H16.7412Z" fill="#19398A"/>
<path d="M17.2898 14.3335C17.2898 14.3335 16.9395 14.6722 16.9857 15.3549C17.0319 16.0375 17.2138 16.1161 17.2355 16.341C17.2572 16.5658 17.3088 16.7663 17.4934 16.8747C17.6781 16.983 18.4845 17.4246 18.4845 17.4246C18.4845 17.4246 18.7262 17.5817 18.957 17.5573C18.957 17.5573 19.052 17.5411 19.1769 17.4679C19.1307 17.3081 19.1253 16.452 19.1253 16.452L18.8701 17.0643C18.8701 17.0643 18.251 16.6498 18.0256 16.4087C17.8003 16.1676 17.8301 16.2191 17.7677 16.1026C17.7052 15.9861 17.6374 15.8913 17.5803 15.7883C17.5233 15.6854 17.3821 15.4768 17.5152 15.26C17.6482 15.0433 17.6265 15.0758 17.8736 14.7778C18.1207 14.4798 17.9469 14.2387 17.7894 14.2794C17.6319 14.32 17.5749 14.2739 17.5125 14.1818C17.5125 14.1818 17.3713 14.2468 17.2844 14.3335H17.2898Z" fill="#19398A"/>
<path d="M4.89725 13.2393C5.01673 13.0822 5.00043 12.5675 4.55242 12.1692C4.51984 12.1394 4.15599 11.6952 4.12613 11.6708C3.65911 12.5079 2.93685 12.3724 2.41009 12.749C1.56837 13.3531 1.70142 13.9762 0.919427 13.792C0.919427 13.792 1.28327 14.4611 2.22817 13.9627C2.22817 13.9627 2.20645 14.4964 1.70956 14.9163C1.46791 15.1194 0.696777 15.3443 0.696777 15.3443C0.696777 15.3443 1.51135 15.5854 2.30148 15.3145C2.07612 15.5935 1.48148 15.8969 1.48148 15.8969C2.8201 16.1218 3.36043 14.9975 3.60752 14.4855C4.01209 13.6538 4.35692 13.9302 4.47911 13.7703C4.52798 13.8408 4.7099 13.7622 4.72348 13.7812C4.68275 13.8543 4.79951 13.3748 4.89997 13.242L4.89725 13.2393Z" fill="white"/>
<path d="M9.05987 14.4798C9.20921 14.4798 9.31782 14.4716 9.39656 14.4608C9.33683 14.3795 9.04358 14.0436 9.04358 14.0436C9.04358 14.0436 9.85001 14.0463 10.1514 13.5993C10.2274 13.5045 10.2356 13.4205 10.2383 13.3447C10.241 13.2742 10.2166 13.2173 10.1948 13.1821C10.2274 13.1388 10.2573 13.071 10.2573 12.9925C10.2573 12.9139 10.2437 12.876 10.184 12.7947C10.203 12.662 10.2356 12.4344 10.2247 12.2366C10.2329 12.2285 10.3306 12.1499 10.3659 12.0985C10.4202 12.0226 10.4284 11.9359 10.4148 11.8655C10.4093 11.814 10.3903 11.7382 10.2899 11.6352C10.2899 11.6352 10.2953 11.6406 10.298 11.6433C10.3252 11.5865 10.3415 11.5323 10.3415 11.4916C10.3415 11.4131 10.1704 11.2912 10.0944 11.2397C10.1025 11.2316 10.1107 11.2262 10.1188 11.218C10.2166 11.1151 10.336 10.9525 10.3442 10.8767C10.3469 10.8388 10.3523 10.7602 10.3442 10.687C10.3578 10.6654 10.3713 10.6437 10.3822 10.6302C10.4555 10.5435 10.7297 10.4459 10.909 10.3322C10.909 10.3322 10.909 10.3322 10.9117 10.3322C10.9171 10.3294 10.9225 10.3267 10.928 10.3213C10.9524 10.3051 10.9633 10.2969 10.9823 10.2726C10.9823 10.2726 10.9823 10.2726 10.9795 10.2726C11.0067 10.2373 11.0203 10.2021 11.0121 10.1669C11.0148 10.1669 11.0176 10.1696 11.0176 10.1696C11.023 10.175 11.0284 10.1777 11.0339 10.1832C10.8574 9.90412 10.4229 9.6305 10.4229 9.6305C10.4229 9.6305 10.1758 8.9749 9.74683 8.0186C9.32053 7.06229 8.27517 6.36605 6.98271 6.47984C6.07582 6.5584 5.66039 6.72636 5.49476 6.81847C5.49476 6.81847 5.50019 6.82118 5.50019 6.82389C5.29383 6.94038 5.14721 7.05416 5.07118 7.12189C5.07118 7.12189 4.41138 7.44427 4.13171 8.27325C3.96065 8.78256 4.02038 10.2563 4.02038 10.2563C4.02038 10.2563 3.81131 10.2698 3.78687 10.3213C3.76244 10.3701 3.71356 10.725 3.71356 10.79C3.71356 10.855 3.738 10.9525 3.80045 11.004L3.8086 11.5323L3.8276 11.9495L4.09641 12.4452L4.08012 13.5045C4.46025 13.7754 4.96257 14.0734 5.45946 14.2089C6.47225 14.4852 8.54126 14.4716 9.05173 14.4716L9.05987 14.4798ZM9.91789 12.5157C9.91789 12.5157 9.91246 12.5021 9.97762 12.4479C10.0021 12.4263 10.0564 12.3748 10.1161 12.3152C10.1161 12.3911 10.1215 12.5699 10.1052 12.7053C10.0564 12.6647 9.9912 12.624 9.92332 12.5861V12.5184L9.91789 12.5157ZM9.87173 12.3775L9.80385 12.1662C9.89345 12.1039 9.99391 12.0307 10.0618 11.9711L10.1025 12.1933C10.0048 12.2746 9.87173 12.3775 9.87173 12.3775ZM9.93961 12.8272C9.99391 12.8543 10.0591 12.8895 10.1107 12.9247C10.108 12.9735 10.0862 13.071 9.97491 13.1442C9.96948 13.0304 9.95862 12.9193 9.93961 12.8299V12.8272ZM10.165 13.4341C10.1433 13.5099 9.99391 13.621 9.95047 13.6318C9.95047 13.5803 9.98305 13.453 9.98305 13.388C10.0048 13.3717 10.0374 13.3447 10.0754 13.3121C10.1188 13.3311 10.184 13.3717 10.165 13.4341ZM10.2899 11.982C10.2872 12.0145 10.2437 12.0633 10.2057 12.1012L10.146 11.8872C10.1595 11.8709 10.1704 11.8574 10.184 11.8411C10.2247 11.8682 10.2464 11.8872 10.2464 11.8872C10.2464 11.8872 10.298 11.9197 10.2926 11.982H10.2899ZM10.0184 11.3101C10.0781 11.3426 10.1378 11.3968 10.1758 11.432C10.2329 11.4862 10.1758 11.5919 10.1758 11.6406C10.0672 11.5621 9.89074 11.5025 9.82014 11.4727C9.82014 11.4727 9.95047 11.3643 10.0184 11.3101ZM9.81471 11.6352C9.92875 11.6894 10.0184 11.7382 10.0862 11.7788C9.98577 11.8547 9.81471 11.9711 9.7414 12.0199C9.77669 11.8682 9.80656 11.7273 9.81471 11.6352ZM9.63007 12.4507C9.64636 12.3938 9.66265 12.3342 9.67895 12.2664L9.74954 12.5021C9.7061 12.4832 9.66265 12.4642 9.62464 12.4479C9.62464 12.4479 9.63007 12.4479 9.63279 12.4507H9.63007ZM9.36941 13.2634C9.4563 13.0602 9.55405 12.7053 9.57848 12.6078C9.69795 12.6484 9.76312 12.6728 9.80113 12.6863C9.81199 12.7757 9.87173 13.1144 9.87987 13.3609C9.88259 13.4801 9.86358 13.6074 9.84458 13.686C9.74683 13.4666 9.35855 13.258 9.36941 13.2634ZM9.31782 13.3853C9.40471 13.4178 9.49703 13.5045 9.5812 13.5668C9.67895 13.6372 9.73597 13.7212 9.76583 13.7619C9.5812 13.8648 9.23908 13.9325 9.09245 13.9C9.18206 13.7456 9.27166 13.5045 9.3151 13.3853H9.31782Z" fill="white"/>
<path d="M7.84012 6.7944C7.84012 6.7944 8.89635 6.92714 9.4041 7.74799C9.87926 8.51737 10.1345 9.59288 10.1345 9.59288L9.73807 9.52786C9.73807 9.52786 9.48827 7.30641 7.8374 6.79169L7.84012 6.7944Z" fill="#19398A"/>
<path d="M5.39899 10.3484C5.39899 10.3484 6.27601 9.95833 7.04714 9.92853C7.45442 9.87164 7.97575 9.82558 8.77403 9.87164C9.57231 9.91769 10.5634 10.1642 10.7019 10.1751C10.8403 10.1859 10.9218 10.1751 10.9218 10.1751L10.4358 9.85267C10.4358 9.85267 7.68522 9.12393 5.39899 10.3457V10.3484Z" fill="#19398A"/>
<path d="M5.90957 9.88802C5.94487 9.67401 6.09692 8.59037 5.69507 7.81287C5.69507 7.81287 6.12679 8.22736 6.1811 9.03737C6.21639 9.54939 6.2001 9.70922 6.19739 9.77966L5.90957 9.88802Z" fill="#19398A"/>
<path d="M5.27502 11.7494C5.27502 11.7494 6.24437 11.0802 7.27616 10.9719C8.30795 10.8635 9.44835 11.1886 9.81491 11.5137C9.82305 11.5435 9.81491 11.6329 9.81491 11.6329C9.81491 11.6329 9.07365 11.0965 7.83821 11.0911C6.36112 11.083 5.27774 11.8523 5.27774 11.8523V11.7467L5.27502 11.7494Z" fill="#19398A"/>
<path d="M5.35596 13.0576C5.35596 13.0576 5.37225 13.0467 5.38311 13.0413C5.72523 12.8246 6.33887 12.4805 7.00139 12.3261C8.01418 12.0931 9.21974 12.169 9.62431 12.448C9.61888 12.4832 9.58902 12.5645 9.58902 12.5645C9.58902 12.5645 8.8016 12.234 7.57702 12.3776C6.59139 12.4941 5.82026 12.8869 5.41841 13.1334C5.40755 13.1415 5.38311 13.1551 5.38311 13.1551L5.35596 13.0576Z" fill="#19398A"/>
<path d="M5.90717 13.724C5.90717 13.724 5.92074 13.7159 5.9316 13.7105C6.15154 13.5723 6.93624 13.1253 7.9436 13.1199C9.11658 13.1145 9.35824 13.277 9.35824 13.277L9.31751 13.3745C9.31751 13.3745 8.91837 13.1118 7.73452 13.2147C6.82763 13.2933 6.24657 13.6184 6.02392 13.7646C6.01306 13.7728 5.99405 13.7863 5.99405 13.7863L5.9126 13.7267L5.90717 13.724Z" fill="#19398A"/>
<path d="M7.66405 11.2451L7.77538 11.2424L7.7618 12.2556L7.63147 12.2529L7.66405 11.2451Z" fill="#19398A"/>
<path d="M7.63108 12.4832L7.74241 12.4778L7.69353 13.1686L7.56592 13.1659L7.63108 12.4832Z" fill="#19398A"/>
<path d="M7.5774 13.2908L7.68872 13.2853L7.52309 14.0222H7.39276L7.5774 13.2908Z" fill="#19398A"/>
<path d="M8.73327 12.4776L8.8446 12.4722L8.84731 13.1684L8.71698 13.1657L8.73327 12.4776Z" fill="#19398A"/>
<path d="M8.68744 13.3151L8.79876 13.3124L8.70644 13.9816L8.57611 13.9789L8.68744 13.3151Z" fill="#19398A"/>
<path d="M8.50848 11.2721L8.62795 11.2911L8.8669 12.2582H8.73385L8.50848 11.2721Z" fill="#19398A"/>
<path d="M5.37491 9.74447C5.37491 9.74447 5.36133 10.7008 5.33961 10.95C5.31789 11.1992 5.29888 12.1312 5.30974 12.4779C5.32603 12.9629 5.48895 13.2879 5.63014 13.4451C5.77133 13.6022 6.1922 13.9625 6.95789 14.0004C7.72359 14.0384 9.05949 13.8948 9.05949 13.8948L8.98618 14.0221C8.98618 14.0221 7.69644 14.1034 6.95789 14.0953C6.21935 14.0871 5.66272 13.6076 5.55683 13.5074C5.41021 13.3719 5.28802 13.1119 5.24186 12.7895C5.20385 12.5159 5.23915 12.0255 5.23915 11.3157C5.23915 10.606 5.27445 9.76614 5.27445 9.76614C5.27445 9.76614 5.3016 9.56025 5.02736 9.56567C4.80742 9.57109 4.79928 9.78781 4.79928 9.78781L4.72054 9.84741C4.72054 9.84741 4.67438 9.53587 4.95133 9.45189C5.22829 9.3679 5.37491 9.55212 5.37491 9.74447Z" fill="#19398A"/>
<path d="M4.44662 10.7874L5.27477 10.2672V10.4243L4.46291 10.9228C4.46291 10.9228 4.43848 10.9228 4.43848 10.9093V10.8009C4.43848 10.8009 4.44119 10.7901 4.44662 10.7874Z" fill="#19398A"/>
<path d="M5.27416 10.8714L4.45959 11.4159C4.44058 11.4295 4.43244 11.4566 4.44058 11.4782L4.74741 12.1528C4.75555 12.169 4.77727 12.1772 4.79357 12.1663L5.27688 11.8629V11.7166L4.85602 11.9659C4.83972 11.974 4.818 11.9659 4.81257 11.9523L4.63337 11.5405C4.62251 11.5189 4.63337 11.4918 4.65237 11.4782L5.27688 11.0746V10.8714H5.27416Z" fill="#19398A"/>
<path d="M7.78078 4.06614C8.64695 3.85483 9.54569 3.76272 10.4417 3.77627C10.8897 3.7871 11.3377 3.82503 11.7858 3.88734C12.2311 3.95778 12.6709 4.05259 13.1081 4.1745C13.5425 4.29912 13.9688 4.45354 14.387 4.63234C14.8051 4.81114 15.207 5.02245 15.6007 5.25272C17.1674 6.18464 18.506 7.53106 19.4427 9.14026C19.6735 9.54391 19.8853 9.9584 20.0672 10.3891C20.2465 10.8199 20.4012 11.2615 20.5316 11.7139C20.7325 12.4345 20.8601 13.1768 20.9171 13.9272C20.928 13.9462 20.9361 13.9651 20.9443 13.9841C20.928 13.212 20.8329 12.4372 20.6592 11.6814C20.5506 11.2208 20.4121 10.763 20.2492 10.316C20.0835 9.869 19.888 9.43554 19.6708 9.01293C18.7911 7.32246 17.4742 5.85955 15.8776 4.80301C15.4785 4.54023 15.0631 4.29912 14.6313 4.09052C14.1996 3.88192 13.757 3.6977 13.3009 3.54329C12.8447 3.39158 12.3804 3.26967 11.9107 3.17214C11.4382 3.08274 10.9603 3.01772 10.4797 2.98251C9.51854 2.9202 8.54648 2.97438 7.59343 3.1586C6.99879 3.27238 6.4123 3.43763 5.8421 3.64623L6.74085 4.38039C7.08297 4.25849 7.43052 4.15283 7.7835 4.06614H7.78078Z" fill="white"/>
<path d="M1.78007 6.71017C1.16914 7.50122 0.669533 8.36542 0.292114 9.26755C0.821586 8.44669 1.45424 7.70711 2.1602 7.07319C2.55391 6.7183 3.1404 6.24963 3.75133 5.8541C3.48795 5.66717 3.24087 5.47754 3.0155 5.2879C2.53762 5.75387 2.10861 6.28214 1.77735 6.71017H1.78007Z" fill="white"/>
<path d="M1.03866 20.7542C1.64688 21.9137 2.4696 22.9757 3.45794 23.8697C3.44437 23.6285 3.42536 23.4064 3.40364 23.2032C2.5049 22.526 1.70118 21.6997 1.03595 20.7569L1.03866 20.7542Z" fill="white"/>
<path d="M11.4303 25.9203C12.0439 25.8174 12.6494 25.6684 13.2359 25.4652C13.8224 25.262 14.3899 25.0128 14.933 24.7175C15.476 24.4222 15.9919 24.0809 16.4752 23.7016C16.5974 23.6095 16.7142 23.5066 16.8336 23.409C16.9504 23.3088 17.0644 23.2058 17.1785 23.1029C17.4011 22.8916 17.621 22.6776 17.8274 22.45C18.6583 21.5479 19.3316 20.5076 19.8285 19.3942C19.2583 20.4697 18.5198 21.4449 17.6482 22.2658C17.431 22.4744 17.2029 22.6667 16.9748 22.8564C16.8553 22.9485 16.7413 23.0406 16.6191 23.1273C16.4969 23.214 16.3802 23.3034 16.2553 23.3846C15.7611 23.7152 15.2452 24.0077 14.7103 24.2516C14.1727 24.4954 13.6188 24.6931 13.054 24.8448C12.4892 24.9966 11.9136 25.0941 11.3353 25.1483C10.8465 25.1943 10.3578 25.2052 9.86903 25.1808C9.80658 25.4435 9.75499 25.7334 9.71698 26.0693C10.2926 26.0612 10.8655 26.0125 11.433 25.9176L11.4303 25.9203Z" fill="white"/>
<path d="M12.2443 4.97374C12.9856 5.07939 13.7187 5.27716 14.4246 5.56161C12.2633 4.44005 9.69198 4.22603 7.35687 4.88434L7.94336 5.36114C9.31999 4.90059 10.8052 4.76243 12.2443 4.97103V4.97374Z" fill="white"/>
<path d="M4.37031 6.27948C3.82455 6.68855 3.32223 7.1491 2.86878 7.65028C2.27686 8.30587 1.76911 9.03462 1.37811 9.81483C1.86957 9.09422 2.45878 8.45487 3.11044 7.90493C3.63991 7.45793 4.316 7.00281 4.96495 6.6723C4.89435 6.62624 4.85091 6.59644 4.84548 6.59373C4.68528 6.48808 4.52779 6.38243 4.37302 6.27948H4.37031Z" fill="white"/>
<path d="M2.91741 20.5996C2.48841 20.1444 2.10284 19.646 1.76887 19.1069C1.34801 18.4269 1.00589 17.69 0.764229 16.9125C0.709924 16.7175 0.650189 16.5224 0.601314 16.3246L0.536148 16.0239L0.503566 15.8749L0.487274 15.7991L0.476413 15.7232C0.446546 15.52 0.411247 15.3196 0.384095 15.1137C0.359658 14.9105 0.343366 14.7046 0.332505 14.4987C0.321644 14.7046 0.316214 14.9105 0.318929 15.1191C0.321644 15.325 0.337936 15.5336 0.346082 15.7395V15.818L0.359658 15.8966L0.375949 16.051L0.408532 16.3626C0.4384 16.5685 0.476413 16.7743 0.511711 16.9802C0.674626 17.8011 0.94615 18.603 1.31271 19.3669C1.7933 20.3639 2.44225 21.285 3.22695 22.0842C3.19165 21.9108 3.15364 21.7482 3.11834 21.5857C3.04503 21.266 2.97443 20.9518 2.92013 20.6023L2.91741 20.5996Z" fill="white"/>
<path d="M10.5121 24.52C11.4027 24.4713 12.2825 24.306 13.1215 24.0297C13.9578 23.7452 14.7506 23.3524 15.4756 22.8675C16.1978 22.3744 16.8522 21.792 17.4197 21.1391C16.7898 21.7297 16.0892 22.2363 15.3425 22.6399C14.5904 23.0382 13.7949 23.3335 12.983 23.5204C12.2526 23.6802 11.1937 23.7452 10.4117 23.729C10.2841 24.0026 10.1673 24.26 10.0668 24.5336C10.2162 24.5336 10.3655 24.5282 10.5148 24.52H10.5121Z" fill="white"/>
</svg>
