<svg width="20" height="20" viewBox="0 0 20 20" fill="none" xmlns="http://www.w3.org/2000/svg">
<rect width="20" height="20" rx="10" fill="#02B46A"/>
<path d="M13.7638 6.41994C14.0574 6.17833 14.4919 6.19441 14.7678 6.46779C15.0619 6.75938 15.0642 7.23415 14.7726 7.52834L14.589 7.71193C14.5702 7.73602 14.5507 7.76009 14.5285 7.78224C14.3661 7.94405 14.1165 8.19298 13.8127 8.49611L13.6525 8.65822C13.6462 8.66463 13.6385 8.66966 13.632 8.6758C13.0268 9.27969 12.2538 10.0523 11.5265 10.7783C10.9314 11.3724 10.3666 11.935 9.95135 12.3496L9.27068 13.0303H9.26971C9.1289 13.1709 8.93841 13.2502 8.73943 13.25C8.54043 13.2498 8.34965 13.1703 8.20916 13.0293L5.46892 10.2793L5.41717 10.2227C5.1774 9.92765 5.19578 9.49287 5.47088 9.21877C5.74598 8.94467 6.18064 8.92811 6.47478 9.16896L6.53142 9.22072L8.74139 11.4385C8.78886 11.3911 8.83932 11.3415 8.89178 11.2891C9.30696 10.8745 9.87093 10.3109 10.466 9.71681C11.2521 8.93206 12.0932 8.09302 12.717 7.47072L13.7072 6.4717L13.7638 6.41994Z" fill="white"/>
</svg>
