<svg width="27" height="26" viewBox="0 0 27 26" fill="none" xmlns="http://www.w3.org/2000/svg">
<path d="M19.6336 25.4216C19.6336 25.4216 19.2454 25.5049 19.1484 25.5883C18.0809 25.8382 17.4986 24.8383 17.2075 24.0883C16.9164 23.3383 17.1105 23.3384 17.0134 23.0884C16.8194 22.6718 16.4312 23.3384 16.2371 23.505C15.7519 23.9217 14.9756 24.3383 14.1992 24.1717C13.3259 23.9217 12.8407 22.6717 12.5495 22.0051C12.5495 22.0051 11.5791 21.7551 11.4821 21.7551C10.9969 22.1717 10.7057 22.5884 10.0264 22.8384C8.66787 23.255 8.27972 22.0051 7.89156 21.1718L6.33889 21.0052C5.85369 21.1718 5.07736 21.4218 4.49511 21.0885C3.91286 20.7552 4.10695 20.7552 4.00991 20.6718C3.91286 20.5885 2.45723 20.5052 2.3602 20.5052C1.97203 20.5052 1.77796 21.0885 1.09867 21.1718C0.41938 21.2551 0.128258 20.6718 -0.356949 20.2552L-6.37352 19.9219C-6.76168 19.9219 -6.85873 20.2552 -7.44098 20.2552C-8.02323 20.2552 -8.12026 19.9219 -8.31435 19.8385C-8.50843 19.7552 -10.2552 19.8385 -10.3522 19.8385C-10.6433 19.8385 -10.8374 20.0885 -11.1285 20.0885C-11.5167 20.0885 -11.7108 19.9219 -12.0019 19.8385C-12.8753 19.6719 -15.5924 20.0052 -16.6599 20.0885C-19.6682 20.2552 -22.8705 20.5052 -25.7818 21.0052C-26.6551 21.1718 -27.5285 21.4218 -28.4989 21.5051C-28.693 21.5051 -28.4989 21.2551 -28.4989 21.2551C-25.7818 20.7552 -23.1617 20.0885 -20.3475 19.5886C-17.8244 19.1719 -15.2043 19.0052 -12.6812 18.8386C-14.0398 16.2554 -14.7191 13.4222 -15.3013 10.6724V10.839C-15.3013 12.1723 -15.3013 13.4222 -15.4954 14.7555C-15.6895 16.0888 -16.2717 18.172 -17.8244 17.5053C-18.9889 17.0887 -19.183 15.6721 -19.5711 14.7555L-19.7652 16.5887C-19.9593 17.172 -20.2504 18.1719 -21.2208 17.8386C-22.1912 17.5053 -22.4824 16.2554 -22.7735 15.5888C-23.0646 14.9222 -23.1617 14.5888 -23.3557 14.1722L-23.6469 16.5054C-24.4232 19.0886 -25.9759 17.672 -26.8492 16.0887C-28.4019 13.4222 -29.0812 10.2557 -29.9545 7.42252C-29.9545 7.25586 -30.1486 7.25588 -30.2457 7.33921L-29.8575 16.7554C-29.8575 17.2553 -29.8575 17.8387 -29.8575 18.3386C-29.8575 18.8386 -29.9546 20.9218 -31.2161 20.5885C-32.4776 20.2552 -33.351 18.5886 -33.7391 17.922C-34.1273 17.2554 -34.4184 17.0054 -34.3214 16.8387C-34.2244 16.6721 -34.3214 16.8387 -34.1273 16.8387C-33.7392 17.3387 -33.351 17.922 -32.9628 18.3386C-32.5747 18.7553 -31.7013 19.9219 -31.119 20.1719C-30.5368 20.4219 -30.3427 19.5886 -30.2457 19.1719C-29.8575 16.8387 -30.2457 13.5889 -30.2457 11.1723C-30.2457 9.92238 -30.2457 8.67245 -30.2457 7.42252C-30.2457 7.42252 -30.3427 7.42252 -30.4397 7.42252C-31.4102 7.6725 -32.5747 8.08918 -33.5451 8.33917C-37.2326 9.5891 -40.9202 11.0057 -44.3167 12.7556C-44.6078 12.8389 -44.8019 12.7556 -44.6078 12.4223C-43.6374 11.9223 -42.764 11.5057 -41.7936 11.0057C-39.1735 9.67244 -36.5533 8.58913 -33.7391 7.58919C-30.9249 6.58924 -30.3427 6.58925 -30.3427 6.50592C-30.3427 6.42259 -30.3427 6.1726 -30.3427 6.08927C-30.3427 6.00595 -30.2457 6.42261 -29.9545 6.42261L-25.3936 5.00601C-25.3936 4.17272 -24.9084 3.92272 -24.6173 4.83934C-15.2043 2.25614 -5.50014 0.756214 4.39807 0.506227C4.78623 0.172911 5.07736 0.25624 5.46553 0.506227C10.3176 0.506227 15.2667 0.672895 20.0217 1.50618C20.1188 1.50618 20.5069 1.00622 20.604 0.839563C21.1862 0.33959 21.7685 0.0895927 22.5448 0.256251C23.8063 0.506237 23.8063 1.58949 24.0974 2.42278C24.7767 2.58944 25.359 2.83947 26.0383 2.67281C26.7175 2.50615 26.0383 2.83946 26.0383 2.92279C26.0383 3.08944 26.2324 3.33942 26.2324 3.58941C26.8146 7.33921 25.5531 12.9222 24.3886 16.5887C23.7093 18.6719 21.9625 24.005 19.8276 25.0883C19.8276 25.0883 19.7306 25.0883 19.6336 25.0883V25.4216ZM20.9921 2.67281C19.7306 4.75603 19.2454 7.08922 18.8572 9.42243C18.469 11.7556 18.469 12.1723 18.275 13.5056C18.0809 15.6721 17.9838 17.922 18.0809 20.0885C18.0809 20.0885 18.275 19.9219 18.275 19.8385C20.5069 16.1721 22.6418 10.1724 22.933 6.08927C22.933 5.08933 23.03 4.0894 22.6418 3.08945C22.6418 3.08945 22.7389 3.08941 22.8359 3.25607C23.9034 4.92265 22.8359 9.92243 22.2537 11.839C21.6714 13.7556 20.604 16.7554 19.4395 18.9219C19.1483 19.4219 18.275 20.8385 18.1779 21.2551C18.0809 21.6718 18.1779 22.6717 18.372 22.7551L20.2158 23.5883C21.5744 21.6718 22.4477 19.4219 23.2241 17.3387C24.4856 13.6722 25.6501 9.08912 25.7471 5.25599C25.7471 5.006 25.7471 3.50607 25.7471 3.42274C24.0974 3.5894 22.6418 2.92278 21.0892 2.75612L20.9921 2.67281ZM21.3803 2.00614L23.6122 2.58945C23.4181 2.25613 22.8359 1.58951 22.4477 1.50618C22.0596 1.42286 21.5744 1.75615 21.2832 2.00614H21.3803ZM14.8785 7.50588C14.8785 11.6723 14.1022 15.9221 12.5495 19.9219L12.9377 21.2551L16.6253 22.1717C16.8194 22.1717 16.8193 22.0051 16.8193 21.8385C16.8193 21.0885 16.7223 20.0885 16.6253 19.2552C16.6253 16.672 16.8194 13.9222 17.1105 11.4223C17.4986 8.4225 18.0809 5.256 19.5365 2.50614C17.9838 2.25615 16.3341 2.08949 14.6844 1.92283C13.0347 1.75617 13.8111 1.92283 13.8111 1.92283C14.5874 3.67274 14.6844 5.67262 14.6844 7.58919L14.8785 7.50588ZM12.3555 3.00609C11.8703 4.58934 11.7732 6.58923 11.6762 8.25581C11.4821 11.589 11.6762 14.9221 12.1614 18.172C13.3259 15.0888 13.9081 11.7557 14.1022 8.50583C14.1022 6.83926 14.1022 4.83932 13.714 3.25607C13.714 3.00608 13.3259 1.75616 13.0347 1.75616C12.7436 1.75616 12.4525 2.75613 12.3555 2.92279V3.00609ZM5.85369 1.67285C6.33889 3.75608 6.14481 5.92264 5.85369 8.08919C5.56256 10.5057 4.98031 13.0889 4.30102 15.4221C3.62173 17.7553 3.81581 16.7554 3.71877 17.172C3.71877 18.0053 4.10694 19.0886 4.39807 19.8385L5.95073 20.0052C6.14481 19.9219 7.11521 18.672 7.11521 18.5053C6.72705 15.5888 6.72706 12.5889 6.92115 9.67241C7.01819 7.9225 7.40635 3.42277 8.76492 2.25617C10.1235 1.08956 11.191 2.92278 11.3851 4.00605L11.9673 1.75616H5.75664L5.85369 1.67285ZM8.27972 16.7554C9.83238 13.6722 11.288 7.50588 10.6087 4.17272C9.92941 0.839563 10.3176 3.00613 9.92943 2.67281C9.73535 2.67281 9.63828 2.7561 9.54124 2.83943C8.47379 3.83937 8.08565 8.42248 7.98861 9.83908C7.89156 11.9223 7.79452 14.1722 7.98861 16.2554C7.98861 16.3387 7.98858 17.0887 8.08562 17.0887C8.18266 17.0887 8.27972 16.8387 8.27972 16.7554ZM18.5661 24.005L18.9543 24.5883C19.3424 24.4216 19.6335 24.255 19.8276 24.005L18.469 23.4217V23.9217L18.5661 24.005ZM4.68918 1.83952C4.68918 1.83952 4.39807 2.75613 4.39807 2.92279C4.10694 4.00606 4.0099 5.33933 3.91286 6.42261C3.62173 9.17247 3.62172 11.839 3.71877 14.5888C4.39806 12.089 4.88326 9.5891 5.17439 7.08923C5.46551 4.58936 5.46553 3.50607 5.07737 1.75616C4.98033 1.75616 4.88327 1.75619 4.78622 1.83952H4.68918ZM8.18267 18.8386L8.57083 20.5052L10.8998 20.9218C10.9969 20.9218 11.0939 20.9218 11.0939 20.8385C11.0939 20.7552 11.7732 19.6719 11.7732 19.5886C11.7732 19.2553 11.4821 18.0053 11.3851 17.5053C11.191 16.3387 11.0939 15.1721 11.0939 14.0055C11.0939 13.2556 11.0939 12.4223 11.0939 11.6723C10.5117 14.1722 9.6383 16.5887 8.37677 18.9219L8.18267 18.8386ZM-4.2386 2.33947C-3.94748 3.08943 -3.94748 3.92271 -3.85044 4.67267C-3.65636 7.08921 -3.65636 9.58909 -3.94749 11.9223C-4.23861 14.2555 -4.33565 13.8388 -4.33565 14.5055C-4.33565 15.1721 -3.85045 16.5887 -3.55933 17.3387C-3.26821 18.0886 -2.97708 18.9219 -2.49187 19.0886C-2.00666 19.2552 -1.13329 18.3386 -0.939205 18.0053C-1.61849 14.0888 -1.90961 9.75576 -0.842155 5.8393C0.225296 1.92284 -0.162872 3.67273 0.516415 3.42274C1.58387 3.08942 1.77795 4.58938 1.87499 5.17268C2.45723 8.50583 1.48684 13.7556 0.225304 16.8387C0.128262 17.0887 -0.16288 17.422 -0.0658379 17.672C0.0312042 17.922 0.322334 19.3386 0.516415 19.4219L1.97203 19.5886C1.97203 19.5886 2.3602 18.9219 2.45724 18.8386C2.65133 18.5053 2.84541 18.0053 2.94245 17.672C3.13653 17.0887 2.94245 16.5887 2.94245 15.9221C2.74836 11.839 2.74835 6.83922 3.71877 2.83943C3.71877 2.58944 4.00991 2.00616 4.00991 1.92283C4.00991 1.8395 4.00991 1.83949 4.00991 1.75616L-4.04454 2.33947H-4.2386ZM14.3933 23.755C15.0726 23.9217 15.7519 23.3384 16.1401 23.005C16.1401 22.9217 16.043 23.0051 15.946 22.9217C15.5578 22.7551 14.0051 22.4217 13.5199 22.3384C13.0347 22.2551 13.3259 22.3384 13.2288 22.3384C13.52 22.6717 13.8111 23.6717 14.2963 23.755H14.3933ZM0.516415 3.92274C0.12825 4.25606 -0.356956 6.08925 -0.453999 6.58923C-1.13329 9.83906 -0.842155 13.4222 -0.356949 16.6721C0.41938 15.0055 0.807545 13.1722 1.09867 11.339C1.38979 9.50575 1.48683 8.33918 1.48683 6.83926C1.48683 5.75598 1.38977 4.58935 0.807526 3.58941C0.710487 3.58941 0.613457 3.67275 0.516415 3.75608V3.92274ZM9.44423 22.2551C9.54127 22.4218 10.4146 21.9218 10.5117 21.7551L9.05603 21.5051L9.54124 22.2551H9.44423ZM7.21226 20.3385C7.40634 20.3385 7.60042 20.5052 7.69746 20.3385L7.5034 19.8385L7.11521 20.2552L7.21226 20.3385ZM-5.01495 2.50614C-5.50016 5.92263 -5.11197 9.33912 -4.62676 12.6723C-4.23859 10.2557 -4.14156 7.75583 -4.2386 5.33929C-4.2386 4.92265 -4.43268 2.58944 -4.72381 2.42278H-5.01495V2.50614ZM-15.3013 4.00605C-14.9131 7.67252 -14.428 11.339 -13.2635 14.8388C-12.7783 16.2554 -12.293 17.7553 -11.4197 19.0886C-11.0315 19.0052 -10.4493 19.1719 -10.2552 18.9219C-10.0611 18.672 -9.96405 18.0886 -9.86701 17.8386C-9.67293 17.2553 -9.38178 16.0887 -9.47882 15.5054C-9.47882 14.8388 -9.76997 14.0888 -9.86701 13.4222C-10.2552 11.1723 -10.9345 7.25587 -10.2552 5.08932C-10.0611 4.42269 -9.28475 3.75608 -8.70251 4.58936C-7.73209 6.25594 -8.12026 10.7557 -8.31435 12.6723C-8.31435 13.5889 -8.70251 14.9221 -8.70251 15.6721C-8.70251 16.0054 -8.50843 16.5887 -8.41139 16.922C-8.31435 17.2554 -7.82913 18.8386 -7.73209 18.9219H-6.37352C-5.79127 17.8387 -5.40309 16.5887 -5.11197 15.5054C-4.82084 14.4222 -4.82085 14.5055 -4.82085 14.0888C-4.82085 13.1722 -5.20902 11.839 -5.30606 10.9223C-5.59718 8.75579 -5.79126 6.42258 -5.69422 4.25603C-5.59718 2.08948 -5.50016 2.92276 -5.50016 2.42278C-5.50016 1.92281 -5.50016 2.33949 -5.50016 2.25617C-8.79956 2.67281 -12.0019 3.08944 -15.2043 3.75608L-15.3013 4.00605ZM2.8454 19.6719C2.8454 19.7552 3.42766 19.7552 3.5247 19.8385C3.5247 19.8385 3.3306 19.0886 3.23356 18.9219L2.74835 19.6719H2.8454ZM-1.42441 19.3386H-0.453999L-0.64809 18.5886L-1.32736 19.3386H-1.42441ZM-9.76997 5.92261C-9.96405 7.17254 -9.76997 8.58914 -9.76997 9.83908C-9.67292 11.0057 -9.47884 12.1723 -9.18771 13.3389C-8.99363 11.589 -8.79955 9.75574 -8.79955 8.00583C-8.79955 6.92255 -8.8966 5.75598 -9.38181 4.75603C-9.47885 4.75603 -9.67292 5.75597 -9.76997 5.8393V5.92261ZM-5.59717 19.0886H-3.07412C-3.85045 18.0886 -4.14157 16.922 -4.43269 15.6721C-4.72382 16.8387 -5.11197 17.922 -5.59717 19.0886ZM-20.7356 5.08932C-20.4445 6.08926 -20.1534 7.00588 -20.0563 8.00583C-19.5711 10.6724 -19.5711 14.0055 -18.2125 16.4221C-16.854 18.8386 -17.2422 17.7553 -16.6599 17.0887C-15.6895 16.0054 -15.5924 12.4223 -15.5924 11.0057C-15.5924 8.67249 -15.7865 6.33926 -15.9806 4.00605L-20.8327 5.08932H-20.7356ZM-9.47882 18.9219C-9.47882 19.0053 -8.50841 18.9219 -8.50841 18.9219L-8.99362 17.3387C-9.1877 17.8387 -9.1877 18.422 -9.47882 18.9219ZM-20.2504 17.5053C-19.5711 16.5054 -19.7652 13.1722 -19.9593 12.0056C-20.3475 9.75573 -21.0267 7.50587 -21.3179 5.25599L-24.1321 6.00597C-23.8409 7.2559 -23.5498 8.5058 -23.4528 9.67241C-23.2587 10.7557 -23.3557 12.1723 -23.0646 13.1722C-22.7735 14.1722 -21.706 16.7554 -21.0268 17.5053C-20.3475 18.2553 -20.7356 17.672 -20.6386 17.7553C-20.4445 17.7553 -20.3475 17.672 -20.2504 17.5053ZM-24.9084 5.25599L-24.7143 5.08932L-24.9084 4.75603C-25.0055 4.75603 -25.0055 5.25599 -24.9084 5.25599ZM-24.9084 6.17258C-25.1025 6.5059 -23.8409 11.0057 -23.5498 11.6723V10.4224C-23.8409 8.92247 -24.035 7.42256 -24.4232 6.00597C-24.5202 6.0893 -24.8114 6.00593 -24.9084 6.17258ZM-29.7605 7.50588C-29.2753 8.92247 -28.8871 10.339 -28.4019 11.7556C-27.8196 13.2556 -26.6551 16.5887 -25.2966 17.5887C-24.9084 17.922 -24.5202 18.0053 -24.1321 17.5887C-23.5498 16.922 -23.3558 14.3388 -23.4528 13.4222C-23.5498 12.5056 -24.3261 10.5057 -24.6173 9.33912C-24.9084 8.33918 -25.1025 7.25589 -25.2966 6.25594L-29.7605 7.58919V7.50588ZM-46.2575 16.7554C-46.4516 16.7554 -46.2575 16.7554 -46.2575 16.922C-46.1604 17.7553 -45.8693 18.6719 -45.8693 19.5052V20.7551C-45.3841 19.5052 -45.8693 18.0053 -46.2575 16.7554ZM-36.0682 18.5053V18.6719C-36.0682 19.4219 -35.8741 20.6718 -36.2622 21.3385C-36.7474 22.1717 -37.8149 21.5884 -38.3971 21.3385C-38.3971 21.4218 -38.203 21.5051 -38.106 21.5884C-35.4859 23.0884 -35.777 19.8386 -35.9711 18.5053H-36.0682Z" fill="url(#paint0_linear_7158_85676)"/>
<defs>
<linearGradient id="paint0_linear_7158_85676" x1="1.17598" y1="29.636" x2="-21.4223" y2="-8.13441" gradientUnits="userSpaceOnUse">
<stop stop-color="#EB422F"/>
<stop offset="0.1" stop-color="#EB422F"/>
<stop offset="0.3" stop-color="#EB422F" stop-opacity="0.9"/>
<stop offset="0.4" stop-color="#EB422F" stop-opacity="0.9"/>
<stop offset="0.5" stop-color="#EB422F" stop-opacity="0.8"/>
<stop offset="0.7" stop-color="#EB422F" stop-opacity="0.6"/>
<stop offset="0.8" stop-color="#EB422F" stop-opacity="0.4"/>
<stop offset="0.9" stop-color="#EB422F" stop-opacity="0.2"/>
<stop offset="1" stop-color="#EB422F" stop-opacity="0"/>
</linearGradient>
</defs>
</svg>
