<svg width="92" height="155" viewBox="0 0 92 155" fill="none" xmlns="http://www.w3.org/2000/svg">
<path d="M136.03 30.3034C137.971 23.5538 140.203 15.9709 141.27 9.13789C141.27 8.80457 141.173 8.38793 141.27 8.13794C141.367 7.88796 141.95 7.97129 141.95 8.3046C141.27 12.0544 140.979 15.8875 140.494 19.6373C139.038 29.6368 135.933 39.3863 132.731 49.0524C127.296 65.2182 120.018 80.9674 110.993 95.8833C110.896 96.1333 110.993 96.3833 110.993 96.7166C110.993 97.7165 110.023 97.7165 109.441 98.2998C108.179 99.7164 106.724 102.55 105.559 104.216C98.1839 115.049 89.7413 125.382 79.9401 134.715C72.7591 141.548 64.6076 147.881 55.7769 153.047L56.4561 153.797C56.5532 154.714 55.2917 154.714 54.6124 154.63C51.1189 154.38 46.8491 153.38 43.5497 152.464C29.6728 148.63 10.3616 138.881 2.98641 127.882C0.851506 124.715 -1.67156 119.549 3.18051 117.132C4.15092 116.632 4.83017 116.799 5.50946 116.549C6.18875 116.299 6.47988 115.799 6.96508 115.549C8.32366 114.799 9.77931 114.716 11.429 114.799C13.0787 114.882 12.9817 115.216 13.5639 114.716C13.758 114.549 13.5639 114.632 13.5639 114.466C13.5639 113.299 12.8846 112.632 13.855 111.466C15.5048 109.466 18.6101 110.882 20.842 111.299C30.6432 106.299 39.8621 100.466 48.4017 93.9667C48.8869 93.3834 48.887 92.8001 49.4692 92.3001C50.1485 91.7168 51.1189 91.8002 51.7982 91.2169C53.4479 90.0503 55.4858 88.1337 57.0384 86.8004C66.4514 78.4675 74.5058 69.0514 81.6869 59.2186C85.0833 54.5521 88.2857 49.8024 90.8088 44.7193L91.197 44.9693C86.636 54.4688 81.2017 63.385 74.2147 71.8012C73.4384 72.7178 71.7887 74.3011 71.2064 75.2177C70.6242 76.1343 71.2064 75.3844 71.2064 75.3844C73.2443 74.2178 76.1555 74.6344 78.4845 74.7178L76.6408 72.8845C75.0881 70.468 78.1934 69.218 80.6194 69.3847C80.8135 69.3014 79.8431 68.3848 79.649 68.1348C78.2904 66.0515 80.0372 64.2183 82.4632 63.635C83.7248 63.3017 85.0834 63.385 86.3449 63.2184C85.2774 62.5517 83.5307 61.6351 84.0159 60.3018C84.5981 58.6353 88.4798 59.0519 90.0324 59.2186C89.6443 58.4686 89.1591 58.052 89.062 57.2187C88.7709 54.2188 92.8466 53.0522 95.6608 52.9689L93.5259 51.3023C91.0999 48.8025 92.7496 47.4692 95.9519 47.1359C98.6691 46.8859 101.677 47.1359 104.395 47.2192L101.192 45.4693C98.378 42.8028 102.551 41.3028 105.171 40.8862C103.715 39.8863 100.222 37.803 101.871 35.9698C103.327 34.3865 108.567 35.0532 110.702 35.0532L109.635 34.3866C106.918 32.47 109.053 30.8034 111.673 30.3868L114.293 30.1368C112.449 29.2202 109.441 26.9703 110.702 24.8871C111.673 23.2205 115.651 23.7205 117.495 23.8038C117.01 23.3038 116.428 23.0538 116.428 22.3039C116.428 19.6373 121.377 18.804 123.706 18.9707L121.28 17.3875C120.406 16.5542 120.115 15.7209 120.6 14.6376C121.765 11.9711 128.364 11.5544 131.275 11.5544L129.431 10.8045C124.967 8.63792 128.461 5.88806 131.954 5.22143C131.954 4.80479 131.469 4.63813 131.469 4.13815C131.469 3.63818 131.469 2.55491 131.566 2.05493C131.663 1.55496 131.76 0.471683 132.051 0.804998C132.148 1.22164 132.051 1.63829 132.051 2.05493C132.051 2.47158 132.051 4.05483 132.245 4.38814C132.537 5.05477 133.798 5.1381 133.701 5.55475C133.41 6.13805 132.828 5.80473 132.342 5.88806C131.081 6.05472 127.976 7.22132 128.17 8.55459C128.364 9.88785 134.089 11.3878 135.545 11.8044C135.836 11.8877 135.545 12.3877 135.351 12.5544C135.157 12.721 132.731 12.5544 132.148 12.471C129.722 12.471 127.199 12.471 124.87 13.0543C120.892 14.0543 120.018 16.1375 123.9 18.1374C127.781 20.1373 129.334 19.4707 132.051 20.304C134.768 21.1373 133.313 21.3872 132.245 21.4706C130.693 21.4706 128.267 20.4706 126.714 20.1373C124.87 19.7207 121.377 19.804 119.533 20.4706C117.689 21.1373 116.719 21.8872 117.786 22.9705C120.212 25.2204 129.043 25.8037 132.634 26.5536C134.283 26.8869 135.254 27.8036 132.925 27.8036C127.005 27.8036 121.668 24.8871 115.845 24.6371C112.546 24.5537 109.829 25.2204 112.934 28.1369C116.137 31.1367 119.824 30.4701 124.094 31.3034C126.326 31.3867 128.849 31.8867 131.081 32.3867C132.051 32.6366 134.866 33.6366 132.537 34.3032C130.013 35.0532 123.997 33.7199 121.377 32.97C117.98 32.0533 116.719 30.9701 112.837 31.3034C110.896 31.47 108.082 32.3033 110.896 33.8866C114.099 35.8031 118.077 35.3865 121.862 35.6365C124.579 35.8031 127.393 35.9698 130.013 36.3031C131.372 36.4698 133.119 37.553 131.081 38.2197C128.073 39.1363 120.697 37.9697 117.495 37.3031C116.428 37.0531 115.166 36.5531 114.196 36.3864C112.546 36.1365 105.462 35.9698 103.909 36.3864C103.23 36.5531 102.842 36.6364 102.939 37.3031C102.939 38.1364 106.335 40.3862 107.306 40.7195C113.613 40.3862 123.026 39.7196 128.655 42.4695C130.693 43.4694 131.76 44.886 129.14 46.1359C124.482 48.3025 115.36 45.636 110.799 43.8027C109.926 43.4694 107.209 41.9695 106.529 41.9695C105.268 41.9695 100.222 42.9694 101.871 44.7193C102.842 45.636 107.209 47.3859 108.567 47.6358C109.926 47.8858 111.867 47.8025 113.322 47.9692C117.495 48.3858 121.959 48.8025 126.035 49.6357C127.199 49.8857 128.364 50.219 129.528 50.469C131.566 43.886 133.992 37.3864 135.836 30.7201L136.03 30.3034ZM129.14 51.8856C127.879 51.8856 126.617 51.8856 125.355 51.719C121.959 51.3857 118.368 50.8023 115.069 50.0524C112.934 49.5524 110.799 48.7191 108.761 48.3025C106.626 47.8858 97.2135 47.6358 95.1756 48.2192C94.7875 48.3025 94.3023 48.4691 94.1082 48.8025C93.8171 49.5524 95.3697 50.719 95.9519 51.219C96.3401 51.5523 98.0869 52.6356 98.5721 52.7189C99.2514 52.8856 100.707 52.7189 101.386 52.7189C107.791 53.2189 115.36 54.6355 121.474 56.4687C123.318 57.052 124.967 57.7186 126.714 58.3853L129.043 51.969L129.14 51.8856ZM109.441 41.4695C109.829 41.7195 110.605 41.9695 111.09 42.2195C115.263 44.0527 123.9 46.5526 128.364 44.9693C131.275 43.886 127.296 42.7194 126.035 42.3861C120.697 40.8862 114.875 41.2195 109.344 41.3028C109.247 41.5528 109.344 41.4695 109.441 41.5528V41.4695ZM123.803 32.22C126.326 32.8033 128.849 33.1366 131.469 33.2199C131.469 32.97 131.275 32.97 131.081 32.8866C127.781 32.0533 124.191 31.6367 120.795 31.3034L123.9 32.22H123.803ZM101.871 53.9688C101.774 54.3022 101.871 54.1355 102.163 54.2188C106.141 55.8854 111.867 57.4687 116.137 58.4686C118.466 58.9686 123.512 60.0519 125.744 59.8019C125.938 59.8019 126.229 59.8019 126.229 59.4686C118.757 56.2187 110.12 54.8855 101.871 53.9688ZM114.196 59.3019C110.023 58.302 105.753 56.9687 101.774 55.4688C100.804 55.1354 98.9602 54.0522 98.1839 53.8855C97.4075 53.7189 94.6904 54.0522 93.817 54.3022C90.0324 55.2188 89.9354 57.3853 93.0407 59.2186C100.804 60.6352 109.052 61.0518 116.622 62.9684C117.689 63.2184 119.145 63.5517 120.115 63.9683C121.086 64.385 122.056 64.7183 121.668 65.8016C121.28 66.8848 118.368 66.8848 117.301 66.8848C110.702 66.8848 101.871 64.8016 95.9519 62.3851C93.1377 61.2185 92.6526 60.4685 89.2561 60.3018C88.6739 60.3018 86.0538 60.1352 85.8597 60.6352C85.6656 61.1351 87.8976 62.1351 88.2857 62.3017C90.2265 63.3017 90.5176 63.3017 92.7496 63.5517C98.7662 64.3016 105.753 65.3849 111.382 67.0515C112.74 67.4681 116.816 68.8014 117.301 69.8847C118.271 72.3012 112.934 71.7179 111.479 71.5512C106.529 70.718 100.804 68.8014 96.146 67.1348C94.3023 66.4682 91.1969 64.8849 89.3531 64.7183C87.7034 64.5516 83.7248 64.5516 82.2691 65.2182C79.649 66.4682 82.0751 68.3847 83.7248 69.1347C91.8762 69.718 100.028 71.1346 107.888 73.0512C109.247 73.3845 114.584 74.7177 115.263 75.4677C116.525 76.801 113.905 77.4676 112.74 77.5509C105.947 78.1342 93.2348 75.0511 87.0241 72.4679C80.8135 69.8847 83.8218 70.6346 82.2691 70.5513C80.7165 70.468 78.8727 70.6346 78.4845 71.0513C77.9023 71.6346 78.5816 72.2179 78.9697 72.6345C79.8431 73.4678 81.0076 74.2178 82.0751 74.8011C91.9733 75.8844 102.357 76.8843 111.77 79.8008C113.225 80.2175 114.972 80.7174 116.137 81.7174C116.331 81.7174 117.01 80.1341 117.204 79.8841C120.309 73.7178 123.026 67.3015 125.647 60.9685C121.862 61.0518 117.786 60.2185 114.196 59.3019ZM119.145 49.8024C119.824 49.8024 127.587 51.0523 127.587 50.719L123.026 49.8024L115.263 48.9691L119.145 49.8857V49.8024ZM120.989 36.5531C123.123 36.9697 125.258 37.1364 127.393 37.2197H129.14C129.14 37.1364 120.6 36.3864 120.6 36.3864C120.6 36.5531 120.892 36.5531 121.086 36.5531H120.989ZM97.2135 61.2185C97.5046 61.6351 98.378 61.8018 98.8632 61.9684C104.297 63.885 112.74 65.8015 118.563 65.4682C118.66 65.4682 119.824 65.4682 119.533 65.2182C112.352 63.135 104.686 62.3017 97.2135 61.2185ZM110.702 83.8006C100.804 83.5506 89.7413 80.4674 81.2017 76.301C79.649 76.301 73.2443 75.551 72.2739 76.3843C71.7887 76.801 73.3413 78.0509 73.8265 78.1342C74.6999 78.3842 76.2526 78.3009 77.223 78.3842C86.0537 79.3842 97.4075 82.5507 105.462 85.8005C106.724 86.3005 110.12 87.5504 110.896 88.3837C112.158 89.5503 110.702 90.4669 109.344 90.5502C105.365 90.8836 98.5721 89.217 94.6904 88.1337C88.4798 86.4671 81.978 84.2172 76.3496 81.4674C75.5733 81.0507 73.8265 79.8841 73.1472 79.7175C72.1768 79.4675 68.5863 79.7175 68.3923 80.8841C68.1982 82.0507 70.5272 84.0506 71.3035 84.3006C72.0798 84.5506 73.7295 84.6339 74.6029 84.8005C81.4928 86.0505 88.5768 87.4671 95.2726 89.217C100.125 90.4669 104.977 91.9668 109.15 94.4667L115.166 83.3006C113.71 83.7173 112.061 83.7173 110.605 83.7173L110.702 83.8006ZM87.5093 77.3843C94.0111 79.9675 104.006 82.134 111.187 82.3007C112.061 82.3007 112.934 82.3007 113.808 82.2173L112.546 81.634C104.103 79.0508 95.2727 77.8009 86.3449 76.7176C86.539 77.0509 87.2182 77.2176 87.5093 77.3843ZM97.9898 66.2182C101.289 67.3015 104.589 68.4681 107.985 69.218C110.314 69.8013 112.74 70.3013 115.166 70.218C114.681 69.718 113.613 69.3847 112.934 69.1347C111.382 68.5514 109.732 68.0514 108.082 67.7181C104.297 66.8015 100.319 66.1349 96.4371 65.5516L97.9898 66.2182ZM91.4881 72.5512C98.378 74.5511 105.559 76.2177 112.837 76.1343C112.837 75.9677 112.643 75.9677 112.546 75.8843C111.479 75.4677 110.023 75.1344 108.858 74.8844C101.774 73.0512 94.4963 71.7179 87.1212 70.9679L91.4881 72.6345V72.5512ZM78.5816 88.6337C84.0159 91.3002 89.8384 93.5501 95.8549 95.1333C99.6395 96.1333 103.715 97.0499 107.694 96.9666L108.47 95.7166C103.521 92.4668 97.0194 90.8002 91.0999 89.3836C85.4715 88.0504 79.649 86.8838 73.8265 85.9671L78.5816 88.6337ZM77.8052 80.4674C82.6573 82.7173 87.7035 84.6339 92.9437 86.0505C98.0869 87.5504 103.618 88.8837 109.053 89.0503C109.053 88.8837 108.858 88.8003 108.664 88.717C105.074 86.7171 99.1543 84.9672 95.0786 83.7173C89.1591 81.9674 83.1425 80.6341 76.9319 79.8008L77.9023 80.3841L77.8052 80.4674ZM103.133 98.2165C93.1378 96.3833 82.7544 92.9668 74.2147 88.0504C73.4384 87.6337 70.6242 85.5505 70.139 85.4672C68.9745 85.1339 65.0928 84.9672 63.9283 85.3005C61.7934 85.9671 64.6076 88.3837 65.481 89.1336C76.2526 91.5502 87.0242 95.6333 96.5342 100.633C97.4076 101.133 100.028 102.383 100.61 103.05C101.774 104.3 99.9306 104.799 98.6691 104.716C95.4667 104.549 91.294 103.3 88.2857 102.383C86.7331 101.966 85.1803 101.216 83.6277 100.883C82.075 100.55 83.1425 100.716 83.1425 100.883C88.965 103.05 94.6904 105.716 99.9307 108.716L106.724 98.3832L103.133 98.2165ZM56.3591 93.4668C56.2621 93.6334 56.3591 93.7167 56.4561 93.8834C57.2325 95.05 58.8822 96.5499 60.0467 97.3832C63.4431 100.05 67.4218 100.883 71.4005 102.633C74.6029 104.05 78.0963 106.299 81.2017 107.466C84.404 108.633 90.5176 110.049 94.0111 110.466C94.9815 110.549 97.3105 110.799 98.281 110.632C99.2514 110.466 99.0573 110.216 99.1543 109.799C86.0537 102.466 71.2064 97.5499 56.3591 93.5501V93.4668ZM93.9141 111.632C91.1969 111.382 88.5768 110.632 85.9567 110.216L94.6904 116.049L97.6987 111.882C96.4371 111.716 95.1756 111.882 93.9141 111.716V111.632ZM70.6242 92.8834C75.0881 95.8 80.5224 98.2165 85.6656 100.05C89.9354 101.55 94.3993 102.716 98.8632 103.383L96.8253 102.216C87.8005 97.5499 78.1934 93.5501 68.0041 91.0502C68.7804 91.7168 69.6537 92.3835 70.5271 92.8834H70.6242ZM51.7982 98.2165C50.7307 97.7999 46.3639 97.7165 45.8787 98.8831C45.2964 100.05 46.0727 101.05 46.752 101.966C56.5532 104.383 66.0633 108.466 74.9911 112.799C80.2313 115.382 85.5686 118.132 90.0324 121.632L92.8466 118.382C77.6111 114.716 62.9579 108.133 51.8952 98.2998L51.7982 98.2165ZM61.3082 103.383C70.4301 109.383 81.3958 113.799 92.5555 116.549C92.5555 116.382 92.3614 116.299 92.2644 116.132C90.0324 114.299 86.2478 112.049 83.6277 110.466C79.0667 107.716 74.6999 106.633 69.8479 104.466C64.9958 102.3 63.4431 100.883 59.5615 99.7998C58.2029 99.3831 56.7473 99.1331 55.2917 98.7165C57.0384 100.383 59.1733 101.966 61.3082 103.3V103.383ZM79.9401 122.132L85.8597 126.298L88.0916 123.798C85.2774 123.632 82.6573 122.715 79.9401 122.132ZM52.3804 107.549C56.4562 110.716 59.2704 111.716 64.0254 113.799C68.6834 115.882 72.565 118.299 77.6112 119.799C82.6573 121.299 83.3366 121.549 86.2478 122.049C86.5389 122.049 88.3827 122.465 88.3827 122.132C82.7543 118.049 76.2526 114.716 69.7508 111.716C62.8609 108.549 55.6798 105.716 48.3047 103.633C49.5662 104.966 51.0218 106.299 52.4775 107.466L52.3804 107.549ZM47.8195 113.382C50.2455 115.382 52.6715 115.799 55.6798 116.966C59.6585 118.465 63.6372 120.382 67.2277 122.465C68.7804 123.382 70.9153 125.132 72.3709 125.798C73.9236 126.548 79.0668 127.548 80.9105 127.798C81.5898 127.798 84.5011 128.048 84.7922 127.548C84.8892 127.298 84.7922 127.215 84.5981 127.048C83.4336 125.798 78.5815 122.882 76.8348 121.882C72.4679 119.382 67.2278 117.965 62.5698 115.632C60.1437 114.466 57.7177 112.716 55.3887 111.716C53.0597 110.716 50.5366 109.966 48.3047 109.216C46.3639 108.633 44.326 108.049 42.3851 107.466C43.9378 109.549 45.7816 111.632 47.8195 113.299V113.382ZM78.6786 133.048C78.6786 133.548 78.2904 133.881 78.1934 134.381L83.2396 129.132C80.5224 129.132 77.9993 128.632 75.3792 128.132C76.4466 129.382 78.7757 131.381 78.5816 133.048H78.6786ZM71.5946 138.631C69.2656 139.548 64.9958 138.298 62.5698 137.964L66.7425 141.298L68.1982 143.297L77.8052 134.965C77.8052 134.465 77.3201 134.965 77.126 135.131C76.3496 135.381 73.5354 135.798 72.8561 135.631L70.6242 135.298C71.4005 136.131 73.9236 137.798 71.7887 138.631H71.5946ZM36.4657 116.299C36.9509 116.882 38.1153 118.049 38.6976 118.465C40.7355 119.799 45.1023 121.382 47.5284 122.632C51.9923 124.798 56.3591 126.965 60.629 129.382C62.1816 130.298 66.8396 133.381 68.1982 133.715C70.3331 134.215 73.6325 134.631 75.7674 134.215C79.0668 133.548 76.1555 130.631 74.9911 129.465C74.5058 129.048 73.2443 127.798 72.662 127.548C71.5946 127.048 69.2656 126.548 68.0041 126.132C61.4053 123.882 55.5828 121.049 49.9544 117.299C49.081 116.716 48.0136 115.632 47.1402 115.299C46.2668 114.882 44.8112 114.549 43.7437 114.299C40.2503 113.299 36.6597 112.549 33.0692 112.049C33.9426 113.549 35.01 115.049 36.2716 116.466L36.4657 116.299ZM80.8135 99.7164L76.2526 97.6332C73.3413 96.2166 70.6242 94.6334 68.0041 92.8001C67.4218 92.3835 64.9958 90.3836 64.6076 90.3003C63.3461 89.8836 59.7556 89.8836 58.2999 90.2169C57.2325 90.3836 55.9709 90.8836 55.8739 91.9668C64.4135 93.8834 72.6621 96.8832 80.8135 99.7998V99.7164ZM28.3142 119.299C30.352 121.465 34.6218 122.799 37.5331 124.215C42.8704 126.798 48.3047 129.548 53.4479 132.381C56.6502 134.215 58.7851 136.048 62.6668 136.881C64.8987 137.381 68.0041 138.048 70.3331 137.964C71.1094 137.964 71.7887 137.964 71.1094 137.131C70.9153 136.881 68.7804 135.131 68.4893 135.048C67.2277 134.548 65.0928 134.381 63.6372 133.965C54.8065 131.548 45.6846 126.632 39.1828 121.049C38.2124 120.215 36.7568 118.549 35.7864 117.965C34.3307 117.049 30.9343 115.799 29.1876 115.049C28.7024 114.882 25.694 113.549 25.4029 113.632C25.4029 115.632 26.9556 117.715 28.3142 119.215V119.299ZM19.1923 120.215C31.9047 126.382 47.8195 132.798 57.2325 142.631C57.4266 142.797 57.9118 143.547 58.0088 143.631C58.2999 143.797 60.0467 144.131 60.4349 144.214C61.9875 144.547 64.2195 144.797 65.7721 144.547C68.0041 144.131 66.7425 142.797 65.7721 141.881C64.8017 140.964 61.1141 138.131 59.5615 137.298C58.0088 136.464 54.4183 135.715 52.2834 135.048C45.1023 132.548 37.436 128.632 31.7106 124.132C30.7402 123.382 29.3817 121.882 28.4112 121.382C27.1497 120.632 24.4325 119.715 22.9769 119.132C20.842 118.299 18.7071 117.549 16.5722 116.882L19.0952 120.299L19.1923 120.215ZM56.8443 151.297C53.5449 152.547 49.5662 151.297 46.3639 150.38V150.047H47.6254C33.7485 145.631 18.9012 138.631 9.7793 128.382C7.35327 125.715 4.83019 122.382 4.73314 118.882C2.88936 118.882 2.9864 121.215 3.27753 122.382C4.53906 128.382 14.6314 136.131 20.2597 139.548C30.352 145.797 42.6763 150.797 55.0005 152.63C55.3887 152.63 58.2029 150.714 58.7851 150.297C61.1141 148.714 63.2491 146.964 65.481 145.381C64.5106 145.297 63.6372 145.464 62.6668 145.381C61.5023 145.297 60.2408 144.964 59.0763 144.714C60.5319 147.214 60.1437 149.88 56.9413 151.047L56.8443 151.297ZM55.9709 118.965C59.9496 121.132 64.1224 123.132 68.5863 124.548L66.0632 122.965C61.8905 120.715 57.6207 118.632 52.9627 117.049L55.9709 118.882V118.965ZM64.9958 132.798C64.9958 132.631 64.8017 132.548 64.6076 132.465C63.152 131.465 61.2112 130.465 59.5615 129.548C53.4479 126.132 47.1402 123.049 40.6384 120.215C47.4313 125.882 55.7769 130.381 64.8987 132.798H64.9958ZM67.6159 78.9675C68.6833 78.3842 69.9449 78.0509 71.2064 78.0509C70.6242 77.3009 70.236 76.551 70.5271 75.7177L67.5189 78.9675H67.6159ZM7.45029 123.132C10.8467 129.215 19.2893 135.548 25.7911 139.298C32.8751 143.464 41.9 147.464 50.0514 149.714C50.4396 149.797 52.5745 150.547 52.6716 150.047L52.4775 149.714C53.5449 150.214 55.971 149.547 56.7473 148.714C57.5236 147.881 57.1354 146.631 56.6502 145.714C56.165 144.797 55.3887 144.047 55.2917 143.964C54.7094 143.547 51.507 142.797 50.5366 142.381C40.0562 138.631 30.4491 132.965 22.7829 125.798C21.9095 124.965 20.4538 123.132 19.4834 122.549C18.416 121.882 16.4752 121.215 15.1166 120.715C12.3994 119.632 9.29412 118.465 6.28584 118.382C5.99472 119.965 6.77104 121.632 7.54737 123.049L7.45029 123.132ZM57.1354 88.8837C59.0763 88.5503 61.0171 88.3837 62.9579 88.6337C62.0845 87.4671 61.0171 86.2171 61.9875 84.8005C63.0549 83.2173 66.5485 83.7173 68.3923 83.7173C67.3248 82.384 66.1603 81.2174 67.1307 79.4675L57.1354 88.8837ZM50.5366 133.048C52.0893 133.715 53.836 134.381 55.4857 134.715L51.507 132.381C45.4905 129.132 39.3769 125.965 32.9722 123.215C38.0183 127.298 44.229 130.548 50.5366 133.048ZM53.3509 142.297C52.0893 140.881 50.4396 139.714 48.8869 138.631C41.0266 132.965 32.0018 128.715 23.074 124.382C31.0314 132.465 41.8029 138.631 53.3509 142.381V142.297ZM52.3804 92.8834C52.1864 92.9668 51.0219 93.9667 50.9248 94.05C50.7307 94.4667 52.4775 96.2999 52.8657 96.7166L58.2999 97.8832L56.5532 96.2999C55.8739 95.4666 55.0976 94.6334 54.6124 93.7167C54.1272 92.8001 54.3213 92.9668 54.3213 92.9668C54.0301 92.7168 52.8657 92.7168 52.3804 92.9668V92.8834ZM51.2159 108.716C49.6633 107.299 48.0136 106.049 46.655 104.549C46.3639 104.216 45.6845 103.216 45.2964 103.133C42.6763 102.55 39.9591 102.8 41.3177 105.716L51.2159 108.716ZM49.6632 96.2166C49.8573 96.2166 50.0514 96.3833 50.0514 96.0499L49.2751 95.1333C49.081 95.3 47.8195 96.1333 47.9165 96.2166C48.4988 96.2166 49.081 96.2166 49.6632 96.1333V96.2166ZM45.1994 113.299C43.8408 111.799 42.2881 110.383 41.1236 108.716C40.8325 108.299 40.2503 107.133 40.0562 106.966C39.668 106.633 36.9509 106.216 36.1745 106.216C32.2929 105.883 31.2254 107.549 32.487 110.549C36.8538 111.216 41.0266 112.299 45.1994 113.299ZM39.1828 105.216C38.8917 102.966 40.3473 101.383 43.0644 101.383C43.5497 101.383 44.0348 101.633 44.326 101.383L43.6467 99.2998L35.4952 104.633L39.0858 105.133L39.1828 105.216ZM25.7911 112.799L34.4278 116.632C33.7485 115.716 32.9722 114.799 32.2929 113.882C31.6136 112.966 31.1284 111.716 31.0314 111.632C30.4491 111.216 26.0823 111.799 25.6941 112.799H25.7911ZM26.6645 109.799C25.6941 110.299 24.6266 110.799 23.7533 111.299C23.6562 111.299 22.9769 111.716 23.074 111.882L24.4325 112.299C25.8881 110.716 28.3142 110.383 30.5462 110.466C30.3521 109.633 30.0609 108.799 30.158 107.883C30.0609 107.716 26.8586 109.633 26.5674 109.799H26.6645ZM21.7154 112.299C19.8716 113.382 17.6397 114.049 15.7959 115.049C15.6988 115.049 15.5047 115.049 15.6018 115.299C19.3864 116.299 22.9769 117.799 26.5674 119.215C25.1118 117.382 23.3651 115.299 24.0444 112.882L21.7154 112.216V112.299ZM15.1166 111.549C14.5343 112.132 14.7284 112.882 14.8255 113.632C15.0195 113.632 15.1165 113.632 15.2136 113.632C15.6018 113.632 18.8042 112.049 19.1923 111.716C19.5805 111.382 19.4834 111.716 19.4834 111.382C18.1249 111.216 16.184 110.383 15.1166 111.466V111.549ZM16.3781 118.965C16.087 118.632 14.8254 116.299 14.6314 116.216C13.5639 115.716 11.8171 116.632 10.8467 117.049L16.4752 118.882L16.3781 118.965ZM8.6148 116.216L10.0704 115.632C9.19704 115.632 8.22665 115.966 7.54737 116.382L8.51778 116.216H8.6148Z" fill="url(#paint0_linear_7158_85804)"/>
<defs>
<linearGradient id="paint0_linear_7158_85804" x1="60.9571" y1="140.984" x2="71.8884" y2="2.4934" gradientUnits="userSpaceOnUse">
<stop stop-color="#EB422F"/>
<stop offset="0.1" stop-color="#EB422F"/>
<stop offset="0.3" stop-color="#EB422F" stop-opacity="0.9"/>
<stop offset="0.4" stop-color="#EB422F" stop-opacity="0.9"/>
<stop offset="0.5" stop-color="#EB422F" stop-opacity="0.8"/>
<stop offset="0.7" stop-color="#EB422F" stop-opacity="0.6"/>
<stop offset="0.8" stop-color="#EB422F" stop-opacity="0.4"/>
<stop offset="0.9" stop-color="#EB422F" stop-opacity="0.2"/>
<stop offset="1" stop-color="#EB422F" stop-opacity="0"/>
</linearGradient>
</defs>
</svg>
