<svg width="132" height="129" viewBox="0 0 132 129" fill="none" xmlns="http://www.w3.org/2000/svg">
<path d="M-58.1987 52.8384C-57.7985 53.6358 -56.5976 56.7682 -55.2634 55.1735C-54.7964 54.604 -54.9298 53.9205 -54.7297 53.294C-53.5956 55.6291 -51.7276 56.0278 -51.2606 53.1232C-51.1272 52.1549 -51.1272 51.1298 -51.2606 50.1616C-51.0605 50.1616 -50.927 50.5602 -50.8603 50.6741C-50.46 51.7563 -50.2599 53.1801 -49.2592 54.0344C-48.1251 55.0027 -47.458 54.4901 -47.1244 53.6358C-46.5907 53.5788 -45.9903 53.4649 -45.4566 53.4079C-45.123 53.6927 -44.656 53.8636 -44.4559 54.0344C-44.2557 54.2623 -44.0556 54.4901 -43.8555 54.6609C-44.656 57.5656 -45.1897 60.4702 -45.59 63.4319C-45.7901 63.7736 -45.8568 64.1723 -45.7234 64.457C-45.8568 65.8239 -45.9903 67.1908 -46.057 68.5577C-46.4573 77.4995 -45.2564 86.4413 -42.4545 95.0414C-42.2543 95.6679 -41.9875 96.2943 -41.7206 96.9208C-38.7853 103.015 -34.3822 108.539 -29.1119 113.381C-25.8429 116.342 -22.2404 119.019 -18.3044 121.24C0.0416985 131.663 21.59 130.581 41.337 123.917C54.2126 119.475 64.1529 109.963 67.2884 98.4016C70.0236 88.4916 68.0889 78.0121 63.6192 68.7286C63.1522 67.8173 62.6852 66.8491 62.1515 65.9378C61.6845 65.1405 60.8839 63.8875 60.1501 62.9762C54.8131 56.3696 47.6748 51.2437 39.6025 47.2569C47.8749 47.086 54.7464 50.2755 60.3503 55.0596C60.6838 55.4583 61.0174 55.857 61.5511 56.1417C67.155 61.3815 71.2912 68.1021 73.9597 74.367C73.9597 74.424 73.9597 74.4809 74.0264 74.5948C74.0264 74.5948 74.0264 74.7088 74.0931 74.7657V74.6518C74.36 75.2783 74.8937 75.7909 75.8277 76.3035C81.2981 79.2651 92.3725 75.1644 97.7762 73.0571C103.447 70.8359 109.251 68.0451 114.588 65.3113C118.991 63.0332 127.864 58.306 130.599 54.7179C130.799 54.4331 132 52.4397 132 52.2689C132 51.9841 131.666 51.7563 131.333 51.8702C131.133 51.9271 130.599 52.8954 130.332 53.1801C126.263 57.3947 118.124 61.5524 112.52 64.2292C107.85 66.5074 102.913 68.7855 98.0431 70.722C93.2398 72.6584 83.7665 76.2465 78.6296 75.1074C76.5615 74.6518 75.4941 73.3988 76.8284 71.6902C77.4288 70.9498 77.6289 71.2915 78.4962 71.1776C80.7644 70.8928 82.7658 70.0385 84.6338 69.7538C85.1675 69.6968 85.8346 69.8107 86.3683 69.7538C95.3079 68.7855 107.516 63.318 115.322 59.3312C118.991 57.4517 126.263 53.5218 128.798 50.7311C129.665 49.7629 129.999 48.7377 129.465 47.9973C127.263 44.5231 124.728 41.1628 121.993 37.9734C117.19 32.3349 111.786 27.0952 105.782 22.311C95.4413 14.1096 83.0994 7.55992 69.5566 3.97181C69.1564 3.51618 68.6227 3.1175 68.0222 3.06055C67.6887 3.06055 67.3551 3.17446 66.9548 3.28836C59.483 1.52279 51.8777 0.725431 44.2724 0.782385C43.672 0.0419826 42.8047 -0.299741 41.5372 0.326753C41.2703 0.440661 41.0702 0.668478 40.8033 0.896294C31.9305 1.29497 23.1244 2.77578 14.5851 5.16785C13.5177 4.4844 12.7839 4.88308 12.3169 5.79434C6.31272 7.61687 0.50869 9.83808 -4.96178 12.401C-5.82904 12.7997 -7.1633 13.4831 -8.03057 13.8818C-8.56428 14.1096 -9.03127 14.3944 -9.56497 14.6792L-11.0327 15.4765C-11.0327 15.4765 -11.1661 15.5335 -11.2328 15.5904L-11.4329 15.7043C-11.9666 15.9891 -12.7005 16.4448 -13.2342 16.7865C-14.1015 17.2421 -15.3023 18.0395 -16.1028 18.5521C-17.1703 19.2925 -18.5045 20.1468 -19.5719 20.9441C-19.9722 21.2289 -20.5726 21.6276 -20.9062 21.9123L-22.2404 22.9375C-22.9743 23.5071 -23.7748 24.1905 -24.5087 24.76C-24.909 25.1018 -25.9097 26.013 -26.3766 26.4117C-26.8436 26.8104 -27.4441 27.3799 -27.8443 27.8356C-28.378 28.3482 -29.312 29.3164 -29.8457 29.8859C-30.3794 30.4555 -30.9798 31.1389 -31.4468 31.7084C-31.5803 31.8793 -32.581 33.0753 -32.7144 33.2462C-33.0479 33.6449 -33.3815 34.1005 -33.7818 34.5561C-34.3822 34.1005 -34.9826 34.1575 -35.5163 35.1826C-36.1835 35.1826 -36.7839 35.2396 -37.451 35.2966C-37.451 35.2966 -37.451 35.2396 -37.5177 35.1826C-38.5184 34.1005 -39.1855 34.4992 -39.5858 35.4105C-40.4531 35.4105 -41.2536 35.5244 -42.1209 35.5813C-43.0549 34.5561 -43.722 34.8979 -44.189 35.7522C-44.9229 35.7522 -45.59 35.8661 -46.3238 35.923C-46.7241 35.6383 -47.1911 35.4674 -47.7248 35.6952C-47.8582 35.7522 -47.9917 35.8661 -48.0584 36.0369C-49.1925 36.1509 -50.3266 36.2648 -51.4607 36.3787C-51.7943 36.2648 -52.1279 36.2648 -52.5949 36.4926C-53.3287 36.8913 -53.3287 39.739 -53.1953 40.4794C-53.6623 39.682 -54.7297 36.7774 -55.9972 36.8343C-56.5976 36.8343 -56.8645 37.233 -57.0646 37.6317C-58.0653 39.739 -56.9312 45.2066 -56.3975 47.4847C-55.8638 49.8198 -54.9298 51.3576 -55.3301 53.8636C-55.3301 54.2622 -55.5302 55.5152 -56.2641 55.2305C-58.1987 52.7814 -58.599 49.649 -60 46.9721L-59.7331 48.2821L-58.132 52.9523L-58.1987 52.8384ZM-47.1911 53.6358C-47.0577 53.4079 -46.991 53.1232 -46.9243 52.8384L-46.7241 51.0728C-46.3238 51.8702 -46.2571 52.6106 -45.6567 53.294C-45.6567 53.294 -45.6567 53.294 -45.59 53.351C-46.1237 53.4079 -46.6574 53.5218 -47.1911 53.5788V53.6358ZM-43.0549 60.6411C-42.8548 59.3312 -42.5212 58.0782 -42.2543 56.7682C-42.0542 56.9391 -41.8541 57.11 -41.6539 57.2808C-37.5844 60.3563 -32.1807 62.2928 -27.4441 64.457L-34.2488 63.261C-36.3169 62.9762 -40.5865 62.4067 -43.3218 62.5775C-43.255 61.951 -43.1883 61.3246 -43.0549 60.6981V60.6411ZM-37.1174 52.4397C-37.8513 52.4397 -38.6518 52.5536 -39.3857 52.6106C-38.7186 50.902 -38.7853 49.1364 -38.9854 47.4278C-38.7186 47.3708 -38.7853 47.6556 -38.7853 47.8264C-38.5184 49.0225 -38.1181 51.3576 -37.1174 52.4397ZM-35.7832 43.3271L-35.3829 45.4344V46.4026C-36.1167 45.3774 -38.3183 43.7827 -35.7832 43.3271ZM-36.6504 42.3019C-36.4503 42.0171 -36.3169 41.6754 -36.1167 41.3906C-36.05 41.6754 -35.9833 41.9602 -35.9166 42.2449H-36.6504V42.3019ZM-34.2488 49.4781C-34.0486 50.2185 -33.6484 51.5285 -32.9812 52.2119C-33.6484 52.2119 -34.3155 52.2689 -34.9826 52.3258C-34.8492 52.155 -34.7825 51.9841 -34.7158 51.8132L-34.2488 49.4781ZM-35.116 48.7947C-35.0493 49.1364 -35.2495 50.9589 -35.3829 51.4145C-35.9166 53.294 -36.6504 51.8702 -37.1842 50.845L-38.385 45.7191C-38.385 45.6052 -38.2516 45.4344 -38.1848 45.3205L-37.3176 46.5165C-37.1174 47.086 -35.2495 48.4529 -35.116 48.7947ZM-36.6504 52.8384C-36.6504 52.8384 -36.6504 52.8384 -36.5837 52.8954C-36.1167 53.1801 -35.6498 53.0662 -35.3162 52.7814C-34.3155 52.7814 -33.2481 52.7245 -32.2474 52.6675C-32.0473 52.6675 -31.8471 52.6675 -31.647 52.6675C-31.0466 52.6675 -30.5129 52.6675 -29.9124 52.6675L-21.4399 58.1921C-26.9104 56.0278 -32.5142 54.0344 -38.4517 52.8954C-37.8513 52.8954 -37.2509 52.8954 -36.6504 52.8384ZM-28.9785 51.3576L-30.1793 50.4463C-30.3127 49.2503 -30.0459 47.9973 -30.3127 46.8013C-30.0459 46.7443 -30.1126 47.0291 -30.1126 47.1999C-29.779 48.5668 -29.3787 49.9907 -28.9785 51.3576ZM-30.9798 47.4847C-30.9798 48.0543 -30.8464 49.3072 -30.9798 49.8198C-30.9798 49.8768 -31.18 50.0476 -31.18 49.8768L-33.6484 47.8834L-34.5823 43.3271L-31.4468 43.8397C-31.3134 44.0105 -30.9798 46.9152 -30.9798 47.4278V47.4847ZM-31.5803 51.5854V51.7563L-31.8471 52.1549C-32.114 52.1549 -32.9145 51.0159 -32.9145 50.6741L-31.5803 51.5854ZM-14.0347 35.6952C-13.7012 35.6952 -13.3676 35.6952 -13.034 35.7522C-12.8339 36.0369 -12.6338 36.3787 -12.4336 36.6634L-12.6338 37.3469C-13.3009 37.176 -13.6345 36.3787 -14.0347 35.6952ZM-12.7672 39.2264C-13.034 39.2833 -12.9673 38.9986 -12.9673 38.8277C-13.034 38.486 -13.1008 38.1443 -13.1675 37.8025C-12.3002 37.9734 -12.8339 38.7138 -12.7005 39.2264H-12.7672ZM-11.9666 43.0423C-11.9666 41.6185 -11.8999 40.2516 -11.8332 38.8277C-10.2988 39.8529 -9.1647 40.5933 -8.89784 42.3019C-8.56428 44.637 -8.63099 49.1364 -9.29812 51.4145C-9.29812 51.5285 -9.29812 51.7563 -9.49826 51.6993C-9.63168 51.6993 -11.0327 50.5602 -11.0327 50.4463C-11.1661 50.2755 -11.1661 50.1046 -11.2328 49.9337C-11.6331 47.9404 -11.8332 45.1496 -11.8999 43.0423H-11.9666ZM-10.8992 35.8661C-10.8992 35.8661 -10.8325 35.8661 -10.7658 35.8661C-10.6324 35.98 -10.499 36.2078 -10.4322 36.2648C-10.2988 36.4356 -10.2321 36.6065 -10.2321 36.8343L-10.8992 35.8661ZM-2.29325 53.2371C-3.09381 53.1232 -3.89437 53.0662 -4.76163 53.0093C-4.29464 52.4397 -3.96108 51.5285 -3.82765 51.0728L-3.36066 48.2251L-2.89367 51.9271C-2.76025 52.3258 -2.56011 52.8384 -2.29325 53.2371ZM-4.29465 44.3522L-5.36205 43.3271L-7.36344 40.6502C-7.36344 40.1376 -7.09659 37.4038 -6.69631 36.3217C-6.49617 36.3217 -6.22932 36.3217 -6.02918 36.3787C-4.36136 38.6568 -4.49479 41.7893 -4.29465 44.3522ZM-8.23071 39.4542C-8.43085 39.4542 -8.63099 38.8277 -8.63099 38.7138C-8.89784 37.8025 -8.96455 36.9482 -9.43155 36.0939C-8.83113 36.0939 -8.23071 36.2078 -7.63029 36.2648C-8.09729 37.4608 -8.23071 39.0555 -8.23071 39.5112V39.4542ZM-7.36344 43.6688L-4.42807 47.0291C-4.02779 47.6556 -4.22793 48.7377 -4.29465 49.4781C-4.36136 50.0477 -4.82835 52.6675 -5.49548 52.7814C-6.42946 52.4397 -6.42946 51.1298 -6.6296 50.3894L-7.23002 43.6688H-7.36344ZM-1.95969 54.4331C-0.291866 54.6609 2.1098 54.9457 3.77763 55.2305C3.77763 55.2305 3.84434 55.2305 3.91106 55.2305C4.57819 55.8 5.51216 56.5404 5.77901 56.7682C7.11327 57.6795 7.98055 57.3947 8.04726 59.2173C7.51356 59.6159 6.97985 60.0146 6.44614 60.4133C6.24601 60.5842 5.97916 60.812 5.77901 61.0398C5.51216 61.0398 5.24532 60.9828 4.91175 60.9259C4.31133 60.812 0.441978 58.9325 -0.291866 58.4769C-1.4927 57.7934 -3.09381 56.6543 -4.22793 55.857C-5.16191 55.2305 -6.0959 54.4901 -6.96317 53.8066C-5.29534 53.9775 -3.62751 54.1483 -1.95969 54.3762V54.4331ZM-6.6296 26.013C-7.43016 24.5322 -8.36414 22.7097 -8.83113 21.1719C-9.16469 20.1468 -9.49826 19.1216 -9.29812 18.0395C-9.03127 17.8116 -7.83044 18.5521 -7.56358 18.7229C-3.49409 21.5137 2.44337 29.0316 5.1786 32.9614C6.1793 34.3853 7.17999 35.8661 8.04726 37.4038C6.84643 37.233 5.57888 37.0621 4.37804 36.8913C4.24462 36.6634 4.04448 36.4356 3.84435 36.3787C3.24393 36.0939 2.77693 36.2648 2.44337 36.6634C1.64281 36.5495 0.775543 36.4356 -0.025013 36.3217C-2.29325 32.9614 -4.69492 29.6011 -6.6296 26.07V26.013ZM-4.42807 32.9045V33.1323H-4.49478V32.9045H-4.42807ZM11.2495 43.2701C11.8499 44.9218 12.6505 46.9721 12.2502 48.6807C12.1835 48.9655 11.8499 50.1046 11.3162 49.8198C11.3162 49.8198 11.1828 49.5351 11.0493 49.4212C10.7825 49.1364 9.98193 48.5668 9.98193 48.2251C10.1154 47.086 10.3155 45.947 10.6491 44.8079C10.7825 44.2953 10.9159 43.6118 11.2495 43.2132V43.2701ZM10.2488 42.5297L10.1154 41.2767C10.7158 41.4476 10.6491 42.2449 10.2488 42.5297ZM30.9298 48.6238C30.9298 48.8516 30.7297 49.1933 30.663 49.4212C29.8624 51.4145 26.9938 56.8821 24.7922 59.1603C24.1918 58.9325 23.6581 58.6477 23.0577 58.4199C23.3245 57.5656 23.7248 56.7682 24.1251 55.9709C24.7922 54.3762 25.6595 52.5536 26.5268 51.0728C26.5935 50.902 26.927 50.3894 27.2606 49.8198C28.4614 49.3642 29.6623 48.9655 30.9298 48.6238ZM26.3933 43.0423C26.5935 43.0993 26.7936 43.1562 26.9937 43.2701C27.0605 43.7257 27.1939 44.2383 26.8603 44.0105L26.3266 43.0423H26.3933ZM33.7985 47.9404C34.3322 47.8264 34.8659 47.7695 35.3996 47.6556C35.533 48.2821 35.1994 49.3072 35.066 49.7059C34.4656 51.8132 30.9965 58.306 28.4614 60.8689C27.861 60.5842 27.3273 60.2424 26.7269 60.0146C26.7269 60.0146 26.7269 60.0146 26.7269 59.9577C27.861 56.8252 31.2634 50.5033 33.7318 48.0543L33.7985 47.9404ZM33.5316 46.6304C33.665 46.5165 33.7985 46.4026 33.8652 46.4595C33.8652 46.4595 33.8652 46.5165 33.8652 46.5735C33.7318 46.5735 33.5983 46.5735 33.5316 46.6304ZM44.3391 82.4545C44.4058 82.4545 44.4725 82.3976 44.606 82.3406C47.6081 81.6572 56.4142 83.7645 59.5497 84.6757C61.4844 85.2453 63.2189 86.0426 65.0869 86.6691C65.5539 87.0678 65.8207 87.5804 65.0869 87.8082C63.8193 88.2638 61.4844 87.9791 60.1501 87.8082C55.5469 87.3526 52.0778 85.53 47.6081 84.7896C46.6741 84.6188 45.6067 84.7896 44.7394 84.334C44.5393 84.2201 44.3391 84.1062 44.2057 83.9923C44.2057 83.4797 44.3391 82.9101 44.3391 82.3976V82.4545ZM42.6046 74.1392C42.8714 74.1392 43.1383 74.1392 43.4052 74.0823L42.8047 74.5379C42.8047 74.424 42.6713 74.3101 42.6046 74.1392ZM43.5386 76.5882L44.4058 76.7591C44.139 76.8161 43.8721 76.93 43.672 77.0439C43.672 76.873 43.672 76.7591 43.5386 76.5882ZM44.3391 79.4359C44.2724 79.4359 44.2057 79.5499 44.139 79.6068C44.139 79.5499 44.139 79.436 44.139 79.379C44.2057 79.379 44.2724 79.379 44.3391 79.4359ZM45.0063 81.0876C44.139 80.2333 45.0063 79.7207 46.0737 79.6638C51.4107 79.6638 56.8145 79.7777 61.9514 81.2015C62.4183 81.3154 64.0195 81.885 64.353 82.1128C64.5532 82.2837 64.6866 82.5115 64.353 82.6823C63.6192 83.0241 61.2175 82.8532 60.3503 82.7962C56.0139 82.5115 51.4107 81.828 47.0076 81.4293C46.2738 81.3724 45.6734 81.6572 45.0063 81.0876ZM53.8124 78.7525C51.811 78.9234 49.8096 78.6386 47.8082 78.6386C46.6074 78.6386 45.2064 79.0942 44.0723 78.5816C44.0723 78.2969 43.9389 78.0121 43.8721 77.7273C45.3398 76.93 52.0778 76.2465 54.0125 76.0757C56.9479 75.8478 59.95 75.8478 62.8853 76.2465C63.0188 76.5313 62.8853 76.4174 62.7519 76.5313C60.9507 77.7273 56.1473 78.4677 53.8124 78.6955V78.7525ZM50.0764 75.677C49.1425 75.7909 44.8061 76.3035 43.3384 75.9618C43.2717 75.7339 43.1383 75.4492 43.0716 75.2213C43.5386 74.8227 44.4725 74.5379 44.8061 74.424C48.4753 73.228 58.1487 71.0637 61.7512 71.6902C61.9514 71.6902 62.0848 71.6902 62.2182 71.8611C62.0848 72.0319 62.0181 72.1458 61.8847 72.2597C60.0167 73.9684 52.8117 75.2783 50.0764 75.677ZM45.2064 73.171C44.8061 73.228 43.4051 73.5127 42.3377 73.5127C42.1376 73.171 42.0042 72.8293 41.804 72.4875C42.4044 72.0889 43.2717 71.6902 43.5386 71.5763C47.3412 69.8107 54.0125 67.2478 58.2154 66.7921C58.4823 66.7921 59.7498 66.7352 59.7498 66.9061C57.615 69.2981 53.7457 70.6081 50.5434 71.6902C48.8089 72.2597 47.0076 72.8862 45.1397 73.228L45.2064 73.171ZM41.0702 71.1776C40.8033 70.8359 40.6032 70.4372 40.3363 70.0955C41.8707 68.7286 47.8082 65.5961 49.3426 64.8557C51.6776 63.7166 54.2794 62.6345 56.9479 62.2358C57.148 62.3497 56.4809 63.204 56.3475 63.318C54.3461 65.71 44.5393 70.722 41.1369 71.1776H41.0702ZM44.139 85.3022C44.7394 85.3022 45.4065 85.3022 45.9402 85.3592C49.943 85.8148 60.8172 89.4029 63.7526 91.6811C64.0862 91.9658 64.4197 92.1937 64.353 92.6493C62.3516 93.3897 59.7498 92.9341 57.615 92.6493C54.6796 92.1367 52.745 91.2824 50.0097 90.3711C47.6748 89.5738 45.2064 89.289 43.5386 87.6373C43.7387 86.8969 43.9389 86.0996 44.0723 85.3592L44.139 85.3022ZM41.8708 85.3592C41.6706 85.6439 41.6039 86.0426 41.6706 86.4413C41.4705 87.2956 41.1369 88.1499 40.8033 89.0042C40.4031 89.1751 40.1362 89.4029 39.9361 89.8016C39.7359 90.2003 39.8026 90.5989 39.9361 90.9976C39.6025 91.6811 39.2022 92.3645 38.8019 93.048C38.2682 93.2758 37.868 93.7314 37.868 94.4149C36.0667 96.9208 33.0646 98.6295 29.7957 99.4838C18.7213 102.275 3.6442 97.6612 -1.49269 88.4916C-1.49269 88.093 -1.75955 87.7512 -2.0264 87.4665C-2.29325 86.8969 -2.5601 86.2704 -2.76025 85.7009C-2.89367 85.3592 -2.89367 85.0174 -3.0271 84.6757C-4.16122 79.5499 -2.35997 74.5379 0.708828 69.9816C1.10911 69.6398 1.44267 69.1842 1.64281 68.6716C1.97638 68.2729 2.24323 67.8173 2.57679 67.4186C3.6442 67.2478 4.57819 67.0769 5.37874 66.1657C5.91245 65.4822 6.11259 64.514 5.91245 63.6597C6.1793 63.3749 6.51286 63.0901 6.77971 62.7484C7.91383 62.6345 8.91453 62.2358 9.58166 61.2676C9.91522 60.812 9.98193 60.3563 10.0487 59.9577C10.4489 59.6159 10.9159 59.3312 11.3162 58.9894C11.9166 58.5338 12.517 58.1351 13.1174 57.7365C13.5177 57.6795 14.1181 57.7365 14.5184 57.3378C14.9187 57.4517 15.2523 57.5086 15.6525 57.6225C15.9861 58.7047 16.7867 58.8755 17.7206 58.249C18.1209 58.3629 18.5879 58.4768 18.9882 58.6477C19.255 59.4451 19.9222 59.559 20.5893 59.2173C21.123 59.3881 21.59 59.559 22.1237 59.7298C22.1237 60.0716 22.1904 60.4133 22.4573 60.6411C22.9243 61.0967 23.5914 60.9828 24.1918 60.6411C24.6588 60.8689 25.1925 61.0398 25.6595 61.2676C25.6595 61.951 25.7929 62.6345 26.46 62.7484C26.927 62.8623 27.394 62.6915 27.7943 62.4067C28.2613 62.6915 28.795 62.9193 29.262 63.204C29.262 63.7736 29.4621 64.4001 30.0625 64.514C30.3961 64.5709 30.7297 64.514 31.13 64.3431C31.4635 64.5709 31.7971 64.7418 32.0639 64.9696C31.8638 65.71 31.9305 66.3365 32.5976 66.6213C33.0646 66.7921 33.5316 66.6213 33.9986 66.4504C34.3322 66.7352 34.6657 67.02 34.9326 67.3047C34.9326 67.7034 35.066 68.0451 35.533 68.216C35.7332 68.2729 35.8666 68.3299 36.0667 68.3299C36.467 68.7286 36.8006 69.0703 37.1341 69.469C37.1341 69.6968 37.3343 69.8677 37.5344 69.9246C41.4705 74.5948 42.9381 79.9485 41.804 85.4731L41.8708 85.3592ZM43.4052 88.6625C43.4052 88.6625 43.3384 88.6625 43.2717 88.6625C43.2717 88.6625 43.2717 88.6055 43.2717 88.5486C43.2717 88.5486 43.3384 88.6056 43.3384 88.6625H43.4052ZM40.2696 100.737C39.3356 100.167 38.0014 99.7685 37.2675 99.0281C37.0674 98.8573 36.934 98.6295 36.8006 98.4016C37.4677 97.946 38.0681 97.4334 38.6018 96.8639C41.6706 97.4334 47.4079 100.68 49.5427 101.99C50.9437 102.844 52.4114 103.812 53.6789 104.837C54.6129 105.578 57.2814 107.628 57.4816 108.539C57.8151 110.191 55.2133 109.451 54.2127 109.166C48.7422 107.514 44.8728 103.528 40.2696 100.68V100.737ZM51.8777 112.185C53.1452 116.342 48.6755 113.836 46.9409 112.583C42.4044 109.394 39.8026 104.553 35.1994 101.192C34.8659 100.965 34.0653 100.623 33.665 100.224C34.3322 99.9394 34.9326 99.5977 35.533 99.256C40.0695 101.477 44.4058 104.211 48.0751 107.4C49.6095 108.71 51.344 110.248 51.8777 112.128V112.185ZM24.9257 103.869C24.9257 103.129 25.6595 101.99 26.6602 102.445C27.9944 103.072 29.9291 106.945 30.4628 108.198C32.0639 112.014 33.9319 117.424 34.0653 121.468C34.0653 122.55 33.9319 124.999 32.0639 123.746C30.2627 122.493 28.1279 117.538 27.5942 115.545C27.0605 113.551 27.1272 111.444 26.6602 109.451C26.2599 107.742 24.9924 105.464 24.9257 103.869ZM24.3919 102.275C24.2585 102.445 24.1251 102.616 24.0584 102.844C23.8582 102.901 23.3245 102.502 23.0577 102.388C22.9243 102.388 22.7908 102.331 22.6574 102.331C23.2578 102.331 23.7915 102.331 24.3919 102.331V102.275ZM-6.42946 94.0731C-4.96177 93.1049 -3.82765 91.5102 -1.75955 91.9089C-1.42598 92.3076 -1.09242 92.6493 -0.758854 93.048C-0.758854 93.1619 -0.758854 93.2758 -0.825565 93.3897C-1.55941 95.8387 -8.23071 100.566 -10.7658 102.218C-14.0347 104.382 -20.6393 108.483 -24.442 109.394C-26.3766 109.849 -29.0452 109.565 -27.911 107.343C-26.9104 105.35 -21.0396 101.249 -18.7714 100.11C-14.7019 98.003 -10.3655 96.693 -6.42946 94.1301V94.0731ZM-31.9805 102.901C-34.6491 103.129 -33.9819 102.616 -32.7144 101.477C-29.9124 98.8573 -22.1737 94.244 -18.3711 92.7632C-14.7019 91.3393 -10.6991 90.8268 -6.89645 89.0612C-6.36275 88.8334 -5.02849 87.9221 -4.69492 87.8082C-4.5615 87.8082 -4.42807 87.8082 -4.29465 87.8082C-4.02779 88.4916 -3.69423 89.1751 -3.29395 89.8016C-4.96178 92.5354 -13.3676 96.4083 -16.6366 97.8891C-20.5059 99.5407 -27.8443 102.616 -31.9805 102.958V102.901ZM-13.7679 105.464C-9.56497 102.958 -5.49548 100.224 -2.0264 97.0348C-1.15913 96.2374 -1.09242 95.7818 0.375263 95.3831C0.842255 95.2692 1.30925 95.2122 1.64281 95.2122C2.1098 95.6109 2.57679 95.9526 3.1105 96.2943C3.1105 97.2056 2.30994 98.5156 1.64281 99.3699C-0.358578 102.218 -4.16122 105.749 -6.96317 108.141C-9.56497 110.362 -13.3009 113.494 -16.5698 114.918C-17.6372 115.374 -20.3725 116.57 -21.3065 115.659C-22.6407 114.292 -20.9062 110.988 -19.9722 109.679C-18.5712 107.685 -15.9694 106.774 -13.7012 105.464H-13.7679ZM-10.3655 112.298C-9.83183 111.786 -8.83113 111.216 -8.23071 110.704C-6.02919 108.881 -3.76094 107.002 -1.75955 105.008C0.308552 103.015 2.97707 99.4268 5.84573 98.4586C6.11259 98.4016 6.24601 98.3447 6.44614 98.2877C6.97985 98.5725 7.58027 98.8573 8.18069 99.0851C8.18069 99.5977 8.11398 100.224 7.84712 100.908C6.04588 105.749 -1.89297 115.943 -6.76302 118.905C-8.09729 119.702 -12.0334 121.468 -13.5678 120.557C-14.5017 120.044 -13.7679 117.994 -13.501 117.196C-13.034 116 -11.3662 113.153 -10.4322 112.241L-10.3655 112.298ZM4.04448 98.0599C4.04448 97.7182 4.17791 97.3765 4.31133 97.0917C4.57819 97.2626 4.84503 97.4334 5.11189 97.5473C4.77832 97.7182 4.44476 97.8891 4.11119 98.0599H4.04448ZM6.31272 106.375C7.38013 104.667 8.2474 101.591 10.1154 100.68C12.517 99.5977 12.3836 101.534 12.1835 102.958C11.4496 107.685 5.97916 117.538 2.30994 121.126C1.97638 121.468 1.44267 121.753 1.10911 122.038C0.842255 122.265 0.842258 122.493 0.24184 122.835C-5.0952 126.195 -2.09312 118.734 -1.22585 117.083C0.775543 113.039 3.91105 110.134 6.31272 106.318V106.375ZM9.51495 99.7116C9.51495 99.7116 9.51495 99.7116 9.51495 99.6546C9.51495 99.6546 9.58166 99.6546 9.64837 99.6546C9.64837 99.6546 9.64838 99.6546 9.51495 99.6546V99.7116ZM12.5837 106.09C12.9173 105.179 12.984 103.357 13.9847 102.787C15.786 101.819 16.0528 103.414 16.1862 104.61C16.5198 108.141 14.0514 115.089 12.6505 118.506C12.05 119.873 10.9159 122.607 9.98193 123.746C9.44823 124.43 7.64698 125.74 7.11327 124.373C6.37943 122.55 7.11328 119.133 7.64698 117.253C8.71439 113.153 11.1828 109.963 12.5837 105.977V106.09ZM13.3843 100.965C14.9854 101.42 16.5865 101.705 18.2543 101.933C17.7874 101.99 17.3204 102.161 16.8534 102.502C15.9194 101.534 14.9187 101.192 13.5177 101.762C13.5177 101.477 13.451 101.192 13.3176 100.965H13.3843ZM17.1202 107.457C17.2537 106.375 17.0535 104.837 17.3204 103.869C17.5205 103.129 18.5212 102.559 19.255 103.129C20.5893 104.211 20.656 108.141 20.7227 109.736C20.7894 113.438 20.3892 118.393 19.3885 121.981C19.1216 122.949 18.1876 125.797 17.1202 126.138C15.2523 126.822 14.4517 123.518 14.2516 122.436C13.3176 116.57 16.5198 112.925 17.1202 107.514V107.457ZM19.3885 102.104C20.2557 102.218 21.123 102.275 21.9903 102.275C21.123 102.388 20.5226 103.072 20.3892 103.015C20.1223 102.559 19.7887 102.275 19.3885 102.104ZM3.71091 52.098C3.71091 52.2119 3.57749 52.4397 3.37735 52.4397C3.17721 52.4397 1.64281 50.845 1.50939 50.5602C1.37596 49.9907 1.44267 48.2251 1.44267 47.4847C1.44267 45.833 1.5761 44.1244 1.70953 42.4728C2.04309 42.3589 1.97638 42.4728 2.04309 42.5867C2.64351 43.0993 3.1105 43.8966 3.71091 44.4662C3.91105 44.694 4.44476 44.694 4.57819 45.2635C4.44476 46.5735 4.44476 47.8834 4.24462 49.1933C4.11119 49.9337 3.91105 51.4715 3.6442 52.1549L3.71091 52.098ZM4.71161 51.8702C4.71161 52.3828 4.71161 52.9523 4.57819 53.5218C3.6442 53.1801 4.57819 52.1549 4.57819 51.5285C4.84504 51.4715 4.71161 51.7563 4.71161 51.8702ZM0.975681 53.6358C0.708832 53.6358 0.375263 53.5788 0.10841 53.5218C0.10841 53.5218 0.108414 53.4649 0.175129 53.4079C0.375267 53.1232 0.375267 52.7814 0.642117 52.6106C0.642117 52.8384 0.775543 53.2371 0.90897 53.6358H0.975681ZM-2.56011 46.0609C-2.69353 45.4344 -2.69353 44.4092 -2.69353 43.7257C-2.76025 41.6754 -2.56011 39.6251 -2.22654 37.5747C-1.89298 37.4608 -1.95969 37.5747 -1.89298 37.6886C-1.62613 37.9164 -0.425293 39.5681 -0.225155 39.9098C0.375263 41.1059 0.642117 47.5986 0.441975 49.1364C0.441975 49.3072 0.441978 49.5351 0.24184 49.592C-0.358578 48.5099 -2.29325 47.1999 -2.56011 46.0609ZM1.90966 53.5788C1.97638 53.5788 2.17652 53.6927 2.30994 53.8066C2.17652 53.8066 2.04309 53.8066 1.90966 53.8066C1.90966 53.7497 1.90966 53.6927 1.90966 53.5788ZM1.44267 38.429C1.17582 37.9734 0.842258 37.5747 0.575405 37.1191C1.0424 37.176 1.50938 37.2899 2.04309 37.3469C1.84295 37.7456 1.64281 38.1443 1.44267 38.429ZM2.97707 37.5178C3.17721 37.5178 3.31064 37.5178 3.51078 37.5747C3.57749 37.6886 3.6442 37.8025 3.71091 37.8595C4.44476 39.1694 4.57819 40.7641 4.57819 42.188L2.44337 39.4542L3.04379 37.5178H2.97707ZM5.51217 53.4649C5.24532 51.5285 5.97916 48.9655 5.91245 46.9721C6.04587 46.8013 8.38083 49.2503 8.58096 49.4781C8.58096 50.1046 7.7137 53.1801 6.91314 54.4331C6.51286 54.3762 6.11258 54.3192 5.7123 54.2622C5.57888 53.9205 5.51216 53.5788 5.44545 53.4649H5.51217ZM4.77832 37.8025C5.64559 37.9164 6.51286 38.0873 7.38013 38.2582L6.97985 38.7707L5.57888 42.9853C5.51217 42.0741 5.31203 39.5112 4.77832 37.8595V37.8025ZM10.9159 55.1735C10.3822 55.0596 9.84851 55.0027 9.3148 54.8887C9.18138 53.5219 9.64837 52.098 9.64837 50.6741C9.91522 50.5602 9.91522 50.6741 10.1154 50.7881C10.2488 50.902 11.583 52.041 11.6498 52.1549C12.1835 52.8384 11.5163 54.2622 10.9826 55.1166L10.9159 55.1735ZM12.05 54.7179C12.05 54.9457 12.05 55.1735 12.05 55.4013C11.9166 55.4013 11.7832 55.3444 11.6498 55.2874L12.05 54.6609V54.7179ZM11.4496 56.7113C11.1828 56.9391 10.7158 57.11 10.1821 56.996L10.6491 56.5404C10.9159 56.5404 11.1828 56.6543 11.4496 56.7113ZM8.44753 53.6927C8.44753 54.0344 8.44753 54.3762 8.44753 54.7748C8.2474 54.7748 7.98055 54.7179 7.7804 54.6609C8.04726 54.2622 8.2474 53.8636 8.31411 53.4649C8.58096 53.4079 8.44753 53.5788 8.44753 53.6927ZM8.71439 56.1987C8.71439 56.3126 8.78111 56.4835 8.84782 56.5974L7.91383 56.0278C8.18069 56.0278 8.51425 56.1417 8.78111 56.1987H8.71439ZM12.5837 50.2185C12.5837 50.4463 12.7172 50.7311 12.4503 50.845C12.2502 50.5602 12.2502 50.3894 12.5837 50.2185ZM14.0514 55.2305C14.0514 54.8318 14.0514 54.4901 14.1849 54.1483C14.6518 54.2622 14.9854 54.4331 15.1188 54.547C14.7186 54.7748 14.385 55.0027 14.0514 55.2305ZM17.9208 54.7748C18.5879 54.604 19.1883 54.3192 19.5886 53.8066C19.5886 53.8066 19.6553 53.8066 19.722 53.7497C19.722 53.7497 19.7887 53.8636 19.7887 53.9205C19.6553 54.4331 18.6546 56.2556 18.3211 56.7682C18.2543 56.8821 18.1876 56.996 18.1209 57.053C17.5872 56.8821 16.9868 56.7113 16.4531 56.5974C16.4531 56.3126 16.5198 55.9709 16.5865 55.7431C17.0535 55.4583 17.5205 55.1735 17.9875 54.8318L17.9208 54.7748ZM17.1869 53.1801L18.3878 49.1364C18.7881 50.3894 18.9215 52.6675 17.1869 53.1801ZM16.8534 58.1921C16.72 58.1921 16.6532 58.1921 16.5865 58.0782C16.7199 58.0782 16.7867 58.1351 16.9201 58.1921H16.8534ZM22.3906 58.4199C22.2571 58.4199 22.1904 58.3629 22.057 58.306C22.2571 58.0782 22.3906 57.9073 22.5907 57.6795C22.5907 57.9073 22.4573 58.1351 22.3906 58.4199ZM23.3913 60.5272C23.2578 60.5272 23.1244 60.5842 23.0577 60.5842C23.0577 60.5272 23.0577 60.4133 23.0577 60.3563C23.1911 60.3563 23.3245 60.4702 23.458 60.5272H23.3913ZM26.0598 59.9007C25.9263 59.8438 25.7262 59.7868 25.5928 59.7298C26.0598 59.2173 26.46 58.7047 26.6602 58.4199C26.5935 58.9325 26.1932 59.3881 25.993 59.9007H26.0598ZM27.1272 62.2358C26.9937 62.2358 26.8603 62.3497 26.6602 62.3497C26.6602 62.2358 26.6602 62.065 26.5935 61.951C26.7936 62.065 26.9937 62.1219 27.1272 62.2358ZM29.7957 61.7232C29.5956 61.6093 29.4621 61.5524 29.262 61.4385C29.8624 60.812 30.3294 60.1855 30.663 59.8438C30.4628 60.4702 30.0625 61.0967 29.7957 61.7232ZM30.4628 64.1153C30.3961 64.1153 30.3294 64.1153 30.2627 64.1153C30.2627 64.0583 30.2627 64.0014 30.2627 63.8875C30.3294 63.8875 30.4628 64.0014 30.5295 64.0583L30.4628 64.1153ZM33.4649 66.1657C33.3315 66.1657 33.1313 66.2226 32.9979 66.2226C32.9979 66.0517 32.9312 65.8809 32.9312 65.71C33.1313 65.8239 33.2648 65.9948 33.4649 66.1087V66.1657ZM32.7311 63.5458C32.8645 63.4319 32.9312 63.3749 32.9979 63.4319C32.9979 63.4888 32.9312 63.5458 32.8645 63.6597C32.8645 63.6597 32.7978 63.6597 32.7311 63.6027V63.5458ZM35.1327 65.2544C34.599 64.8557 34.132 64.457 33.5983 64.1153C34.8659 62.008 37.4677 58.5338 38.2015 57.6225C39.8026 55.6861 41.804 53.5788 44.139 52.2119C44.2724 52.5536 44.2057 52.8384 44.139 53.1232C43.7387 55.9139 38.2015 62.6345 35.7999 64.6848C35.5997 64.8557 35.3329 65.0835 35.066 65.2544H35.1327ZM32.1306 63.204C31.5969 62.8623 31.0632 62.5206 30.5295 62.1789C31.5969 59.4451 35.066 53.9775 36.3336 52.3258C36.6004 51.9841 39.3357 48.8516 39.6692 49.0794C39.8694 50.1616 39.5358 51.2437 39.2022 52.2689C38.4684 54.2622 34.7325 60.6981 32.0639 63.204H32.1306ZM35.4663 51.9841L36.6671 47.8834C36.8006 47.8834 36.8673 47.8834 37.0007 47.8834C37.0007 47.8834 37.0007 47.8834 37.0674 47.8834C37.1341 47.8834 37.2675 47.8834 37.3343 47.8834C37.868 48.1112 38.335 48.396 38.8019 48.6238C37.5344 49.3642 36.2001 51.3006 35.3996 52.041L35.4663 51.9841ZM31.9972 49.2503C31.9972 49.1364 31.9972 48.9086 32.0639 48.7377C32.1974 48.7377 32.3975 48.6808 32.5309 48.6238C32.3308 48.9086 32.0639 49.2503 31.9305 49.2503H31.9972ZM29.9291 46.9152C29.729 46.7443 31.0632 45.2635 31.5302 45.2066C31.5302 45.2066 31.5969 45.2066 31.6637 45.2066C31.9972 46.4026 31.5302 47.086 29.9958 46.9152H29.9291ZM29.1286 46.1748C27.9944 45.89 28.2613 44.9218 28.328 43.9536C29.0619 44.2383 29.7957 44.5231 30.5295 44.7509C30.0625 45.1496 29.5956 45.7191 29.1953 46.1178L29.1286 46.1748ZM25.4593 49.4212C24.9924 49.592 24.5254 49.8198 24.0584 49.9907C23.5247 49.9907 22.991 49.8768 22.9243 49.5351C22.8575 49.1364 24.6588 46.0039 24.9924 45.4913C25.0591 45.3774 25.3926 44.8648 25.5928 44.9787C26.1265 45.7761 26.1932 48.339 25.4593 49.4212ZM23.0577 46.8582L23.3913 42.8145C24.1251 42.9853 24.5921 43.4979 24.7922 44.1244L23.0577 46.8582ZM21.8568 47.7695C21.8568 47.9404 21.6567 48.6238 21.4566 48.5668C21.2564 48.5668 19.7887 47.1999 19.7887 47.0291C20.189 46.5165 20.5226 46.1178 20.7227 45.4913C21.1897 44.2383 20.656 42.7006 21.9903 41.9032C22.5907 43.6688 22.3238 45.947 21.7901 47.7125L21.8568 47.7695ZM20.7894 51.4145C20.5226 51.4715 20.656 51.1867 20.656 51.0728C20.656 50.902 20.656 50.3324 20.7894 50.3324C21.3231 50.2185 20.7227 51.3576 20.7894 51.4715V51.4145ZM19.1883 44.1814C19.3885 43.0993 19.3218 41.9602 19.1216 41.1059C19.4552 41.2198 19.7887 41.2767 20.1223 41.3906C20.2557 42.3589 20.1223 43.2701 19.1883 44.1814ZM19.9222 44.9218H20.1223C20.1223 44.9787 19.5219 46.2887 19.5219 46.2887H19.3218C19.3218 46.2317 19.9222 44.9218 19.9222 44.9218ZM21.4566 52.8954C22.2571 52.4967 23.0577 52.041 23.8582 51.6993C24.2585 51.6993 24.6588 51.6993 25.0591 51.6993C24.1918 53.6358 23.3913 55.6291 22.057 57.3947C21.8568 57.6225 21.6567 57.9643 21.3899 58.1921C20.8562 58.0212 20.3224 57.7934 19.7887 57.6795C19.7887 57.5656 19.7887 57.4517 19.7887 57.3378C20.0556 55.9709 20.7894 54.4331 21.3899 52.9523L21.4566 52.8954ZM18.2543 44.8648C18.2543 44.9787 18.2543 45.1496 18.0542 45.2066L16.3864 42.9284L17.6539 40.8211C18.3878 40.7072 18.3878 44.4092 18.2543 44.9218V44.8648ZM15.6525 41.9602C15.0521 41.5045 14.852 40.6502 14.5851 39.9668C15.319 40.1376 16.0528 40.3085 16.7199 40.4794C16.3864 40.8211 16.0528 41.2767 15.6525 41.9602ZM15.6525 44.9218C15.9194 45.6622 17.7206 46.8582 17.7874 47.5417C17.2537 49.0794 16.9868 50.845 16.4531 52.3828C16.4531 52.5536 16.3197 53.1232 16.0528 53.1232C15.5858 53.1232 13.7179 52.098 13.7846 51.5285C13.7846 51.0728 15.2523 44.7509 15.6525 44.9218ZM13.6512 46.2887L13.3176 47.5986C13.2509 45.7761 12.517 44.0105 11.7832 42.3019L12.5837 40.5933C12.7839 41.2198 13.5844 41.9602 13.7846 42.4728C14.1849 43.384 13.5844 45.2066 13.5844 46.2317L13.6512 46.2887ZM11.3162 40.935C10.9159 41.0489 11.1161 40.935 10.9826 40.8211C10.5824 40.2516 10.3155 39.6251 10.0487 38.9986C10.5824 39.1125 11.0493 39.2264 11.5831 39.2833C11.5831 39.3403 11.6498 39.4542 11.7165 39.5112C11.9833 40.0237 11.3162 40.4224 11.3162 40.992V40.935ZM9.04795 47.1999C9.04795 47.3139 9.04796 47.4847 8.84782 47.5417L6.37943 44.637C6.713 42.5867 7.2467 40.4794 8.31411 38.6568C8.38083 38.6568 8.51425 38.6568 8.58096 38.6568C8.58096 38.6568 8.64767 38.7707 8.71439 38.8277C9.7818 40.4794 9.51495 45.2635 9.04795 47.143V47.1999ZM-3.62751 40.3085C-3.82766 39.5681 -4.09451 38.0303 -4.5615 36.7774C-4.02779 36.7774 -3.49409 36.8913 -3.0271 36.9482L-3.62751 40.3085ZM0.0416985 51.9271C0.0416985 52.5536 -0.225151 53.2371 -0.758854 53.6927C-0.958992 53.6927 -1.09242 53.6927 -1.29256 53.6927C-1.75955 53.0093 -2.15983 50.902 -2.15983 50.5602C-2.15983 50.3894 -2.15983 50.2755 -2.0264 50.1046L0.0416985 51.9841V51.9271ZM-8.36414 52.9523C-8.36414 52.9523 -8.36414 52.9523 -8.43085 52.9523C-8.56427 52.8384 -8.6977 52.6675 -8.6977 52.4967C-8.6977 52.2689 -8.164 50.6741 -8.09729 50.2185C-7.96386 49.5351 -7.96386 48.7947 -7.96386 48.1112L-7.63029 49.1364C-7.49687 50.2755 -7.43016 52.155 -6.6296 53.1801C-7.23002 53.1801 -7.76372 53.0662 -8.36414 53.0093V52.9523ZM-7.89715 47.8834V47.6556H-7.83043V47.8834H-7.89715ZM-9.96525 53.8066C-5.82904 56.996 -1.82626 60.2424 3.24393 62.3497C3.44407 62.7484 3.6442 63.1471 3.77763 63.4888C3.71091 63.6027 3.57749 63.6597 3.51078 63.7736C2.84365 64.514 2.10981 65.2544 1.50939 66.0517C0.375267 66.0517 -0.892281 65.71 -2.09311 65.3683C-8.83113 63.4888 -17.237 58.9325 -23.1077 55.3444C-23.975 54.8318 -25.5761 53.9205 -26.3099 53.351C-26.3766 53.294 -26.6435 53.0662 -26.6435 53.0093C-22.7074 53.0093 -18.7714 53.2371 -14.8353 53.4649C-14.7019 53.4649 -14.6352 53.4649 -14.5017 53.4649C-12.9673 53.5788 -11.4329 53.6927 -9.89854 53.8066H-9.96525ZM-17.9041 48.7377C-17.704 48.7947 -17.6372 48.9655 -17.5705 49.1364C-17.4371 49.592 -17.9708 52.7245 -18.8381 52.3828C-18.9048 52.098 -19.4385 51.6424 -19.5052 51.4145L-20.2391 47.8264L-17.9041 48.7377ZM-20.3725 46.9152L-20.9062 44.1814L-20.5726 44.2953C-20.2391 45.0357 -17.704 46.8013 -17.5038 47.3708C-17.5038 47.4847 -17.3704 48.2821 -17.704 48.2251L-20.3725 46.9152ZM-16.9034 49.592C-16.4364 49.4212 -16.77 49.592 -16.7033 49.7629C-16.5698 50.4463 -16.5031 51.3006 -16.2363 51.9271C-16.2363 52.041 -16.0361 52.2689 -15.9027 52.4967C-16.4364 52.4967 -16.9701 52.4967 -17.5038 52.4397C-16.9701 51.6993 -16.77 50.3894 -16.8367 49.592H-16.9034ZM-17.7707 44.637L-21.1063 41.2198C-21.3065 40.0237 -21.2397 38.7138 -21.1063 37.5178C-21.1063 37.2899 -20.9729 36.1509 -20.7728 35.6952C-20.6393 35.6952 -20.5726 35.6952 -20.4392 35.6952C-18.3044 38.2012 -18.2377 41.6754 -17.7707 44.637ZM-22.107 39.0555C-22.3072 39.1125 -22.3739 38.8847 -22.4406 38.7707C-22.7074 38.0873 -23.1077 36.7204 -23.7081 35.6383C-23.041 35.6383 -22.4406 35.6383 -21.7734 35.6383C-22.1737 36.6065 -22.3072 37.9734 -22.1737 39.0555H-22.107ZM-19.9055 52.1549C-19.8388 52.2689 -19.7721 52.3258 -19.7053 52.3828C-20.4392 52.3828 -21.173 52.3828 -21.9069 52.3828C-21.173 51.5854 -20.9062 49.7629 -21.1063 49.0225L-19.9055 52.2119V52.1549ZM-15.3023 50.0477C-15.0354 50.1616 -13.7012 50.902 -13.6345 51.0159C-13.6345 51.2437 -13.9013 52.1549 -14.3016 52.5536C-14.5017 52.5536 -14.7686 52.5536 -14.9687 52.5536C-15.1021 52.3258 -15.4357 51.8702 -15.4357 51.8132L-15.836 49.9337C-15.5691 49.8198 -15.5024 49.9337 -15.369 50.0477H-15.3023ZM-15.836 48.9655L-15.3023 49.3642C-15.6359 49.4212 -15.836 49.2503 -15.836 48.9655ZM-12.5003 47.9973L-12.2335 48.6238V49.7059C-12.7005 49.1933 -12.2335 48.5668 -12.5003 47.9973ZM-11.4329 52.7814C-12.1001 52.7814 -12.7672 52.6675 -13.4343 52.6675C-13.1675 52.2689 -13.034 51.8702 -12.9006 51.5854C-12.2335 51.8132 -11.8332 52.3258 -11.4329 52.7814ZM-13.2342 44.8079C-13.2342 45.2066 -13.1008 48.7377 -13.3676 48.7947C-14.0347 47.8834 -16.0361 46.9721 -16.2363 45.89C-16.5031 44.5231 -16.4364 42.0171 -16.3697 40.5933C-16.303 39.1694 -16.0361 37.8025 -15.836 36.4356C-15.6359 36.2078 -14.5684 37.176 -14.435 37.3469C-13.501 38.9416 -13.3676 42.8714 -13.3009 44.8079H-13.2342ZM-17.3037 40.6502L-18.5712 36.7204C-18.7714 36.3787 -18.9048 36.0939 -19.0382 35.8091C-18.1709 35.8091 -17.3704 35.8661 -16.5031 35.923C-16.9701 37.4608 -17.237 39.0555 -17.237 40.6502H-17.3037ZM-19.4385 35.2966C-20.3058 34.1575 -21.0396 34.4422 -21.5066 35.2966C-22.3072 35.2966 -23.1077 35.2966 -23.975 35.2966C-24.2418 34.8979 -24.5087 34.5561 -24.8422 34.4422C-25.8429 34.0436 -26.3099 34.9548 -26.5101 34.8979C-26.8436 33.8157 -28.3113 32.1071 -26.0431 31.9932C-23.7748 31.8793 -19.8388 34.0436 -17.5038 35.4674C-18.1709 35.4674 -18.8381 35.4674 -19.4385 35.4674V35.2966ZM-23.3746 38.8277C-23.5747 38.8277 -23.7081 38.6568 -23.7748 38.5429C-24.1084 38.1442 -25.5094 36.4356 -25.6428 36.0939C-25.6428 35.923 -25.6428 35.8091 -25.6428 35.6952C-25.4427 35.6952 -25.2425 35.6952 -25.0424 35.6952C-24.1084 36.4926 -23.7081 37.8025 -23.3746 38.8277ZM-25.9097 38.7138L-22.574 42.4158L-22.0403 46.2317L-25.1758 44.9787C-25.5761 42.8714 -25.9097 40.8211 -25.9097 38.7138ZM-21.9736 47.4278C-21.7067 48.0543 -21.9736 52.098 -22.7074 52.2119C-24.6421 50.845 -24.1084 48.1682 -24.9757 46.3456C-24.8423 46.1748 -22.1737 47.086 -21.9736 47.4847V47.4278ZM-23.6414 52.4397C-24.5087 52.4397 -25.376 52.4397 -26.2432 52.4397C-25.376 51.1867 -25.5761 49.2503 -25.7095 47.8834C-25.5094 47.8834 -25.3092 48.5099 -25.3092 48.6238C-24.909 49.8198 -24.8422 51.4715 -23.7081 52.4397H-23.6414ZM-26.9104 39.1125L-28.2446 36.0939C-28.3113 35.923 -28.4448 35.8091 -28.5115 35.6952C-28.3113 35.6952 -28.0445 35.6952 -27.8443 35.6952C-27.5108 36.2078 -27.1772 36.7204 -27.0438 37.176C-26.8436 37.8025 -27.1105 38.486 -26.9771 39.1125H-26.9104ZM-26.9104 44.2953C-26.9104 44.4092 -26.7769 44.4662 -27.1105 44.4662L-29.9792 43.6118C-30.3794 42.0741 -30.5129 40.4224 -30.5129 38.8277C-30.5129 38.0303 -30.5129 36.7204 -30.246 35.98C-30.246 35.8091 -30.1793 35.6952 -29.9792 35.6383C-29.9792 35.6383 -29.9124 35.6383 -29.8457 35.6383C-29.0452 36.5495 -28.4447 37.5747 -28.1112 38.6568C-27.7776 39.682 -26.7769 43.384 -26.9104 44.2383V44.2953ZM-29.6456 44.694L-26.7102 45.6052C-26.5101 47.143 -26.3099 48.7377 -26.4434 50.3324C-26.4434 50.7311 -26.6435 52.4397 -27.3106 52.4967H-27.3773C-28.1112 51.9841 -28.4448 51.0159 -28.6449 50.2755C-29.1119 48.5668 -29.3787 46.6304 -29.8457 44.8648L-29.6456 44.694ZM-39.8527 51.8132C-40.0528 52.7814 -40.5198 53.294 -41.0535 52.8384C-40.6532 51.6424 -40.1862 50.3894 -39.7192 49.1933C-39.7192 50.2755 -39.7192 51.1867 -39.8527 51.8132ZM-40.5865 54.0914C-32.9812 54.9457 -21.3065 59.1033 -14.6352 62.4067C-12.0334 63.6597 -9.96525 64.6848 -7.1633 65.71C-5.69561 66.2226 -4.42807 66.4504 -2.96038 66.8491C-2.29325 67.02 -1.89297 67.4186 -1.42598 67.5895C-0.958992 67.7604 -0.425289 67.5895 -0.158436 68.1021C-0.558716 68.6147 -0.892284 69.1273 -1.29256 69.6398C-1.75955 69.7538 -2.35997 69.8107 -2.76025 69.8677C-6.76302 70.2663 -14.5684 67.8743 -18.4378 66.5643C-24.9757 64.4001 -34.1154 60.8689 -39.7192 57.3378C-39.9861 57.1669 -40.9868 56.4265 -41.8541 55.7431C-41.7206 55.1735 -41.5205 54.604 -41.3871 54.0344C-41.1202 54.0344 -40.8534 54.0344 -40.5865 54.0914ZM-42.9882 51.9841L-42.788 50.845C-42.788 50.9589 -42.7213 51.0728 -42.6546 51.1298C-42.788 51.4145 -42.8548 51.6993 -42.9882 51.9841ZM-43.4552 64.0014C-42.2543 63.8875 -39.319 64.0014 -38.0514 64.1153C-33.1814 64.457 -26.5768 65.767 -21.9069 67.02C-16.1028 68.6716 -11.0327 70.665 -4.82835 71.4054C-4.16122 71.4624 -3.22724 71.1207 -2.96038 71.8611C-2.96038 72.0319 -2.96038 72.2028 -2.96038 72.3167C-3.09381 72.5445 -3.16053 72.7154 -3.29395 72.9432C-3.5608 73.171 -3.89437 73.3419 -4.22793 73.4558C-7.43016 74.367 -14.2349 73.4558 -17.704 72.9432C-22.0403 72.2597 -26.7769 71.1776 -30.9798 70.0385C-34.1154 69.1842 -40.9201 67.3047 -43.5886 65.3683C-43.5886 64.9127 -43.4552 64.457 -43.3885 64.0014H-43.4552ZM-43.722 66.8491C-40.8534 68.6147 -36.05 70.1524 -33.8485 70.8359C-31.9138 71.4054 -29.779 71.7471 -27.911 72.3736C-27.7109 72.3736 -27.5108 72.4306 -27.4441 72.6015C-29.8457 72.4875 -32.2474 72.3167 -34.6491 72.3167C-37.5844 72.3167 -41.1202 72.4306 -43.9889 73.0571C-43.9889 71.0067 -43.9889 68.8994 -43.7887 66.8491H-43.722ZM-43.9222 74.0823C-43.8555 74.0823 -43.722 74.0253 -43.6553 73.9684C-38.3183 72.7154 -28.5115 72.9432 -22.9743 73.6266C-20.6393 73.9114 -18.3711 74.424 -16.0361 74.7657C-13.2342 75.1644 -9.89854 75.3922 -7.09659 75.3922C-6.22932 75.3922 -5.29534 75.2213 -4.42807 75.1644C-4.42807 75.1644 -4.36136 75.2783 -4.29465 75.3353C-4.49479 75.8478 -4.62821 76.3035 -4.82835 76.8161C-5.0952 76.9869 -6.69631 77.7273 -6.96317 77.7843C-10.0987 78.5247 -15.7026 78.5816 -19.0382 78.5247C-24.7088 78.4677 -38.852 77.6134 -43.5219 75.3353C-43.5886 75.3353 -43.722 75.2213 -43.8555 75.1644C-43.8555 74.8227 -43.8555 74.424 -43.8555 74.0823H-43.9222ZM-43.7887 76.4743C-43.3885 76.6452 -43.0549 76.8161 -42.8548 76.873C-40.7199 77.6704 -38.4517 78.069 -36.1835 78.4677L-27.8443 79.4359C-31.8471 79.8346 -35.9833 80.632 -39.8527 81.7141C-40.7867 81.9989 -41.9208 82.3406 -42.8548 82.6823C-42.9882 82.6823 -43.0549 82.7962 -43.1883 82.7962C-43.5219 80.6889 -43.722 78.5247 -43.8555 76.3604L-43.7887 76.4743ZM-42.9882 83.8784C-39.7192 82.0558 -29.9791 80.5181 -26.1765 80.0624C-20.8395 79.4359 -15.369 80.0624 -9.76511 79.4929C-8.49756 79.379 -7.63029 78.8664 -6.56289 79.4929C-4.82835 80.5181 -5.6289 81.5432 -7.09659 82.2836C-8.6977 83.081 -9.76511 83.0241 -11.2995 83.4797C-11.8332 83.6505 -12.4336 83.9353 -13.1008 84.1062C-19.5052 85.587 -30.3127 86.0996 -37.0507 85.7579C-38.9187 85.6439 -40.9868 85.587 -42.788 84.9605C-42.788 84.6188 -42.9215 84.277 -42.9882 83.9353V83.8784ZM-42.5879 86.2135C-38.9854 87.3526 -34.2488 87.0678 -30.5796 87.1247L-36.1835 89.0042C-37.3843 89.5168 -39.786 90.5989 -41.3204 91.8519C-41.8541 89.9724 -42.2543 88.093 -42.6546 86.2135H-42.5879ZM-40.7867 93.4466C-40.5865 93.2188 -40.3864 92.991 -40.0528 92.7062C-37.8513 90.5989 -33.1814 89.1751 -30.0459 88.3208C-28.378 87.8652 -25.8429 87.0678 -24.2418 86.84C-22.6407 86.5552 -20.5059 86.6122 -18.7714 86.3843C-15.9694 86.0426 -12.9006 85.587 -10.1654 84.9605C-9.36483 84.7896 -8.164 84.1631 -7.29673 83.9353C-6.76303 83.9353 -6.02918 84.1631 -5.42876 84.5049C-5.29534 85.1883 -5.16191 85.8148 -4.96178 86.4413C-5.29534 86.7261 -5.6289 86.7261 -5.82904 86.8969C-6.82973 87.6943 -7.02988 88.093 -8.43085 88.6056C-15.2356 91.2824 -24.0417 93.2188 -31.4468 94.187C-33.5816 94.4718 -37.5177 94.8705 -39.6525 94.5857C-39.9861 94.5857 -40.1862 94.4718 -40.3864 94.4149C-40.5198 94.0731 -40.5865 93.7884 -40.6532 93.4466H-40.7867ZM-26.3099 113.551C-31.5135 109.052 -35.9166 103.755 -38.9854 98.003C-39.3857 97.2626 -39.786 96.4652 -40.0528 95.6678C-37.7179 96.0096 -34.1821 95.8387 -32.3808 95.6109C-27.3106 94.9275 -25.0424 94.301 -22.574 94.0162L-29.7123 98.0599C-31.1133 98.9142 -35.3162 101.648 -35.116 103.186C-35.116 103.528 -34.5823 104.04 -34.2488 104.154C-32.9145 104.553 -29.9791 104.04 -28.5782 103.755C-26.7769 103.357 -24.909 102.616 -23.1077 102.104L-25.5094 103.755C-27.5108 105.122 -31.8471 109.28 -27.5775 110.647C-25.0424 111.444 -22.8409 110.191 -20.5726 109.451C-21.7734 111.216 -23.7748 113.893 -22.574 116.057C-22.2404 116.627 -21.5733 117.196 -20.7728 117.196C-19.5719 117.196 -16.9034 116.456 -15.7693 116C-14.6352 115.545 -13.6345 114.861 -12.5671 114.292L-14.5684 117.937C-15.7026 121.126 -14.5684 122.721 -10.5657 121.753C-9.63169 121.525 -8.96455 121.297 -7.96386 121.069C-5.76233 120.614 -3.29395 117.937 -1.75955 116.57C-2.09311 117.538 -2.62682 118.449 -3.0271 119.361C-3.69423 121.069 -5.02849 125.512 -1.22585 124.714C0.50869 124.316 3.04379 122.095 4.11119 120.955C5.1786 119.816 5.91245 118.506 6.77971 117.31C6.57957 118.506 6.1793 119.646 6.04587 120.842C5.91245 122.095 5.51216 125.341 7.11327 125.91C8.98124 126.594 10.5824 124.487 11.3829 123.291L13.451 119.19C13.451 121.411 13.1842 124.373 14.7186 126.309C17.1202 129.385 19.7887 124.259 20.1223 122.493L20.9896 118.393C21.3232 120.443 21.5233 122.493 22.2571 124.487C22.5907 125.284 22.9243 126.252 23.7915 126.765C5.44545 129.442 -12.3002 125.854 -26.3766 113.608L-26.3099 113.551ZM24.7922 126.423C24.0584 126.708 23.458 125.512 23.2578 125.056C20.4559 119.19 21.9236 112.469 21.2564 106.318C21.1897 105.521 20.5893 104.61 21.2564 103.983C22.991 102.161 24.5254 106.147 24.7922 107.173C25.7929 110.875 26.2599 115.089 26.3266 118.905C26.3266 120.728 26.5268 124.487 25.1925 125.91C25.0591 126.024 25.0591 126.309 24.7922 126.366V126.423ZM37.2675 123.689C37.1341 123.689 36.934 123.803 36.8673 123.803C33.1313 124.942 29.3954 125.797 25.6595 126.423C27.1272 124.999 27.1272 123.291 27.5275 121.525L27.394 117.88C27.5942 117.823 27.6609 118.051 27.7276 118.165C28.2613 119.247 28.5949 120.386 29.1953 121.468C30.1293 123.12 32.3975 126.708 34.2655 123.746C34.8659 122.835 34.8659 120.557 34.7325 119.418C34.7325 119.019 34.5323 118.677 34.3322 118.279L37.0007 122.208C37.401 122.664 37.868 123.006 38.335 123.291C37.9347 123.404 37.5344 123.518 37.2008 123.632L37.2675 123.689ZM40.3363 120.5C40.3363 120.955 40.4031 122.265 40.0028 122.835C39.7359 122.949 39.4691 123.006 39.2022 123.12C37.868 122.778 36.2001 120.272 35.7332 119.475C33.4649 115.887 33.2648 112.64 31.6637 108.995C31.1967 107.97 30.0625 106.489 29.729 105.464C29.6623 105.179 29.729 104.951 29.6623 104.667C29.5956 104.496 29.262 104.439 29.1286 104.268C28.6616 103.698 27.9277 103.072 28.328 102.388C28.328 102.275 28.4614 102.218 28.5281 102.161C28.795 102.161 29.0619 102.047 29.3287 101.99C29.7957 102.104 30.196 102.388 30.5295 102.616C34.599 105.806 39.8026 115.83 40.3363 120.5ZM40.8701 122.493C40.8701 122.379 40.87 122.265 40.9368 122.151C41.2036 120.728 41.2036 118.962 40.8701 117.538C40.8701 117.367 40.6699 117.196 40.6032 117.026L42.8047 119.133C43.3384 119.589 44.3391 120.386 45.2731 120.671C43.8054 121.354 42.3377 121.981 40.8701 122.493ZM46.2738 120.158C45.6734 120.386 44.2724 119.418 43.8054 119.076C40.0695 116.399 39.5358 114.007 37.6011 110.476C36.0667 107.685 34.2655 105.179 32.0639 102.73C31.7971 102.445 31.0632 101.933 30.9298 101.534C31.3301 101.42 31.6637 101.306 31.9972 101.192C32.5309 101.306 33.3315 101.648 33.5983 101.819C37.8012 104.382 44.8728 112.64 46.0737 116.969C46.2071 117.481 46.8075 119.873 46.2071 120.101L46.2738 120.158ZM61.0841 107.514C57.7484 112.412 52.9451 116.627 47.3412 119.646C47.7415 117.196 46.6074 114.804 45.3398 112.754C46.8075 113.722 49.8096 116.228 51.8777 115.317C52.6115 115.032 52.745 113.95 52.6115 113.324C52.4781 112.128 52.2113 111.273 51.4774 110.191C50.9437 109.451 50.2099 108.938 49.6762 108.198C51.1439 108.824 52.5448 109.679 54.1459 110.077C61.0174 112.014 56.4809 105.92 53.8791 104.439L57.615 105.863C58.9493 106.147 60.3503 106.774 61.7512 106.375C61.7512 106.375 61.7512 106.375 61.8179 106.375C61.5511 106.774 61.3509 107.173 61.0841 107.514ZM61.8179 105.863C61.4177 106.489 58.9493 105.806 58.2821 105.635C52.3447 104.04 48.9423 100.908 43.7387 98.4016C42.3377 97.7182 40.4031 97.3195 39.4024 96.1804C39.4024 96.1804 39.4024 96.1804 39.4024 96.1235C39.8694 95.44 40.3363 94.8135 40.7366 94.1301C41.337 94.1301 41.8708 94.244 42.2043 94.3579C47.0744 95.5539 55.2133 99.6546 59.016 102.502C59.8833 103.129 61.6178 104.496 61.8179 105.407C61.8179 105.521 61.8179 105.806 61.8179 105.92V105.863ZM62.3516 105.464C62.2182 104.382 60.6171 102.73 60.0834 102.275C59.4163 101.648 58.549 101.192 57.8819 100.509C59.016 100.794 60.0834 101.249 61.2175 101.477C61.9514 101.648 63.2189 101.819 64.1529 101.762C63.6192 103.015 63.0188 104.268 62.3516 105.464ZM64.353 101.306C63.0188 101.477 60.4837 100.851 59.4163 100.509C54.2794 98.9712 50.1432 95.8387 45.1397 94.301C44.9395 94.301 43.0716 93.9023 43.205 93.7314L43.4052 93.5606C42.9382 93.3327 42.271 92.8771 41.7373 92.3645C42.1376 91.5672 42.5379 90.7698 42.8047 89.9724C44.4725 90.0294 47.0077 90.7698 48.4086 91.2254C53.2787 92.8202 60.8172 95.6678 64.2196 99.0851C64.5532 99.4268 64.7533 99.6546 64.8867 99.8825C64.7533 100.338 64.5532 100.851 64.353 101.306ZM65.0869 78.126C66.9548 85.0744 67.2217 92.4215 65.0869 99.256C64.1529 98.0599 62.4851 96.4652 61.3509 95.7818L56.5476 93.3897C58.8158 93.6745 61.8179 94.4149 64.0862 93.7314C66.1543 93.1049 64.4197 91.8519 63.4191 91.1115L58.8158 88.8334C60.4837 88.8334 64.2863 89.5738 65.6206 88.6056C67.5552 87.1817 63.0188 85.6439 61.9514 85.1883L56.5476 83.5366C58.6157 83.5366 60.6171 83.9353 62.6852 83.8784C63.5525 83.8784 64.6199 83.8784 65.2203 83.3088C65.8874 82.1128 62.5518 81.1446 61.6178 80.9167C60.0167 80.4611 58.1487 80.1763 56.4809 79.8916C58.1487 79.4359 63.2856 78.8094 64.0862 77.4426C64.2863 77.1008 64.2863 76.93 64.0862 76.5882C63.2856 75.2213 59.4163 75.5631 57.8819 75.5061C57.7484 75.5061 57.4149 75.5061 57.4149 75.3353C58.8158 74.9935 62.6185 73.8544 63.1522 72.6584C63.886 74.4809 64.4865 76.3035 64.9534 78.183L65.0869 78.126ZM62.8186 71.5763C62.2182 71.2915 61.2175 71.2346 60.6838 71.1776C58.2821 71.1207 56.1473 71.5193 53.8791 71.918C53.6789 71.918 53.0118 72.1458 52.9451 71.918C54.9465 71.1776 59.483 69.412 60.6171 67.8743C60.7505 67.6465 60.8172 67.4756 60.8839 67.3047C61.6178 68.6716 62.3516 70.0955 62.952 71.5193L62.8186 71.5763ZM57.7484 63.0332C58.6824 64.1723 59.5497 65.3113 60.2835 66.5643C59.95 66.3935 59.483 66.3365 58.9493 66.3365C56.681 66.4504 54.0125 67.1908 51.8777 67.8743L55.0132 65.767C55.6136 65.4822 57.2815 64.0583 57.7484 63.0332ZM56.4142 61.4954C56.4809 61.6093 56.6143 61.7232 56.681 61.7802C54.6129 61.7802 51.811 63.261 49.943 63.8875L52.5448 61.4385C53.212 60.812 53.8791 59.9007 54.1459 59.1603C54.9465 59.9007 55.747 60.6981 56.4809 61.4954H56.4142ZM53.0785 58.7047C53.0785 59.1033 52.8117 59.6159 52.6115 59.9577C51.0771 62.4636 43.0049 68.3299 39.3357 69.5259C39.0021 69.1273 38.6685 68.7855 38.335 68.3869C40.0028 66.6782 45.2064 62.8054 46.4739 61.951C47.2745 61.4385 52.4781 58.3629 53.0785 58.6477V58.7047ZM49.5427 55.4013C50.6102 56.1987 51.6776 57.053 52.6783 57.9643C52.3447 58.0212 52.0111 58.1351 51.5441 58.249C49.2092 59.0464 47.2745 60.5272 45.2064 61.7232C46.5407 60.1285 48.2085 58.3629 49.0758 56.5974C49.2759 56.1417 49.4093 55.7431 49.5427 55.4013ZM48.4086 55.7431C47.7415 58.3629 40.6699 65.5961 37.3343 67.4186C36.934 67.02 36.5337 66.6782 36.1334 66.3365C37.2675 64.5709 40.2696 61.4385 41.4038 60.3563C43.4719 58.306 45.8068 56.1987 48.542 54.8318C48.6755 55.1735 48.542 55.4583 48.4753 55.8L48.4086 55.7431ZM47.8749 54.2053C47.6081 54.2623 47.3412 54.3762 47.0744 54.547L42.6713 57.7934C43.205 56.7682 45.1397 53.8066 45.1397 52.3258C46.0737 52.9523 47.0076 53.5788 47.9416 54.2053H47.8749ZM40.4031 50.845C40.4698 50.5602 40.6032 50.0477 40.6032 49.649C41.6706 50.2185 42.6713 50.845 43.7387 51.4145C42.8047 51.6424 41.7373 52.5536 41.2703 52.9523C40.2696 53.8066 39.4691 54.8318 38.4684 55.6861L40.4031 50.845ZM39.4024 46.5165C39.5358 46.2887 39.6025 46.0609 39.8694 46.0039H40.0695C40.2696 46.2317 40.5365 46.4026 40.8033 46.5735C40.3363 46.5735 39.8694 46.5735 39.4024 46.5735V46.5165ZM44.0056 46.8013C44.606 46.6304 45.1397 46.3456 45.6067 46.0039C45.7401 46.0039 46.2071 46.6304 46.6741 47.3139C45.8068 47.086 44.9395 46.9152 44.0056 46.8013ZM47.8082 45.6622C47.4746 45.0357 47.0744 44.1244 47.8082 43.5549C47.7415 44.1814 48.2085 45.1496 47.8082 45.6622ZM52.9451 49.5351C53.4121 49.4781 53.8124 49.3642 54.2127 49.3642C54.4128 49.7629 54.5462 50.1046 54.6796 50.5033C54.0792 50.1616 53.4788 49.8768 52.8784 49.5351H52.9451ZM53.8124 47.2569L54.1459 46.8582C54.2126 47.086 54.0792 47.2569 53.8124 47.2569ZM59.5497 53.8636C59.0827 53.4649 58.6157 53.1232 58.1487 52.7814C58.549 52.7814 59.016 52.7814 59.4163 52.7814C59.4163 53.1801 59.4163 53.5218 59.483 53.8636H59.5497ZM64.1529 58.3629C63.7526 57.9073 63.3523 57.5086 62.952 57.053C63.2856 57.053 63.6192 57.053 63.9527 57.053C63.9527 57.5086 64.0195 57.9073 64.1529 58.306V58.3629ZM63.4858 55.1735C61.5511 55.3444 61.5511 53.1801 61.6845 52.041C61.9514 49.7629 63.886 45.947 65.0869 43.7827C69.3565 35.98 77.8958 24.5322 84.9673 18.4381C86.3683 17.2421 88.1696 15.6474 90.2377 15.3626C90.5712 15.5335 90.0375 17.2421 89.9708 17.5838C88.3697 22.8236 83.7665 29.3733 80.6977 34.1575C76.2946 40.935 69.3565 46.1748 65.4204 53.0093C64.8867 53.9775 64.9534 54.9457 63.5525 55.0596L63.4858 55.1735ZM89.3704 31.3098C92.1723 29.0886 97.1758 25.2726 100.712 24.2475C101.045 24.1336 101.912 23.8488 102.179 24.0196C102.513 24.3614 102.179 25.1018 101.912 25.5004C99.7109 30.3985 91.7054 38.2012 87.3023 42.131C84.9006 44.2953 81.6317 46.5165 79.4969 48.7947C76.9618 51.4715 74.0264 54.1483 71.8916 56.9391C71.558 57.3947 70.6241 58.7616 70.1571 58.8755C69.3565 59.1033 67.6887 59.2173 66.8881 58.8755C66.221 58.5338 66.0876 57.7365 66.0876 57.1669C66.221 53.4649 73.1591 46.0609 76.0945 43.0993C80.0306 39.0555 84.7672 34.8979 89.237 31.3667L89.3704 31.3098ZM73.7596 74.5948C71.8916 69.6968 69.2898 64.7418 65.8207 60.3563C66.7547 60.8689 67.9555 61.0967 69.2898 60.9259C69.2898 62.008 68.7561 63.1471 69.1564 64.2292C69.6234 65.5392 70.7575 65.9948 72.0917 66.5643C71.8916 67.9312 71.6915 68.8994 72.6922 70.0385C73.1591 70.6081 73.8263 70.722 74.36 71.1776C73.8263 72.4306 73.4927 73.5697 73.8263 74.5948H73.7596ZM73.0924 64.514C72.492 64.7418 71.6915 64.3431 71.3579 63.9444C70.5573 62.8623 71.8916 60.4133 72.6254 59.4451C77.0285 53.0662 86.1682 45.947 92.9062 41.1628C96.7755 38.3721 101.646 34.9548 106.249 33.1323C106.916 32.8475 108.717 32.1071 109.384 32.0502C110.985 31.8223 110.252 33.0184 109.851 33.7018C107.583 37.4038 102.379 42.0741 98.8436 45.0357C91.7721 50.9589 82.6991 54.8887 76.0945 61.3246L73.2259 64.5709L73.0924 64.514ZM75.6942 69.3551C72.8923 69.0134 74.2933 66.6782 75.2272 65.3113C77.4288 62.1789 82.8325 58.1351 86.2349 55.8C93.0396 51.1298 105.248 43.6688 113.454 41.3337C114.655 40.992 116.122 40.5363 117.323 40.992C117.523 41.2198 116.723 42.3589 116.456 42.6436C113.787 45.833 108.784 49.3642 105.181 51.8132C98.2432 56.5404 90.2377 59.3312 83.0994 63.8305C80.4309 65.4822 77.9625 67.3047 75.6942 69.3551ZM79.1633 69.469C78.8965 69.3551 80.0973 68.1021 80.2974 69.1842L79.1633 69.469ZM125.662 51.4715C119.458 56.6543 108.65 61.7802 100.778 64.9696C95.5747 67.0769 90.5712 68.8994 84.7672 69.2412C83.5664 69.2981 81.098 69.0703 80.631 67.9882C88.8367 62.4067 98.0431 57.9643 107.583 54.1483C112.52 52.1549 118.924 49.649 124.328 49.0225C125.329 48.9086 126.73 48.5668 127.597 49.1364C127.864 49.7059 126.129 51.0728 125.662 51.4715ZM103.714 22.0832C106.783 24.3614 109.718 26.8104 112.52 29.3164C118.858 35.1257 124.595 41.4476 129.198 48.2821C128.865 47.8264 128.264 47.4847 127.33 47.3139C124.195 46.7443 118.791 48.1682 115.722 49.0794C112.386 50.1046 109.184 51.4146 105.982 52.6106C105.982 52.4397 106.182 52.3258 106.316 52.2689C109.718 49.7629 115.989 45.947 118.257 42.6436C119.325 41.0489 119.058 39.4542 116.656 39.3403C114.254 39.2264 110.452 40.5363 108.25 41.3906C105.648 42.4158 103.18 43.7827 100.645 44.9218C100.978 44.2383 101.779 43.8397 102.379 43.3271C104.648 41.3337 110.919 35.5244 111.786 33.0184C112.32 31.4237 111.452 30.3415 109.518 30.5124C105.248 30.7972 98.8437 34.784 95.4413 37.0052C94.3072 37.7456 93.173 38.6568 92.0389 39.3972C91.8388 39.5111 91.7721 39.682 91.5052 39.6251L97.5761 33.531C99.5108 31.1389 102.179 28.519 103.514 25.8422C104.181 24.4753 104.581 22.4249 102.179 22.368C98.4434 22.2541 91.6386 27.0952 88.8367 29.2025L78.8297 37.5747C79.3634 36.9482 79.8304 36.2078 80.2974 35.5244C83.4996 31.3098 86.7019 27.2091 89.1703 22.5958C89.9708 21.058 92.1056 17.0143 91.9722 15.4765C91.6386 12.0023 86.902 14.6792 85.3009 15.8183C80.9646 18.8368 77.5622 23.2792 74.2265 27.0382L78.0292 19.2925C78.8965 17.1852 81.2981 11.3189 80.6977 9.32549C80.6977 9.09768 80.4976 8.98377 80.4309 8.81291C88.9034 12.1732 96.8423 16.6726 103.847 21.9123L103.714 22.0832ZM79.0966 10.8633C78.763 16.0461 73.8263 25.5574 71.0243 30.3415C68.5559 34.5561 65.5539 38.3721 63.2189 42.6436C61.8179 45.1496 60.4837 47.7125 59.7498 50.4463C59.3496 50.9589 58.082 51.0159 57.4816 50.7881C55.8805 50.1616 56.214 46.7443 56.5476 45.4913C59.6164 35.4674 65.3537 24.3614 72.1584 15.6474C73.2259 14.2805 76.4281 10.5215 78.0959 9.89503C79.3634 9.4394 79.1633 10.0659 79.0966 10.9202V10.8633ZM69.6901 5.50957C72.6254 6.30693 75.5608 7.21819 78.4295 8.30032C78.2961 8.30032 78.1626 8.30032 78.0292 8.30032C74.4267 9.15463 69.3565 16.103 67.4218 18.8368C66.7547 19.805 66.221 20.8302 65.4871 21.7415C66.0876 19.862 66.9548 18.0395 67.5553 16.103C68.2891 13.8249 69.9569 7.9586 69.7568 5.45262L69.6901 5.50957ZM67.2884 4.99699C67.2884 4.99699 67.3551 4.99699 67.4218 4.99699C67.622 4.99699 67.8221 5.11089 68.089 5.16785C68.089 5.2248 68.089 5.33871 68.1557 5.39567C68.4225 7.27515 67.622 10.9202 67.155 12.8566C65.9541 18.1534 63.4858 24.3614 61.0174 29.3733C60.0167 31.4237 58.6157 33.474 57.6817 35.5244C56.3475 38.429 55.8138 41.2767 53.8124 44.0675C53.4788 44.5801 51.2773 47.143 50.6101 46.8582C49.2759 43.441 50.3433 39.5681 51.2773 36.2078C53.0118 29.715 55.8805 22.9375 58.9493 16.8434C60.2835 14.2235 64.4865 6.24998 67.3551 5.1109L67.2884 4.99699ZM58.1487 3.23141C59.016 3.34532 59.8833 3.45923 60.7505 3.63009C61.4177 3.744 62.8853 4.02877 63.4858 4.14268C63.9527 4.25658 64.6866 4.37049 65.287 4.54135C63.5525 5.8513 61.8846 8.01555 61.1508 9.04072C60.4837 9.95199 60.0834 10.9772 59.2828 11.8315C59.2828 10.1798 59.5497 8.41423 59.4163 6.76256C59.3496 5.73739 59.1494 4.02877 58.1487 3.34532V3.23141ZM57.9486 6.5917C58.2821 9.09768 57.9486 11.8884 57.7484 14.4514C54.8131 20.4885 52.0778 26.5826 49.943 32.9045C49.4093 34.4992 49.0757 36.0939 48.4753 37.6317C48.0751 38.7138 47.4746 39.9098 46.8742 40.878C46.8742 33.0184 48.4753 25.0448 50.6769 17.413C51.6108 14.2805 53.6122 7.84469 55.8138 5.33871C57.6817 3.23141 57.7484 4.94003 57.9486 6.64865V6.5917ZM44.8728 3.17446C44.8061 2.94664 44.7394 2.66187 44.606 2.3771C48.6088 2.3771 52.6115 2.54796 56.5476 3.00359C54.6796 3.45923 52.8117 6.81952 52.0778 8.24337C50.877 10.5215 50.1432 12.9706 49.2092 15.3626L46.5407 25.1587C46.6074 22.7097 46.5407 20.3176 46.5407 17.8686C46.3405 13.3692 46.1404 7.50296 44.8728 3.17446ZM41.6039 2.43405C42.0709 2.43405 42.5379 2.43405 43.0049 2.43405C43.2717 3.00359 43.5386 3.80095 43.6053 4.02877C45.2731 9.09768 45.8068 15.3057 45.9402 20.6024C46.1404 27.4369 44.8728 33.9866 44.8728 40.7641C44.8728 41.4476 45.1397 43.3271 44.8728 43.8397C44.6727 44.1814 43.4719 45.0357 43.0049 45.1496C41.6039 45.3774 40.8033 44.0675 40.3363 43.2132C37.5344 37.9734 37.7345 27.0952 38.0014 21.1719C38.2015 16.9573 38.6018 12.3441 39.5358 8.18641C39.9361 6.36388 40.4698 4.14268 41.6706 2.54796L41.6039 2.43405ZM38.335 2.60492C38.7352 2.60492 39.2022 2.60492 39.6025 2.54796C38.2015 5.1109 37.2675 9.26854 37.0007 10.9202C36.467 13.8818 36.2669 17.1282 36.1334 20.0898C35.8666 20.1468 35.9333 19.862 35.9333 19.6911C35.7331 18.8938 35.7331 18.1534 35.5997 17.356C35.066 14.2235 33.5316 6.47779 31.4635 4.08572C31.1967 3.80095 30.9965 3.57313 30.7297 3.45923C33.2648 3.1175 35.7999 2.77578 38.335 2.60492ZM29.729 4.4844C30.5295 4.88308 30.8631 5.79434 31.1967 6.47779C33.5316 11.4328 34.7325 18.5521 35.3996 23.9057C35.7332 26.9243 35.4663 29.9998 35.7999 32.9614C35.9333 34.6131 36.3336 36.3217 36.6004 37.9734C36.8006 39.2264 37.0007 40.3085 37.401 41.5615C37.6011 42.131 38.4684 43.7827 38.4684 44.1244C38.4684 44.5231 37.401 45.7191 37.0007 45.833C36.6671 45.947 36.467 46.0039 36.2001 46.0039C35.7332 45.7761 35.2662 45.5483 34.7325 45.3774C34.6657 45.3205 34.5323 45.2066 34.3989 45.1496C34.2655 45.0357 33.9986 45.0357 33.8652 44.9218C33.1313 44.3522 32.4642 42.8145 32.1974 42.0171C29.5288 33.9296 28.1279 25.3296 27.7943 16.9004C27.6609 13.711 27.5942 8.18641 28.9951 5.28176C29.1286 5.05394 29.3954 4.42745 29.6623 4.42745L29.729 4.4844ZM17.1202 6.24998C18.0542 6.02216 19.5219 5.62348 20.4559 5.39567C23.1244 4.76917 25.7929 4.25658 28.4614 3.80095C27.5942 4.65526 26.927 6.19302 26.7269 7.10429C25.1258 13.3123 26.1932 23.8488 27.2606 30.2276C27.9944 34.9548 29.3287 39.5111 31.2634 43.9536C30.1293 43.5549 29.0618 43.1562 27.9277 42.7575C27.7943 42.4728 27.5275 42.2449 27.0605 42.131C28.5282 38.9986 27.7276 35.1826 26.8603 31.9363C25.5261 26.7534 23.1244 20.6024 20.8562 15.7043C19.5886 13.0275 17.7206 9.15463 15.786 6.81952C15.786 6.81952 15.786 6.81952 15.786 6.76256C16.3197 6.5917 16.8534 6.47779 17.2537 6.30693L17.1202 6.24998ZM13.0507 8.0725C13.0507 7.84469 13.0507 7.61687 13.0507 7.44601C13.1174 7.44601 13.2509 7.38906 13.3176 7.3321C13.5844 7.21819 13.918 7.16124 14.2516 7.04733C14.7853 7.61687 15.3857 8.47118 15.5858 8.75595C18.0542 12.2871 20.0556 16.5017 21.7234 20.3746C23.8582 25.3865 27.6609 34.784 26.8603 39.9668C26.7936 40.5933 26.5267 41.6754 25.9263 42.188C25.5928 42.0741 25.3259 41.9602 24.9924 41.9032C24.4587 40.7641 23.6581 39.682 23.0577 38.5999C19.8555 32.6767 17.2537 25.8422 15.319 19.5203C14.2516 16.16 12.7839 11.6037 13.0507 8.18641V8.0725ZM11.5163 7.9586C11.4496 8.52814 11.4496 9.15463 11.5163 9.66722C11.8499 15.3057 14.5184 22.7667 16.5865 28.1773C18.2543 32.5628 20.3225 36.8913 22.524 41.0489C22.3906 40.992 22.2571 40.935 22.057 40.935C21.8568 40.878 21.59 40.8211 21.3899 40.7641C19.8555 39.8529 18.9882 36.6634 18.3211 35.1826C15.1856 28.3482 9.84851 18.3242 4.31133 12.7997C3.77763 12.2871 2.91036 11.4897 2.04309 11.2619C5.11189 10.0089 8.31412 8.86986 11.5163 7.84469V7.9586ZM1.70953 12.5149C2.71022 12.7997 3.44406 13.711 4.11119 14.3944C10.0486 20.6024 16.3197 31.5945 19.0549 39.2833C19.1883 39.5681 19.255 39.9098 19.3885 40.1946C18.9215 40.0807 18.4545 39.9668 17.9875 39.8529C17.8541 39.739 17.6539 39.739 17.5205 39.739C16.9201 39.5681 16.253 39.3972 15.6525 39.2833C14.9854 39.1125 14.2516 38.9986 13.5177 38.8277C13.3176 38.6568 13.1174 38.7138 12.9173 38.486C12.1835 37.6886 10.8492 35.1826 10.2488 34.1575C7.2467 29.0316 3.31064 21.9693 1.84295 16.3878C1.70953 15.8183 1.04239 12.6858 1.70953 12.458V12.5149ZM0.10841 12.1162C-0.55872 13.4831 0.441975 17.1852 0.775543 18.4381C2.77693 25.2726 6.84643 31.8793 10.5824 38.2012C10.5156 38.2012 10.3822 38.2012 10.3155 38.2012C9.91522 38.1443 9.51495 38.0303 9.11467 37.9734C5.64559 32.3349 0.90897 25.8422 -3.96108 21.0011C-4.96178 20.0329 -6.69632 18.2103 -7.89715 17.5269C-8.83113 16.9573 -9.63169 16.9004 -10.2321 17.1852C-6.89645 15.3057 -3.49409 13.654 0.10841 12.1162ZM-15.2356 20.2037C-14.1682 19.5203 -12.8339 18.666 -11.7665 18.0395C-11.3662 17.8116 -10.8992 17.5269 -10.499 17.2991C-11.0327 17.6977 -11.2995 18.4381 -11.2328 19.3494C-10.7658 24.1336 -7.29673 28.8038 -4.96178 33.0753C-5.16191 33.0753 -5.42877 32.7336 -5.56219 32.5628C-8.49757 29.4303 -11.4996 25.6144 -15.1689 23.1084C-15.9027 22.5958 -16.9034 21.9123 -17.9041 22.0263C-17.1703 21.4567 -16.0361 20.7733 -15.3023 20.2607L-15.2356 20.2037ZM-17.7707 23.2792C-17.5038 23.2223 -17.3704 23.2792 -17.1035 23.2792C-15.2356 23.7349 -9.36483 29.6581 -7.96386 31.1959C-6.49617 32.7906 -5.0952 34.4422 -3.69423 36.1509C-4.22793 36.1509 -4.69492 36.0369 -5.22863 35.98C-5.42877 35.6383 -5.62891 35.3535 -5.89576 35.1826C-6.6296 34.727 -7.16331 35.1257 -7.56358 35.7522C-8.36414 35.6952 -9.23141 35.6383 -10.032 35.5813C-10.499 35.0118 -11.0327 34.727 -11.8332 35.1826C-13.034 33.3601 -14.3016 31.5945 -15.369 29.715C-16.5031 27.7217 -17.704 25.4435 -17.7707 23.2223V23.2792ZM-25.9097 28.6899L-25.3092 28.1203L-25.1758 28.0064L-25.0424 27.8925L-24.7755 27.6077L-23.5747 26.5256L-23.4413 26.4117C-23.1744 26.1839 -22.6407 25.7283 -22.3739 25.5004C-21.5733 24.76 -20.4392 23.9057 -19.5719 23.2223C-19.4385 23.1084 -19.3051 23.0514 -19.1716 22.9375C-19.3051 23.2792 -19.3051 23.6779 -19.2384 24.0766C-18.8381 27.9495 -16.1028 31.9363 -13.7679 35.4105C-14.1015 35.4105 -14.3683 35.4105 -14.7019 35.4105C-14.9687 35.0118 -15.3023 34.784 -15.836 34.8409C-16.1696 34.8409 -16.4364 35.2396 -16.7033 35.1826C-19.2384 33.7588 -22.574 31.7084 -25.5761 31.3098C-28.845 30.8541 -29.5122 31.8224 -28.6449 34.4422C-28.5782 34.6701 -28.4447 34.9548 -28.2446 35.1826C-28.5115 35.1826 -28.7116 35.1826 -28.9785 35.1826C-29.7123 34.3853 -30.5796 34.3283 -31.0466 35.1826C-31.3134 35.1826 -31.5803 35.1826 -31.7804 35.1826C-29.9791 32.9045 -28.0445 30.6833 -25.8429 28.6329L-25.9097 28.6899ZM-32.114 35.5813C-31.8471 35.5813 -31.5135 35.5813 -31.2467 35.5813C-31.3134 35.7522 -31.3801 35.98 -31.4468 36.2078L-31.7137 39.3972C-31.9805 38.429 -32.3141 37.4039 -32.7811 36.4356C-32.581 36.1509 -32.3141 35.8661 -32.114 35.5813ZM-34.7825 35.5813C-34.7825 35.5813 -34.7158 35.5813 -34.6491 35.5813C-34.6491 35.6383 -34.7825 35.7522 -34.8492 35.8091C-34.8492 35.7522 -34.8492 35.6383 -34.8492 35.5813H-34.7825ZM-33.3815 37.176C-33.2481 37.4608 -33.1147 37.6886 -33.0479 37.9734C-32.4475 39.5111 -32.0473 41.3337 -31.8471 42.9284L-34.9826 42.4728C-34.9826 41.6185 -35.1161 40.7072 -35.1828 39.7959C-34.5823 38.8847 -33.9819 38.0303 -33.3815 37.1191V37.176ZM-35.8499 35.5813L-36.1835 37.6317L-36.4503 37.9734C-36.7172 37.176 -37.0507 36.3217 -37.5844 35.6383C-37.0507 35.6383 -36.4503 35.6383 -35.9166 35.6383L-35.8499 35.5813ZM-38.9187 35.6952C-37.918 36.6065 -37.3843 37.6886 -36.984 38.8277C-37.451 39.5681 -37.9847 40.4224 -38.385 41.1628C-38.6518 41.5615 -38.852 42.0171 -39.1188 42.4728C-39.319 40.1946 -39.6525 37.9164 -38.9854 35.6952H-38.9187ZM-39.9194 35.6952C-40.3864 36.9482 -40.4531 38.8277 -40.3197 39.4542L-41.7206 36.4356C-41.8541 36.2078 -42.0542 35.98 -42.1876 35.8091C-41.4538 35.8091 -40.6532 35.7522 -39.9194 35.6952ZM-43.5886 36.0369C-43.3218 35.8091 -42.7213 36.6065 -42.6546 36.7774C-41.5872 38.1443 -40.7199 41.3906 -40.253 44.5801C-40.5198 45.2066 -40.9201 46.0039 -41.1869 46.6304C-41.5872 47.5986 -41.9875 48.5099 -42.3878 49.4781C-42.9882 47.1999 -43.4552 44.4092 -43.722 42.7006C-44.0556 40.4794 -43.9889 38.2012 -43.5886 36.0369ZM-44.4559 35.923C-44.7894 36.6634 -44.9229 37.8025 -44.9229 38.5999C-45.123 38.5999 -45.5233 36.8913 -46.4573 36.0369C-45.7901 36.0369 -45.1897 35.98 -44.5226 35.923H-44.4559ZM-47.5247 36.6634C-47.2578 36.4356 -46.6574 37.233 -46.5907 37.4038C-44.7227 39.9668 -43.1216 49.592 -44.0556 52.4967C-44.1223 52.7814 -44.3224 53.2371 -44.5893 53.4079C-44.5893 53.4079 -44.656 53.4079 -44.7227 53.4079C-45.0563 53.351 -45.4566 52.6675 -45.59 52.4397C-46.524 50.2185 -47.3245 45.7761 -47.6581 43.3271C-47.9917 41.1059 -47.9249 38.8277 -47.5247 36.6634ZM-48.3252 36.2078C-48.9256 37.3469 -48.8589 40.0807 -48.7922 40.878C-49.5261 39.7959 -49.7262 38.5429 -50.5268 37.5178C-50.7936 37.1191 -51.1939 36.6634 -51.6609 36.4926C-50.5268 36.3787 -49.4593 36.3217 -48.3252 36.2648V36.2078ZM-52.4614 40.4794C-52.4614 40.0807 -52.5281 37.4038 -52.1946 37.3469C-51.9277 37.4608 -51.7943 37.6317 -51.5942 37.8025C-49.3259 40.0807 -47.2578 49.9907 -47.9249 52.9523C-47.9249 53.2371 -48.1251 53.8066 -48.3919 53.9205C-48.9924 54.1483 -49.6595 52.5536 -49.7929 52.2119C-51.1272 48.9086 -52.328 43.8966 -52.4614 40.4224V40.4794ZM-56.5976 39.1694C-56.5976 38.9986 -56.5309 37.7456 -56.0639 37.9734C-55.7971 38.429 -55.3301 38.7707 -55.0632 39.2264C-53.3954 41.8463 -51.394 51.1298 -52.328 53.9205C-52.9284 55.857 -53.9291 53.4649 -54.196 52.6675C-55.3968 49.2503 -56.9312 42.6436 -56.5309 39.1694H-56.5976Z" fill="url(#paint0_linear_7158_85836)"/>
<defs>
<linearGradient id="paint0_linear_7158_85836" x1="41.2928" y1="64.2323" x2="-54.9285" y2="117.898" gradientUnits="userSpaceOnUse">
<stop stop-color="#30A2D7"/>
<stop offset="0.2" stop-color="#30A2D7"/>
<stop offset="0.3" stop-color="#30A2D7" stop-opacity="0.9"/>
<stop offset="0.4" stop-color="#30A2D7" stop-opacity="0.8"/>
<stop offset="0.6" stop-color="#30A2D7" stop-opacity="0.7"/>
<stop offset="0.7" stop-color="#30A2D7" stop-opacity="0.6"/>
<stop offset="0.8" stop-color="#30A2D7" stop-opacity="0.4"/>
<stop offset="0.9" stop-color="#30A2D7" stop-opacity="0.2"/>
<stop offset="1" stop-color="#30A2D7" stop-opacity="0"/>
</linearGradient>
</defs>
</svg>
