<svg width="51" height="53" viewBox="0 0 51 53" fill="none" xmlns="http://www.w3.org/2000/svg">
<path d="M5.74307 46.3486C6.13124 46.3486 7.29573 46.8486 7.10164 46.182C7.10164 45.932 6.81052 45.8487 6.61644 45.682C7.58685 45.932 8.16911 45.5153 7.29574 44.8487C7.00461 44.5987 6.71349 44.4321 6.32533 44.2654C6.32533 44.2654 6.5194 44.2654 6.61644 44.2654C7.10164 44.4321 7.58685 44.6821 8.07206 44.5987C8.6543 44.5987 8.55725 44.2654 8.36317 44.0154C8.36317 43.8488 8.55727 43.6821 8.65431 43.5988C8.84839 43.5988 8.94543 43.5155 9.04247 43.5155C9.13951 43.5155 9.23654 43.5155 9.33358 43.5155C10.1099 44.3488 10.8862 45.0987 11.7596 45.7653C11.7596 45.8487 11.9537 46.0153 12.0508 46.0153C12.4389 46.3487 12.9241 46.6819 13.3123 46.9319C16.1265 48.9318 19.3288 50.5151 22.6283 51.765C22.9194 51.8484 23.1134 51.9317 23.4046 52.015C26.0247 52.5983 28.7418 52.765 31.362 52.515C33.0117 52.3483 34.6614 52.0983 36.214 51.5984C43.4921 49.4318 47.6649 44.0988 49.7028 38.0158C50.9643 34.016 49.9939 29.5995 46.8886 26.433C44.2685 23.6832 40.4838 21.9333 36.5051 21.0167C36.117 20.9333 35.7288 20.85 35.2436 20.7667C34.8554 20.7667 34.2732 20.6 33.885 20.6C30.5856 20.4334 27.4803 21.1 24.472 22.0999C26.1217 20.1 28.6448 19.1834 31.362 18.8501C31.556 18.8501 31.7501 18.8501 31.9442 18.8501C34.8555 18.6001 37.8637 19.1001 40.4838 19.7667C40.775 19.7667 41.0661 19.7667 41.3572 19.7667C43.4921 19.1001 44.4625 15.6003 44.9477 13.8504C45.4329 12.0171 45.7241 10.1006 46.0152 8.18399C46.2093 6.68407 46.5975 3.51758 46.0152 2.10098C46.0152 2.01766 45.53 1.2677 45.53 1.2677C45.53 1.2677 45.3359 1.2677 45.2389 1.2677C45.2389 1.2677 45.4329 1.68435 45.4329 1.76767C45.9182 3.60091 45.53 6.43409 45.2389 8.35065C44.9477 9.9339 44.6566 11.6005 44.2684 13.1837C43.8803 14.767 43.0069 17.7668 41.5513 18.7668C40.9691 19.1834 40.2898 19.1834 40.0957 18.4335C39.9986 18.1001 40.0957 18.1835 40.2898 17.9335C40.6779 17.3502 40.775 16.6835 41.1631 16.1836C41.1631 16.0169 41.4543 15.9336 41.5513 15.7669C43.104 13.4337 43.9773 9.3506 44.2684 6.68408C44.4625 5.43414 44.6566 2.85094 44.2684 1.68434C44.1714 1.2677 43.8803 1.01771 43.4921 0.934385C41.9395 0.684398 40.2898 0.601074 38.6401 0.601074C35.8259 0.601074 32.9146 0.684383 30.1004 1.10103C25.2484 1.85099 20.4934 3.35091 16.5147 5.76745C16.3206 5.76745 16.0294 5.76746 15.9324 5.93412C15.9324 5.93412 15.8354 6.10077 15.7383 6.26743C13.6034 7.68402 11.7596 9.26726 10.1099 11.1005C9.72176 11.1005 9.43062 11.1838 9.33358 11.6838C9.33358 11.7671 9.33358 11.8505 9.33358 11.9338C7.58684 14.1003 6.22827 16.5169 5.16082 19.1001C4.67561 19.1834 4.67562 19.5167 4.86971 19.7667C4.19042 21.6 3.70521 23.4332 3.31704 25.2664C3.31704 25.5997 3.21999 26.0164 3.12295 26.3497C3.12295 26.5164 3.12295 26.683 3.12295 26.8497V27.3496C3.12295 27.5163 3.12295 27.8496 3.12295 28.0163C3.12295 28.3496 3.12295 28.7662 3.12295 29.0996C3.12295 29.5162 3.12295 30.0162 3.12295 30.4328C3.12295 30.5995 3.12295 30.8495 3.12295 30.9328V31.4328C3.12295 31.7661 3.22 32.0161 3.31704 32.3494C3.31704 32.516 3.41409 32.9327 3.41409 33.0994C3.41409 33.266 3.5111 33.5993 3.5111 33.766C3.5111 34.016 3.7052 34.4326 3.7052 34.6826C3.7052 34.9326 3.89929 35.1826 3.89929 35.4326C3.89929 35.4326 4.09336 36.0158 4.09336 36.0992C4.09336 36.2658 4.19041 36.4325 4.28745 36.5992C3.99633 36.5992 3.89928 36.7658 4.09336 37.1825C3.99632 37.3491 3.80224 37.5158 3.7052 37.6824C3.12295 37.6824 3.12296 37.9324 3.31704 38.1824C3.12296 38.4324 3.02592 38.5991 2.83183 38.849C2.34663 38.849 2.24959 39.099 2.44367 39.349C2.34663 39.5157 2.15253 39.6823 2.05549 39.9323C1.8614 39.9323 1.76437 40.0157 1.66733 40.1823C1.66733 40.1823 1.66733 40.2656 1.66733 40.349C1.47324 40.5989 1.27916 40.9323 1.08507 41.2656C0.988032 41.2656 0.891008 41.4322 0.891008 41.5156C0.891008 41.7655 1.76436 42.3489 2.05549 42.5155C1.66732 42.5155 0.502837 42.0989 0.308754 42.4322C0.211713 42.5988 0.308754 42.7655 0.308754 42.8488C0.793961 43.5155 2.83182 44.4321 3.60815 44.7654C4.48152 45.0987 5.16081 45.2654 5.93714 45.8487C6.03418 45.932 6.42236 46.2653 6.22828 46.3486C5.06378 46.3486 3.89928 45.7653 2.73479 45.5154L3.21999 45.7653L5.06377 46.3486H5.74307ZM8.36317 43.9321C8.36317 43.9321 8.26614 43.7654 8.1691 43.6821L7.6839 43.2655C7.97502 43.2655 8.26614 43.5155 8.65431 43.5155C8.65431 43.6821 8.46021 43.7655 8.36317 43.9321ZM11.4685 44.4321C11.0803 44.0988 10.6922 43.7654 10.401 43.4321C10.401 43.4321 10.5951 43.4321 10.6922 43.4321C12.536 43.0988 14.2827 42.2655 16.0295 41.5989L14.1856 42.9322C13.6034 43.3488 12.536 44.2654 12.0508 44.932C11.8567 44.7654 11.6626 44.5987 11.4685 44.4321ZM10.1099 41.2656C10.0129 41.4322 9.81881 41.6822 9.72177 41.8489C9.3336 41.3489 8.75135 40.9323 8.1691 40.6823C8.1691 40.6823 8.26613 40.6823 8.36317 40.6823C8.84837 40.8489 9.62473 41.2656 10.207 41.2656H10.1099ZM7.39276 39.0157L8.1691 39.349L8.46022 39.599C7.97501 39.599 7.00459 39.6823 7.39276 39.0157ZM6.90755 39.0157C6.90755 38.9324 6.81053 38.7657 6.71348 38.6824C6.81053 38.6824 6.90756 38.7657 7.0046 38.849V39.0157H6.90755ZM9.72177 40.0156C10.0129 40.099 10.4981 40.2656 10.8862 40.2656C10.7892 40.4323 10.5951 40.5989 10.4981 40.7656C10.4981 40.7656 10.4981 40.6823 10.401 40.599L9.72177 40.0156ZM9.33358 40.0156C9.43062 40.0156 10.0129 40.5156 10.1099 40.599C10.5951 41.0989 10.0129 41.0156 9.52768 40.9323L7.58685 40.099C7.58685 40.099 7.58685 40.0156 7.58685 39.9323H8.1691C8.36319 40.0156 9.23654 39.9323 9.33358 39.9323V40.0156ZM10.304 41.2656C10.4981 41.2656 10.5951 41.0989 10.4981 40.9323C10.6922 40.6823 10.8863 40.4323 11.0803 40.1823C11.0803 40.1823 11.1774 40.1823 11.1774 40.0156C11.2744 39.849 11.3715 39.7657 11.5655 39.599L15.1561 38.7657C13.3123 39.599 11.4685 40.5156 9.81879 41.6822C9.91583 41.5156 10.0129 41.3489 10.207 41.2656H10.304ZM11.4685 39.099H10.8862C10.4981 38.9324 10.1099 38.6824 9.62472 38.4324C9.62472 38.4324 9.72175 38.4324 9.81879 38.4324C10.304 38.6824 10.8862 38.849 11.3715 39.0157L11.4685 39.099ZM9.81879 38.7657C10.0129 38.849 10.4011 39.099 10.5951 39.2657L9.43063 39.4323L7.78094 38.6824L8.65431 38.0991C8.65431 38.0991 9.72175 38.6824 9.91583 38.7657H9.81879ZM10.9833 39.7657V39.9323C10.9833 39.9323 10.401 39.9323 10.304 39.9323L10.8862 39.7657H10.9833ZM9.52768 32.1827C9.52768 32.1827 9.72177 32.0161 9.72177 31.9327C9.81881 31.9327 10.0129 31.9327 10.1099 31.9327L10.304 32.0994C10.1099 32.2661 9.81879 32.0994 9.43063 32.0994L9.52768 32.1827ZM10.9833 32.5994C10.9833 32.5994 10.8862 32.5994 10.7892 32.5994C10.6922 32.5994 10.4981 32.516 10.401 32.4327C10.5951 32.266 10.7892 32.516 10.9833 32.5994ZM12.4389 33.1827C11.9537 32.9327 11.5655 32.5994 11.0803 32.2661C11.7596 32.0994 12.2448 32.0161 12.8271 32.2661C13.7004 32.6827 15.059 33.6827 15.6413 34.266C15.6413 34.266 15.7383 34.266 15.6413 34.3493C15.6413 34.3493 14.962 34.4326 14.8649 34.4326C14.8649 34.4326 14.7679 34.4326 14.6709 34.4326C13.8945 34.0993 13.0212 33.516 12.3419 33.0994L12.4389 33.1827ZM10.304 31.4328H10.4981H10.6922H10.207H10.304ZM17.7762 33.0994C17.5821 33.266 17.388 33.4326 17.1939 33.5993C17.1939 33.3493 16.9028 33.0993 16.7087 32.9327L15.9324 32.1827L17.1939 32.8493C17.388 32.8493 17.5821 32.9327 17.7762 33.016V33.0994ZM14.4768 31.6828H13.8945H12.633C12.4389 31.5994 11.6626 30.9328 11.3715 30.5995C11.3715 30.5995 11.4685 30.5161 11.5655 30.4328C12.633 30.5161 13.6034 31.1828 14.4768 31.7661V31.6828ZM12.0508 31.5994H11.7596C11.3714 31.4328 11.0803 31.2661 10.6922 31.1828C10.7892 31.0161 10.9833 30.9328 11.0803 30.7661C11.3715 31.0994 11.8567 31.5161 12.0508 31.5994ZM13.6034 32.2661H15.2531C15.5442 32.2661 15.8354 32.5994 16.0295 32.766C16.2235 32.9327 16.9999 33.5993 16.8058 33.766C16.5146 33.9326 16.0294 33.6827 15.7383 33.516L13.4093 32.2661H13.6034ZM18.2614 33.266C18.6496 32.9327 19.3288 32.4327 19.717 32.0994C20.0081 32.0994 20.4933 32.0161 20.5904 32.0161C21.1726 31.9327 21.2697 31.5994 21.8519 32.0161C21.8519 32.266 21.8519 32.4327 21.8519 32.6827C21.8519 32.766 21.8519 32.8494 21.8519 32.9327C21.8519 32.9327 21.7549 33.016 21.6578 33.0994C21.4638 33.1827 20.0081 33.766 19.8141 33.8493C19.3289 34.016 18.6496 34.0993 18.1643 34.266C17.7762 34.3493 17.291 34.4326 16.9028 34.5159C17.291 34.1826 17.6791 33.766 18.1643 33.4327L18.2614 33.266ZM8.07206 28.3496C7.39277 28.1829 6.61643 28.0163 6.03418 27.8496C5.64602 27.683 5.25785 27.5996 4.96672 27.2663C4.96672 27.183 5.45194 27.0163 5.54898 27.0163C7.29572 26.5997 10.9833 26.8497 12.8271 27.0163C13.5064 27.0163 14.1857 27.183 14.8649 27.2663C14.5738 27.5163 14.1857 27.7663 13.8945 28.0163C13.7975 28.0163 13.7005 28.0163 13.6034 28.0163C13.4093 28.0163 13.3123 28.2663 13.4093 28.4329C13.2152 28.5996 13.0211 28.7662 12.73 28.9329C11.1774 28.7662 9.52767 28.5996 7.97501 28.2663L8.07206 28.3496ZM17.4851 27.7663C18.1644 27.9329 18.9407 28.2663 19.4259 28.6829C19.4259 28.6829 19.814 29.0996 19.62 29.1829C19.62 29.1829 19.5229 29.1829 19.4259 29.1829C19.2318 29.1829 18.9407 29.1829 18.8436 29.1829C18.4555 28.9329 18.1644 28.5996 17.8732 28.2663C17.7762 28.0996 17.5821 27.9329 17.4851 27.7663ZM16.9999 27.8496L16.6117 27.5996C16.8058 27.5163 16.9999 27.683 16.9999 27.8496ZM23.4046 24.2665C23.4046 24.2665 23.5016 24.4331 23.5987 24.5165C24.0839 25.0998 25.2484 26.933 25.5395 28.0163C25.3454 28.0996 25.1513 28.1829 24.9572 28.2663C24.7632 28.0163 24.5691 27.7663 24.375 27.5163C23.9868 27.0163 23.5987 26.433 23.3076 25.9331C23.3076 25.9331 23.2105 25.6831 23.0164 25.5164C23.1134 25.0998 23.2105 24.7665 23.4046 24.3498V24.2665ZM20.6874 24.1831C20.6874 24.1831 20.7845 24.1831 20.8815 24.0998C21.0756 24.0998 21.2697 24.2665 21.0756 24.2665H20.6874V24.1831ZM23.7928 23.4332C23.7928 23.2665 23.9868 23.1832 23.9868 23.0165C24.1809 23.0999 24.472 23.4332 24.5691 23.5165C25.1513 24.0998 26.5099 26.3497 26.801 27.433C26.6069 27.433 26.3158 27.5996 26.1217 27.683C25.3454 26.7664 23.9868 24.5998 23.6957 23.5165L23.7928 23.4332ZM23.3076 23.2665V23.1832C23.3076 23.1832 23.3076 23.1832 23.3076 23.2665ZM37.1844 28.3496C37.1844 28.3496 37.1844 28.3496 37.1844 28.2663C37.5726 27.433 40.0957 25.7664 41.1631 25.1831C41.7454 24.8498 42.4247 24.5998 43.0069 24.2665C43.201 24.2665 43.4921 24.2665 43.3951 24.5165C43.298 24.9331 42.7158 25.4331 42.3276 25.6831C41.2602 26.683 39.9016 27.0997 38.6401 28.0163C38.3489 28.1829 38.2519 28.5162 37.8637 28.5996H37.6696C37.4756 28.4329 37.3785 28.3496 37.1844 28.2663V28.3496ZM34.0791 27.0163L34.1762 26.8497V27.0997C34.1762 27.0997 34.1762 27.0997 34.0791 27.0997V27.0163ZM35.0495 27.3496L35.2436 27.183C35.2436 27.183 35.2436 27.3496 35.2436 27.433C35.2436 27.433 35.1466 27.433 35.0495 27.433V27.3496ZM36.7963 27.9329C36.3111 27.9329 36.4081 27.5996 36.5051 27.3496C37.6696 26.0997 38.8341 24.8498 40.3868 23.9332C40.4838 23.9332 41.0661 23.5999 41.1631 23.5165C41.2602 23.5165 41.3572 23.5165 41.3572 23.5998C41.3572 23.8498 40.775 24.3498 40.5809 24.5998C39.6105 25.5997 38.3489 26.5164 37.2815 27.5163C37.0874 27.683 37.0874 27.9329 36.7963 27.9329ZM37.8637 25.3497C37.4756 25.8497 36.9904 26.2664 36.6022 26.7663C36.3111 27.0163 36.214 27.5163 35.8259 27.5996C35.7288 27.5996 35.6318 27.5163 35.5347 27.433C35.5347 26.933 36.7963 25.1831 37.1844 24.6831C37.7667 23.9332 38.3489 23.1832 39.1253 22.5999C39.2223 22.5999 39.1253 22.5999 39.1253 22.6832C39.1253 23.3499 38.3489 24.6831 37.9608 25.2664L37.8637 25.3497ZM36.117 25.5998C35.9229 25.8497 35.2436 27.0163 34.7584 27.2663C34.6614 27.2663 34.5643 27.2663 34.4673 27.183C34.4673 27.0163 34.4673 26.683 34.5643 26.5997C34.9525 25.5164 36.3111 22.6832 37.2815 22.0166C37.2815 22.0166 37.2815 22.0166 37.4756 21.9333C37.4756 21.9333 37.4756 22.0166 37.4756 22.0999C37.6696 22.9332 36.5051 24.8498 36.117 25.5998ZM34.2732 26.2664C34.2732 26.3497 33.9821 26.7663 33.788 27.0163C33.5939 27.0163 33.4969 27.0163 33.3028 26.933C33.3028 26.683 33.3028 26.433 33.3028 26.3497C33.4969 25.0998 34.0791 22.9332 34.8555 21.8499C34.8555 21.8499 35.1466 21.4333 35.2436 21.5166C35.5347 22.5166 35.2436 23.7665 34.8555 24.6831C34.6614 25.1831 34.4673 25.7664 34.1762 26.2664H34.2732ZM32.7205 26.8497C32.5265 26.8497 32.4294 26.8497 32.2353 26.8497C32.1383 26.1831 32.3324 24.0998 32.4294 23.5998C32.5265 22.7665 32.7205 21.9333 33.2057 21.2666L33.3998 21.5999C33.788 22.5999 33.3028 25.9331 32.7205 26.8497ZM37.9608 29.0996C38.0578 28.9329 38.2519 28.7662 38.3489 28.6829C39.3194 27.8496 42.8128 26.0164 44.1714 25.7664C44.3655 25.7664 44.4625 25.7664 44.6566 25.7664C44.4625 26.433 43.7833 26.933 43.201 27.3496C42.4247 27.9329 41.7454 28.1829 40.872 28.6829C40.0957 29.0996 39.5134 29.5995 38.6401 29.5995C38.446 29.3495 38.2519 29.1829 38.0578 29.0162L37.9608 29.0996ZM37.4756 29.6829C37.4756 29.7662 37.6697 29.9328 37.7667 29.9328C37.9608 30.1828 38.2519 30.4328 38.446 30.6828C38.446 30.7661 38.446 30.9328 38.446 31.0161C38.446 31.1828 38.6401 31.2661 38.8342 31.2661C39.0282 31.5161 39.1253 31.7661 39.2223 32.0161C39.2223 32.1827 39.2223 32.3494 39.5134 32.516C39.9016 33.516 39.9016 34.5159 39.5134 35.5159C38.0578 38.7657 33.3998 41.3489 29.3241 40.599C29.2271 40.599 29.033 40.5156 28.8389 40.5156C28.5478 40.5156 28.3537 40.3489 28.0626 40.2656C27.9655 40.2656 27.7714 40.1823 27.6744 40.099C25.7336 39.2657 24.5691 37.7658 23.6957 36.0992C23.6957 35.9325 23.5987 35.7659 23.5016 35.5992C23.5016 35.4326 23.4046 35.2659 23.3076 35.0992C23.5016 34.7659 23.5987 34.5159 23.5016 34.1826C23.5016 33.9326 23.1135 33.6827 22.8223 33.516C22.8223 33.3493 22.8223 33.266 22.7253 33.0994C22.9194 32.766 23.0164 32.516 22.8223 32.0994C22.8223 31.9327 22.6282 31.7661 22.5312 31.6828C22.5312 31.5161 22.5312 31.3494 22.5312 31.1828C22.5312 30.9328 22.5312 30.6828 22.5312 30.5162C22.5312 30.4328 22.7253 30.2662 22.7253 30.0995C22.8223 30.0995 22.9194 29.9328 23.0164 29.9328C23.4046 30.0995 23.6957 29.9328 23.6957 29.5995C23.7928 29.5995 23.9868 29.4329 24.0839 29.3496C24.375 29.4329 24.5691 29.3495 24.5691 29.0996C24.7632 29.0996 24.8602 28.9329 25.0543 28.8496C25.1513 28.8496 25.3454 29.0162 25.4424 28.9329C25.7336 28.9329 25.8306 28.7662 25.8306 28.5163C26.0247 28.5163 26.1217 28.3496 26.3158 28.2663C26.5099 28.4329 26.801 28.5163 26.9951 28.3496C27.0921 28.2663 27.1892 28.0996 27.1892 27.9329C27.3833 27.9329 27.5773 27.7663 27.7714 27.7663C27.9655 27.9329 28.1596 28.0163 28.3537 27.8496C28.4507 27.8496 28.4507 27.683 28.5478 27.5996C28.6448 27.5996 28.8389 27.5996 28.9359 27.5163C29.13 27.683 29.3241 27.8496 29.6152 27.7663C29.8093 27.7663 29.8093 27.5163 29.8093 27.3496C30.0034 27.3496 30.1004 27.3496 30.2945 27.3496C30.3915 27.433 30.5856 27.5163 30.6827 27.3496C30.6827 27.3496 30.7797 27.3497 30.8768 27.2663C31.0708 27.2663 31.2649 27.2663 31.459 27.2663C31.459 27.2663 31.6531 27.2663 31.7501 27.2663C34.0791 27.2663 36.117 28.0996 37.6696 29.5995L37.4756 29.6829ZM42.0365 33.3493C41.6483 33.4327 41.2602 33.6826 40.872 33.6826C40.872 33.6826 40.6779 33.6826 40.5809 33.6826C40.5809 33.4327 40.5809 33.1827 40.4838 32.9327C41.3572 32.3494 43.5892 31.6828 44.4625 31.4328C45.0448 31.2661 45.627 31.1828 46.2093 31.0161C46.5974 31.0161 47.859 30.7661 48.2471 30.9328C48.8294 31.1828 48.0531 31.6828 47.7619 31.8494C46.1122 32.766 43.9773 32.8494 42.0365 33.3493ZM48.1501 33.016C49.7998 33.5993 48.0531 34.0993 47.2767 34.266C45.2389 34.6826 43.201 34.2659 41.0661 34.5993C40.872 34.5993 40.6779 34.7659 40.3868 34.7659C40.3868 34.5159 40.3868 34.3493 40.3868 34.0993C42.0365 33.516 43.8803 33.016 45.7241 32.8493C46.5004 32.8493 47.3738 32.6827 48.0531 32.9327L48.1501 33.016ZM39.7075 37.6824C39.4164 37.5158 39.2223 37.0991 39.7075 37.0158C40.1927 36.8491 41.8424 37.1824 42.3276 37.3491C43.8803 37.7658 46.0152 38.5157 47.3738 39.349C47.7619 39.599 48.5383 40.1823 47.6649 40.349C46.8886 40.5156 44.8507 39.9323 44.0744 39.6823C43.298 39.349 42.6187 38.9324 41.9395 38.599C41.2602 38.3491 40.2898 38.1824 39.8046 37.8491L39.7075 37.6824ZM39.0282 37.4324C39.0282 37.4324 39.0282 37.5991 39.1253 37.5991C39.1253 37.5991 38.8341 37.6824 38.7371 37.7658C38.7371 37.7658 38.7371 37.7658 38.6401 37.7658C38.7371 37.5991 38.9312 37.5158 39.0282 37.3491V37.4324ZM29.8093 43.0155C29.8093 42.4322 29.5182 41.8489 30.1004 41.4322C30.2945 41.4322 30.4886 41.4322 30.6827 41.4322C30.6827 41.4322 30.6827 41.4322 30.7797 41.5156C31.459 42.1822 31.5561 44.8487 31.5561 45.7653C31.5561 47.0153 31.5561 49.4318 30.9738 50.5151C30.6827 51.0984 30.1004 51.6817 29.6152 50.9317C29.13 50.2651 29.13 48.0152 29.227 47.1819C29.4211 45.7653 29.9063 44.4321 29.9063 43.0155H29.8093ZM27.2862 50.9317C26.801 51.5984 26.801 51.3484 26.704 50.7651C26.4129 49.5151 26.6069 46.682 26.8981 45.5154C27.1892 44.3488 27.8685 43.2655 28.1596 42.0155C28.1596 41.8489 28.1596 41.3489 28.1596 41.2656C28.1596 41.2656 28.1596 41.2656 28.1596 41.1822C28.4507 41.1822 28.7419 41.3489 29.033 41.3489C29.5182 42.3489 29.033 45.182 28.8389 46.2653C28.5478 47.5152 27.9655 49.9318 27.1892 51.0151L27.2862 50.9317ZM31.9442 47.1819C31.9442 45.682 31.9442 44.0988 31.6531 42.5988C31.6531 42.2655 31.459 42.0989 31.6531 41.6822C31.6531 41.5156 31.7501 41.4322 31.8472 41.3489C32.0413 41.3489 32.3324 41.3489 32.5265 41.2656C32.8176 41.4322 33.1087 41.9322 33.2057 42.2655C33.6909 43.3488 34.0791 45.0154 34.2732 46.182C34.4673 47.2653 34.6614 48.8485 34.4673 49.9318C34.4673 50.2651 34.1762 51.1817 33.6909 51.1817C33.0117 51.1817 32.2353 50.0984 32.0413 49.5985C31.6531 48.8485 32.0413 48.0152 32.0413 47.1819H31.9442ZM34.8555 47.8486C34.8555 47.5986 34.8555 47.2653 34.8555 47.0153C34.7584 46.0986 34.5643 45.182 34.3703 44.2654C34.1762 43.3488 33.5939 41.9322 33.885 41.0156V40.8489C34.0791 40.8489 34.2732 40.6823 34.5643 40.599C34.7584 40.6823 34.9525 40.8489 35.0495 41.0989C36.214 42.5155 37.8637 46.5986 37.7667 48.4319C37.7667 48.9318 37.4756 50.2651 36.8933 50.4318C36.5052 50.5151 36.02 49.9318 35.8259 49.6818C35.5347 49.3485 34.9525 48.3485 34.8555 47.9319V47.8486ZM33.3028 41.4322C33.2057 41.3489 33.1087 41.2656 33.0117 41.1822C33.1087 41.1822 33.2057 41.1822 33.3028 41.0989C33.3028 41.1822 33.3028 41.3489 33.3028 41.4322ZM36.5051 42.6822C36.214 42.0989 35.3407 41.1823 35.4377 40.599C35.6318 39.7657 36.214 40.2656 36.6022 40.599C37.9608 41.7656 39.9986 45.182 40.3868 46.8486C40.3868 47.0153 40.3868 47.1819 40.3868 47.3486C40.3868 47.4319 40.3868 47.5152 40.3868 47.7652C40.3868 49.7651 38.543 47.4319 38.1549 46.8486C37.2815 45.5154 36.9904 44.0988 36.3111 42.7655L36.5051 42.6822ZM37.7667 41.0989C37.5726 40.8489 36.9903 40.4323 36.9903 40.099C36.9903 39.4323 37.6696 39.7657 38.0578 39.9323C39.3193 40.5989 40.969 42.6822 41.8424 43.7654C42.1335 44.1821 42.8128 45.0154 43.0069 45.5154C43.104 45.7653 43.201 46.5153 42.6188 46.3486C41.8424 46.0987 40.969 45.2654 40.3868 44.6821C39.3193 43.5988 38.7371 42.2655 37.7667 41.0989ZM36.3111 39.849C36.7963 39.599 37.2815 39.2657 37.6696 38.9324C37.6696 39.0157 37.5726 39.1824 37.5726 39.349C37.0874 39.349 36.6992 39.5157 36.6022 40.0156C36.5051 40.0156 36.4081 39.9323 36.3111 39.849ZM39.2223 40.349C38.9312 40.099 38.3489 39.849 38.0578 39.5157C37.8637 39.349 37.8637 38.9324 38.2519 38.9324C38.9312 38.9324 40.1927 39.6823 40.6779 40.0156C41.8424 40.7656 43.3951 41.9322 44.3655 42.9322C44.6566 43.1821 45.3359 44.0154 45.2389 44.3488C45.0448 44.9321 43.7832 44.3488 43.3951 44.2654C41.2602 43.2655 40.775 41.6822 39.1253 40.4323L39.2223 40.349ZM37.9608 38.6824C38.1548 38.5157 38.3489 38.2657 38.543 38.0991C38.446 38.3491 38.543 38.599 38.446 38.599C38.2519 38.599 38.0578 38.599 37.9608 38.599V38.6824ZM18.4555 31.7661C18.4555 31.7661 18.4555 31.8494 18.4555 31.9327C18.4555 31.9327 17.5821 31.9327 17.4851 31.9327C17.291 31.8494 16.7087 31.4328 16.5147 31.2661C15.9324 30.9328 15.4472 30.5162 14.962 30.1828C14.962 30.0995 14.962 30.1828 15.059 30.1828C15.3502 30.1828 15.7383 30.1828 16.0295 30.1828C16.1265 30.1828 16.2235 30.0995 16.4176 30.1828C16.8058 30.5162 17.291 30.7661 17.6791 31.0994C17.8732 31.2661 18.3584 31.6828 18.5525 31.8494L18.4555 31.7661ZM18.5525 31.4328C18.7466 31.5161 18.9407 31.6828 19.0377 31.7661C18.7466 31.9327 18.5525 31.5161 18.3584 31.3494C18.3584 31.3494 18.4555 31.3494 18.5525 31.3494V31.4328ZM18.3584 32.6827C18.3584 32.6827 18.1643 32.766 18.1643 32.8493C18.1643 32.766 17.9703 32.6827 17.9703 32.5994C17.9703 32.5994 18.1644 32.6827 18.3584 32.766V32.6827ZM15.1561 31.9327C14.962 31.8494 14.5738 31.5994 14.3797 31.4328C13.7005 31.0161 13.1182 30.5161 12.536 30.0162C12.536 29.9328 12.536 30.0162 12.633 30.0162C12.7301 30.0162 13.6034 30.0162 13.7004 30.0162C14.1856 30.0995 16.4176 31.4328 16.8058 31.8494C16.8058 31.8494 16.9028 31.8494 16.9028 32.0161C16.4176 31.9327 15.5442 32.0994 15.1561 31.9327ZM18.5525 32.4327C18.5525 32.4327 18.5525 32.4327 18.7466 32.4327H18.5525ZM13.5064 29.3496C13.3123 29.3496 13.1182 29.3496 12.9241 29.3496C13.0212 29.2662 13.2152 29.1829 13.3123 29.0162C13.3123 29.1829 13.5064 29.2662 13.5064 29.3496ZM13.5064 28.7662C13.5064 28.7662 13.5064 28.7662 13.6034 28.6829H13.7004C14.2827 28.7662 14.8649 29.0995 15.2531 29.4329H13.8945L13.4093 28.7662H13.5064ZM19.2318 31.5994C18.5525 31.2661 17.8732 30.5162 17.1939 30.0995C17.1939 30.0995 18.4555 30.0162 18.5525 30.0162C18.7466 30.1828 19.5229 31.0161 19.8141 31.4328C19.717 31.4328 19.62 31.5994 19.5229 31.6828C19.4259 31.6828 19.2318 31.5994 19.2318 31.5994ZM13.9916 28.4329C14.1857 28.2663 14.4768 28.0996 14.6709 27.9329V28.1829L15.8354 29.4329C15.5442 29.2662 14.6709 28.7662 13.9916 28.5163V28.4329ZM20.8815 30.6828C20.6874 30.7661 20.5904 30.9328 20.4933 31.0161C20.0081 30.7661 19.62 30.3495 19.2318 30.0162C19.2318 30.0162 19.2318 30.0162 19.3289 30.0162C19.3289 30.0162 20.0081 30.0162 20.1052 30.0162C20.3963 30.0162 20.7845 30.5161 20.9785 30.8495L20.8815 30.6828ZM20.8815 30.3495C20.8815 30.3495 21.0756 30.4328 21.0756 30.5162C21.0756 30.5162 21.0756 30.5162 20.9785 30.5162V30.2661L20.8815 30.3495ZM21.3667 30.9328C21.3667 31.0161 21.3667 31.1828 21.1726 31.2661V31.0994C21.1726 31.0994 21.1726 31.0161 21.3667 30.9328ZM19.717 30.9328C19.8141 30.9328 19.9111 31.0994 20.1052 31.1828C20.1052 31.1828 20.0081 31.2661 19.9111 31.3494C19.9111 31.1828 19.717 31.0995 19.62 30.9328C19.62 30.9328 19.62 30.9328 19.717 30.9328ZM20.5904 31.4328C20.5904 31.4328 20.6874 31.4328 20.7845 31.4328H20.3963H20.5904ZM19.4259 29.2662C19.4259 29.2662 19.62 29.2662 19.62 29.4329C19.5229 29.4329 19.4259 29.4329 19.4259 29.2662ZM21.3667 30.0162C21.2697 29.9328 21.1726 29.8495 21.0756 29.7662C21.2697 29.6829 21.3667 29.5995 21.3667 29.5995C21.3667 29.7662 21.3667 29.8495 21.3667 30.0162ZM22.046 29.0162C22.046 28.8496 22.143 28.5996 22.046 28.4329C22.143 28.5996 22.5312 29.1829 22.6283 29.3496C22.6283 29.3496 22.6283 29.3495 22.6283 29.4329C22.4342 29.5162 22.2401 29.5995 22.143 29.7662C22.143 29.7662 21.949 29.5995 21.8519 29.5162C21.8519 29.3495 21.8519 29.1829 21.8519 29.0162H22.046ZM21.3667 28.8496L20.2993 27.683C20.7845 27.8496 21.5608 28.2663 21.3667 28.8496ZM22.9194 30.0162C22.9194 30.0162 22.9194 30.0162 22.8223 30.0162C22.8223 30.0162 22.8223 30.0162 22.9194 30.0162ZM24.1809 28.7662C24.1809 28.7662 24.1809 28.7662 24.0839 28.7662C24.0839 28.6829 24.0839 28.5996 23.9868 28.5163C23.9868 28.5163 24.0839 28.6829 24.1809 28.7662ZM25.0543 28.9329C25.0543 28.9329 25.0543 28.9329 25.0543 29.0162C25.0543 29.0162 25.0543 29.0162 25.1513 29.0162L25.0543 28.9329ZM25.4424 28.1829C25.4424 28.1829 25.3454 28.1829 25.2484 28.1829C25.2484 27.9329 25.1513 27.7663 25.0543 27.683C25.2484 27.8496 25.2484 28.0163 25.4424 28.1829ZM26.4129 28.4329C26.4129 28.4329 26.4129 28.5162 26.4129 28.5996C26.4129 28.5996 26.4128 28.5996 26.3158 28.5996C26.3158 28.5996 26.4129 28.5996 26.5099 28.5996L26.4129 28.4329ZM26.801 27.683C26.801 27.683 26.704 27.683 26.6069 27.683C26.6069 27.433 26.4129 27.183 26.4129 27.0163C26.6069 27.183 26.704 27.433 26.801 27.5996V27.683ZM27.6744 28.0163C27.6744 28.0163 27.6744 28.0163 27.7714 28.0163H27.6744ZM28.9359 27.7663C28.9359 27.7663 28.9359 27.8496 28.9359 27.9329C28.9359 27.9329 28.8389 27.9329 28.7418 27.8496C28.7418 27.8496 28.9359 27.8496 29.033 27.8496L28.9359 27.7663ZM29.033 27.0997C28.8389 27.0997 28.5478 27.0997 28.3537 27.183C27.9655 26.433 27.3833 25.0998 27.1892 24.6831C26.8981 23.8498 26.607 22.9332 26.704 22.0999C26.801 22.0999 26.8981 22.1833 26.9951 22.2666C27.7714 22.9332 28.8389 25.6831 28.9359 26.683C28.9359 26.7663 28.9359 26.8497 28.9359 27.0163L29.033 27.0997ZM27.6744 27.3496C27.4803 27.3496 27.1892 27.433 26.9951 27.5163C26.3158 26.683 25.3454 24.6831 25.0543 24.0165C25.0543 23.8498 24.5691 22.5999 24.7632 22.5166C25.1513 22.6832 25.4425 23.0165 25.7336 23.2665C26.2188 23.8498 27.5773 26.0997 27.7714 27.2663L27.6744 27.3496ZM24.7632 24.1831L23.6957 23.0165C23.6957 23.0165 23.6957 23.0165 23.6957 22.9332C23.8898 22.9332 24.0839 22.7665 24.278 22.7665C24.278 23.2665 24.5691 23.9332 24.6661 24.2665L24.7632 24.1831ZM23.1135 24.4331C23.1135 24.4331 23.0164 24.4331 22.9194 24.2665C22.9194 24.2665 22.9194 24.1831 22.9194 24.0998C22.9194 24.1831 23.0164 24.3498 22.9194 24.3498L23.1135 24.4331ZM21.9489 24.4331C21.9489 24.4331 21.6578 23.8498 21.7549 23.6832C22.2401 23.8498 22.3371 24.0998 21.9489 24.4331ZM21.5608 24.4331C21.2697 24.5998 20.9785 24.4331 20.6874 24.1831C20.8815 24.0998 21.1726 23.9332 21.3667 23.8498C21.3667 24.0165 21.4637 24.2665 21.5608 24.4331ZM21.8519 26.0164C21.8519 26.1831 21.8519 26.3497 21.7549 26.433C21.6578 26.5164 21.4638 26.683 21.3667 26.5997C21.2697 26.5997 20.5904 25.4331 20.4933 25.2664C20.4933 25.2664 20.3963 25.0164 20.4933 25.0164C20.8815 25.0164 21.6578 25.5998 21.9489 26.0164H21.8519ZM20.4933 26.0164L19.2318 25.0998C19.4259 24.9331 19.717 24.9331 20.0081 25.0998L20.4933 26.0997V26.0164ZM20.4933 26.5163C20.4933 26.5163 20.7845 26.7663 20.6874 26.7663C20.6874 26.7663 19.9111 26.8497 19.8141 26.7663C19.8141 26.5997 19.62 26.433 19.5229 26.183C19.2318 25.8497 18.5525 25.5997 18.6496 25.0998C19.3288 25.3498 20.0081 25.8497 20.4933 26.3497V26.5163ZM21.4637 27.5163C21.4637 27.5163 21.3667 27.5163 21.2697 27.5163C21.2697 27.5163 20.9785 27.3496 21.0756 27.3496C21.0756 27.183 21.3667 27.5996 21.4637 27.5996V27.5163ZM18.7466 26.3497C18.4555 26.0997 18.0673 25.8497 17.7762 25.6831C17.8732 25.6831 17.9703 25.5997 18.0673 25.5164C18.4555 25.6831 18.6496 25.9331 18.7466 26.3497ZM22.046 27.683C22.046 27.433 22.046 27.0997 22.143 26.8497C22.143 26.7664 22.3371 26.683 22.3371 26.5163C22.8223 27.0997 23.3075 27.7663 23.5016 28.4329C23.5016 28.5163 23.5016 28.6829 23.5987 28.7662C23.4046 28.8496 23.2105 28.9329 23.1135 29.0162C22.7253 28.6829 22.3371 28.1829 22.046 27.683ZM18.7466 26.7663C18.7466 26.7663 18.8436 26.7664 18.7466 26.8497H17.6791C17.6791 26.7664 17.291 26.0164 17.291 26.0164C17.388 25.7664 18.6496 26.5997 18.7466 26.7663ZM17.291 26.7663C16.9999 26.7663 16.7087 26.683 16.4176 26.5997C16.6117 26.433 16.8058 26.3497 16.9999 26.183C16.9999 26.3497 17.0969 26.5164 17.291 26.7663ZM18.2614 27.433C18.5525 27.5163 19.3288 27.433 19.5229 27.433C19.9111 27.9329 20.3963 28.3496 20.7845 28.7662C20.7845 28.7662 20.9785 28.9329 20.9785 29.0162C20.8815 29.0995 20.2022 29.3495 20.0081 29.1829C19.814 29.0996 18.1644 27.433 18.2614 27.3496V27.433ZM18.2614 28.1829L18.6496 28.5163C18.0673 28.1829 17.291 27.9329 16.6117 27.7663L16.2235 27.183C16.5146 27.2663 16.9028 27.183 17.0969 27.2663C17.4851 27.3497 17.9703 27.933 18.2614 28.0996V28.1829ZM16.0295 27.5996C16.0295 27.683 16.0294 27.5996 15.9324 27.5996C15.6413 27.5996 15.3501 27.5163 15.1561 27.433C15.2531 27.3496 15.4472 27.2663 15.5442 27.0997C15.5442 27.0997 15.5442 27.0997 15.6413 27.0997C15.8353 27.0997 15.8354 27.433 16.0295 27.5163V27.5996ZM17.5821 29.4329C17.5821 29.4329 17.6791 29.4329 17.5821 29.5162H16.1265C15.5442 28.9329 14.962 28.4329 14.5738 27.7663C15.3502 27.8496 16.8058 28.9329 17.388 29.4329H17.5821ZM12.633 30.9328C12.3419 30.8495 11.7596 30.5161 11.2744 30.4328C11.3714 30.3495 11.5656 30.1828 11.6626 30.0995L12.633 30.9328ZM17.1939 32.516C17.388 32.6827 17.5821 32.8494 17.5821 33.0994C17.5821 33.0994 17.5821 33.0993 17.4851 33.1827C17.1939 33.1827 16.4176 32.766 16.3206 32.6827C16.3206 32.6827 16.2235 32.6827 16.2235 32.516H17.291H17.1939ZM15.7383 34.7659C15.7383 34.7659 15.6413 34.7659 15.5442 34.7659C15.5442 34.7659 15.059 34.2659 14.962 34.0993C14.7679 33.9326 14.5738 33.766 14.2827 33.5993L14.6709 33.766C15.059 33.9326 15.6413 34.3493 16.2235 34.3493C16.1265 34.5159 15.9324 34.5993 15.8354 34.7659H15.7383ZM15.6413 35.3492C17.5821 35.0159 19.4259 34.7659 21.1726 34.0159C21.3667 34.0159 21.4638 34.016 21.6578 34.0993C21.6578 34.0993 21.6578 34.0993 21.6578 34.1826C21.6578 34.5159 21.8519 34.8493 21.9489 35.1826C21.6578 35.4326 21.3667 35.6825 20.9785 35.9325C18.9407 37.0991 15.6413 38.1824 13.3123 38.7657C12.9241 38.849 12.3419 39.0157 11.9537 39.099H11.7596C12.633 38.1824 13.5064 37.2658 14.3797 36.4325C14.7679 36.0992 15.059 35.7659 15.4472 35.4326L15.6413 35.3492ZM12.3419 36.1825C12.3419 36.1825 12.4389 36.1825 12.536 36.1825C12.73 36.1825 13.6034 37.0158 13.3123 37.1825C13.2152 37.1825 12.9241 37.1825 12.8271 37.1825L11.4685 36.5992L12.2448 36.2658L12.3419 36.1825ZM11.2744 36.3492L10.304 35.9325H10.401C10.6922 35.9325 11.8567 35.6825 12.0508 35.7659C12.0508 35.7659 12.3419 35.9325 12.2448 36.0159L11.2744 36.3492ZM12.8271 36.0992C13.1182 36.1825 13.4093 36.3492 13.6034 36.4325C13.6034 36.4325 13.7975 36.4325 13.8945 36.4325C13.7975 36.5158 13.7005 36.6825 13.5064 36.7658C13.4093 36.5158 13.0211 36.1825 12.73 36.0159L12.8271 36.0992ZM10.9833 35.2659H9.13952C8.75135 35.0992 8.26613 34.8492 7.97501 34.5159C7.97501 34.5159 7.58684 34.1826 7.4898 34.0159C8.75134 34.0159 9.91584 34.7659 10.9833 35.2659ZM8.26615 35.0992C8.26615 35.0992 8.1691 35.0992 8.07206 35.0992C7.78093 35.0992 7.29574 34.8493 6.81053 34.6826C6.90757 34.5159 7.10165 34.3493 7.19869 34.266C7.39277 34.5993 7.87799 34.9326 8.26615 35.0992ZM13.0212 37.3491C13.0212 37.3491 13.0212 37.3491 13.1182 37.3491C12.9241 37.5158 12.8271 37.6824 12.633 37.8491C12.536 37.5158 11.9537 37.0158 11.7596 36.9325L13.0212 37.3491ZM13.3123 35.8492L13.9916 35.6825C13.9916 35.6825 14.2827 36.0159 14.3797 36.1825C14.3797 36.1825 14.2827 36.2658 14.1856 36.3492C14.0886 36.3492 13.8945 36.3492 13.8945 36.3492L13.2152 36.0159C13.2152 36.0159 13.2152 36.0159 13.3123 35.9325V35.8492ZM12.8271 35.7659H13.1182C13.1182 35.7659 12.9241 35.7659 12.8271 35.7659ZM13.2152 34.7659H13.5064L13.7975 35.0992C13.5064 35.0992 13.4093 34.8493 13.2152 34.7659ZM14.962 35.5159C14.7679 35.6825 14.6709 35.8492 14.4768 35.9325C14.4768 35.7659 14.2827 35.6825 14.2827 35.5992C14.4768 35.5159 14.7679 35.5159 14.962 35.5159ZM11.9537 34.266C12.0507 34.3493 13.2152 35.0992 13.2152 35.0992C12.73 35.0992 12.0508 35.3492 11.6626 35.0992C11.1774 34.8493 10.401 34.3493 9.91583 34.0159C9.43063 33.6826 9.04247 33.3493 8.65431 33.016C8.65431 32.9327 9.13952 32.8493 9.23656 32.8493C9.91585 32.9327 11.2744 33.766 11.8567 34.1826L11.9537 34.266ZM9.72177 34.266L8.1691 33.766C7.97502 33.766 7.87799 33.766 7.78094 33.766C7.97503 33.5993 8.16909 33.3493 8.36317 33.1827C8.75133 33.5993 9.23656 34.016 9.72177 34.3493V34.266ZM7.4898 33.5993C6.90756 33.5993 6.90756 33.766 7.0046 34.0993C6.81051 34.2659 6.61643 34.5159 6.51939 34.6826C6.32531 34.6826 6.13123 34.6826 6.03418 34.6826C5.74306 34.8493 5.93716 35.1826 5.84012 35.1826C5.45195 35.0159 4.57856 35.0159 4.96672 34.4326C5.35489 33.8493 6.90755 33.4327 7.87796 33.0994C7.78092 33.266 7.58684 33.4327 7.4898 33.516V33.5993ZM7.78094 35.2659C7.78094 35.2659 7.68389 35.2659 7.58685 35.2659C7.39277 35.2659 6.51938 35.2659 6.42234 35.2659C6.42234 35.2659 6.42237 35.2659 6.32533 35.1826C6.32533 35.1826 6.3253 35.0992 6.42234 35.0159C6.90755 35.0159 7.39278 35.1826 7.78094 35.2659ZM7.19869 35.8492H9.13952L10.4981 36.5158L9.43063 37.0158C8.6543 36.6825 7.87798 36.2658 7.19869 35.8492ZM10.8862 36.7658C11.1774 36.7658 12.4389 37.7658 12.2448 37.9324C11.3714 38.0991 10.5951 37.4325 9.81879 37.2658C9.81879 37.2658 10.6922 36.7658 10.7892 36.7658H10.8862ZM12.1478 38.2657C11.9537 38.4324 11.7596 38.6824 11.5655 38.849C11.3715 38.3491 10.6922 38.0157 10.207 37.7658H10.4981C10.9833 37.9324 11.4685 38.2657 12.0508 38.1824L12.1478 38.2657ZM7.10164 36.1825L5.84012 35.8492C5.84012 35.8492 5.74307 35.8492 5.64602 35.8492C5.64602 35.8492 5.64603 35.7659 5.74307 35.6825C5.93715 35.6825 6.22826 35.6825 6.42234 35.8492C6.71347 35.9325 6.81052 36.0992 7.10164 36.2658V36.1825ZM8.75136 37.2658C8.75136 37.2658 8.75136 37.2658 8.75136 37.3491L7.87796 37.8491C7.29571 37.5991 6.71348 37.2658 6.22828 36.9325C5.93715 36.7658 5.549 36.5158 5.35491 36.2658C5.35491 36.2658 5.35491 36.2658 5.35491 36.0992C5.84012 36.0992 6.32532 36.1825 6.71348 36.3492C7.10165 36.5158 8.55727 37.0158 8.75136 37.2658ZM8.26615 38.0158L9.13952 37.5158C9.72176 37.7658 10.207 38.0991 10.6922 38.4324C10.7892 38.5157 11.3715 38.9324 11.1774 39.099C10.8863 39.1824 10.4981 39.099 10.207 38.9324C9.52769 38.6824 8.84839 38.3491 8.1691 38.0991L8.26615 38.0158ZM8.46022 41.9322C8.75134 42.1822 8.75134 42.4322 8.46022 42.4322C8.16909 42.0989 7.87797 41.6822 7.58685 41.3489C7.97502 41.5989 8.26613 41.7655 8.36317 41.9322H8.46022ZM9.04247 42.5988C10.9833 40.9323 14.7679 39.099 17.1939 38.1824C18.1643 37.8491 18.9407 37.5158 19.8141 37.0991C20.2993 36.8491 20.5904 36.5992 21.0756 36.3492C21.2697 36.2658 21.4638 36.1825 21.6578 36.1825C21.8519 36.0992 21.8519 35.9325 22.046 36.0159C22.046 36.1825 22.2401 36.4325 22.3371 36.5992C22.3371 36.7658 22.143 36.8491 22.046 37.0158C21.3667 38.0157 18.9407 39.4323 17.6791 40.0156C15.5442 41.0989 12.536 42.5155 10.207 43.0988C10.1099 43.0988 9.62473 43.1821 9.23656 43.2655C9.04248 43.0988 8.94544 42.9321 8.75136 42.7655C8.75136 42.7655 8.84838 42.6822 8.94542 42.5988H9.04247ZM7.87796 42.7655L7.58685 42.5155C7.58685 42.5155 7.58686 42.5155 7.6839 42.5155C7.6839 42.5988 7.78092 42.6822 7.87796 42.7655ZM11.6626 45.432C11.8567 45.0987 12.5359 44.4321 12.8271 44.1821C13.9916 43.0988 15.7383 41.7656 17.1939 41.0156C18.9407 40.0157 20.6874 39.1824 22.2401 37.9324C22.4342 37.7658 22.5312 37.5158 22.8223 37.5991C22.8223 37.5991 22.9194 37.5991 23.0164 37.6824C23.0164 37.6824 23.0164 37.8491 23.1135 37.9324C23.1135 38.0158 23.1135 38.1824 23.1135 38.2657C22.7253 39.2657 20.9785 40.6823 20.1052 41.3489C18.9407 42.2655 17.5821 43.0988 16.3206 43.9321C15.3502 44.5154 13.3123 45.682 12.1478 45.932C12.0508 45.8487 11.8567 45.682 11.7596 45.5987L11.6626 45.432ZM12.536 46.0986C13.7005 45.7653 15.2531 45.0154 15.9324 44.5987C16.5147 44.2654 17.0969 43.8488 17.6791 43.5155C17.6791 43.5155 17.7762 43.4321 17.8732 43.5155C17.291 44.0154 16.8058 44.5987 16.2235 45.182C15.6413 45.8487 14.865 46.7653 14.4768 47.5152C13.7975 47.0986 13.1182 46.5986 12.536 46.182V46.0986ZM14.8649 47.6819C14.8649 47.6819 14.8649 47.6819 14.8649 47.5986C15.5442 46.0987 17.7762 43.7654 19.1348 42.5988C19.717 42.0989 20.3963 41.6822 20.9785 41.1822C21.6578 40.5989 22.4342 39.849 23.1135 39.1824C23.3075 38.9324 23.4046 38.7657 23.5987 38.5157C23.6957 38.6824 23.8898 38.849 23.9868 38.9324C23.9868 39.0157 23.9868 39.599 23.8898 39.599C23.5016 40.5156 22.3371 41.8489 21.5608 42.5988C20.2993 43.9321 17.0969 47.0986 15.3502 47.7652C15.3502 47.7652 15.3501 47.7652 15.2531 47.7652C15.1561 47.7652 15.059 47.5986 14.8649 47.5152V47.6819ZM15.6413 48.1819C15.7383 48.1819 15.9324 48.0986 15.9324 48.0152C16.6117 47.6819 17.291 47.1819 17.8732 46.7653L19.9111 45.0154C19.2318 46.0987 18.5525 47.1819 18.1643 48.3485C18.0673 48.5985 17.9703 49.0152 17.8732 49.2652C17.8732 49.2652 17.8732 49.2652 17.8732 49.3485C17.0969 48.9318 16.4176 48.5985 15.6413 48.0986V48.1819ZM18.2614 49.5985C18.3584 48.4319 19.9111 45.7654 20.5904 44.7654C21.5608 43.3488 22.9194 42.1822 23.8898 40.7656C24.0839 40.4323 24.1809 40.099 24.5691 40.0156C25.2484 39.849 25.4424 40.2656 25.3454 40.7656C25.3454 41.3489 25.0543 41.5989 24.8602 42.0155C24.8602 42.1822 24.8602 42.3489 24.6661 42.5988C23.7928 44.4321 21.6578 47.0986 20.1052 48.5985C19.717 49.0152 19.2318 49.5152 18.6496 49.7651C18.5525 49.7651 18.3584 49.6818 18.2614 49.5985ZM19.1348 50.0151C20.2993 49.4318 21.1726 48.1819 21.9489 47.3486L21.3667 49.0985C21.3667 49.5151 21.0756 50.2651 21.1726 50.9317C20.4933 50.6818 19.717 50.3484 19.0377 50.0151H19.1348ZM21.8519 51.0984C21.8519 51.015 21.8519 50.9317 21.8519 50.7651C21.6578 49.7651 22.143 48.3485 22.5312 47.4319C22.7253 46.9319 23.0164 46.182 23.3076 45.7653C23.5987 45.3487 23.9868 44.8487 24.278 44.3488C24.7632 43.5988 25.2484 42.7655 25.6365 42.0155C25.7336 41.7655 25.8306 41.3489 25.9276 41.0989C26.0247 40.9323 26.3158 40.8489 26.5099 40.7656C26.704 40.8489 26.9951 41.0156 27.1892 41.0989C27.1892 41.2656 27.1892 41.3489 27.1892 41.4322C27.1892 41.8489 27.2862 41.9322 27.1892 42.4322C26.607 44.5987 25.3454 47.0986 24.0839 49.0985C23.6957 49.6818 23.0164 50.6817 22.4342 51.0984C22.4342 51.0984 22.2401 51.1817 22.2401 51.265C22.143 51.265 21.949 51.1817 21.8519 51.0984ZM31.459 51.9317C28.9359 52.1817 26.2188 52.0983 23.6957 51.5984C23.4046 51.5984 23.0164 51.4317 22.7253 51.3484C23.3075 50.8484 23.9868 50.0151 24.375 49.5151C25.2484 48.1819 25.5395 47.5153 25.9276 46.8486L25.7336 49.4318C25.7336 49.9318 25.7336 51.515 26.2188 51.765C26.3158 51.765 26.607 51.765 26.704 51.765C27.0922 51.515 27.5773 50.7651 27.7714 50.3484C28.0625 49.8484 28.1596 49.2651 28.3537 48.6818V49.5985C28.3537 50.3484 28.8389 52.265 30.1975 51.515C30.9738 51.0984 31.0708 50.2651 31.2649 49.5985C31.556 50.2651 32.0413 51.3484 33.0117 51.515C33.3028 51.515 33.5939 51.515 33.788 51.3484C34.0791 51.0984 34.3703 50.2651 34.4673 49.9318C34.4673 49.5151 34.4673 49.1818 34.5643 48.7652L35.3407 50.0151C36.117 50.9317 36.8933 51.015 37.3785 49.8484C37.4756 49.5985 37.5726 49.3485 37.6696 49.0985C37.9608 48.4319 37.6696 47.3486 37.4756 46.682C37.7667 46.9319 37.8637 47.2653 38.1549 47.5986C38.543 48.0986 39.7075 49.3485 40.2898 48.2652C40.4839 47.7652 40.2898 46.682 40.2898 46.182C40.0957 45.682 39.9016 45.2654 39.7075 44.7654C39.9986 45.0987 40.3868 45.432 40.6779 45.682C41.0661 46.0153 42.0365 46.7653 42.5217 46.5153C43.104 46.182 42.8128 45.3487 42.5217 44.932L41.6483 43.5988C42.3276 44.0988 43.298 44.7654 44.2684 44.8487C45.7241 44.932 44.6566 43.1821 44.2684 42.7655L43.104 41.6822C43.8803 42.0155 44.5596 42.4322 45.3359 42.6822C45.627 42.7655 46.0152 42.9322 46.4034 42.8488C43.3951 47.7652 38.446 51.265 31.5561 51.9317H31.459ZM46.4034 42.5155C46.4034 42.7655 45.8211 42.5988 45.627 42.5155C43.104 41.9322 41.2602 40.1823 39.1253 39.0157C38.8341 38.849 38.446 38.849 38.3489 38.5157C38.1549 37.6824 39.7075 38.1824 40.0957 38.3491C41.5513 38.9324 43.0069 39.6823 44.2684 40.5156C44.8507 40.9323 46.1122 41.6822 46.3063 42.2655C46.3063 42.2655 46.3063 42.3488 46.3063 42.4322L46.4034 42.5155ZM48.1501 38.9324V39.0157C47.7619 40.1823 47.1797 41.1823 46.5975 42.2655C46.4034 41.5989 45.9182 41.2656 45.4329 40.7656L44.2684 40.0156C44.2684 40.0156 44.3655 40.0156 44.4625 40.0156C44.9477 40.099 45.3359 40.2656 45.8211 40.349C46.5004 40.5156 48.1501 40.6823 47.6649 39.599C47.4708 39.2657 46.7915 38.7657 46.4034 38.599C46.2093 38.599 46.1122 38.5157 45.9182 38.4324L47.7619 38.599C47.956 38.599 48.2472 38.5991 48.4412 38.5157C48.4412 38.5991 48.4412 38.7657 48.3442 38.849L48.1501 38.9324ZM47.7619 37.5158C47.956 37.5991 48.3442 37.8491 48.4412 38.0991C48.4412 38.0991 48.4412 38.2657 48.4412 38.3491C48.0531 38.5991 46.8886 38.4324 46.5004 38.3491C44.8507 38.0991 43.7833 37.5158 42.2306 37.0991C41.8424 37.0158 41.0661 36.9325 40.6779 36.7658C40.5809 36.7658 40.4838 36.6825 40.3868 36.5992C40.3868 36.5992 40.1927 36.5992 40.0957 36.5992C39.8046 36.5992 39.4164 36.5992 39.3194 36.3492C39.3194 36.3492 39.3194 36.3492 39.3194 36.2658C39.3194 36.2658 39.3193 36.0992 39.4164 36.0159C39.5134 35.9325 39.7075 35.8492 39.9016 35.8492C41.8424 35.5159 46.1122 36.4325 47.7619 37.3491V37.5158ZM48.5383 37.8491C48.5383 37.8491 48.5383 37.8491 48.4412 37.7658C48.0531 37.4324 47.4708 37.0158 46.8886 36.7658H46.6945H47.859C48.1501 36.6825 48.5383 36.5992 48.9264 36.4325C48.9264 36.9325 48.7324 37.4324 48.5383 37.8491ZM48.9264 36.0992C48.9264 36.2658 48.2472 36.4325 48.0531 36.4325C46.4034 36.7658 45.53 36.4325 43.9773 36.0992C42.7158 35.8492 41.5513 35.7659 40.2898 35.7659C40.0957 35.7659 39.8046 35.7659 39.7075 35.7659C39.7075 35.6825 39.7075 35.5159 39.8046 35.4326C39.9986 35.3492 40.1927 35.1826 40.3868 35.1826C42.1335 34.7659 46.3063 34.7659 47.956 35.4326C48.1501 35.4326 49.0235 35.8492 49.0235 36.0992H48.9264ZM47.956 29.9328C48.8294 31.7661 49.2176 33.766 48.9264 35.7659C48.2472 35.1826 47.1797 34.9326 46.3063 34.7659C46.8886 34.5993 48.3442 34.4326 48.5383 33.766C48.5383 33.516 48.2472 33.266 48.0531 33.1827C47.6649 32.9327 47.2767 32.8493 46.7915 32.766C46.4034 32.766 46.1122 32.766 45.7241 32.766C46.2093 32.516 46.7915 32.3494 47.2767 32.0994C49.3146 30.8495 46.4034 30.6828 45.4329 30.9328L46.6945 30.3495C47.0826 30.0995 47.5679 29.9328 47.7619 29.4329C47.7619 29.5995 47.956 29.6828 47.956 29.8495V29.9328ZM47.5679 29.4329C47.6649 29.6828 46.9856 30.0995 46.6945 30.1828C44.9477 31.2661 43.201 31.4328 41.2602 32.0994C40.775 32.2661 40.1927 32.6827 39.6105 32.6827C39.5134 32.4327 39.4164 32.1827 39.2223 31.9327C39.3194 31.7661 39.5134 31.6827 39.6105 31.5994C41.0661 30.6828 44.0744 29.6829 45.8211 29.3496C46.2093 29.3496 46.9856 29.1829 47.3738 29.3496C47.3738 29.3496 47.4708 29.3495 47.5679 29.4329ZM47.5679 29.1829C47.1797 29.0162 46.3063 29.0162 46.0152 29.0162C45.627 29.0162 45.3359 29.1829 44.9477 29.1829C45.2389 28.9329 45.627 28.8496 46.0152 28.5996C46.2093 28.4329 46.5974 28.1829 46.6945 27.9329C46.9856 28.3496 47.2767 28.7662 47.4708 29.1829H47.5679ZM46.5975 27.8496C46.4034 28.1829 45.627 28.6829 45.3359 28.8496C43.7832 29.7662 41.8424 30.0995 40.2898 30.9328C40.2898 30.9328 39.7075 31.3494 39.7075 31.2661C39.5134 31.2661 39.2223 31.2661 38.9312 31.2661C38.7371 31.0161 38.543 30.7661 38.3489 30.5162C38.7371 30.0995 39.5134 29.6828 39.9016 29.4329C41.4542 28.5996 43.9773 27.433 45.8211 27.3496C46.0152 27.3496 46.1122 27.3496 46.2093 27.3496C46.3063 27.5163 46.4034 27.5996 46.5975 27.7663V27.8496ZM39.2223 22.7665C41.8424 23.7665 44.2685 25.2664 46.1123 27.2663C45.53 27.2663 44.6566 27.2663 44.1714 27.433L42.4247 28.0996C43.0069 27.5996 43.8803 27.0997 44.1714 26.3497C44.3655 25.7664 43.5892 25.8497 43.201 25.9331L41.4543 26.5163C41.8424 26.0997 42.8128 25.3497 42.8128 24.8498C42.8128 24.0998 41.2602 24.8498 40.969 25.0164L39.3194 25.9331C39.7075 25.4331 40.2898 25.0164 40.6779 24.5165C40.872 24.2665 41.0661 24.0165 41.0661 23.7665C40.775 23.3499 39.8046 23.9332 39.5134 24.0998C39.0282 24.3498 38.543 24.7665 38.0578 25.0998C38.2519 24.5998 39.1253 23.2665 38.8342 22.7665C38.8342 22.6832 38.7371 22.5999 38.543 22.5999C37.9608 22.5166 37.1845 23.5165 36.8933 23.8498C36.8933 23.8498 36.8933 23.9332 36.7963 23.8498C36.9904 23.4332 37.4756 22.2666 37.1844 21.9333C37.9608 22.1832 38.6401 22.4333 39.3194 22.6832L39.2223 22.7665ZM36.6022 21.9333C36.4081 21.9333 36.117 22.2666 36.0199 22.3499C35.5347 22.9332 35.1466 23.5165 34.8555 24.0998C34.8555 24.0998 34.7584 24.3498 34.6614 24.3498C34.8554 23.6832 35.2436 22.2666 34.9525 21.6833C34.9525 21.6833 34.9525 21.5166 34.8555 21.5166C35.4377 21.5999 36.0199 21.7666 36.6992 21.9333H36.6022ZM32.7205 21.35C33.3028 21.35 33.885 21.35 34.3703 21.5166C34.2732 21.5166 34.0791 21.6833 33.9821 21.7666C33.4969 22.3499 33.2058 23.0999 33.0117 23.7665V22.5999C33.0117 22.3499 33.0117 21.6833 32.7205 21.35ZM31.9442 21.35C31.9442 21.35 32.0412 21.35 32.1383 21.35C31.6531 21.8499 31.556 22.8499 31.362 23.4332L31.0709 22.2666C31.0709 21.9333 30.8767 21.6 30.6827 21.4333C31.0708 21.4333 31.459 21.4333 31.9442 21.4333V21.35ZM30.2945 21.5166C30.3915 21.5999 30.4886 21.7666 30.5856 21.9333C31.0709 22.8499 31.2649 26.0164 30.8768 27.0997C30.6827 27.0997 30.4886 27.0997 30.2945 27.0997C30.1004 26.3497 29.9063 24.2665 29.9063 23.7665C29.9063 23.4332 30.0034 21.5999 30.1975 21.5166H30.2945ZM28.4507 21.6833C28.9359 21.6833 29.4211 21.5166 29.9063 21.5166C29.9063 21.5999 29.9063 21.6833 29.8093 21.8499C29.6152 22.5999 29.6152 23.3499 29.6152 24.0998C29.4212 23.4332 29.13 22.6832 28.7418 22.0999C28.7418 21.9333 28.5478 21.8499 28.4507 21.7666V21.6833ZM28.3537 22.0166C29.033 22.7666 29.9063 25.9331 29.8093 27.0997C29.6152 27.0997 29.4211 27.0997 29.227 27.0997C28.9359 26.433 28.5478 25.0998 28.3537 24.5998C28.1596 23.6832 27.9655 22.6832 28.0626 21.7666C28.1596 21.7666 28.2566 21.9333 28.3537 22.0166ZM27.7714 21.7666C27.7714 21.7666 27.7714 21.9333 27.7714 22.0166V23.7665C27.6744 23.4332 27.0922 22.3499 26.6069 22.0166C26.9951 21.9333 27.3833 21.8499 27.7714 21.7666ZM25.0543 22.8499C25.0543 22.7666 24.8602 22.5999 24.6661 22.5166C25.0543 22.3499 25.4424 22.2666 25.9276 22.1833C25.8306 22.4332 25.9276 22.9332 25.9276 23.0999C25.9276 23.5165 26.1217 23.9332 26.2188 24.3498L25.0543 22.8499ZM23.4046 22.1833C23.4046 22.1833 23.3075 22.0166 23.4046 21.9333C23.5016 21.9333 23.5987 21.9333 23.6957 21.8499C23.5987 21.9333 23.5016 22.0999 23.4046 22.1833ZM24.472 21.1833C24.472 21.0166 24.472 20.85 24.472 20.6C24.472 20.6 24.7632 20.6 25.1513 20.6C24.8602 20.7667 24.6661 20.9333 24.472 21.1V21.1833ZM24.8602 20.0167C24.5691 20.0167 24.1809 19.85 24.1809 19.6001C24.375 19.7667 24.7631 19.85 24.8602 20.0167ZM27.1892 19.6001C27.1892 19.5167 27.2862 19.3501 27.3833 19.2667C27.5773 19.2667 27.6744 19.3501 27.8685 19.4334C27.6744 19.4334 27.3833 19.6001 27.1892 19.6834V19.6001ZM26.6069 18.9334V18.7668C26.6069 18.7668 26.6069 18.8501 26.6069 18.9334ZM30.0034 18.9334C29.8093 18.9334 29.6152 18.9334 29.3241 19.0167C29.3241 18.9334 29.5182 18.8501 29.6152 18.6834C29.7123 18.7668 29.9064 18.8501 30.0034 18.9334ZM32.4294 18.7668C32.2353 18.7668 31.9442 18.7668 31.7501 18.7668C31.7501 18.7668 31.9442 18.6001 31.9442 18.5168C32.1383 18.6001 32.2353 18.6834 32.4294 18.7668ZM31.2649 18.2668C30.8768 18.7668 30.1975 18.2668 29.9063 18.0168C29.2271 17.4335 28.3537 16.1836 27.9655 15.4336C26.3158 12.7671 24.472 8.26732 23.9868 5.35081C23.9868 4.76751 23.7927 4.01755 24.0839 3.43425C24.1809 3.43425 24.6661 3.8509 24.7632 3.93423C26.1217 5.43415 27.2862 7.93401 28.1596 9.68392C29.4212 12.1838 29.6152 14.9336 31.0709 17.3502C31.2649 17.6835 31.6531 17.8501 31.362 18.2668H31.2649ZM29.033 7.01739C28.9359 5.85078 28.7419 3.85088 29.13 2.76761C29.13 2.68428 29.2271 2.43429 29.4211 2.35096C29.6152 2.35096 29.7123 2.60097 29.8093 2.6843C30.9738 4.26755 31.7501 7.85069 32.1383 9.68392C32.3324 10.6839 32.3324 11.9338 32.6235 12.9337C32.9146 14.1003 33.2057 15.3503 33.6909 16.5169C33.6909 16.6835 33.9821 17.1835 33.9821 17.3502C33.885 17.6002 33.5939 18.0168 33.3028 18.1001C33.0117 18.1835 32.8176 18.1001 32.6235 17.9335C31.459 17.1002 30.4886 13.8504 30.1975 12.6004C29.7123 10.7672 29.4211 8.76729 29.227 6.93405L29.033 7.01739ZM39.7075 19.9334C37.6697 19.3501 35.5347 18.9334 33.3998 18.7668C33.788 18.6834 34.0791 18.4335 34.2732 18.1001C34.6614 18.3501 34.8555 18.6834 35.3407 18.8501C35.8259 19.0168 36.214 18.8501 36.6992 18.6834C37.0874 19.0168 37.3785 19.2667 37.9608 19.2667C38.2519 19.2667 38.446 19.1834 38.6401 19.1001C38.9312 19.5167 39.2223 19.85 39.6105 19.9334H39.7075ZM36.3111 17.9335C36.3111 18.1001 35.9229 18.2668 35.7288 18.1835C35.2436 18.1835 34.6614 17.2668 34.5643 16.9335C33.3998 14.517 33.0117 10.8505 32.9146 8.18399C32.9146 6.68407 32.7205 4.76751 33.1087 3.26758C33.1087 3.0176 33.3028 2.43431 33.3998 2.26765C33.691 1.85101 33.885 2.26764 34.0791 2.51763C34.7584 3.85089 35.2436 6.10077 35.4377 7.51736C35.8259 10.4339 35.2436 13.4337 35.9229 16.4336L36.4081 17.8501L36.3111 17.9335ZM38.446 18.3501C37.7667 18.9334 37.2815 18.1001 36.9903 17.6002C36.4081 16.4336 36.3111 14.267 36.214 12.9337C36.214 10.3505 36.214 5.85079 37.2815 3.35092C37.3785 3.0176 37.5726 2.51762 37.9608 2.35096C38.0578 2.35096 38.2519 2.76762 38.3489 2.93427C38.8342 4.26754 38.9312 6.18411 38.9312 7.6007C38.9312 10.2672 38.2519 12.7671 38.1549 15.4336C38.1549 16.4336 38.1549 17.4335 38.3489 18.3501H38.446ZM39.2223 17.5168C39.2223 17.5168 39.0282 17.0169 39.3194 17.1835V17.5168H39.2223ZM43.201 2.60096C43.5892 5.18416 42.9099 8.85063 42.3276 11.3505C41.9395 13.0171 41.4543 14.6003 40.2898 16.1002C40.0957 16.4335 39.4164 16.9335 39.0282 16.8502C39.0282 13.6837 39.5134 10.6005 40.2898 7.51736C40.6779 5.93411 41.2602 3.85089 42.1336 2.4343C42.3276 2.18431 42.5217 1.76767 42.8128 1.68434C43.0069 1.68434 43.104 2.43431 43.201 2.60096ZM29.033 1.60101C30.3916 1.35102 31.8472 1.18438 33.2057 1.01772C36.4081 0.767732 39.7075 0.767732 42.9099 1.01772C42.7158 1.01772 42.4247 1.01771 42.2306 1.2677C41.3572 1.851 40.6779 3.51757 40.3868 4.43418C39.9986 5.43413 39.8045 6.51742 39.4164 7.51736C39.4164 7.51736 39.4164 7.43403 39.4164 7.3507C39.4164 6.01743 39.4164 3.68423 38.8342 2.4343C38.543 1.85099 37.9608 1.60101 37.3785 2.10098C36.7963 2.68429 36.4081 3.85089 36.214 4.51752C36.0199 5.35081 35.9229 6.26743 35.7288 7.10072C35.6318 6.85073 35.6318 6.60075 35.5347 6.35076C35.3406 5.35082 34.8554 2.68428 34.1762 1.93432C33.788 1.51767 33.2058 1.43434 32.9146 1.93432C32.1383 3.01759 32.0413 5.35081 32.0413 6.68408C32.0413 7.10072 32.0413 7.6007 32.0413 8.01734C32.0413 8.01734 32.0413 8.10066 32.0413 8.18399L31.362 5.43414C30.9738 4.43419 30.6827 3.26758 30.1004 2.35096C29.8093 1.93432 29.2271 1.35101 28.6448 1.93432C27.7714 2.85093 27.9655 5.43414 28.0626 6.60074L28.6448 10.7672C28.5478 10.5172 28.4507 10.2672 28.2566 10.0172C27.5773 8.35065 26.8981 6.76741 25.9276 5.18417C25.6365 4.68419 24.7632 3.26759 24.1809 3.01761C23.0164 2.35098 22.8223 4.01755 22.8223 4.68419C22.8223 6.35076 23.5987 8.10067 24.0839 9.68392L22.3371 7.10072C21.8519 6.43409 20.4933 4.60086 19.717 4.35088H19.5229C22.4342 3.01761 25.5395 2.10098 28.7418 1.60101H29.033ZM20.2022 5.0175C21.8519 6.1841 23.7928 9.43392 24.7632 11.1005C25.6365 12.6004 26.2188 14.1004 27.0922 15.6003C27.5774 16.4336 28.1596 17.3502 28.8389 18.1001C28.8389 18.2668 28.6448 18.6001 28.4507 18.6834C27.8685 18.9334 26.8981 18.1001 26.5099 17.7668C23.8898 14.9336 21.5608 11.1838 20.1052 7.68403C19.9111 7.10073 19.3288 5.6008 19.5229 5.0175C19.62 4.60085 19.814 4.76751 20.1052 5.0175H20.2022ZM16.5147 6.10076C17.388 5.60079 18.3584 5.10083 19.2318 4.60085C19.2318 4.60085 19.2318 4.60086 19.2318 4.68419C18.7466 5.68413 19.9111 8.43397 20.3963 9.43392C20.5904 9.76723 20.7845 10.1006 20.8815 10.5172C20.3963 10.0172 20.0081 9.35061 19.5229 8.85063C18.9407 8.184 17.388 6.51741 16.5147 6.10076ZM15.8354 6.51741C15.8354 6.51741 15.9324 6.51743 16.0295 6.4341C16.0295 6.4341 16.0294 6.4341 16.1265 6.4341C16.8058 6.76741 17.7762 7.76735 18.3584 8.26732C19.8141 9.68391 21.2697 11.6005 22.4342 13.2671C22.9194 13.9337 23.2105 14.6836 23.6957 15.3503C24.375 16.2669 25.1513 17.0169 25.6365 18.1001C25.6365 18.2668 26.1217 19.3501 25.8306 19.4334C24.472 19.0167 23.4046 17.9335 22.5312 17.0169C20.7845 15.2669 19.2318 13.1004 17.8732 11.1005C17.291 10.2672 15.6413 7.51736 15.8354 6.60074V6.51741ZM13.3123 8.35065C13.5064 8.184 13.7975 8.01733 13.9916 7.85068C14.1857 7.68402 14.5738 7.43405 14.7679 7.26739C14.8649 7.18406 15.059 7.01738 15.2531 6.93405C15.2531 7.60068 15.6413 8.51732 15.8354 8.85063C16.0294 9.18395 16.2235 9.51725 16.3206 9.85056C15.7383 9.51725 15.2531 9.10061 14.6709 8.7673C14.2827 8.60064 13.7004 8.26732 13.3123 8.35065ZM14.3797 9.10061C15.2531 9.60058 16.1265 10.1839 16.9028 10.8505C18.2614 12.8504 19.62 14.767 21.2697 16.6002C21.6578 17.1002 22.143 17.4335 22.5312 17.9335C22.8223 18.2668 23.0164 18.6834 23.2105 19.0167C20.6874 17.3502 18.3584 15.267 16.4176 13.1004C15.5442 12.1838 13.8945 10.3506 13.6034 9.26728C13.3123 8.35066 13.8945 8.68396 14.4768 9.01727L14.3797 9.10061ZM10.4981 11.5171C10.401 11.5171 10.304 11.5172 10.207 11.4338C11.0803 10.5172 11.9537 9.60059 12.9241 8.7673C12.73 9.3506 13.4093 10.4339 13.7004 10.9339C14.1856 11.6838 14.865 12.4338 15.4472 13.1004L18.0673 15.8503C17.291 15.3503 16.5146 14.767 15.7383 14.267C14.2827 13.3504 12.2448 12.1838 10.5951 11.5171H10.4981ZM9.52768 12.1838C9.52768 12.1005 9.72175 11.9338 9.81879 11.8505C10.1099 11.8505 10.401 12.0171 10.4981 12.0171C12.536 12.6838 14.6709 13.9337 16.3206 15.017C18.5525 16.4336 20.3963 18.1001 22.6283 19.6001C22.8223 19.7667 23.5016 20.1 23.5987 20.2667C23.5987 20.4333 23.5987 20.85 23.5987 21.0167C23.4046 21.4333 22.8223 21.35 22.4342 21.2666C20.1052 20.85 16.6117 18.4335 14.7679 17.1002C13.4093 16.1836 12.0507 15.1003 10.8862 13.9337C10.401 13.4337 9.8188 12.8504 9.52768 12.1838ZM8.84837 13.0171C8.84837 12.9337 9.04247 12.7671 9.04247 12.6838C9.52768 13.5171 10.6922 14.6837 11.1774 15.1003C12.0508 15.8503 13.0212 16.6002 13.9916 17.2669C13.9916 17.2669 13.8945 17.2669 13.7975 17.2669C13.5064 17.1002 13.2153 17.0169 13.0212 16.8502C11.8567 16.3502 9.04246 15.017 7.87796 15.017C7.68388 15.017 7.58684 15.017 7.4898 15.017C7.87797 14.3503 8.36317 13.6837 8.84837 13.0171ZM7.6839 15.4336C7.97502 15.3503 8.36319 15.4336 8.65431 15.4336C10.7892 15.9336 13.3123 17.1835 15.1561 18.1835C16.2235 18.7668 17.0969 19.4334 18.1643 20.0167C18.7466 20.35 19.3289 20.6 19.9111 20.9333C20.3963 21.1833 20.7845 21.35 21.2697 21.5166C21.4638 21.5166 22.2401 21.7666 22.3371 21.8499C22.4342 21.8499 22.6283 22.4332 22.6283 22.5999C22.6283 22.6832 22.6282 22.7666 22.5312 22.8499C22.3371 22.8499 22.143 23.0165 22.046 23.0165C22.046 23.0165 22.046 23.0165 21.9489 23.0165C21.9489 23.0165 21.8519 23.0165 21.7549 23.0165C21.4638 23.0165 20.7845 22.9332 20.4933 22.7665C17.291 21.6833 14.1857 20.1834 11.4685 18.4335C10.401 17.7668 8.55726 16.6002 7.97501 15.6836C7.97501 15.6836 7.78092 15.4336 7.87796 15.3503L7.6839 15.4336ZM5.54898 18.7668C5.64602 18.5168 5.8401 18.1001 5.93714 17.7668C6.3253 17.0169 6.71348 16.2669 7.10164 15.5169C7.10164 15.9336 7.58686 16.3502 7.78094 16.6002C9.43065 18.2668 13.1182 20.2667 15.3502 21.4333C16.9999 22.2666 18.8436 22.9332 20.6874 23.4332C20.2993 23.5999 19.9111 23.7665 19.62 23.9332C19.5229 23.9332 19.3288 23.9332 19.2318 23.9332C18.5525 22.9332 17.0969 22.2666 15.9324 21.7666C13.9916 21.0167 11.4685 20.2667 9.43063 19.7667C8.26613 19.5167 6.61643 19.1001 5.45193 19.1001C5.45193 18.9334 5.54898 18.7668 5.64602 18.6834L5.54898 18.7668ZM5.25787 20.1C5.25787 20.1 5.16081 20.0167 5.06377 19.9334C5.06377 19.9334 5.06377 19.9334 5.06377 19.85C5.06377 19.7667 5.06378 19.6834 5.16082 19.6001C5.45194 19.6001 5.8401 19.6001 5.93714 19.6001C7.58684 19.7667 9.43063 20.1834 10.9833 20.6C13.0212 21.1833 16.9028 22.2666 18.4555 23.5998C18.6496 23.7665 18.9407 24.0165 18.9407 24.2665C18.9407 24.2665 18.7466 24.3498 18.6496 24.4331C18.1643 24.3498 17.6791 24.2665 17.1939 24.1831C14.5738 23.6832 11.8567 22.8499 9.33358 21.9333C7.975 21.4333 6.22827 20.85 5.16082 20.0167L5.25787 20.1ZM4.86971 20.4333C5.06379 20.6 5.25785 20.6833 5.45193 20.85C7.39276 21.9333 10.304 22.9332 12.536 23.5998C14.2827 24.0998 16.1265 24.5998 17.9703 24.9331C17.9703 24.9331 17.9703 24.9331 17.8732 24.9331C17.8732 24.9331 17.7762 24.9331 17.6791 25.0164C17.0969 25.1831 15.8354 24.6831 15.2531 24.5165C12.3419 23.7665 7.97501 22.9332 5.06377 23.0999C4.77265 23.0999 4.38448 23.0999 4.09336 23.3499C4.38448 22.3499 4.6756 21.35 4.96672 20.35L4.86971 20.4333ZM4.28745 23.7665C4.57858 23.5998 5.06377 23.5998 5.45193 23.5998C8.75133 23.5165 13.6034 24.3498 16.7087 25.3497C16.8058 25.3497 16.9028 25.3498 17.0969 25.4331C16.9998 25.5164 16.8058 25.5997 16.7087 25.6831C16.7087 25.6831 16.6117 25.6831 16.6117 25.7664C16.4176 25.8497 16.2235 26.0164 16.0295 26.0997C15.8354 26.2664 15.6413 26.3497 15.4472 26.5163C15.4472 26.5163 15.3501 26.5163 15.2531 26.5163C14.8649 26.5163 13.7975 26.2664 13.3123 26.2664C10.9833 25.8497 7.87798 25.3497 5.74307 24.4331C5.54899 24.3498 4.38448 23.8498 4.48152 23.5998L4.28745 23.7665ZM3.80225 24.0998C4.09337 24.5165 5.54898 25.0998 6.03418 25.2664C8.6543 26.2664 11.6626 26.683 14.4768 27.183C14.3797 27.183 14.2827 27.3496 14.1856 27.433C11.6626 27.0997 8.55725 26.8497 5.93714 26.933C5.45193 26.933 4.48152 26.933 3.99631 27.0997C3.60815 27.183 3.41409 27.3497 3.41409 27.5996C3.41409 26.433 3.70519 25.2664 3.99631 24.0998H3.80225ZM3.12295 29.4329C3.12295 29.0162 3.12295 28.5162 3.12295 28.1829C3.12295 28.0163 3.12295 27.8496 3.12295 27.683C3.12295 27.8496 3.31703 28.0996 3.60815 28.2663C5.25785 29.1829 7.4898 29.3495 9.43063 29.6829C9.43063 29.6829 9.23656 29.6829 9.13952 29.6829C7.48981 29.6829 5.64601 29.6829 3.99631 29.9328C3.70519 29.9328 3.21998 30.0995 3.0259 30.3495C3.0259 30.0162 3.0259 29.6829 3.0259 29.3496L3.12295 29.4329ZM3.60815 30.6828C3.60815 30.6828 3.60816 30.5995 3.80225 30.5162C4.38449 30.1828 7.48982 30.0162 8.26615 30.0162C9.13952 30.0162 9.91583 30.0162 10.7892 30.0162C10.6922 30.0995 10.4981 30.2662 10.401 30.3495C10.207 30.3495 10.1099 30.3495 10.0129 30.3495C9.72176 30.3495 9.72175 30.5995 9.81879 30.8495C9.62471 31.0161 9.43065 31.1828 9.23656 31.4328C8.94544 31.4328 8.75136 31.4328 8.75136 31.7661C7.87799 31.6828 7.10165 31.5994 6.22828 31.4328C5.35491 31.2661 4.38448 31.0995 3.60815 30.5995V30.6828ZM3.60815 33.766V33.516V33.3493V32.8493H3.5111C3.5111 32.766 3.5111 32.516 3.5111 32.4327C3.5111 32.0994 3.51113 31.5994 3.41409 31.2661C3.41409 31.2661 3.41409 31.1828 3.41409 31.0994C3.41409 31.1828 3.60816 31.2661 3.80225 31.3494C5.16082 32.0994 7.00461 32.266 8.65431 32.4327C8.65431 32.4327 8.55726 32.5994 8.46022 32.6827C8.26613 32.6827 8.1691 32.6827 8.07206 32.8493C8.07206 32.9327 8.07206 33.0994 8.07206 33.0994C7.10164 33.4327 5.74305 33.766 4.96672 34.3493C4.09335 35.0159 4.28746 35.4325 5.35491 35.7659C5.35491 35.7659 5.54898 35.7659 5.64602 35.7659C5.64602 35.7659 5.54897 35.8492 5.45193 35.9325C5.06377 35.9325 4.86969 36.0992 5.06377 36.4325C5.06377 36.4325 4.96675 36.5158 4.86971 36.5992C4.48154 35.6825 4.19039 34.7659 3.99631 33.766H3.60815ZM4.57857 36.6825C4.57857 36.6825 4.67562 36.5158 4.77266 36.5158C4.77266 36.5158 4.86968 36.5992 4.96672 36.6825L5.93714 37.4324C5.54897 37.2658 5.16082 37.1825 4.77266 37.0991C4.77266 37.0158 4.77265 36.8491 4.67561 36.7658L4.57857 36.6825ZM3.99631 37.3491C3.99631 37.3491 3.99631 37.3491 3.99631 37.4324V37.3491ZM4.86971 37.3491C4.96675 37.3491 5.06378 37.3491 5.16082 37.4324C5.84011 37.5991 6.42235 37.9324 7.0046 38.1824L6.22828 38.849C5.93715 38.6824 5.64604 38.5157 5.35491 38.3491C5.16083 38.0158 5.06379 37.6824 4.86971 37.3491ZM3.80225 37.5991L4.3845 38.0991V38.2657C4.09338 38.1824 3.80225 38.0158 3.41409 38.0158C3.51113 37.8491 3.60816 37.7658 3.7052 37.5991H3.80225ZM3.21999 38.3491C3.7052 38.3491 4.19041 38.3491 4.67561 38.5157C4.77265 38.7657 4.96674 39.099 5.16082 39.349C5.16082 39.5157 5.35489 39.6823 5.45193 39.7657C4.6756 39.349 3.89929 38.9324 3.31704 38.2657L3.21999 38.3491ZM3.0259 38.599C3.31702 38.9324 3.89928 39.4323 4.19041 39.5157L2.92888 39.1824C2.83184 39.1824 2.73478 39.1824 2.63774 39.1824C2.83182 39.0157 2.92886 38.849 3.12295 38.599H3.0259ZM2.34663 39.5157C2.34663 39.4323 2.73479 39.5157 2.83183 39.5157C3.51112 39.5157 4.77267 40.0157 5.84012 40.599C5.93716 40.7656 6.13124 41.0989 6.32533 41.2656C6.51941 41.5989 6.81051 41.8489 7.0046 42.1822C6.13123 41.8489 5.16081 41.3489 4.48152 41.0156C3.70519 40.599 2.92887 40.099 2.34663 39.599V39.5157ZM2.15253 39.6823C2.34662 39.9323 2.63776 40.1823 2.92888 40.349C2.92888 40.349 2.24958 40.099 1.76437 40.1823C1.86141 40.0157 2.05549 39.849 2.15253 39.6823ZM1.76437 40.599C1.76437 40.5156 2.15254 40.599 2.24958 40.599C3.51112 40.6823 6.90757 42.3488 7.6839 43.1821C7.6839 43.1821 7.87796 43.4321 7.87796 43.5155C7.87796 43.5155 7.4898 43.5155 7.39276 43.5155C6.42234 43.2655 4.86968 42.5155 3.99631 42.0989C3.21998 41.6822 2.44367 41.1822 1.86142 40.6823L1.76437 40.599ZM1.47326 40.6823C1.66734 41.0989 2.63775 41.5989 2.83183 41.7656C2.34663 41.7656 1.86142 41.5156 1.37621 41.4322C1.18213 41.4322 0.988043 41.4322 0.793961 41.4322C0.988043 41.1823 1.18213 40.8489 1.37621 40.599L1.47326 40.6823ZM1.95847 42.5988C1.86143 42.5988 0.988055 41.9322 0.988055 41.8489C0.988055 41.8489 1.18213 41.8489 1.27917 41.8489C2.44366 41.8489 6.13123 43.4321 7.0046 44.1821C7.0046 44.1821 7.19869 44.4321 7.19869 44.5154C7.19869 44.6821 6.51941 44.5154 6.32533 44.5154C4.96675 44.0988 3.12296 43.3488 1.95847 42.6822V42.5988ZM0.696914 43.2655C0.696914 43.2655 0.211719 42.9322 0.405802 42.8488C0.599884 42.8488 0.793973 42.8488 0.988055 42.8488C2.15255 43.0155 5.64604 44.5154 6.32533 45.3487C6.81053 45.932 5.8401 45.5987 5.54898 45.5154C4.1904 45.0987 1.76437 44.0154 0.696914 43.1821V43.2655Z" fill="url(#paint0_linear_7158_86057)"/>
<defs>
<linearGradient id="paint0_linear_7158_86057" x1="23.3854" y1="23.3553" x2="17.1908" y2="57.0406" gradientUnits="userSpaceOnUse">
<stop stop-color="#30A2D7"/>
<stop offset="0.2" stop-color="#30A2D7"/>
<stop offset="0.3" stop-color="#30A2D7" stop-opacity="0.9"/>
<stop offset="0.4" stop-color="#30A2D7" stop-opacity="0.8"/>
<stop offset="0.6" stop-color="#30A2D7" stop-opacity="0.7"/>
<stop offset="0.7" stop-color="#30A2D7" stop-opacity="0.6"/>
<stop offset="0.8" stop-color="#30A2D7" stop-opacity="0.4"/>
<stop offset="0.9" stop-color="#30A2D7" stop-opacity="0.2"/>
<stop offset="1" stop-color="#30A2D7" stop-opacity="0"/>
</linearGradient>
</defs>
</svg>
